G04 #@! TF.GenerationSoftware,KiCad,Pcbnew,5.1.5-1.fc31*
G04 #@! TF.CreationDate,2020-05-07T20:20:34-05:00*
G04 #@! TF.ProjectId,BackPanel,4261636b-5061-46e6-956c-2e6b69636164,B*
G04 #@! TF.SameCoordinates,Original*
G04 #@! TF.FileFunction,Copper,L1,Top*
G04 #@! TF.FilePolarity,Positive*
%FSLAX46Y46*%
G04 Gerber Fmt 4.6, Leading zero omitted, Abs format (unit mm)*
G04 Created by KiCad (PCBNEW 5.1.5-1.fc31) date 2020-05-07 20:20:34*
%MOMM*%
%LPD*%
G04 APERTURE LIST*
%ADD10C,4.500000*%
%ADD11C,0.254000*%
G04 APERTURE END LIST*
D10*
X103300000Y-78800000D03*
X167700000Y-97200000D03*
X103300000Y-97200000D03*
X167700000Y-78800000D03*
D11*
G36*
X166509076Y-76163863D02*
G01*
X166100416Y-76382296D01*
X165854265Y-76774660D01*
X167700000Y-78620395D01*
X167714143Y-78606253D01*
X167893748Y-78785858D01*
X167879605Y-78800000D01*
X169725340Y-80645735D01*
X170117704Y-80399584D01*
X170339324Y-79980383D01*
X170340000Y-80008063D01*
X170340001Y-95968581D01*
X170336137Y-96009076D01*
X170117704Y-95600416D01*
X169725340Y-95354265D01*
X167879605Y-97200000D01*
X167893748Y-97214143D01*
X167714143Y-97393748D01*
X167700000Y-97379605D01*
X165854265Y-99225340D01*
X166100416Y-99617704D01*
X166519617Y-99839324D01*
X166491937Y-99840000D01*
X104531409Y-99840000D01*
X104490924Y-99836137D01*
X104899584Y-99617704D01*
X105145735Y-99225340D01*
X103300000Y-97379605D01*
X103285858Y-97393748D01*
X103106253Y-97214143D01*
X103120395Y-97200000D01*
X103479605Y-97200000D01*
X105325340Y-99045735D01*
X105717704Y-98799584D01*
X105983312Y-98297178D01*
X106145801Y-97752607D01*
X106196449Y-97213199D01*
X164801072Y-97213199D01*
X164859348Y-97778498D01*
X165026790Y-98321566D01*
X165282296Y-98799584D01*
X165674660Y-99045735D01*
X167520395Y-97200000D01*
X165674660Y-95354265D01*
X165282296Y-95600416D01*
X165016688Y-96102822D01*
X164854199Y-96647393D01*
X164801072Y-97213199D01*
X106196449Y-97213199D01*
X106198928Y-97186801D01*
X106140652Y-96621502D01*
X105973210Y-96078434D01*
X105717704Y-95600416D01*
X105325340Y-95354265D01*
X103479605Y-97200000D01*
X103120395Y-97200000D01*
X101274660Y-95354265D01*
X100882296Y-95600416D01*
X100660676Y-96019617D01*
X100660000Y-95991937D01*
X100660000Y-95174660D01*
X101454265Y-95174660D01*
X103300000Y-97020395D01*
X105145735Y-95174660D01*
X165854265Y-95174660D01*
X167700000Y-97020395D01*
X169545735Y-95174660D01*
X169299584Y-94782296D01*
X168797178Y-94516688D01*
X168252607Y-94354199D01*
X167686801Y-94301072D01*
X167121502Y-94359348D01*
X166578434Y-94526790D01*
X166100416Y-94782296D01*
X165854265Y-95174660D01*
X105145735Y-95174660D01*
X104899584Y-94782296D01*
X104397178Y-94516688D01*
X103852607Y-94354199D01*
X103286801Y-94301072D01*
X102721502Y-94359348D01*
X102178434Y-94526790D01*
X101700416Y-94782296D01*
X101454265Y-95174660D01*
X100660000Y-95174660D01*
X100660000Y-90592738D01*
X116365000Y-90592738D01*
X116365000Y-91407262D01*
X116523906Y-92206135D01*
X116835611Y-92958657D01*
X117288136Y-93635909D01*
X117864091Y-94211864D01*
X118541343Y-94664389D01*
X119293865Y-94976094D01*
X120092738Y-95135000D01*
X120907262Y-95135000D01*
X121706135Y-94976094D01*
X122458657Y-94664389D01*
X123135909Y-94211864D01*
X123711864Y-93635909D01*
X124164389Y-92958657D01*
X124476094Y-92206135D01*
X124635000Y-91407262D01*
X124635000Y-90592738D01*
X124476094Y-89793865D01*
X124226162Y-89190475D01*
X130115000Y-89190475D01*
X130115000Y-89709525D01*
X130216261Y-90218601D01*
X130414893Y-90698141D01*
X130703262Y-91129715D01*
X131070285Y-91496738D01*
X131501859Y-91785107D01*
X131981399Y-91983739D01*
X132490475Y-92085000D01*
X133009525Y-92085000D01*
X133518601Y-91983739D01*
X133998141Y-91785107D01*
X134429715Y-91496738D01*
X134796738Y-91129715D01*
X135085107Y-90698141D01*
X135283739Y-90218601D01*
X135385000Y-89709525D01*
X135385000Y-89190475D01*
X135283739Y-88681399D01*
X135085107Y-88201859D01*
X134796738Y-87770285D01*
X134429715Y-87403262D01*
X133998141Y-87114893D01*
X133518601Y-86916261D01*
X133009525Y-86815000D01*
X132490475Y-86815000D01*
X131981399Y-86916261D01*
X131501859Y-87114893D01*
X131070285Y-87403262D01*
X130703262Y-87770285D01*
X130414893Y-88201859D01*
X130216261Y-88681399D01*
X130115000Y-89190475D01*
X124226162Y-89190475D01*
X124164389Y-89041343D01*
X123711864Y-88364091D01*
X123135909Y-87788136D01*
X122458657Y-87335611D01*
X121706135Y-87023906D01*
X120907262Y-86865000D01*
X120092738Y-86865000D01*
X119293865Y-87023906D01*
X118541343Y-87335611D01*
X117864091Y-87788136D01*
X117288136Y-88364091D01*
X116835611Y-89041343D01*
X116523906Y-89793865D01*
X116365000Y-90592738D01*
X100660000Y-90592738D01*
X100660000Y-86152401D01*
X143092759Y-86152401D01*
X143093177Y-86212217D01*
X143092759Y-86272033D01*
X143093658Y-86281205D01*
X143129358Y-86620874D01*
X143141390Y-86679486D01*
X143152595Y-86738231D01*
X143155259Y-86747053D01*
X143256255Y-87073319D01*
X143279435Y-87128462D01*
X143301844Y-87183927D01*
X143306171Y-87192064D01*
X143468616Y-87492500D01*
X143502061Y-87542084D01*
X143534821Y-87592147D01*
X143540646Y-87599288D01*
X143758351Y-87862449D01*
X143800823Y-87904626D01*
X143842651Y-87947339D01*
X143849751Y-87953213D01*
X144114426Y-88169076D01*
X144164250Y-88202179D01*
X144213606Y-88235974D01*
X144221713Y-88240357D01*
X144523274Y-88400701D01*
X144578580Y-88423496D01*
X144633563Y-88447062D01*
X144642366Y-88449787D01*
X144969329Y-88548503D01*
X145028000Y-88560120D01*
X145086521Y-88572559D01*
X145095686Y-88573522D01*
X145435596Y-88606850D01*
X145435598Y-88606850D01*
X145467581Y-88610000D01*
X151032419Y-88610000D01*
X151066138Y-88606679D01*
X151088839Y-88606679D01*
X151098003Y-88605716D01*
X151437414Y-88567645D01*
X151495917Y-88555209D01*
X151554605Y-88543589D01*
X151563408Y-88540864D01*
X151888961Y-88437593D01*
X151943908Y-88414042D01*
X151999249Y-88391233D01*
X152007355Y-88386850D01*
X152306649Y-88222312D01*
X152356005Y-88188517D01*
X152405832Y-88155412D01*
X152412932Y-88149538D01*
X152674567Y-87930000D01*
X152716411Y-87887270D01*
X152758865Y-87845112D01*
X152764689Y-87837970D01*
X152978700Y-87571796D01*
X153011450Y-87521749D01*
X153044906Y-87472148D01*
X153049232Y-87464011D01*
X153207466Y-87161337D01*
X153229862Y-87105905D01*
X153253056Y-87050729D01*
X153255719Y-87041907D01*
X153352150Y-86714262D01*
X153363349Y-86655554D01*
X153375388Y-86596905D01*
X153376287Y-86587733D01*
X153407241Y-86247599D01*
X153406823Y-86187783D01*
X153407241Y-86127967D01*
X153406342Y-86118796D01*
X153370642Y-85779126D01*
X153358610Y-85720514D01*
X153347405Y-85661769D01*
X153344741Y-85652947D01*
X153243745Y-85326681D01*
X153220565Y-85271538D01*
X153198156Y-85216073D01*
X153193829Y-85207936D01*
X153031384Y-84907500D01*
X152997939Y-84857916D01*
X152965179Y-84807853D01*
X152959354Y-84800712D01*
X152741648Y-84537551D01*
X152699212Y-84495410D01*
X152657349Y-84452661D01*
X152650248Y-84446787D01*
X152385574Y-84230924D01*
X152335716Y-84197799D01*
X152286393Y-84164026D01*
X152278287Y-84159643D01*
X151976725Y-83999299D01*
X151921433Y-83976510D01*
X151866437Y-83952938D01*
X151857634Y-83950213D01*
X151530671Y-83851497D01*
X151472000Y-83839880D01*
X151413479Y-83827441D01*
X151404314Y-83826478D01*
X151064404Y-83793150D01*
X151064402Y-83793150D01*
X151032419Y-83790000D01*
X145467581Y-83790000D01*
X145433862Y-83793321D01*
X145411161Y-83793321D01*
X145401996Y-83794284D01*
X145062586Y-83832355D01*
X145004089Y-83844789D01*
X144945395Y-83856411D01*
X144936592Y-83859136D01*
X144611039Y-83962407D01*
X144556092Y-83985958D01*
X144500751Y-84008767D01*
X144492645Y-84013150D01*
X144193351Y-84177688D01*
X144143979Y-84211494D01*
X144094168Y-84244588D01*
X144087068Y-84250462D01*
X143825433Y-84470000D01*
X143783589Y-84512730D01*
X143741135Y-84554888D01*
X143735310Y-84562030D01*
X143521300Y-84828205D01*
X143488547Y-84878257D01*
X143455094Y-84927852D01*
X143450771Y-84935984D01*
X143450768Y-84935988D01*
X143450768Y-84935989D01*
X143292534Y-85238663D01*
X143270138Y-85294095D01*
X143246944Y-85349271D01*
X143244281Y-85358093D01*
X143147850Y-85685738D01*
X143136652Y-85744439D01*
X143124612Y-85803095D01*
X143123713Y-85812266D01*
X143092759Y-86152401D01*
X100660000Y-86152401D01*
X100660000Y-80825340D01*
X101454265Y-80825340D01*
X101700416Y-81217704D01*
X102202822Y-81483312D01*
X102747393Y-81645801D01*
X103313199Y-81698928D01*
X103878498Y-81640652D01*
X104421566Y-81473210D01*
X104899584Y-81217704D01*
X105145735Y-80825340D01*
X165854265Y-80825340D01*
X166100416Y-81217704D01*
X166602822Y-81483312D01*
X167147393Y-81645801D01*
X167713199Y-81698928D01*
X168278498Y-81640652D01*
X168821566Y-81473210D01*
X169299584Y-81217704D01*
X169545735Y-80825340D01*
X167700000Y-78979605D01*
X165854265Y-80825340D01*
X105145735Y-80825340D01*
X103300000Y-78979605D01*
X101454265Y-80825340D01*
X100660000Y-80825340D01*
X100660000Y-80031409D01*
X100663863Y-79990924D01*
X100882296Y-80399584D01*
X101274660Y-80645735D01*
X103120395Y-78800000D01*
X103479605Y-78800000D01*
X105325340Y-80645735D01*
X105717704Y-80399584D01*
X105983312Y-79897178D01*
X106145801Y-79352607D01*
X106196449Y-78813199D01*
X164801072Y-78813199D01*
X164859348Y-79378498D01*
X165026790Y-79921566D01*
X165282296Y-80399584D01*
X165674660Y-80645735D01*
X167520395Y-78800000D01*
X165674660Y-76954265D01*
X165282296Y-77200416D01*
X165016688Y-77702822D01*
X164854199Y-78247393D01*
X164801072Y-78813199D01*
X106196449Y-78813199D01*
X106198928Y-78786801D01*
X106140652Y-78221502D01*
X105973210Y-77678434D01*
X105717704Y-77200416D01*
X105325340Y-76954265D01*
X103479605Y-78800000D01*
X103120395Y-78800000D01*
X103106253Y-78785858D01*
X103285858Y-78606253D01*
X103300000Y-78620395D01*
X105145735Y-76774660D01*
X104899584Y-76382296D01*
X104480383Y-76160676D01*
X104508063Y-76160000D01*
X166468591Y-76160000D01*
X166509076Y-76163863D01*
G37*
X166509076Y-76163863D02*
X166100416Y-76382296D01*
X165854265Y-76774660D01*
X167700000Y-78620395D01*
X167714143Y-78606253D01*
X167893748Y-78785858D01*
X167879605Y-78800000D01*
X169725340Y-80645735D01*
X170117704Y-80399584D01*
X170339324Y-79980383D01*
X170340000Y-80008063D01*
X170340001Y-95968581D01*
X170336137Y-96009076D01*
X170117704Y-95600416D01*
X169725340Y-95354265D01*
X167879605Y-97200000D01*
X167893748Y-97214143D01*
X167714143Y-97393748D01*
X167700000Y-97379605D01*
X165854265Y-99225340D01*
X166100416Y-99617704D01*
X166519617Y-99839324D01*
X166491937Y-99840000D01*
X104531409Y-99840000D01*
X104490924Y-99836137D01*
X104899584Y-99617704D01*
X105145735Y-99225340D01*
X103300000Y-97379605D01*
X103285858Y-97393748D01*
X103106253Y-97214143D01*
X103120395Y-97200000D01*
X103479605Y-97200000D01*
X105325340Y-99045735D01*
X105717704Y-98799584D01*
X105983312Y-98297178D01*
X106145801Y-97752607D01*
X106196449Y-97213199D01*
X164801072Y-97213199D01*
X164859348Y-97778498D01*
X165026790Y-98321566D01*
X165282296Y-98799584D01*
X165674660Y-99045735D01*
X167520395Y-97200000D01*
X165674660Y-95354265D01*
X165282296Y-95600416D01*
X165016688Y-96102822D01*
X164854199Y-96647393D01*
X164801072Y-97213199D01*
X106196449Y-97213199D01*
X106198928Y-97186801D01*
X106140652Y-96621502D01*
X105973210Y-96078434D01*
X105717704Y-95600416D01*
X105325340Y-95354265D01*
X103479605Y-97200000D01*
X103120395Y-97200000D01*
X101274660Y-95354265D01*
X100882296Y-95600416D01*
X100660676Y-96019617D01*
X100660000Y-95991937D01*
X100660000Y-95174660D01*
X101454265Y-95174660D01*
X103300000Y-97020395D01*
X105145735Y-95174660D01*
X165854265Y-95174660D01*
X167700000Y-97020395D01*
X169545735Y-95174660D01*
X169299584Y-94782296D01*
X168797178Y-94516688D01*
X168252607Y-94354199D01*
X167686801Y-94301072D01*
X167121502Y-94359348D01*
X166578434Y-94526790D01*
X166100416Y-94782296D01*
X165854265Y-95174660D01*
X105145735Y-95174660D01*
X104899584Y-94782296D01*
X104397178Y-94516688D01*
X103852607Y-94354199D01*
X103286801Y-94301072D01*
X102721502Y-94359348D01*
X102178434Y-94526790D01*
X101700416Y-94782296D01*
X101454265Y-95174660D01*
X100660000Y-95174660D01*
X100660000Y-90592738D01*
X116365000Y-90592738D01*
X116365000Y-91407262D01*
X116523906Y-92206135D01*
X116835611Y-92958657D01*
X117288136Y-93635909D01*
X117864091Y-94211864D01*
X118541343Y-94664389D01*
X119293865Y-94976094D01*
X120092738Y-95135000D01*
X120907262Y-95135000D01*
X121706135Y-94976094D01*
X122458657Y-94664389D01*
X123135909Y-94211864D01*
X123711864Y-93635909D01*
X124164389Y-92958657D01*
X124476094Y-92206135D01*
X124635000Y-91407262D01*
X124635000Y-90592738D01*
X124476094Y-89793865D01*
X124226162Y-89190475D01*
X130115000Y-89190475D01*
X130115000Y-89709525D01*
X130216261Y-90218601D01*
X130414893Y-90698141D01*
X130703262Y-91129715D01*
X131070285Y-91496738D01*
X131501859Y-91785107D01*
X131981399Y-91983739D01*
X132490475Y-92085000D01*
X133009525Y-92085000D01*
X133518601Y-91983739D01*
X133998141Y-91785107D01*
X134429715Y-91496738D01*
X134796738Y-91129715D01*
X135085107Y-90698141D01*
X135283739Y-90218601D01*
X135385000Y-89709525D01*
X135385000Y-89190475D01*
X135283739Y-88681399D01*
X135085107Y-88201859D01*
X134796738Y-87770285D01*
X134429715Y-87403262D01*
X133998141Y-87114893D01*
X133518601Y-86916261D01*
X133009525Y-86815000D01*
X132490475Y-86815000D01*
X131981399Y-86916261D01*
X131501859Y-87114893D01*
X131070285Y-87403262D01*
X130703262Y-87770285D01*
X130414893Y-88201859D01*
X130216261Y-88681399D01*
X130115000Y-89190475D01*
X124226162Y-89190475D01*
X124164389Y-89041343D01*
X123711864Y-88364091D01*
X123135909Y-87788136D01*
X122458657Y-87335611D01*
X121706135Y-87023906D01*
X120907262Y-86865000D01*
X120092738Y-86865000D01*
X119293865Y-87023906D01*
X118541343Y-87335611D01*
X117864091Y-87788136D01*
X117288136Y-88364091D01*
X116835611Y-89041343D01*
X116523906Y-89793865D01*
X116365000Y-90592738D01*
X100660000Y-90592738D01*
X100660000Y-86152401D01*
X143092759Y-86152401D01*
X143093177Y-86212217D01*
X143092759Y-86272033D01*
X143093658Y-86281205D01*
X143129358Y-86620874D01*
X143141390Y-86679486D01*
X143152595Y-86738231D01*
X143155259Y-86747053D01*
X143256255Y-87073319D01*
X143279435Y-87128462D01*
X143301844Y-87183927D01*
X143306171Y-87192064D01*
X143468616Y-87492500D01*
X143502061Y-87542084D01*
X143534821Y-87592147D01*
X143540646Y-87599288D01*
X143758351Y-87862449D01*
X143800823Y-87904626D01*
X143842651Y-87947339D01*
X143849751Y-87953213D01*
X144114426Y-88169076D01*
X144164250Y-88202179D01*
X144213606Y-88235974D01*
X144221713Y-88240357D01*
X144523274Y-88400701D01*
X144578580Y-88423496D01*
X144633563Y-88447062D01*
X144642366Y-88449787D01*
X144969329Y-88548503D01*
X145028000Y-88560120D01*
X145086521Y-88572559D01*
X145095686Y-88573522D01*
X145435596Y-88606850D01*
X145435598Y-88606850D01*
X145467581Y-88610000D01*
X151032419Y-88610000D01*
X151066138Y-88606679D01*
X151088839Y-88606679D01*
X151098003Y-88605716D01*
X151437414Y-88567645D01*
X151495917Y-88555209D01*
X151554605Y-88543589D01*
X151563408Y-88540864D01*
X151888961Y-88437593D01*
X151943908Y-88414042D01*
X151999249Y-88391233D01*
X152007355Y-88386850D01*
X152306649Y-88222312D01*
X152356005Y-88188517D01*
X152405832Y-88155412D01*
X152412932Y-88149538D01*
X152674567Y-87930000D01*
X152716411Y-87887270D01*
X152758865Y-87845112D01*
X152764689Y-87837970D01*
X152978700Y-87571796D01*
X153011450Y-87521749D01*
X153044906Y-87472148D01*
X153049232Y-87464011D01*
X153207466Y-87161337D01*
X153229862Y-87105905D01*
X153253056Y-87050729D01*
X153255719Y-87041907D01*
X153352150Y-86714262D01*
X153363349Y-86655554D01*
X153375388Y-86596905D01*
X153376287Y-86587733D01*
X153407241Y-86247599D01*
X153406823Y-86187783D01*
X153407241Y-86127967D01*
X153406342Y-86118796D01*
X153370642Y-85779126D01*
X153358610Y-85720514D01*
X153347405Y-85661769D01*
X153344741Y-85652947D01*
X153243745Y-85326681D01*
X153220565Y-85271538D01*
X153198156Y-85216073D01*
X153193829Y-85207936D01*
X153031384Y-84907500D01*
X152997939Y-84857916D01*
X152965179Y-84807853D01*
X152959354Y-84800712D01*
X152741648Y-84537551D01*
X152699212Y-84495410D01*
X152657349Y-84452661D01*
X152650248Y-84446787D01*
X152385574Y-84230924D01*
X152335716Y-84197799D01*
X152286393Y-84164026D01*
X152278287Y-84159643D01*
X151976725Y-83999299D01*
X151921433Y-83976510D01*
X151866437Y-83952938D01*
X151857634Y-83950213D01*
X151530671Y-83851497D01*
X151472000Y-83839880D01*
X151413479Y-83827441D01*
X151404314Y-83826478D01*
X151064404Y-83793150D01*
X151064402Y-83793150D01*
X151032419Y-83790000D01*
X145467581Y-83790000D01*
X145433862Y-83793321D01*
X145411161Y-83793321D01*
X145401996Y-83794284D01*
X145062586Y-83832355D01*
X145004089Y-83844789D01*
X144945395Y-83856411D01*
X144936592Y-83859136D01*
X144611039Y-83962407D01*
X144556092Y-83985958D01*
X144500751Y-84008767D01*
X144492645Y-84013150D01*
X144193351Y-84177688D01*
X144143979Y-84211494D01*
X144094168Y-84244588D01*
X144087068Y-84250462D01*
X143825433Y-84470000D01*
X143783589Y-84512730D01*
X143741135Y-84554888D01*
X143735310Y-84562030D01*
X143521300Y-84828205D01*
X143488547Y-84878257D01*
X143455094Y-84927852D01*
X143450771Y-84935984D01*
X143450768Y-84935988D01*
X143450768Y-84935989D01*
X143292534Y-85238663D01*
X143270138Y-85294095D01*
X143246944Y-85349271D01*
X143244281Y-85358093D01*
X143147850Y-85685738D01*
X143136652Y-85744439D01*
X143124612Y-85803095D01*
X143123713Y-85812266D01*
X143092759Y-86152401D01*
X100660000Y-86152401D01*
X100660000Y-80825340D01*
X101454265Y-80825340D01*
X101700416Y-81217704D01*
X102202822Y-81483312D01*
X102747393Y-81645801D01*
X103313199Y-81698928D01*
X103878498Y-81640652D01*
X104421566Y-81473210D01*
X104899584Y-81217704D01*
X105145735Y-80825340D01*
X165854265Y-80825340D01*
X166100416Y-81217704D01*
X166602822Y-81483312D01*
X167147393Y-81645801D01*
X167713199Y-81698928D01*
X168278498Y-81640652D01*
X168821566Y-81473210D01*
X169299584Y-81217704D01*
X169545735Y-80825340D01*
X167700000Y-78979605D01*
X165854265Y-80825340D01*
X105145735Y-80825340D01*
X103300000Y-78979605D01*
X101454265Y-80825340D01*
X100660000Y-80825340D01*
X100660000Y-80031409D01*
X100663863Y-79990924D01*
X100882296Y-80399584D01*
X101274660Y-80645735D01*
X103120395Y-78800000D01*
X103479605Y-78800000D01*
X105325340Y-80645735D01*
X105717704Y-80399584D01*
X105983312Y-79897178D01*
X106145801Y-79352607D01*
X106196449Y-78813199D01*
X164801072Y-78813199D01*
X164859348Y-79378498D01*
X165026790Y-79921566D01*
X165282296Y-80399584D01*
X165674660Y-80645735D01*
X167520395Y-78800000D01*
X165674660Y-76954265D01*
X165282296Y-77200416D01*
X165016688Y-77702822D01*
X164854199Y-78247393D01*
X164801072Y-78813199D01*
X106196449Y-78813199D01*
X106198928Y-78786801D01*
X106140652Y-78221502D01*
X105973210Y-77678434D01*
X105717704Y-77200416D01*
X105325340Y-76954265D01*
X103479605Y-78800000D01*
X103120395Y-78800000D01*
X103106253Y-78785858D01*
X103285858Y-78606253D01*
X103300000Y-78620395D01*
X105145735Y-76774660D01*
X104899584Y-76382296D01*
X104480383Y-76160676D01*
X104508063Y-76160000D01*
X166468591Y-76160000D01*
X166509076Y-76163863D01*
M02*
