G04 #@! TF.GenerationSoftware,KiCad,Pcbnew,5.1.5-1.fc31*
G04 #@! TF.CreationDate,2020-05-07T20:20:34-05:00*
G04 #@! TF.ProjectId,BackPanel,4261636b-5061-46e6-956c-2e6b69636164,B*
G04 #@! TF.SameCoordinates,Original*
G04 #@! TF.FileFunction,Legend,Top*
G04 #@! TF.FilePolarity,Positive*
%FSLAX46Y46*%
G04 Gerber Fmt 4.6, Leading zero omitted, Abs format (unit mm)*
G04 Created by KiCad (PCBNEW 5.1.5-1.fc31) date 2020-05-07 20:20:34*
%MOMM*%
%LPD*%
G04 APERTURE LIST*
%ADD10C,0.150000*%
%ADD11C,0.300000*%
%ADD12C,0.010000*%
%ADD13C,0.500000*%
G04 APERTURE END LIST*
D10*
X144011904Y-82202380D02*
X143535714Y-82202380D01*
X143488095Y-82678571D01*
X143535714Y-82630952D01*
X143630952Y-82583333D01*
X143869047Y-82583333D01*
X143964285Y-82630952D01*
X144011904Y-82678571D01*
X144059523Y-82773809D01*
X144059523Y-83011904D01*
X144011904Y-83107142D01*
X143964285Y-83154761D01*
X143869047Y-83202380D01*
X143630952Y-83202380D01*
X143535714Y-83154761D01*
X143488095Y-83107142D01*
X144345238Y-82202380D02*
X144678571Y-83202380D01*
X145011904Y-82202380D01*
X145345238Y-83202380D02*
X145345238Y-82202380D01*
X145583333Y-82202380D01*
X145726190Y-82250000D01*
X145821428Y-82345238D01*
X145869047Y-82440476D01*
X145916666Y-82630952D01*
X145916666Y-82773809D01*
X145869047Y-82964285D01*
X145821428Y-83059523D01*
X145726190Y-83154761D01*
X145583333Y-83202380D01*
X145345238Y-83202380D01*
X146916666Y-83107142D02*
X146869047Y-83154761D01*
X146726190Y-83202380D01*
X146630952Y-83202380D01*
X146488095Y-83154761D01*
X146392857Y-83059523D01*
X146345238Y-82964285D01*
X146297619Y-82773809D01*
X146297619Y-82630952D01*
X146345238Y-82440476D01*
X146392857Y-82345238D01*
X146488095Y-82250000D01*
X146630952Y-82202380D01*
X146726190Y-82202380D01*
X146869047Y-82250000D01*
X146916666Y-82297619D01*
X148059523Y-82154761D02*
X147202380Y-83440476D01*
X148869047Y-82202380D02*
X148392857Y-82202380D01*
X148345238Y-82678571D01*
X148392857Y-82630952D01*
X148488095Y-82583333D01*
X148726190Y-82583333D01*
X148821428Y-82630952D01*
X148869047Y-82678571D01*
X148916666Y-82773809D01*
X148916666Y-83011904D01*
X148869047Y-83107142D01*
X148821428Y-83154761D01*
X148726190Y-83202380D01*
X148488095Y-83202380D01*
X148392857Y-83154761D01*
X148345238Y-83107142D01*
X149535714Y-82202380D02*
X149630952Y-82202380D01*
X149726190Y-82250000D01*
X149773809Y-82297619D01*
X149821428Y-82392857D01*
X149869047Y-82583333D01*
X149869047Y-82821428D01*
X149821428Y-83011904D01*
X149773809Y-83107142D01*
X149726190Y-83154761D01*
X149630952Y-83202380D01*
X149535714Y-83202380D01*
X149440476Y-83154761D01*
X149392857Y-83107142D01*
X149345238Y-83011904D01*
X149297619Y-82821428D01*
X149297619Y-82583333D01*
X149345238Y-82392857D01*
X149392857Y-82297619D01*
X149440476Y-82250000D01*
X149535714Y-82202380D01*
X150488095Y-82202380D02*
X150583333Y-82202380D01*
X150678571Y-82250000D01*
X150726190Y-82297619D01*
X150773809Y-82392857D01*
X150821428Y-82583333D01*
X150821428Y-82821428D01*
X150773809Y-83011904D01*
X150726190Y-83107142D01*
X150678571Y-83154761D01*
X150583333Y-83202380D01*
X150488095Y-83202380D01*
X150392857Y-83154761D01*
X150345238Y-83107142D01*
X150297619Y-83011904D01*
X150250000Y-82821428D01*
X150250000Y-82583333D01*
X150297619Y-82392857D01*
X150345238Y-82297619D01*
X150392857Y-82250000D01*
X150488095Y-82202380D01*
X151250000Y-83202380D02*
X151250000Y-82535714D01*
X151250000Y-82630952D02*
X151297619Y-82583333D01*
X151392857Y-82535714D01*
X151535714Y-82535714D01*
X151630952Y-82583333D01*
X151678571Y-82678571D01*
X151678571Y-83202380D01*
X151678571Y-82678571D02*
X151726190Y-82583333D01*
X151821428Y-82535714D01*
X151964285Y-82535714D01*
X152059523Y-82583333D01*
X152107142Y-82678571D01*
X152107142Y-83202380D01*
X152535714Y-82916666D02*
X153011904Y-82916666D01*
X152440476Y-83202380D02*
X152773809Y-82202380D01*
X153107142Y-83202380D01*
D11*
X146357142Y-89428571D02*
X146357142Y-90642857D01*
X146428571Y-90785714D01*
X146500000Y-90857142D01*
X146642857Y-90928571D01*
X146928571Y-90928571D01*
X147071428Y-90857142D01*
X147142857Y-90785714D01*
X147214285Y-90642857D01*
X147214285Y-89428571D01*
X147857142Y-90857142D02*
X148071428Y-90928571D01*
X148428571Y-90928571D01*
X148571428Y-90857142D01*
X148642857Y-90785714D01*
X148714285Y-90642857D01*
X148714285Y-90500000D01*
X148642857Y-90357142D01*
X148571428Y-90285714D01*
X148428571Y-90214285D01*
X148142857Y-90142857D01*
X148000000Y-90071428D01*
X147928571Y-90000000D01*
X147857142Y-89857142D01*
X147857142Y-89714285D01*
X147928571Y-89571428D01*
X148000000Y-89500000D01*
X148142857Y-89428571D01*
X148500000Y-89428571D01*
X148714285Y-89500000D01*
X149857142Y-90142857D02*
X150071428Y-90214285D01*
X150142857Y-90285714D01*
X150214285Y-90428571D01*
X150214285Y-90642857D01*
X150142857Y-90785714D01*
X150071428Y-90857142D01*
X149928571Y-90928571D01*
X149357142Y-90928571D01*
X149357142Y-89428571D01*
X149857142Y-89428571D01*
X150000000Y-89500000D01*
X150071428Y-89571428D01*
X150142857Y-89714285D01*
X150142857Y-89857142D01*
X150071428Y-90000000D01*
X150000000Y-90071428D01*
X149857142Y-90142857D01*
X149357142Y-90142857D01*
D12*
G36*
X161209014Y-81952998D02*
G01*
X161367006Y-81953863D01*
X161481347Y-81956205D01*
X161559407Y-81960762D01*
X161608554Y-81968270D01*
X161636159Y-81979466D01*
X161649592Y-81995088D01*
X161656221Y-82015873D01*
X161656865Y-82018563D01*
X161666935Y-82067113D01*
X161685575Y-82162905D01*
X161710845Y-82295743D01*
X161740807Y-82455431D01*
X161773522Y-82631774D01*
X161774664Y-82637967D01*
X161807433Y-82810782D01*
X161838093Y-82963469D01*
X161864664Y-83086871D01*
X161885167Y-83171831D01*
X161897626Y-83209190D01*
X161898220Y-83209852D01*
X161934919Y-83228095D01*
X162010586Y-83258497D01*
X162108878Y-83294493D01*
X162109425Y-83294685D01*
X162233233Y-83341222D01*
X162379196Y-83400504D01*
X162516781Y-83460109D01*
X162523293Y-83463056D01*
X162747390Y-83564765D01*
X163243619Y-83225897D01*
X163395846Y-83122592D01*
X163533741Y-83030237D01*
X163649315Y-82954084D01*
X163734579Y-82899385D01*
X163781544Y-82871393D01*
X163786004Y-82869317D01*
X163820134Y-82878560D01*
X163883881Y-82923156D01*
X163979731Y-83005209D01*
X164110169Y-83126821D01*
X164243328Y-83256205D01*
X164371694Y-83383702D01*
X164486581Y-83500046D01*
X164581073Y-83598052D01*
X164648253Y-83670536D01*
X164681206Y-83710313D01*
X164682432Y-83712361D01*
X164686074Y-83739656D01*
X164672350Y-83784234D01*
X164637869Y-83852112D01*
X164579239Y-83949311D01*
X164493070Y-84081851D01*
X164378200Y-84252476D01*
X164276254Y-84402655D01*
X164185123Y-84537350D01*
X164110073Y-84648740D01*
X164056369Y-84729005D01*
X164029280Y-84770325D01*
X164027574Y-84773130D01*
X164030882Y-84812721D01*
X164055953Y-84889669D01*
X164097798Y-84989432D01*
X164112712Y-85021291D01*
X164177786Y-85163226D01*
X164247212Y-85324273D01*
X164303609Y-85463621D01*
X164344247Y-85567044D01*
X164376526Y-85645642D01*
X164395178Y-85686720D01*
X164397497Y-85689885D01*
X164431803Y-85695128D01*
X164512669Y-85709494D01*
X164629343Y-85730937D01*
X164771075Y-85757413D01*
X164927110Y-85786877D01*
X165086698Y-85817283D01*
X165239085Y-85846588D01*
X165373521Y-85872745D01*
X165479252Y-85893710D01*
X165545526Y-85907439D01*
X165561782Y-85911320D01*
X165578573Y-85920900D01*
X165591249Y-85942536D01*
X165600378Y-85983531D01*
X165606531Y-86051189D01*
X165610280Y-86152812D01*
X165612192Y-86295703D01*
X165612840Y-86487165D01*
X165612874Y-86565645D01*
X165612874Y-87203906D01*
X165459598Y-87234160D01*
X165374322Y-87250564D01*
X165247070Y-87274509D01*
X165093315Y-87303107D01*
X164928534Y-87333467D01*
X164882989Y-87341806D01*
X164730932Y-87371370D01*
X164598468Y-87400442D01*
X164496714Y-87426329D01*
X164436788Y-87446337D01*
X164426805Y-87452301D01*
X164402293Y-87494534D01*
X164367148Y-87576370D01*
X164328173Y-87681683D01*
X164320442Y-87704368D01*
X164269360Y-87845018D01*
X164205954Y-88003714D01*
X164143904Y-88146225D01*
X164143598Y-88146886D01*
X164040267Y-88370440D01*
X164719961Y-89370232D01*
X164283621Y-89807300D01*
X164151649Y-89937381D01*
X164031279Y-90052048D01*
X163929273Y-90145181D01*
X163852391Y-90210658D01*
X163807393Y-90242357D01*
X163800938Y-90244368D01*
X163763040Y-90228529D01*
X163685708Y-90184496D01*
X163577389Y-90117490D01*
X163446532Y-90032734D01*
X163305052Y-89937816D01*
X163161461Y-89840998D01*
X163033435Y-89756751D01*
X162929105Y-89690258D01*
X162856600Y-89646702D01*
X162824158Y-89631264D01*
X162784576Y-89644328D01*
X162709519Y-89678750D01*
X162614468Y-89727380D01*
X162604392Y-89732785D01*
X162476391Y-89796980D01*
X162388618Y-89828463D01*
X162334028Y-89828798D01*
X162305575Y-89799548D01*
X162305410Y-89799138D01*
X162291188Y-89764498D01*
X162257269Y-89682269D01*
X162206284Y-89558814D01*
X162140862Y-89400498D01*
X162063634Y-89213686D01*
X161977229Y-89004742D01*
X161893551Y-88802446D01*
X161801588Y-88579200D01*
X161717150Y-88372392D01*
X161642769Y-88188362D01*
X161580974Y-88033451D01*
X161534297Y-87913996D01*
X161505268Y-87836339D01*
X161496322Y-87807356D01*
X161518756Y-87774110D01*
X161577439Y-87721123D01*
X161655689Y-87662704D01*
X161878534Y-87477952D01*
X162052718Y-87266182D01*
X162176154Y-87031856D01*
X162246754Y-86779434D01*
X162262431Y-86513377D01*
X162251036Y-86390575D01*
X162188950Y-86135793D01*
X162082023Y-85910801D01*
X161936889Y-85717817D01*
X161760178Y-85559061D01*
X161558522Y-85436750D01*
X161338554Y-85353105D01*
X161106906Y-85310344D01*
X160870209Y-85310687D01*
X160635095Y-85356352D01*
X160408196Y-85449559D01*
X160196144Y-85592527D01*
X160107636Y-85673383D01*
X159937889Y-85881007D01*
X159819699Y-86107895D01*
X159752278Y-86347433D01*
X159734840Y-86593007D01*
X159766598Y-86838003D01*
X159846765Y-87075808D01*
X159974555Y-87299807D01*
X160149180Y-87503387D01*
X160344312Y-87662704D01*
X160425591Y-87723602D01*
X160483009Y-87776015D01*
X160503678Y-87807406D01*
X160492856Y-87841639D01*
X160462077Y-87923419D01*
X160413874Y-88046407D01*
X160350778Y-88204263D01*
X160275322Y-88390649D01*
X160190038Y-88599226D01*
X160106219Y-88802496D01*
X160013745Y-89025933D01*
X159928089Y-89232984D01*
X159851882Y-89417286D01*
X159787753Y-89572475D01*
X159738332Y-89692188D01*
X159706248Y-89770061D01*
X159694359Y-89799138D01*
X159666274Y-89828677D01*
X159611949Y-89828591D01*
X159524395Y-89797326D01*
X159396619Y-89733329D01*
X159395608Y-89732785D01*
X159299402Y-89683121D01*
X159221631Y-89646945D01*
X159177777Y-89631408D01*
X159175842Y-89631264D01*
X159142829Y-89647024D01*
X159069946Y-89690850D01*
X158965322Y-89757557D01*
X158837090Y-89841964D01*
X158694948Y-89937816D01*
X158550233Y-90034867D01*
X158419804Y-90119270D01*
X158312110Y-90185801D01*
X158235598Y-90229238D01*
X158199062Y-90244368D01*
X158165418Y-90224482D01*
X158097776Y-90168903D01*
X158002893Y-90083754D01*
X157887530Y-89975153D01*
X157758445Y-89849221D01*
X157716229Y-89807149D01*
X157279739Y-89369931D01*
X157611977Y-88882340D01*
X157712946Y-88732605D01*
X157801562Y-88598220D01*
X157872854Y-88486969D01*
X157921850Y-88406639D01*
X157943578Y-88365014D01*
X157944215Y-88362053D01*
X157932760Y-88322818D01*
X157901949Y-88243895D01*
X157857116Y-88138509D01*
X157825647Y-88067954D01*
X157766808Y-87932876D01*
X157711396Y-87796409D01*
X157668436Y-87681103D01*
X157656766Y-87645977D01*
X157623611Y-87552174D01*
X157591201Y-87479694D01*
X157573399Y-87452301D01*
X157534114Y-87435536D01*
X157448374Y-87411770D01*
X157327303Y-87383697D01*
X157182027Y-87354009D01*
X157117012Y-87341806D01*
X156951913Y-87311468D01*
X156793552Y-87282093D01*
X156657404Y-87256569D01*
X156558943Y-87237785D01*
X156540402Y-87234160D01*
X156387127Y-87203906D01*
X156387127Y-86565645D01*
X156387471Y-86355770D01*
X156388884Y-86196980D01*
X156391936Y-86081973D01*
X156397197Y-86003446D01*
X156405237Y-85954096D01*
X156416627Y-85926619D01*
X156431937Y-85913713D01*
X156438218Y-85911320D01*
X156476104Y-85902833D01*
X156559805Y-85885900D01*
X156678567Y-85862566D01*
X156821639Y-85834875D01*
X156978268Y-85804873D01*
X157137703Y-85774604D01*
X157289191Y-85746115D01*
X157421981Y-85721449D01*
X157525319Y-85702651D01*
X157588455Y-85691767D01*
X157602503Y-85689885D01*
X157615230Y-85664704D01*
X157643400Y-85597622D01*
X157681748Y-85501333D01*
X157696391Y-85463621D01*
X157755452Y-85317921D01*
X157825000Y-85156951D01*
X157887288Y-85021291D01*
X157933121Y-84917561D01*
X157963613Y-84832326D01*
X157973792Y-84780126D01*
X157972169Y-84773130D01*
X157950657Y-84740102D01*
X157901535Y-84666643D01*
X157830077Y-84560577D01*
X157741555Y-84429726D01*
X157641241Y-84281912D01*
X157621406Y-84252734D01*
X157505012Y-84079863D01*
X157419452Y-83948226D01*
X157361316Y-83851761D01*
X157327192Y-83784408D01*
X157313669Y-83740106D01*
X157317336Y-83712794D01*
X157317430Y-83712620D01*
X157346293Y-83676746D01*
X157410133Y-83607391D01*
X157502031Y-83511745D01*
X157615067Y-83396999D01*
X157742321Y-83270341D01*
X157756672Y-83256205D01*
X157917043Y-83100903D01*
X158040805Y-82986870D01*
X158130445Y-82912002D01*
X158188448Y-82874196D01*
X158213996Y-82869317D01*
X158251282Y-82890603D01*
X158328657Y-82939773D01*
X158438133Y-83011575D01*
X158571720Y-83100755D01*
X158721430Y-83202063D01*
X158756382Y-83225897D01*
X159252610Y-83564765D01*
X159476707Y-83463056D01*
X159612989Y-83403783D01*
X159759276Y-83344170D01*
X159885035Y-83296640D01*
X159890575Y-83294685D01*
X159988943Y-83258677D01*
X160064771Y-83228229D01*
X160101718Y-83209905D01*
X160101780Y-83209852D01*
X160113504Y-83176729D01*
X160133432Y-83095267D01*
X160159587Y-82974625D01*
X160189990Y-82823959D01*
X160222663Y-82652428D01*
X160225336Y-82637967D01*
X160258110Y-82461235D01*
X160288198Y-82300810D01*
X160313661Y-82166888D01*
X160332559Y-82069663D01*
X160342953Y-82019332D01*
X160343135Y-82018563D01*
X160349461Y-81997153D01*
X160361761Y-81980988D01*
X160387406Y-81969331D01*
X160433765Y-81961445D01*
X160508208Y-81956593D01*
X160618105Y-81954039D01*
X160770825Y-81953045D01*
X160973738Y-81952874D01*
X161000000Y-81952874D01*
X161209014Y-81952998D01*
G37*
X161209014Y-81952998D02*
X161367006Y-81953863D01*
X161481347Y-81956205D01*
X161559407Y-81960762D01*
X161608554Y-81968270D01*
X161636159Y-81979466D01*
X161649592Y-81995088D01*
X161656221Y-82015873D01*
X161656865Y-82018563D01*
X161666935Y-82067113D01*
X161685575Y-82162905D01*
X161710845Y-82295743D01*
X161740807Y-82455431D01*
X161773522Y-82631774D01*
X161774664Y-82637967D01*
X161807433Y-82810782D01*
X161838093Y-82963469D01*
X161864664Y-83086871D01*
X161885167Y-83171831D01*
X161897626Y-83209190D01*
X161898220Y-83209852D01*
X161934919Y-83228095D01*
X162010586Y-83258497D01*
X162108878Y-83294493D01*
X162109425Y-83294685D01*
X162233233Y-83341222D01*
X162379196Y-83400504D01*
X162516781Y-83460109D01*
X162523293Y-83463056D01*
X162747390Y-83564765D01*
X163243619Y-83225897D01*
X163395846Y-83122592D01*
X163533741Y-83030237D01*
X163649315Y-82954084D01*
X163734579Y-82899385D01*
X163781544Y-82871393D01*
X163786004Y-82869317D01*
X163820134Y-82878560D01*
X163883881Y-82923156D01*
X163979731Y-83005209D01*
X164110169Y-83126821D01*
X164243328Y-83256205D01*
X164371694Y-83383702D01*
X164486581Y-83500046D01*
X164581073Y-83598052D01*
X164648253Y-83670536D01*
X164681206Y-83710313D01*
X164682432Y-83712361D01*
X164686074Y-83739656D01*
X164672350Y-83784234D01*
X164637869Y-83852112D01*
X164579239Y-83949311D01*
X164493070Y-84081851D01*
X164378200Y-84252476D01*
X164276254Y-84402655D01*
X164185123Y-84537350D01*
X164110073Y-84648740D01*
X164056369Y-84729005D01*
X164029280Y-84770325D01*
X164027574Y-84773130D01*
X164030882Y-84812721D01*
X164055953Y-84889669D01*
X164097798Y-84989432D01*
X164112712Y-85021291D01*
X164177786Y-85163226D01*
X164247212Y-85324273D01*
X164303609Y-85463621D01*
X164344247Y-85567044D01*
X164376526Y-85645642D01*
X164395178Y-85686720D01*
X164397497Y-85689885D01*
X164431803Y-85695128D01*
X164512669Y-85709494D01*
X164629343Y-85730937D01*
X164771075Y-85757413D01*
X164927110Y-85786877D01*
X165086698Y-85817283D01*
X165239085Y-85846588D01*
X165373521Y-85872745D01*
X165479252Y-85893710D01*
X165545526Y-85907439D01*
X165561782Y-85911320D01*
X165578573Y-85920900D01*
X165591249Y-85942536D01*
X165600378Y-85983531D01*
X165606531Y-86051189D01*
X165610280Y-86152812D01*
X165612192Y-86295703D01*
X165612840Y-86487165D01*
X165612874Y-86565645D01*
X165612874Y-87203906D01*
X165459598Y-87234160D01*
X165374322Y-87250564D01*
X165247070Y-87274509D01*
X165093315Y-87303107D01*
X164928534Y-87333467D01*
X164882989Y-87341806D01*
X164730932Y-87371370D01*
X164598468Y-87400442D01*
X164496714Y-87426329D01*
X164436788Y-87446337D01*
X164426805Y-87452301D01*
X164402293Y-87494534D01*
X164367148Y-87576370D01*
X164328173Y-87681683D01*
X164320442Y-87704368D01*
X164269360Y-87845018D01*
X164205954Y-88003714D01*
X164143904Y-88146225D01*
X164143598Y-88146886D01*
X164040267Y-88370440D01*
X164719961Y-89370232D01*
X164283621Y-89807300D01*
X164151649Y-89937381D01*
X164031279Y-90052048D01*
X163929273Y-90145181D01*
X163852391Y-90210658D01*
X163807393Y-90242357D01*
X163800938Y-90244368D01*
X163763040Y-90228529D01*
X163685708Y-90184496D01*
X163577389Y-90117490D01*
X163446532Y-90032734D01*
X163305052Y-89937816D01*
X163161461Y-89840998D01*
X163033435Y-89756751D01*
X162929105Y-89690258D01*
X162856600Y-89646702D01*
X162824158Y-89631264D01*
X162784576Y-89644328D01*
X162709519Y-89678750D01*
X162614468Y-89727380D01*
X162604392Y-89732785D01*
X162476391Y-89796980D01*
X162388618Y-89828463D01*
X162334028Y-89828798D01*
X162305575Y-89799548D01*
X162305410Y-89799138D01*
X162291188Y-89764498D01*
X162257269Y-89682269D01*
X162206284Y-89558814D01*
X162140862Y-89400498D01*
X162063634Y-89213686D01*
X161977229Y-89004742D01*
X161893551Y-88802446D01*
X161801588Y-88579200D01*
X161717150Y-88372392D01*
X161642769Y-88188362D01*
X161580974Y-88033451D01*
X161534297Y-87913996D01*
X161505268Y-87836339D01*
X161496322Y-87807356D01*
X161518756Y-87774110D01*
X161577439Y-87721123D01*
X161655689Y-87662704D01*
X161878534Y-87477952D01*
X162052718Y-87266182D01*
X162176154Y-87031856D01*
X162246754Y-86779434D01*
X162262431Y-86513377D01*
X162251036Y-86390575D01*
X162188950Y-86135793D01*
X162082023Y-85910801D01*
X161936889Y-85717817D01*
X161760178Y-85559061D01*
X161558522Y-85436750D01*
X161338554Y-85353105D01*
X161106906Y-85310344D01*
X160870209Y-85310687D01*
X160635095Y-85356352D01*
X160408196Y-85449559D01*
X160196144Y-85592527D01*
X160107636Y-85673383D01*
X159937889Y-85881007D01*
X159819699Y-86107895D01*
X159752278Y-86347433D01*
X159734840Y-86593007D01*
X159766598Y-86838003D01*
X159846765Y-87075808D01*
X159974555Y-87299807D01*
X160149180Y-87503387D01*
X160344312Y-87662704D01*
X160425591Y-87723602D01*
X160483009Y-87776015D01*
X160503678Y-87807406D01*
X160492856Y-87841639D01*
X160462077Y-87923419D01*
X160413874Y-88046407D01*
X160350778Y-88204263D01*
X160275322Y-88390649D01*
X160190038Y-88599226D01*
X160106219Y-88802496D01*
X160013745Y-89025933D01*
X159928089Y-89232984D01*
X159851882Y-89417286D01*
X159787753Y-89572475D01*
X159738332Y-89692188D01*
X159706248Y-89770061D01*
X159694359Y-89799138D01*
X159666274Y-89828677D01*
X159611949Y-89828591D01*
X159524395Y-89797326D01*
X159396619Y-89733329D01*
X159395608Y-89732785D01*
X159299402Y-89683121D01*
X159221631Y-89646945D01*
X159177777Y-89631408D01*
X159175842Y-89631264D01*
X159142829Y-89647024D01*
X159069946Y-89690850D01*
X158965322Y-89757557D01*
X158837090Y-89841964D01*
X158694948Y-89937816D01*
X158550233Y-90034867D01*
X158419804Y-90119270D01*
X158312110Y-90185801D01*
X158235598Y-90229238D01*
X158199062Y-90244368D01*
X158165418Y-90224482D01*
X158097776Y-90168903D01*
X158002893Y-90083754D01*
X157887530Y-89975153D01*
X157758445Y-89849221D01*
X157716229Y-89807149D01*
X157279739Y-89369931D01*
X157611977Y-88882340D01*
X157712946Y-88732605D01*
X157801562Y-88598220D01*
X157872854Y-88486969D01*
X157921850Y-88406639D01*
X157943578Y-88365014D01*
X157944215Y-88362053D01*
X157932760Y-88322818D01*
X157901949Y-88243895D01*
X157857116Y-88138509D01*
X157825647Y-88067954D01*
X157766808Y-87932876D01*
X157711396Y-87796409D01*
X157668436Y-87681103D01*
X157656766Y-87645977D01*
X157623611Y-87552174D01*
X157591201Y-87479694D01*
X157573399Y-87452301D01*
X157534114Y-87435536D01*
X157448374Y-87411770D01*
X157327303Y-87383697D01*
X157182027Y-87354009D01*
X157117012Y-87341806D01*
X156951913Y-87311468D01*
X156793552Y-87282093D01*
X156657404Y-87256569D01*
X156558943Y-87237785D01*
X156540402Y-87234160D01*
X156387127Y-87203906D01*
X156387127Y-86565645D01*
X156387471Y-86355770D01*
X156388884Y-86196980D01*
X156391936Y-86081973D01*
X156397197Y-86003446D01*
X156405237Y-85954096D01*
X156416627Y-85926619D01*
X156431937Y-85913713D01*
X156438218Y-85911320D01*
X156476104Y-85902833D01*
X156559805Y-85885900D01*
X156678567Y-85862566D01*
X156821639Y-85834875D01*
X156978268Y-85804873D01*
X157137703Y-85774604D01*
X157289191Y-85746115D01*
X157421981Y-85721449D01*
X157525319Y-85702651D01*
X157588455Y-85691767D01*
X157602503Y-85689885D01*
X157615230Y-85664704D01*
X157643400Y-85597622D01*
X157681748Y-85501333D01*
X157696391Y-85463621D01*
X157755452Y-85317921D01*
X157825000Y-85156951D01*
X157887288Y-85021291D01*
X157933121Y-84917561D01*
X157963613Y-84832326D01*
X157973792Y-84780126D01*
X157972169Y-84773130D01*
X157950657Y-84740102D01*
X157901535Y-84666643D01*
X157830077Y-84560577D01*
X157741555Y-84429726D01*
X157641241Y-84281912D01*
X157621406Y-84252734D01*
X157505012Y-84079863D01*
X157419452Y-83948226D01*
X157361316Y-83851761D01*
X157327192Y-83784408D01*
X157313669Y-83740106D01*
X157317336Y-83712794D01*
X157317430Y-83712620D01*
X157346293Y-83676746D01*
X157410133Y-83607391D01*
X157502031Y-83511745D01*
X157615067Y-83396999D01*
X157742321Y-83270341D01*
X157756672Y-83256205D01*
X157917043Y-83100903D01*
X158040805Y-82986870D01*
X158130445Y-82912002D01*
X158188448Y-82874196D01*
X158213996Y-82869317D01*
X158251282Y-82890603D01*
X158328657Y-82939773D01*
X158438133Y-83011575D01*
X158571720Y-83100755D01*
X158721430Y-83202063D01*
X158756382Y-83225897D01*
X159252610Y-83564765D01*
X159476707Y-83463056D01*
X159612989Y-83403783D01*
X159759276Y-83344170D01*
X159885035Y-83296640D01*
X159890575Y-83294685D01*
X159988943Y-83258677D01*
X160064771Y-83228229D01*
X160101718Y-83209905D01*
X160101780Y-83209852D01*
X160113504Y-83176729D01*
X160133432Y-83095267D01*
X160159587Y-82974625D01*
X160189990Y-82823959D01*
X160222663Y-82652428D01*
X160225336Y-82637967D01*
X160258110Y-82461235D01*
X160288198Y-82300810D01*
X160313661Y-82166888D01*
X160332559Y-82069663D01*
X160342953Y-82019332D01*
X160343135Y-82018563D01*
X160349461Y-81997153D01*
X160361761Y-81980988D01*
X160387406Y-81969331D01*
X160433765Y-81961445D01*
X160508208Y-81956593D01*
X160618105Y-81954039D01*
X160770825Y-81953045D01*
X160973738Y-81952874D01*
X161000000Y-81952874D01*
X161209014Y-81952998D01*
G36*
X167343439Y-91456540D02*
G01*
X167458950Y-91532034D01*
X167514664Y-91599617D01*
X167558804Y-91722255D01*
X167562309Y-91819298D01*
X167554368Y-91949056D01*
X167255115Y-92080039D01*
X167109611Y-92146958D01*
X167014537Y-92200790D01*
X166965101Y-92247416D01*
X166956511Y-92292720D01*
X166983972Y-92342582D01*
X167014253Y-92375632D01*
X167102363Y-92428633D01*
X167198196Y-92432347D01*
X167286212Y-92391041D01*
X167350869Y-92308983D01*
X167362433Y-92280008D01*
X167417825Y-92189509D01*
X167481553Y-92150940D01*
X167568966Y-92117946D01*
X167568966Y-92243034D01*
X167561238Y-92328156D01*
X167530966Y-92399938D01*
X167467518Y-92482356D01*
X167458088Y-92493066D01*
X167387513Y-92566391D01*
X167326847Y-92605742D01*
X167250950Y-92623845D01*
X167188030Y-92629774D01*
X167075487Y-92631251D01*
X166995370Y-92612535D01*
X166945390Y-92584747D01*
X166866838Y-92523641D01*
X166812463Y-92457554D01*
X166778052Y-92374441D01*
X166759388Y-92262254D01*
X166752256Y-92108946D01*
X166751687Y-92031136D01*
X166753622Y-91937853D01*
X166929899Y-91937853D01*
X166931944Y-91987896D01*
X166937039Y-91996092D01*
X166970666Y-91984958D01*
X167043030Y-91955493D01*
X167139747Y-91913601D01*
X167159973Y-91904597D01*
X167282203Y-91842442D01*
X167349547Y-91787815D01*
X167364348Y-91736649D01*
X167328947Y-91684876D01*
X167299711Y-91662000D01*
X167194216Y-91616250D01*
X167095476Y-91623808D01*
X167012812Y-91679651D01*
X166955548Y-91778753D01*
X166937188Y-91857414D01*
X166929899Y-91937853D01*
X166753622Y-91937853D01*
X166755459Y-91849351D01*
X166769359Y-91714853D01*
X166796894Y-91616916D01*
X166841572Y-91544811D01*
X166906901Y-91487813D01*
X166935383Y-91469393D01*
X167064763Y-91421422D01*
X167206412Y-91418403D01*
X167343439Y-91456540D01*
G37*
X167343439Y-91456540D02*
X167458950Y-91532034D01*
X167514664Y-91599617D01*
X167558804Y-91722255D01*
X167562309Y-91819298D01*
X167554368Y-91949056D01*
X167255115Y-92080039D01*
X167109611Y-92146958D01*
X167014537Y-92200790D01*
X166965101Y-92247416D01*
X166956511Y-92292720D01*
X166983972Y-92342582D01*
X167014253Y-92375632D01*
X167102363Y-92428633D01*
X167198196Y-92432347D01*
X167286212Y-92391041D01*
X167350869Y-92308983D01*
X167362433Y-92280008D01*
X167417825Y-92189509D01*
X167481553Y-92150940D01*
X167568966Y-92117946D01*
X167568966Y-92243034D01*
X167561238Y-92328156D01*
X167530966Y-92399938D01*
X167467518Y-92482356D01*
X167458088Y-92493066D01*
X167387513Y-92566391D01*
X167326847Y-92605742D01*
X167250950Y-92623845D01*
X167188030Y-92629774D01*
X167075487Y-92631251D01*
X166995370Y-92612535D01*
X166945390Y-92584747D01*
X166866838Y-92523641D01*
X166812463Y-92457554D01*
X166778052Y-92374441D01*
X166759388Y-92262254D01*
X166752256Y-92108946D01*
X166751687Y-92031136D01*
X166753622Y-91937853D01*
X166929899Y-91937853D01*
X166931944Y-91987896D01*
X166937039Y-91996092D01*
X166970666Y-91984958D01*
X167043030Y-91955493D01*
X167139747Y-91913601D01*
X167159973Y-91904597D01*
X167282203Y-91842442D01*
X167349547Y-91787815D01*
X167364348Y-91736649D01*
X167328947Y-91684876D01*
X167299711Y-91662000D01*
X167194216Y-91616250D01*
X167095476Y-91623808D01*
X167012812Y-91679651D01*
X166955548Y-91778753D01*
X166937188Y-91857414D01*
X166929899Y-91937853D01*
X166753622Y-91937853D01*
X166755459Y-91849351D01*
X166769359Y-91714853D01*
X166796894Y-91616916D01*
X166841572Y-91544811D01*
X166906901Y-91487813D01*
X166935383Y-91469393D01*
X167064763Y-91421422D01*
X167206412Y-91418403D01*
X167343439Y-91456540D01*
G36*
X166335690Y-91440018D02*
G01*
X166370585Y-91455269D01*
X166453877Y-91521235D01*
X166525103Y-91616618D01*
X166569153Y-91718406D01*
X166576322Y-91768587D01*
X166552285Y-91838647D01*
X166499561Y-91875717D01*
X166443031Y-91898164D01*
X166417146Y-91902300D01*
X166404542Y-91872283D01*
X166379654Y-91806961D01*
X166368735Y-91777445D01*
X166307508Y-91675348D01*
X166218861Y-91624423D01*
X166105193Y-91625989D01*
X166096774Y-91627994D01*
X166036088Y-91656767D01*
X165991474Y-91712859D01*
X165961002Y-91803163D01*
X165942744Y-91934571D01*
X165934771Y-92113974D01*
X165934023Y-92209433D01*
X165933652Y-92359913D01*
X165931223Y-92462495D01*
X165924760Y-92527672D01*
X165912288Y-92565938D01*
X165891833Y-92587785D01*
X165861419Y-92603707D01*
X165859661Y-92604509D01*
X165801091Y-92629272D01*
X165772075Y-92638391D01*
X165767616Y-92610822D01*
X165763799Y-92534620D01*
X165760899Y-92419541D01*
X165759191Y-92275341D01*
X165758851Y-92169814D01*
X165760588Y-91965613D01*
X165767382Y-91810697D01*
X165781607Y-91696024D01*
X165805638Y-91612551D01*
X165841848Y-91551236D01*
X165892612Y-91503034D01*
X165942739Y-91469393D01*
X166063275Y-91424619D01*
X166203557Y-91414521D01*
X166335690Y-91440018D01*
G37*
X166335690Y-91440018D02*
X166370585Y-91455269D01*
X166453877Y-91521235D01*
X166525103Y-91616618D01*
X166569153Y-91718406D01*
X166576322Y-91768587D01*
X166552285Y-91838647D01*
X166499561Y-91875717D01*
X166443031Y-91898164D01*
X166417146Y-91902300D01*
X166404542Y-91872283D01*
X166379654Y-91806961D01*
X166368735Y-91777445D01*
X166307508Y-91675348D01*
X166218861Y-91624423D01*
X166105193Y-91625989D01*
X166096774Y-91627994D01*
X166036088Y-91656767D01*
X165991474Y-91712859D01*
X165961002Y-91803163D01*
X165942744Y-91934571D01*
X165934771Y-92113974D01*
X165934023Y-92209433D01*
X165933652Y-92359913D01*
X165931223Y-92462495D01*
X165924760Y-92527672D01*
X165912288Y-92565938D01*
X165891833Y-92587785D01*
X165861419Y-92603707D01*
X165859661Y-92604509D01*
X165801091Y-92629272D01*
X165772075Y-92638391D01*
X165767616Y-92610822D01*
X165763799Y-92534620D01*
X165760899Y-92419541D01*
X165759191Y-92275341D01*
X165758851Y-92169814D01*
X165760588Y-91965613D01*
X165767382Y-91810697D01*
X165781607Y-91696024D01*
X165805638Y-91612551D01*
X165841848Y-91551236D01*
X165892612Y-91503034D01*
X165942739Y-91469393D01*
X166063275Y-91424619D01*
X166203557Y-91414521D01*
X166335690Y-91440018D01*
G36*
X165314406Y-91435156D02*
G01*
X165398469Y-91473393D01*
X165464450Y-91519726D01*
X165512794Y-91571532D01*
X165546172Y-91638363D01*
X165567253Y-91729769D01*
X165578707Y-91855301D01*
X165583203Y-92024508D01*
X165583678Y-92135933D01*
X165583678Y-92570627D01*
X165509316Y-92604509D01*
X165450746Y-92629272D01*
X165421730Y-92638391D01*
X165416179Y-92611257D01*
X165411775Y-92538094D01*
X165409078Y-92431263D01*
X165408506Y-92346437D01*
X165406046Y-92223887D01*
X165399412Y-92126668D01*
X165389726Y-92067134D01*
X165382032Y-92054483D01*
X165330311Y-92067402D01*
X165249117Y-92100539D01*
X165155102Y-92145461D01*
X165064917Y-92193735D01*
X164995215Y-92236928D01*
X164962648Y-92266608D01*
X164962519Y-92266929D01*
X164965320Y-92321857D01*
X164990439Y-92374292D01*
X165034541Y-92416881D01*
X165098909Y-92431126D01*
X165153921Y-92429466D01*
X165231835Y-92428245D01*
X165272732Y-92446498D01*
X165297295Y-92494726D01*
X165300392Y-92503820D01*
X165311040Y-92572598D01*
X165282565Y-92614360D01*
X165208344Y-92634263D01*
X165128168Y-92637944D01*
X164983890Y-92610658D01*
X164909203Y-92571690D01*
X164816963Y-92480148D01*
X164768043Y-92367782D01*
X164763654Y-92249051D01*
X164805001Y-92138411D01*
X164867197Y-92069080D01*
X164929294Y-92030265D01*
X165026895Y-91981125D01*
X165140632Y-91931292D01*
X165159590Y-91923677D01*
X165284521Y-91868545D01*
X165356539Y-91819954D01*
X165379700Y-91771647D01*
X165358064Y-91717370D01*
X165320920Y-91674943D01*
X165233127Y-91622702D01*
X165136530Y-91618784D01*
X165047944Y-91659041D01*
X164984186Y-91739326D01*
X164975817Y-91760040D01*
X164927096Y-91836225D01*
X164855965Y-91892785D01*
X164766207Y-91939201D01*
X164766207Y-91807584D01*
X164771490Y-91727168D01*
X164794142Y-91663786D01*
X164844367Y-91596163D01*
X164892582Y-91544076D01*
X164967554Y-91470322D01*
X165025806Y-91430702D01*
X165088372Y-91414810D01*
X165159193Y-91412184D01*
X165314406Y-91435156D01*
G37*
X165314406Y-91435156D02*
X165398469Y-91473393D01*
X165464450Y-91519726D01*
X165512794Y-91571532D01*
X165546172Y-91638363D01*
X165567253Y-91729769D01*
X165578707Y-91855301D01*
X165583203Y-92024508D01*
X165583678Y-92135933D01*
X165583678Y-92570627D01*
X165509316Y-92604509D01*
X165450746Y-92629272D01*
X165421730Y-92638391D01*
X165416179Y-92611257D01*
X165411775Y-92538094D01*
X165409078Y-92431263D01*
X165408506Y-92346437D01*
X165406046Y-92223887D01*
X165399412Y-92126668D01*
X165389726Y-92067134D01*
X165382032Y-92054483D01*
X165330311Y-92067402D01*
X165249117Y-92100539D01*
X165155102Y-92145461D01*
X165064917Y-92193735D01*
X164995215Y-92236928D01*
X164962648Y-92266608D01*
X164962519Y-92266929D01*
X164965320Y-92321857D01*
X164990439Y-92374292D01*
X165034541Y-92416881D01*
X165098909Y-92431126D01*
X165153921Y-92429466D01*
X165231835Y-92428245D01*
X165272732Y-92446498D01*
X165297295Y-92494726D01*
X165300392Y-92503820D01*
X165311040Y-92572598D01*
X165282565Y-92614360D01*
X165208344Y-92634263D01*
X165128168Y-92637944D01*
X164983890Y-92610658D01*
X164909203Y-92571690D01*
X164816963Y-92480148D01*
X164768043Y-92367782D01*
X164763654Y-92249051D01*
X164805001Y-92138411D01*
X164867197Y-92069080D01*
X164929294Y-92030265D01*
X165026895Y-91981125D01*
X165140632Y-91931292D01*
X165159590Y-91923677D01*
X165284521Y-91868545D01*
X165356539Y-91819954D01*
X165379700Y-91771647D01*
X165358064Y-91717370D01*
X165320920Y-91674943D01*
X165233127Y-91622702D01*
X165136530Y-91618784D01*
X165047944Y-91659041D01*
X164984186Y-91739326D01*
X164975817Y-91760040D01*
X164927096Y-91836225D01*
X164855965Y-91892785D01*
X164766207Y-91939201D01*
X164766207Y-91807584D01*
X164771490Y-91727168D01*
X164794142Y-91663786D01*
X164844367Y-91596163D01*
X164892582Y-91544076D01*
X164967554Y-91470322D01*
X165025806Y-91430702D01*
X165088372Y-91414810D01*
X165159193Y-91412184D01*
X165314406Y-91435156D01*
G36*
X164580124Y-91439840D02*
G01*
X164584579Y-91516653D01*
X164588071Y-91633391D01*
X164590315Y-91780821D01*
X164591035Y-91935455D01*
X164591035Y-92458727D01*
X164498645Y-92551117D01*
X164434978Y-92608047D01*
X164379089Y-92631107D01*
X164302702Y-92629647D01*
X164272380Y-92625934D01*
X164177610Y-92615126D01*
X164099222Y-92608933D01*
X164080115Y-92608361D01*
X164015699Y-92612102D01*
X163923571Y-92621494D01*
X163887850Y-92625934D01*
X163800114Y-92632801D01*
X163741153Y-92617885D01*
X163682690Y-92571835D01*
X163661585Y-92551117D01*
X163569195Y-92458727D01*
X163569195Y-91479947D01*
X163643558Y-91446066D01*
X163707590Y-91420970D01*
X163745052Y-91412184D01*
X163754657Y-91439950D01*
X163763635Y-91517530D01*
X163771386Y-91636348D01*
X163777314Y-91787828D01*
X163780173Y-91915805D01*
X163788161Y-92419425D01*
X163857848Y-92429278D01*
X163921229Y-92422389D01*
X163952286Y-92400083D01*
X163960967Y-92358379D01*
X163968378Y-92269544D01*
X163973931Y-92144834D01*
X163977036Y-91995507D01*
X163977484Y-91918661D01*
X163977931Y-91476287D01*
X164069874Y-91444235D01*
X164134949Y-91422443D01*
X164170347Y-91412281D01*
X164171368Y-91412184D01*
X164174920Y-91439809D01*
X164178823Y-91516411D01*
X164182751Y-91632579D01*
X164186376Y-91778904D01*
X164188908Y-91915805D01*
X164196897Y-92419425D01*
X164372069Y-92419425D01*
X164380107Y-91959965D01*
X164388146Y-91500505D01*
X164473543Y-91456344D01*
X164536593Y-91426019D01*
X164573910Y-91412258D01*
X164574987Y-91412184D01*
X164580124Y-91439840D01*
G37*
X164580124Y-91439840D02*
X164584579Y-91516653D01*
X164588071Y-91633391D01*
X164590315Y-91780821D01*
X164591035Y-91935455D01*
X164591035Y-92458727D01*
X164498645Y-92551117D01*
X164434978Y-92608047D01*
X164379089Y-92631107D01*
X164302702Y-92629647D01*
X164272380Y-92625934D01*
X164177610Y-92615126D01*
X164099222Y-92608933D01*
X164080115Y-92608361D01*
X164015699Y-92612102D01*
X163923571Y-92621494D01*
X163887850Y-92625934D01*
X163800114Y-92632801D01*
X163741153Y-92617885D01*
X163682690Y-92571835D01*
X163661585Y-92551117D01*
X163569195Y-92458727D01*
X163569195Y-91479947D01*
X163643558Y-91446066D01*
X163707590Y-91420970D01*
X163745052Y-91412184D01*
X163754657Y-91439950D01*
X163763635Y-91517530D01*
X163771386Y-91636348D01*
X163777314Y-91787828D01*
X163780173Y-91915805D01*
X163788161Y-92419425D01*
X163857848Y-92429278D01*
X163921229Y-92422389D01*
X163952286Y-92400083D01*
X163960967Y-92358379D01*
X163968378Y-92269544D01*
X163973931Y-92144834D01*
X163977036Y-91995507D01*
X163977484Y-91918661D01*
X163977931Y-91476287D01*
X164069874Y-91444235D01*
X164134949Y-91422443D01*
X164170347Y-91412281D01*
X164171368Y-91412184D01*
X164174920Y-91439809D01*
X164178823Y-91516411D01*
X164182751Y-91632579D01*
X164186376Y-91778904D01*
X164188908Y-91915805D01*
X164196897Y-92419425D01*
X164372069Y-92419425D01*
X164380107Y-91959965D01*
X164388146Y-91500505D01*
X164473543Y-91456344D01*
X164536593Y-91426019D01*
X164573910Y-91412258D01*
X164574987Y-91412184D01*
X164580124Y-91439840D01*
G36*
X163393914Y-91654455D02*
G01*
X163393543Y-91872661D01*
X163392108Y-92040519D01*
X163389002Y-92166070D01*
X163383622Y-92257355D01*
X163375362Y-92322415D01*
X163363616Y-92369291D01*
X163347781Y-92406024D01*
X163335790Y-92426991D01*
X163236490Y-92540694D01*
X163110588Y-92611965D01*
X162971291Y-92637538D01*
X162831805Y-92614150D01*
X162748743Y-92572119D01*
X162661545Y-92499411D01*
X162602117Y-92410612D01*
X162566261Y-92294320D01*
X162549781Y-92139135D01*
X162547447Y-92025287D01*
X162547761Y-92017106D01*
X162751724Y-92017106D01*
X162752970Y-92147657D01*
X162758678Y-92234080D01*
X162771804Y-92290618D01*
X162795306Y-92331514D01*
X162823386Y-92362362D01*
X162917688Y-92421905D01*
X163018940Y-92426992D01*
X163114636Y-92377279D01*
X163122084Y-92370543D01*
X163153874Y-92335502D01*
X163173808Y-92293811D01*
X163184600Y-92231762D01*
X163188965Y-92135644D01*
X163189655Y-92029379D01*
X163188159Y-91895880D01*
X163181964Y-91806822D01*
X163168514Y-91748293D01*
X163145251Y-91706382D01*
X163126175Y-91684123D01*
X163037563Y-91627985D01*
X162935508Y-91621235D01*
X162838095Y-91664114D01*
X162819296Y-91680032D01*
X162787293Y-91715382D01*
X162767318Y-91757502D01*
X162756593Y-91820251D01*
X162752339Y-91917487D01*
X162751724Y-92017106D01*
X162547761Y-92017106D01*
X162554504Y-91841947D01*
X162578472Y-91704195D01*
X162623548Y-91600632D01*
X162693928Y-91519856D01*
X162748743Y-91478455D01*
X162848376Y-91433728D01*
X162963855Y-91412967D01*
X163071199Y-91418525D01*
X163131264Y-91440943D01*
X163154835Y-91447323D01*
X163170477Y-91423535D01*
X163181395Y-91359788D01*
X163189655Y-91262687D01*
X163198699Y-91154541D01*
X163211261Y-91089475D01*
X163234119Y-91052268D01*
X163274051Y-91027699D01*
X163299138Y-91016819D01*
X163394023Y-90977072D01*
X163393914Y-91654455D01*
G37*
X163393914Y-91654455D02*
X163393543Y-91872661D01*
X163392108Y-92040519D01*
X163389002Y-92166070D01*
X163383622Y-92257355D01*
X163375362Y-92322415D01*
X163363616Y-92369291D01*
X163347781Y-92406024D01*
X163335790Y-92426991D01*
X163236490Y-92540694D01*
X163110588Y-92611965D01*
X162971291Y-92637538D01*
X162831805Y-92614150D01*
X162748743Y-92572119D01*
X162661545Y-92499411D01*
X162602117Y-92410612D01*
X162566261Y-92294320D01*
X162549781Y-92139135D01*
X162547447Y-92025287D01*
X162547761Y-92017106D01*
X162751724Y-92017106D01*
X162752970Y-92147657D01*
X162758678Y-92234080D01*
X162771804Y-92290618D01*
X162795306Y-92331514D01*
X162823386Y-92362362D01*
X162917688Y-92421905D01*
X163018940Y-92426992D01*
X163114636Y-92377279D01*
X163122084Y-92370543D01*
X163153874Y-92335502D01*
X163173808Y-92293811D01*
X163184600Y-92231762D01*
X163188965Y-92135644D01*
X163189655Y-92029379D01*
X163188159Y-91895880D01*
X163181964Y-91806822D01*
X163168514Y-91748293D01*
X163145251Y-91706382D01*
X163126175Y-91684123D01*
X163037563Y-91627985D01*
X162935508Y-91621235D01*
X162838095Y-91664114D01*
X162819296Y-91680032D01*
X162787293Y-91715382D01*
X162767318Y-91757502D01*
X162756593Y-91820251D01*
X162752339Y-91917487D01*
X162751724Y-92017106D01*
X162547761Y-92017106D01*
X162554504Y-91841947D01*
X162578472Y-91704195D01*
X162623548Y-91600632D01*
X162693928Y-91519856D01*
X162748743Y-91478455D01*
X162848376Y-91433728D01*
X162963855Y-91412967D01*
X163071199Y-91418525D01*
X163131264Y-91440943D01*
X163154835Y-91447323D01*
X163170477Y-91423535D01*
X163181395Y-91359788D01*
X163189655Y-91262687D01*
X163198699Y-91154541D01*
X163211261Y-91089475D01*
X163234119Y-91052268D01*
X163274051Y-91027699D01*
X163299138Y-91016819D01*
X163394023Y-90977072D01*
X163393914Y-91654455D01*
G36*
X162065943Y-91421920D02*
G01*
X162198565Y-91470859D01*
X162306010Y-91557419D01*
X162348032Y-91618352D01*
X162393843Y-91730161D01*
X162392891Y-91811006D01*
X162344808Y-91865378D01*
X162327017Y-91874624D01*
X162250204Y-91903450D01*
X162210976Y-91896065D01*
X162197689Y-91847658D01*
X162197012Y-91820920D01*
X162172686Y-91722548D01*
X162109281Y-91653734D01*
X162021154Y-91620498D01*
X161922663Y-91628861D01*
X161842602Y-91672296D01*
X161815561Y-91697072D01*
X161796394Y-91727129D01*
X161783446Y-91772565D01*
X161775064Y-91843476D01*
X161769593Y-91949960D01*
X161765378Y-92102112D01*
X161764287Y-92150287D01*
X161760307Y-92315095D01*
X161755781Y-92431088D01*
X161748995Y-92507833D01*
X161738231Y-92554893D01*
X161721773Y-92581835D01*
X161697906Y-92598223D01*
X161682626Y-92605463D01*
X161617733Y-92630220D01*
X161579534Y-92638391D01*
X161566912Y-92611103D01*
X161559208Y-92528603D01*
X161556380Y-92389941D01*
X161558386Y-92194162D01*
X161559011Y-92163965D01*
X161563421Y-91985349D01*
X161568635Y-91854923D01*
X161576055Y-91762492D01*
X161587082Y-91697858D01*
X161603117Y-91650825D01*
X161625561Y-91611196D01*
X161637302Y-91594215D01*
X161704619Y-91519080D01*
X161779910Y-91460638D01*
X161789128Y-91455536D01*
X161924133Y-91415260D01*
X162065943Y-91421920D01*
G37*
X162065943Y-91421920D02*
X162198565Y-91470859D01*
X162306010Y-91557419D01*
X162348032Y-91618352D01*
X162393843Y-91730161D01*
X162392891Y-91811006D01*
X162344808Y-91865378D01*
X162327017Y-91874624D01*
X162250204Y-91903450D01*
X162210976Y-91896065D01*
X162197689Y-91847658D01*
X162197012Y-91820920D01*
X162172686Y-91722548D01*
X162109281Y-91653734D01*
X162021154Y-91620498D01*
X161922663Y-91628861D01*
X161842602Y-91672296D01*
X161815561Y-91697072D01*
X161796394Y-91727129D01*
X161783446Y-91772565D01*
X161775064Y-91843476D01*
X161769593Y-91949960D01*
X161765378Y-92102112D01*
X161764287Y-92150287D01*
X161760307Y-92315095D01*
X161755781Y-92431088D01*
X161748995Y-92507833D01*
X161738231Y-92554893D01*
X161721773Y-92581835D01*
X161697906Y-92598223D01*
X161682626Y-92605463D01*
X161617733Y-92630220D01*
X161579534Y-92638391D01*
X161566912Y-92611103D01*
X161559208Y-92528603D01*
X161556380Y-92389941D01*
X161558386Y-92194162D01*
X161559011Y-92163965D01*
X161563421Y-91985349D01*
X161568635Y-91854923D01*
X161576055Y-91762492D01*
X161587082Y-91697858D01*
X161603117Y-91650825D01*
X161625561Y-91611196D01*
X161637302Y-91594215D01*
X161704619Y-91519080D01*
X161779910Y-91460638D01*
X161789128Y-91455536D01*
X161924133Y-91415260D01*
X162065943Y-91421920D01*
G36*
X161079944Y-91424360D02*
G01*
X161194343Y-91466842D01*
X161195652Y-91467658D01*
X161266403Y-91519730D01*
X161318636Y-91580584D01*
X161355371Y-91659887D01*
X161379634Y-91767309D01*
X161394445Y-91912517D01*
X161402829Y-92105179D01*
X161403564Y-92132628D01*
X161414120Y-92546521D01*
X161325291Y-92592456D01*
X161261018Y-92623498D01*
X161222210Y-92638206D01*
X161220415Y-92638391D01*
X161213700Y-92611250D01*
X161208365Y-92538041D01*
X161205083Y-92431081D01*
X161204368Y-92344469D01*
X161204351Y-92204162D01*
X161197937Y-92116051D01*
X161175580Y-92074025D01*
X161127732Y-92071975D01*
X161044849Y-92103790D01*
X160919713Y-92162272D01*
X160827697Y-92210845D01*
X160780371Y-92252986D01*
X160766458Y-92298916D01*
X160766437Y-92301189D01*
X160789395Y-92380311D01*
X160857370Y-92423055D01*
X160961398Y-92429246D01*
X161036330Y-92428172D01*
X161075839Y-92449753D01*
X161100478Y-92501591D01*
X161114659Y-92567632D01*
X161094223Y-92605104D01*
X161086528Y-92610467D01*
X161014083Y-92632006D01*
X160912633Y-92635055D01*
X160808157Y-92620778D01*
X160734125Y-92594688D01*
X160631772Y-92507785D01*
X160573591Y-92386816D01*
X160562069Y-92292308D01*
X160570862Y-92207062D01*
X160602680Y-92137476D01*
X160665684Y-92075672D01*
X160768031Y-92013772D01*
X160917882Y-91943897D01*
X160927012Y-91939948D01*
X161061997Y-91877588D01*
X161145294Y-91826446D01*
X161180997Y-91780488D01*
X161173203Y-91733683D01*
X161126007Y-91679998D01*
X161111894Y-91667644D01*
X161017359Y-91619741D01*
X160919406Y-91621758D01*
X160834097Y-91668724D01*
X160777496Y-91755669D01*
X160772237Y-91772734D01*
X160721023Y-91855504D01*
X160656037Y-91895372D01*
X160562069Y-91934882D01*
X160562069Y-91832658D01*
X160590653Y-91684072D01*
X160675495Y-91547784D01*
X160719645Y-91502191D01*
X160820005Y-91443674D01*
X160947635Y-91417184D01*
X161079944Y-91424360D01*
G37*
X161079944Y-91424360D02*
X161194343Y-91466842D01*
X161195652Y-91467658D01*
X161266403Y-91519730D01*
X161318636Y-91580584D01*
X161355371Y-91659887D01*
X161379634Y-91767309D01*
X161394445Y-91912517D01*
X161402829Y-92105179D01*
X161403564Y-92132628D01*
X161414120Y-92546521D01*
X161325291Y-92592456D01*
X161261018Y-92623498D01*
X161222210Y-92638206D01*
X161220415Y-92638391D01*
X161213700Y-92611250D01*
X161208365Y-92538041D01*
X161205083Y-92431081D01*
X161204368Y-92344469D01*
X161204351Y-92204162D01*
X161197937Y-92116051D01*
X161175580Y-92074025D01*
X161127732Y-92071975D01*
X161044849Y-92103790D01*
X160919713Y-92162272D01*
X160827697Y-92210845D01*
X160780371Y-92252986D01*
X160766458Y-92298916D01*
X160766437Y-92301189D01*
X160789395Y-92380311D01*
X160857370Y-92423055D01*
X160961398Y-92429246D01*
X161036330Y-92428172D01*
X161075839Y-92449753D01*
X161100478Y-92501591D01*
X161114659Y-92567632D01*
X161094223Y-92605104D01*
X161086528Y-92610467D01*
X161014083Y-92632006D01*
X160912633Y-92635055D01*
X160808157Y-92620778D01*
X160734125Y-92594688D01*
X160631772Y-92507785D01*
X160573591Y-92386816D01*
X160562069Y-92292308D01*
X160570862Y-92207062D01*
X160602680Y-92137476D01*
X160665684Y-92075672D01*
X160768031Y-92013772D01*
X160917882Y-91943897D01*
X160927012Y-91939948D01*
X161061997Y-91877588D01*
X161145294Y-91826446D01*
X161180997Y-91780488D01*
X161173203Y-91733683D01*
X161126007Y-91679998D01*
X161111894Y-91667644D01*
X161017359Y-91619741D01*
X160919406Y-91621758D01*
X160834097Y-91668724D01*
X160777496Y-91755669D01*
X160772237Y-91772734D01*
X160721023Y-91855504D01*
X160656037Y-91895372D01*
X160562069Y-91934882D01*
X160562069Y-91832658D01*
X160590653Y-91684072D01*
X160675495Y-91547784D01*
X160719645Y-91502191D01*
X160820005Y-91443674D01*
X160947635Y-91417184D01*
X161079944Y-91424360D01*
G36*
X159744598Y-91223857D02*
G01*
X159753154Y-91343188D01*
X159762981Y-91413506D01*
X159776599Y-91444179D01*
X159796527Y-91444571D01*
X159802989Y-91440910D01*
X159888940Y-91414398D01*
X160000745Y-91415946D01*
X160114414Y-91443199D01*
X160185510Y-91478455D01*
X160258405Y-91534778D01*
X160311693Y-91598519D01*
X160348275Y-91679510D01*
X160371050Y-91787586D01*
X160382919Y-91932580D01*
X160386782Y-92124326D01*
X160386851Y-92161109D01*
X160386897Y-92574288D01*
X160294954Y-92606339D01*
X160229652Y-92628144D01*
X160193824Y-92638297D01*
X160192770Y-92638391D01*
X160189242Y-92610860D01*
X160186239Y-92534923D01*
X160183990Y-92420565D01*
X160182724Y-92277769D01*
X160182529Y-92190951D01*
X160182123Y-92019773D01*
X160180032Y-91897088D01*
X160174947Y-91813000D01*
X160165560Y-91757614D01*
X160150561Y-91721032D01*
X160128642Y-91693359D01*
X160114957Y-91680032D01*
X160020949Y-91626328D01*
X159918364Y-91622307D01*
X159825290Y-91667725D01*
X159808078Y-91684123D01*
X159782832Y-91714957D01*
X159765320Y-91751531D01*
X159754142Y-91804415D01*
X159747896Y-91884177D01*
X159745182Y-92001385D01*
X159744598Y-92162991D01*
X159744598Y-92574288D01*
X159652655Y-92606339D01*
X159587353Y-92628144D01*
X159551525Y-92638297D01*
X159550471Y-92638391D01*
X159547775Y-92610448D01*
X159545345Y-92531630D01*
X159543278Y-92409453D01*
X159541671Y-92251432D01*
X159540623Y-92065083D01*
X159540231Y-91857920D01*
X159540230Y-91848706D01*
X159540230Y-91059020D01*
X159635115Y-91018997D01*
X159730000Y-90978973D01*
X159744598Y-91223857D01*
G37*
X159744598Y-91223857D02*
X159753154Y-91343188D01*
X159762981Y-91413506D01*
X159776599Y-91444179D01*
X159796527Y-91444571D01*
X159802989Y-91440910D01*
X159888940Y-91414398D01*
X160000745Y-91415946D01*
X160114414Y-91443199D01*
X160185510Y-91478455D01*
X160258405Y-91534778D01*
X160311693Y-91598519D01*
X160348275Y-91679510D01*
X160371050Y-91787586D01*
X160382919Y-91932580D01*
X160386782Y-92124326D01*
X160386851Y-92161109D01*
X160386897Y-92574288D01*
X160294954Y-92606339D01*
X160229652Y-92628144D01*
X160193824Y-92638297D01*
X160192770Y-92638391D01*
X160189242Y-92610860D01*
X160186239Y-92534923D01*
X160183990Y-92420565D01*
X160182724Y-92277769D01*
X160182529Y-92190951D01*
X160182123Y-92019773D01*
X160180032Y-91897088D01*
X160174947Y-91813000D01*
X160165560Y-91757614D01*
X160150561Y-91721032D01*
X160128642Y-91693359D01*
X160114957Y-91680032D01*
X160020949Y-91626328D01*
X159918364Y-91622307D01*
X159825290Y-91667725D01*
X159808078Y-91684123D01*
X159782832Y-91714957D01*
X159765320Y-91751531D01*
X159754142Y-91804415D01*
X159747896Y-91884177D01*
X159745182Y-92001385D01*
X159744598Y-92162991D01*
X159744598Y-92574288D01*
X159652655Y-92606339D01*
X159587353Y-92628144D01*
X159551525Y-92638297D01*
X159550471Y-92638391D01*
X159547775Y-92610448D01*
X159545345Y-92531630D01*
X159543278Y-92409453D01*
X159541671Y-92251432D01*
X159540623Y-92065083D01*
X159540231Y-91857920D01*
X159540230Y-91848706D01*
X159540230Y-91059020D01*
X159635115Y-91018997D01*
X159730000Y-90978973D01*
X159744598Y-91223857D01*
G36*
X157315552Y-91384676D02*
G01*
X157430658Y-91462111D01*
X157519611Y-91573949D01*
X157572749Y-91716265D01*
X157583497Y-91821015D01*
X157582276Y-91864726D01*
X157572056Y-91898194D01*
X157543961Y-91928179D01*
X157489116Y-91961440D01*
X157398645Y-92004738D01*
X157263672Y-92064833D01*
X157262989Y-92065134D01*
X157138751Y-92122037D01*
X157036873Y-92172565D01*
X156967767Y-92211280D01*
X156941846Y-92232740D01*
X156941839Y-92232913D01*
X156964685Y-92279644D01*
X157018109Y-92331154D01*
X157079442Y-92368261D01*
X157110515Y-92375632D01*
X157195289Y-92350138D01*
X157268293Y-92286291D01*
X157303913Y-92216094D01*
X157338180Y-92164343D01*
X157405303Y-92105409D01*
X157484208Y-92054496D01*
X157553821Y-92026809D01*
X157568377Y-92025287D01*
X157584763Y-92050321D01*
X157585750Y-92114311D01*
X157573708Y-92200593D01*
X157551007Y-92292501D01*
X157520014Y-92373369D01*
X157518448Y-92376509D01*
X157425181Y-92506734D01*
X157304304Y-92595311D01*
X157167027Y-92638786D01*
X157024560Y-92633706D01*
X156888112Y-92576616D01*
X156882045Y-92572602D01*
X156774710Y-92475326D01*
X156704132Y-92348409D01*
X156665074Y-92181526D01*
X156659832Y-92134639D01*
X156650548Y-91913329D01*
X156661678Y-91810124D01*
X156941839Y-91810124D01*
X156945479Y-91874503D01*
X156965389Y-91893291D01*
X157015026Y-91879235D01*
X157093267Y-91846009D01*
X157180726Y-91804359D01*
X157182899Y-91803256D01*
X157257030Y-91764265D01*
X157286781Y-91738244D01*
X157279445Y-91710965D01*
X157248553Y-91675121D01*
X157169960Y-91623251D01*
X157085323Y-91619439D01*
X157009403Y-91657189D01*
X156956965Y-91730001D01*
X156941839Y-91810124D01*
X156661678Y-91810124D01*
X156669644Y-91736261D01*
X156718634Y-91595829D01*
X156786836Y-91497447D01*
X156909935Y-91398030D01*
X157045528Y-91348711D01*
X157183955Y-91345568D01*
X157315552Y-91384676D01*
G37*
X157315552Y-91384676D02*
X157430658Y-91462111D01*
X157519611Y-91573949D01*
X157572749Y-91716265D01*
X157583497Y-91821015D01*
X157582276Y-91864726D01*
X157572056Y-91898194D01*
X157543961Y-91928179D01*
X157489116Y-91961440D01*
X157398645Y-92004738D01*
X157263672Y-92064833D01*
X157262989Y-92065134D01*
X157138751Y-92122037D01*
X157036873Y-92172565D01*
X156967767Y-92211280D01*
X156941846Y-92232740D01*
X156941839Y-92232913D01*
X156964685Y-92279644D01*
X157018109Y-92331154D01*
X157079442Y-92368261D01*
X157110515Y-92375632D01*
X157195289Y-92350138D01*
X157268293Y-92286291D01*
X157303913Y-92216094D01*
X157338180Y-92164343D01*
X157405303Y-92105409D01*
X157484208Y-92054496D01*
X157553821Y-92026809D01*
X157568377Y-92025287D01*
X157584763Y-92050321D01*
X157585750Y-92114311D01*
X157573708Y-92200593D01*
X157551007Y-92292501D01*
X157520014Y-92373369D01*
X157518448Y-92376509D01*
X157425181Y-92506734D01*
X157304304Y-92595311D01*
X157167027Y-92638786D01*
X157024560Y-92633706D01*
X156888112Y-92576616D01*
X156882045Y-92572602D01*
X156774710Y-92475326D01*
X156704132Y-92348409D01*
X156665074Y-92181526D01*
X156659832Y-92134639D01*
X156650548Y-91913329D01*
X156661678Y-91810124D01*
X156941839Y-91810124D01*
X156945479Y-91874503D01*
X156965389Y-91893291D01*
X157015026Y-91879235D01*
X157093267Y-91846009D01*
X157180726Y-91804359D01*
X157182899Y-91803256D01*
X157257030Y-91764265D01*
X157286781Y-91738244D01*
X157279445Y-91710965D01*
X157248553Y-91675121D01*
X157169960Y-91623251D01*
X157085323Y-91619439D01*
X157009403Y-91657189D01*
X156956965Y-91730001D01*
X156941839Y-91810124D01*
X156661678Y-91810124D01*
X156669644Y-91736261D01*
X156718634Y-91595829D01*
X156786836Y-91497447D01*
X156909935Y-91398030D01*
X157045528Y-91348711D01*
X157183955Y-91345568D01*
X157315552Y-91384676D01*
G36*
X155048221Y-91366015D02*
G01*
X155185061Y-91437968D01*
X155286051Y-91553766D01*
X155321925Y-91628213D01*
X155349839Y-91739992D01*
X155364129Y-91881227D01*
X155365484Y-92035371D01*
X155354595Y-92185879D01*
X155332153Y-92316205D01*
X155298850Y-92409803D01*
X155288615Y-92425922D01*
X155167382Y-92546249D01*
X155023387Y-92618317D01*
X154867139Y-92639408D01*
X154709148Y-92606802D01*
X154665180Y-92587253D01*
X154579556Y-92527012D01*
X154504408Y-92447135D01*
X154497306Y-92437004D01*
X154468439Y-92388181D01*
X154449357Y-92335990D01*
X154438084Y-92267285D01*
X154432645Y-92168918D01*
X154431062Y-92027744D01*
X154431035Y-91996092D01*
X154431107Y-91986019D01*
X154722989Y-91986019D01*
X154724687Y-92119256D01*
X154731372Y-92207674D01*
X154745425Y-92264785D01*
X154769229Y-92304102D01*
X154781379Y-92317241D01*
X154851236Y-92367172D01*
X154919059Y-92364895D01*
X154987635Y-92321584D01*
X155028535Y-92275346D01*
X155052758Y-92207857D01*
X155066361Y-92101433D01*
X155067294Y-92089020D01*
X155069616Y-91896147D01*
X155045350Y-91752900D01*
X154994824Y-91660160D01*
X154918368Y-91618807D01*
X154891076Y-91616552D01*
X154819411Y-91627893D01*
X154770390Y-91667184D01*
X154740418Y-91742326D01*
X154725899Y-91861222D01*
X154722989Y-91986019D01*
X154431107Y-91986019D01*
X154432122Y-91845659D01*
X154436688Y-91740549D01*
X154446688Y-91667714D01*
X154464079Y-91614108D01*
X154490816Y-91566681D01*
X154496724Y-91557864D01*
X154596032Y-91439007D01*
X154704242Y-91370008D01*
X154835981Y-91342619D01*
X154880717Y-91341281D01*
X155048221Y-91366015D01*
G37*
X155048221Y-91366015D02*
X155185061Y-91437968D01*
X155286051Y-91553766D01*
X155321925Y-91628213D01*
X155349839Y-91739992D01*
X155364129Y-91881227D01*
X155365484Y-92035371D01*
X155354595Y-92185879D01*
X155332153Y-92316205D01*
X155298850Y-92409803D01*
X155288615Y-92425922D01*
X155167382Y-92546249D01*
X155023387Y-92618317D01*
X154867139Y-92639408D01*
X154709148Y-92606802D01*
X154665180Y-92587253D01*
X154579556Y-92527012D01*
X154504408Y-92447135D01*
X154497306Y-92437004D01*
X154468439Y-92388181D01*
X154449357Y-92335990D01*
X154438084Y-92267285D01*
X154432645Y-92168918D01*
X154431062Y-92027744D01*
X154431035Y-91996092D01*
X154431107Y-91986019D01*
X154722989Y-91986019D01*
X154724687Y-92119256D01*
X154731372Y-92207674D01*
X154745425Y-92264785D01*
X154769229Y-92304102D01*
X154781379Y-92317241D01*
X154851236Y-92367172D01*
X154919059Y-92364895D01*
X154987635Y-92321584D01*
X155028535Y-92275346D01*
X155052758Y-92207857D01*
X155066361Y-92101433D01*
X155067294Y-92089020D01*
X155069616Y-91896147D01*
X155045350Y-91752900D01*
X154994824Y-91660160D01*
X154918368Y-91618807D01*
X154891076Y-91616552D01*
X154819411Y-91627893D01*
X154770390Y-91667184D01*
X154740418Y-91742326D01*
X154725899Y-91861222D01*
X154722989Y-91986019D01*
X154431107Y-91986019D01*
X154432122Y-91845659D01*
X154436688Y-91740549D01*
X154446688Y-91667714D01*
X154464079Y-91614108D01*
X154490816Y-91566681D01*
X154496724Y-91557864D01*
X154596032Y-91439007D01*
X154704242Y-91370008D01*
X154835981Y-91342619D01*
X154880717Y-91341281D01*
X155048221Y-91366015D01*
G36*
X158417429Y-91377719D02*
G01*
X158511123Y-91431914D01*
X158576264Y-91485707D01*
X158623907Y-91542066D01*
X158656728Y-91610987D01*
X158677406Y-91702468D01*
X158688620Y-91826506D01*
X158693049Y-91993098D01*
X158693563Y-92112851D01*
X158693563Y-92553659D01*
X158569483Y-92609283D01*
X158445402Y-92664907D01*
X158430805Y-92182095D01*
X158424773Y-92001779D01*
X158418445Y-91870901D01*
X158410606Y-91780511D01*
X158400037Y-91721664D01*
X158385523Y-91685413D01*
X158365848Y-91662810D01*
X158359535Y-91657917D01*
X158263888Y-91619706D01*
X158167207Y-91634827D01*
X158109655Y-91674943D01*
X158086245Y-91703370D01*
X158070039Y-91740672D01*
X158059741Y-91797223D01*
X158054049Y-91883394D01*
X158051664Y-92009558D01*
X158051264Y-92141042D01*
X158051186Y-92305999D01*
X158048361Y-92422761D01*
X158038907Y-92501510D01*
X158018940Y-92552431D01*
X157984576Y-92585706D01*
X157931932Y-92611520D01*
X157861617Y-92638344D01*
X157784820Y-92667542D01*
X157793962Y-92149346D01*
X157797643Y-91962539D01*
X157801950Y-91824490D01*
X157808123Y-91725568D01*
X157817402Y-91656145D01*
X157831027Y-91606590D01*
X157850239Y-91567273D01*
X157873402Y-91532584D01*
X157985152Y-91421770D01*
X158121513Y-91357689D01*
X158269825Y-91342339D01*
X158417429Y-91377719D01*
G37*
X158417429Y-91377719D02*
X158511123Y-91431914D01*
X158576264Y-91485707D01*
X158623907Y-91542066D01*
X158656728Y-91610987D01*
X158677406Y-91702468D01*
X158688620Y-91826506D01*
X158693049Y-91993098D01*
X158693563Y-92112851D01*
X158693563Y-92553659D01*
X158569483Y-92609283D01*
X158445402Y-92664907D01*
X158430805Y-92182095D01*
X158424773Y-92001779D01*
X158418445Y-91870901D01*
X158410606Y-91780511D01*
X158400037Y-91721664D01*
X158385523Y-91685413D01*
X158365848Y-91662810D01*
X158359535Y-91657917D01*
X158263888Y-91619706D01*
X158167207Y-91634827D01*
X158109655Y-91674943D01*
X158086245Y-91703370D01*
X158070039Y-91740672D01*
X158059741Y-91797223D01*
X158054049Y-91883394D01*
X158051664Y-92009558D01*
X158051264Y-92141042D01*
X158051186Y-92305999D01*
X158048361Y-92422761D01*
X158038907Y-92501510D01*
X158018940Y-92552431D01*
X157984576Y-92585706D01*
X157931932Y-92611520D01*
X157861617Y-92638344D01*
X157784820Y-92667542D01*
X157793962Y-92149346D01*
X157797643Y-91962539D01*
X157801950Y-91824490D01*
X157808123Y-91725568D01*
X157817402Y-91656145D01*
X157831027Y-91606590D01*
X157850239Y-91567273D01*
X157873402Y-91532584D01*
X157985152Y-91421770D01*
X158121513Y-91357689D01*
X158269825Y-91342339D01*
X158417429Y-91377719D01*
G36*
X156171900Y-91361903D02*
G01*
X156283450Y-91417522D01*
X156381908Y-91519931D01*
X156409023Y-91557864D01*
X156438562Y-91607500D01*
X156457728Y-91661412D01*
X156468693Y-91733364D01*
X156473629Y-91837122D01*
X156474713Y-91974101D01*
X156469818Y-92161815D01*
X156452804Y-92302758D01*
X156420177Y-92407908D01*
X156368442Y-92488243D01*
X156294104Y-92554741D01*
X156288642Y-92558678D01*
X156215380Y-92598953D01*
X156127160Y-92618880D01*
X156014962Y-92623793D01*
X155832567Y-92623793D01*
X155832491Y-92800857D01*
X155830793Y-92899470D01*
X155820450Y-92957314D01*
X155793422Y-92992006D01*
X155741668Y-93021164D01*
X155729239Y-93027121D01*
X155671077Y-93055039D01*
X155626044Y-93072672D01*
X155592559Y-93074194D01*
X155569038Y-93053781D01*
X155553900Y-93005607D01*
X155545563Y-92923846D01*
X155542444Y-92802672D01*
X155542960Y-92636260D01*
X155545529Y-92418785D01*
X155546332Y-92353736D01*
X155549222Y-92129502D01*
X155551812Y-91982821D01*
X155832414Y-91982821D01*
X155833991Y-92107326D01*
X155841000Y-92188787D01*
X155856858Y-92242515D01*
X155884981Y-92283823D01*
X155904075Y-92303971D01*
X155982135Y-92362921D01*
X156051247Y-92367720D01*
X156122560Y-92319038D01*
X156124368Y-92317241D01*
X156153383Y-92279618D01*
X156171033Y-92228484D01*
X156179936Y-92149738D01*
X156182709Y-92029276D01*
X156182759Y-92002588D01*
X156176058Y-91836583D01*
X156154248Y-91721505D01*
X156114765Y-91651254D01*
X156055044Y-91619729D01*
X156020528Y-91616552D01*
X155938611Y-91631460D01*
X155882421Y-91680548D01*
X155848598Y-91770362D01*
X155833780Y-91907445D01*
X155832414Y-91982821D01*
X155551812Y-91982821D01*
X155552287Y-91955952D01*
X155556247Y-91825382D01*
X155561826Y-91730087D01*
X155569746Y-91662364D01*
X155580731Y-91614507D01*
X155595501Y-91578813D01*
X155614782Y-91547578D01*
X155623049Y-91535824D01*
X155732712Y-91424797D01*
X155871365Y-91361847D01*
X156031754Y-91344297D01*
X156171900Y-91361903D01*
G37*
X156171900Y-91361903D02*
X156283450Y-91417522D01*
X156381908Y-91519931D01*
X156409023Y-91557864D01*
X156438562Y-91607500D01*
X156457728Y-91661412D01*
X156468693Y-91733364D01*
X156473629Y-91837122D01*
X156474713Y-91974101D01*
X156469818Y-92161815D01*
X156452804Y-92302758D01*
X156420177Y-92407908D01*
X156368442Y-92488243D01*
X156294104Y-92554741D01*
X156288642Y-92558678D01*
X156215380Y-92598953D01*
X156127160Y-92618880D01*
X156014962Y-92623793D01*
X155832567Y-92623793D01*
X155832491Y-92800857D01*
X155830793Y-92899470D01*
X155820450Y-92957314D01*
X155793422Y-92992006D01*
X155741668Y-93021164D01*
X155729239Y-93027121D01*
X155671077Y-93055039D01*
X155626044Y-93072672D01*
X155592559Y-93074194D01*
X155569038Y-93053781D01*
X155553900Y-93005607D01*
X155545563Y-92923846D01*
X155542444Y-92802672D01*
X155542960Y-92636260D01*
X155545529Y-92418785D01*
X155546332Y-92353736D01*
X155549222Y-92129502D01*
X155551812Y-91982821D01*
X155832414Y-91982821D01*
X155833991Y-92107326D01*
X155841000Y-92188787D01*
X155856858Y-92242515D01*
X155884981Y-92283823D01*
X155904075Y-92303971D01*
X155982135Y-92362921D01*
X156051247Y-92367720D01*
X156122560Y-92319038D01*
X156124368Y-92317241D01*
X156153383Y-92279618D01*
X156171033Y-92228484D01*
X156179936Y-92149738D01*
X156182709Y-92029276D01*
X156182759Y-92002588D01*
X156176058Y-91836583D01*
X156154248Y-91721505D01*
X156114765Y-91651254D01*
X156055044Y-91619729D01*
X156020528Y-91616552D01*
X155938611Y-91631460D01*
X155882421Y-91680548D01*
X155848598Y-91770362D01*
X155833780Y-91907445D01*
X155832414Y-91982821D01*
X155551812Y-91982821D01*
X155552287Y-91955952D01*
X155556247Y-91825382D01*
X155561826Y-91730087D01*
X155569746Y-91662364D01*
X155580731Y-91614507D01*
X155595501Y-91578813D01*
X155614782Y-91547578D01*
X155623049Y-91535824D01*
X155732712Y-91424797D01*
X155871365Y-91361847D01*
X156031754Y-91344297D01*
X156171900Y-91361903D01*
D11*
X130892857Y-94178571D02*
X130392857Y-93464285D01*
X130035714Y-94178571D02*
X130035714Y-92678571D01*
X130607142Y-92678571D01*
X130750000Y-92750000D01*
X130821428Y-92821428D01*
X130892857Y-92964285D01*
X130892857Y-93178571D01*
X130821428Y-93321428D01*
X130750000Y-93392857D01*
X130607142Y-93464285D01*
X130035714Y-93464285D01*
X132107142Y-94107142D02*
X131964285Y-94178571D01*
X131678571Y-94178571D01*
X131535714Y-94107142D01*
X131464285Y-93964285D01*
X131464285Y-93392857D01*
X131535714Y-93250000D01*
X131678571Y-93178571D01*
X131964285Y-93178571D01*
X132107142Y-93250000D01*
X132178571Y-93392857D01*
X132178571Y-93535714D01*
X131464285Y-93678571D01*
X132750000Y-94107142D02*
X132892857Y-94178571D01*
X133178571Y-94178571D01*
X133321428Y-94107142D01*
X133392857Y-93964285D01*
X133392857Y-93892857D01*
X133321428Y-93750000D01*
X133178571Y-93678571D01*
X132964285Y-93678571D01*
X132821428Y-93607142D01*
X132750000Y-93464285D01*
X132750000Y-93392857D01*
X132821428Y-93250000D01*
X132964285Y-93178571D01*
X133178571Y-93178571D01*
X133321428Y-93250000D01*
X134607142Y-94107142D02*
X134464285Y-94178571D01*
X134178571Y-94178571D01*
X134035714Y-94107142D01*
X133964285Y-93964285D01*
X133964285Y-93392857D01*
X134035714Y-93250000D01*
X134178571Y-93178571D01*
X134464285Y-93178571D01*
X134607142Y-93250000D01*
X134678571Y-93392857D01*
X134678571Y-93535714D01*
X133964285Y-93678571D01*
X135107142Y-93178571D02*
X135678571Y-93178571D01*
X135321428Y-92678571D02*
X135321428Y-93964285D01*
X135392857Y-94107142D01*
X135535714Y-94178571D01*
X135678571Y-94178571D01*
D13*
X117928571Y-97904761D02*
X117261904Y-96952380D01*
X116785714Y-97904761D02*
X116785714Y-95904761D01*
X117547619Y-95904761D01*
X117738095Y-96000000D01*
X117833333Y-96095238D01*
X117928571Y-96285714D01*
X117928571Y-96571428D01*
X117833333Y-96761904D01*
X117738095Y-96857142D01*
X117547619Y-96952380D01*
X116785714Y-96952380D01*
X119642857Y-97904761D02*
X119642857Y-96857142D01*
X119547619Y-96666666D01*
X119357142Y-96571428D01*
X118976190Y-96571428D01*
X118785714Y-96666666D01*
X119642857Y-97809523D02*
X119452380Y-97904761D01*
X118976190Y-97904761D01*
X118785714Y-97809523D01*
X118690476Y-97619047D01*
X118690476Y-97428571D01*
X118785714Y-97238095D01*
X118976190Y-97142857D01*
X119452380Y-97142857D01*
X119642857Y-97047619D01*
X121452380Y-97904761D02*
X121452380Y-95904761D01*
X121452380Y-97809523D02*
X121261904Y-97904761D01*
X120880952Y-97904761D01*
X120690476Y-97809523D01*
X120595238Y-97714285D01*
X120500000Y-97523809D01*
X120500000Y-96952380D01*
X120595238Y-96761904D01*
X120690476Y-96666666D01*
X120880952Y-96571428D01*
X121261904Y-96571428D01*
X121452380Y-96666666D01*
X122404761Y-97904761D02*
X122404761Y-96571428D01*
X122404761Y-95904761D02*
X122309523Y-96000000D01*
X122404761Y-96095238D01*
X122500000Y-96000000D01*
X122404761Y-95904761D01*
X122404761Y-96095238D01*
X123642857Y-97904761D02*
X123452380Y-97809523D01*
X123357142Y-97714285D01*
X123261904Y-97523809D01*
X123261904Y-96952380D01*
X123357142Y-96761904D01*
X123452380Y-96666666D01*
X123642857Y-96571428D01*
X123928571Y-96571428D01*
X124119047Y-96666666D01*
X124214285Y-96761904D01*
X124309523Y-96952380D01*
X124309523Y-97523809D01*
X124214285Y-97714285D01*
X124119047Y-97809523D01*
X123928571Y-97904761D01*
X123642857Y-97904761D01*
M02*
