G04 #@! TF.GenerationSoftware,KiCad,Pcbnew,5.1.5-1.fc31*
G04 #@! TF.CreationDate,2020-05-07T20:20:34-05:00*
G04 #@! TF.ProjectId,BackPanel,4261636b-5061-46e6-956c-2e6b69636164,B*
G04 #@! TF.SameCoordinates,Original*
G04 #@! TF.FileFunction,Legend,Bot*
G04 #@! TF.FilePolarity,Positive*
%FSLAX46Y46*%
G04 Gerber Fmt 4.6, Leading zero omitted, Abs format (unit mm)*
G04 Created by KiCad (PCBNEW 5.1.5-1.fc31) date 2020-05-07 20:20:34*
%MOMM*%
%LPD*%
G04 APERTURE LIST*
%ADD10C,0.150000*%
G04 APERTURE END LIST*
D10*
X118642857Y-98357142D02*
X119642857Y-96928571D01*
X120357142Y-98357142D02*
X120357142Y-95357142D01*
X119214285Y-95357142D01*
X118928571Y-95500000D01*
X118785714Y-95642857D01*
X118642857Y-95928571D01*
X118642857Y-96357142D01*
X118785714Y-96642857D01*
X118928571Y-96785714D01*
X119214285Y-96928571D01*
X120357142Y-96928571D01*
X116214285Y-98214285D02*
X116500000Y-98357142D01*
X117071428Y-98357142D01*
X117357142Y-98214285D01*
X117500000Y-97928571D01*
X117500000Y-96785714D01*
X117357142Y-96500000D01*
X117071428Y-96357142D01*
X116500000Y-96357142D01*
X116214285Y-96500000D01*
X116071428Y-96785714D01*
X116071428Y-97071428D01*
X117500000Y-97357142D01*
X115071428Y-96357142D02*
X114357142Y-98357142D01*
X113642857Y-96357142D01*
X109214285Y-96785714D02*
X108785714Y-96928571D01*
X108642857Y-97071428D01*
X108500000Y-97357142D01*
X108500000Y-97785714D01*
X108642857Y-98071428D01*
X108785714Y-98214285D01*
X109071428Y-98357142D01*
X110214285Y-98357142D01*
X110214285Y-95357142D01*
X109214285Y-95357142D01*
X108928571Y-95500000D01*
X108785714Y-95642857D01*
X108642857Y-95928571D01*
X108642857Y-96214285D01*
X108785714Y-96500000D01*
X108928571Y-96642857D01*
X109214285Y-96785714D01*
X110214285Y-96785714D01*
X160321428Y-96785714D02*
X159892857Y-96928571D01*
X159750000Y-97071428D01*
X159607142Y-97357142D01*
X159607142Y-97785714D01*
X159750000Y-98071428D01*
X159892857Y-98214285D01*
X160178571Y-98357142D01*
X161321428Y-98357142D01*
X161321428Y-95357142D01*
X160321428Y-95357142D01*
X160035714Y-95500000D01*
X159892857Y-95642857D01*
X159750000Y-95928571D01*
X159750000Y-96214285D01*
X159892857Y-96500000D01*
X160035714Y-96642857D01*
X160321428Y-96785714D01*
X161321428Y-96785714D01*
X157035714Y-98357142D02*
X157035714Y-96785714D01*
X157178571Y-96500000D01*
X157464285Y-96357142D01*
X158035714Y-96357142D01*
X158321428Y-96500000D01*
X157035714Y-98214285D02*
X157321428Y-98357142D01*
X158035714Y-98357142D01*
X158321428Y-98214285D01*
X158464285Y-97928571D01*
X158464285Y-97642857D01*
X158321428Y-97357142D01*
X158035714Y-97214285D01*
X157321428Y-97214285D01*
X157035714Y-97071428D01*
X154321428Y-98214285D02*
X154607142Y-98357142D01*
X155178571Y-98357142D01*
X155464285Y-98214285D01*
X155607142Y-98071428D01*
X155750000Y-97785714D01*
X155750000Y-96928571D01*
X155607142Y-96642857D01*
X155464285Y-96500000D01*
X155178571Y-96357142D01*
X154607142Y-96357142D01*
X154321428Y-96500000D01*
X153035714Y-98357142D02*
X153035714Y-95357142D01*
X152750000Y-97214285D02*
X151892857Y-98357142D01*
X151892857Y-96357142D02*
X153035714Y-97500000D01*
X148321428Y-98357142D02*
X148321428Y-95357142D01*
X147178571Y-95357142D01*
X146892857Y-95500000D01*
X146750000Y-95642857D01*
X146607142Y-95928571D01*
X146607142Y-96357142D01*
X146750000Y-96642857D01*
X146892857Y-96785714D01*
X147178571Y-96928571D01*
X148321428Y-96928571D01*
X144035714Y-98357142D02*
X144035714Y-96785714D01*
X144178571Y-96500000D01*
X144464285Y-96357142D01*
X145035714Y-96357142D01*
X145321428Y-96500000D01*
X144035714Y-98214285D02*
X144321428Y-98357142D01*
X145035714Y-98357142D01*
X145321428Y-98214285D01*
X145464285Y-97928571D01*
X145464285Y-97642857D01*
X145321428Y-97357142D01*
X145035714Y-97214285D01*
X144321428Y-97214285D01*
X144035714Y-97071428D01*
X142607142Y-96357142D02*
X142607142Y-98357142D01*
X142607142Y-96642857D02*
X142464285Y-96500000D01*
X142178571Y-96357142D01*
X141750000Y-96357142D01*
X141464285Y-96500000D01*
X141321428Y-96785714D01*
X141321428Y-98357142D01*
X138750000Y-98214285D02*
X139035714Y-98357142D01*
X139607142Y-98357142D01*
X139892857Y-98214285D01*
X140035714Y-97928571D01*
X140035714Y-96785714D01*
X139892857Y-96500000D01*
X139607142Y-96357142D01*
X139035714Y-96357142D01*
X138750000Y-96500000D01*
X138607142Y-96785714D01*
X138607142Y-97071428D01*
X140035714Y-97357142D01*
X136892857Y-98357142D02*
X137178571Y-98214285D01*
X137321428Y-97928571D01*
X137321428Y-95357142D01*
M02*
