G04 #@! TF.GenerationSoftware,KiCad,Pcbnew,5.1.5-1.fc31*
G04 #@! TF.CreationDate,2020-05-07T20:18:55-05:00*
G04 #@! TF.ProjectId,FrontPanel,46726f6e-7450-4616-9e65-6c2e6b696361,B*
G04 #@! TF.SameCoordinates,Original*
G04 #@! TF.FileFunction,Legend,Bot*
G04 #@! TF.FilePolarity,Positive*
%FSLAX46Y46*%
G04 Gerber Fmt 4.6, Leading zero omitted, Abs format (unit mm)*
G04 Created by KiCad (PCBNEW 5.1.5-1.fc31) date 2020-05-07 20:18:55*
%MOMM*%
%LPD*%
G04 APERTURE LIST*
%ADD10C,0.150000*%
G04 APERTURE END LIST*
D10*
X121642857Y-98607142D02*
X122642857Y-97178571D01*
X123357142Y-98607142D02*
X123357142Y-95607142D01*
X122214285Y-95607142D01*
X121928571Y-95750000D01*
X121785714Y-95892857D01*
X121642857Y-96178571D01*
X121642857Y-96607142D01*
X121785714Y-96892857D01*
X121928571Y-97035714D01*
X122214285Y-97178571D01*
X123357142Y-97178571D01*
X119214285Y-98464285D02*
X119500000Y-98607142D01*
X120071428Y-98607142D01*
X120357142Y-98464285D01*
X120500000Y-98178571D01*
X120500000Y-97035714D01*
X120357142Y-96750000D01*
X120071428Y-96607142D01*
X119500000Y-96607142D01*
X119214285Y-96750000D01*
X119071428Y-97035714D01*
X119071428Y-97321428D01*
X120500000Y-97607142D01*
X118071428Y-96607142D02*
X117357142Y-98607142D01*
X116642857Y-96607142D01*
X112214285Y-97035714D02*
X111785714Y-97178571D01*
X111642857Y-97321428D01*
X111500000Y-97607142D01*
X111500000Y-98035714D01*
X111642857Y-98321428D01*
X111785714Y-98464285D01*
X112071428Y-98607142D01*
X113214285Y-98607142D01*
X113214285Y-95607142D01*
X112214285Y-95607142D01*
X111928571Y-95750000D01*
X111785714Y-95892857D01*
X111642857Y-96178571D01*
X111642857Y-96464285D01*
X111785714Y-96750000D01*
X111928571Y-96892857D01*
X112214285Y-97035714D01*
X113214285Y-97035714D01*
X161500000Y-97035714D02*
X162500000Y-97035714D01*
X162500000Y-98607142D02*
X162500000Y-95607142D01*
X161071428Y-95607142D01*
X159928571Y-98607142D02*
X159928571Y-96607142D01*
X159928571Y-97178571D02*
X159785714Y-96892857D01*
X159642857Y-96750000D01*
X159357142Y-96607142D01*
X159071428Y-96607142D01*
X157642857Y-98607142D02*
X157928571Y-98464285D01*
X158071428Y-98321428D01*
X158214285Y-98035714D01*
X158214285Y-97178571D01*
X158071428Y-96892857D01*
X157928571Y-96750000D01*
X157642857Y-96607142D01*
X157214285Y-96607142D01*
X156928571Y-96750000D01*
X156785714Y-96892857D01*
X156642857Y-97178571D01*
X156642857Y-98035714D01*
X156785714Y-98321428D01*
X156928571Y-98464285D01*
X157214285Y-98607142D01*
X157642857Y-98607142D01*
X155357142Y-96607142D02*
X155357142Y-98607142D01*
X155357142Y-96892857D02*
X155214285Y-96750000D01*
X154928571Y-96607142D01*
X154500000Y-96607142D01*
X154214285Y-96750000D01*
X154071428Y-97035714D01*
X154071428Y-98607142D01*
X153071428Y-96607142D02*
X151928571Y-96607142D01*
X152642857Y-95607142D02*
X152642857Y-98178571D01*
X152500000Y-98464285D01*
X152214285Y-98607142D01*
X151928571Y-98607142D01*
X148642857Y-98607142D02*
X148642857Y-95607142D01*
X147500000Y-95607142D01*
X147214285Y-95750000D01*
X147071428Y-95892857D01*
X146928571Y-96178571D01*
X146928571Y-96607142D01*
X147071428Y-96892857D01*
X147214285Y-97035714D01*
X147500000Y-97178571D01*
X148642857Y-97178571D01*
X144357142Y-98607142D02*
X144357142Y-97035714D01*
X144500000Y-96750000D01*
X144785714Y-96607142D01*
X145357142Y-96607142D01*
X145642857Y-96750000D01*
X144357142Y-98464285D02*
X144642857Y-98607142D01*
X145357142Y-98607142D01*
X145642857Y-98464285D01*
X145785714Y-98178571D01*
X145785714Y-97892857D01*
X145642857Y-97607142D01*
X145357142Y-97464285D01*
X144642857Y-97464285D01*
X144357142Y-97321428D01*
X142928571Y-96607142D02*
X142928571Y-98607142D01*
X142928571Y-96892857D02*
X142785714Y-96750000D01*
X142500000Y-96607142D01*
X142071428Y-96607142D01*
X141785714Y-96750000D01*
X141642857Y-97035714D01*
X141642857Y-98607142D01*
X139071428Y-98464285D02*
X139357142Y-98607142D01*
X139928571Y-98607142D01*
X140214285Y-98464285D01*
X140357142Y-98178571D01*
X140357142Y-97035714D01*
X140214285Y-96750000D01*
X139928571Y-96607142D01*
X139357142Y-96607142D01*
X139071428Y-96750000D01*
X138928571Y-97035714D01*
X138928571Y-97321428D01*
X140357142Y-97607142D01*
X137214285Y-98607142D02*
X137500000Y-98464285D01*
X137642857Y-98178571D01*
X137642857Y-95607142D01*
M02*
