G04 #@! TF.GenerationSoftware,KiCad,Pcbnew,5.1.5-1.fc31*
G04 #@! TF.CreationDate,2020-05-07T20:18:55-05:00*
G04 #@! TF.ProjectId,FrontPanel,46726f6e-7450-4616-9e65-6c2e6b696361,B*
G04 #@! TF.SameCoordinates,Original*
G04 #@! TF.FileFunction,Other,Fab,Bot*
%FSLAX46Y46*%
G04 Gerber Fmt 4.6, Leading zero omitted, Abs format (unit mm)*
G04 Created by KiCad (PCBNEW 5.1.5-1.fc31) date 2020-05-07 20:18:55*
%MOMM*%
%LPD*%
G04 APERTURE LIST*
%ADD10C,0.150000*%
G04 APERTURE END LIST*
D10*
X177047619Y-72452380D02*
X177047619Y-71452380D01*
X176666666Y-71452380D01*
X176571428Y-71500000D01*
X176523809Y-71547619D01*
X176476190Y-71642857D01*
X176476190Y-71785714D01*
X176523809Y-71880952D01*
X176571428Y-71928571D01*
X176666666Y-71976190D01*
X177047619Y-71976190D01*
X175904761Y-72452380D02*
X176000000Y-72404761D01*
X176047619Y-72309523D01*
X176047619Y-71452380D01*
X175142857Y-72404761D02*
X175238095Y-72452380D01*
X175428571Y-72452380D01*
X175523809Y-72404761D01*
X175571428Y-72309523D01*
X175571428Y-71928571D01*
X175523809Y-71833333D01*
X175428571Y-71785714D01*
X175238095Y-71785714D01*
X175142857Y-71833333D01*
X175095238Y-71928571D01*
X175095238Y-72023809D01*
X175571428Y-72119047D01*
X174238095Y-72452380D02*
X174238095Y-71928571D01*
X174285714Y-71833333D01*
X174380952Y-71785714D01*
X174571428Y-71785714D01*
X174666666Y-71833333D01*
X174238095Y-72404761D02*
X174333333Y-72452380D01*
X174571428Y-72452380D01*
X174666666Y-72404761D01*
X174714285Y-72309523D01*
X174714285Y-72214285D01*
X174666666Y-72119047D01*
X174571428Y-72071428D01*
X174333333Y-72071428D01*
X174238095Y-72023809D01*
X173809523Y-72404761D02*
X173714285Y-72452380D01*
X173523809Y-72452380D01*
X173428571Y-72404761D01*
X173380952Y-72309523D01*
X173380952Y-72261904D01*
X173428571Y-72166666D01*
X173523809Y-72119047D01*
X173666666Y-72119047D01*
X173761904Y-72071428D01*
X173809523Y-71976190D01*
X173809523Y-71928571D01*
X173761904Y-71833333D01*
X173666666Y-71785714D01*
X173523809Y-71785714D01*
X173428571Y-71833333D01*
X172571428Y-72404761D02*
X172666666Y-72452380D01*
X172857142Y-72452380D01*
X172952380Y-72404761D01*
X173000000Y-72309523D01*
X173000000Y-71928571D01*
X172952380Y-71833333D01*
X172857142Y-71785714D01*
X172666666Y-71785714D01*
X172571428Y-71833333D01*
X172523809Y-71928571D01*
X172523809Y-72023809D01*
X173000000Y-72119047D01*
X171333333Y-71785714D02*
X171333333Y-72785714D01*
X171333333Y-71833333D02*
X171238095Y-71785714D01*
X171047619Y-71785714D01*
X170952380Y-71833333D01*
X170904761Y-71880952D01*
X170857142Y-71976190D01*
X170857142Y-72261904D01*
X170904761Y-72357142D01*
X170952380Y-72404761D01*
X171047619Y-72452380D01*
X171238095Y-72452380D01*
X171333333Y-72404761D01*
X170285714Y-72452380D02*
X170380952Y-72404761D01*
X170428571Y-72309523D01*
X170428571Y-71452380D01*
X169476190Y-72452380D02*
X169476190Y-71928571D01*
X169523809Y-71833333D01*
X169619047Y-71785714D01*
X169809523Y-71785714D01*
X169904761Y-71833333D01*
X169476190Y-72404761D02*
X169571428Y-72452380D01*
X169809523Y-72452380D01*
X169904761Y-72404761D01*
X169952380Y-72309523D01*
X169952380Y-72214285D01*
X169904761Y-72119047D01*
X169809523Y-72071428D01*
X169571428Y-72071428D01*
X169476190Y-72023809D01*
X168571428Y-72404761D02*
X168666666Y-72452380D01*
X168857142Y-72452380D01*
X168952380Y-72404761D01*
X169000000Y-72357142D01*
X169047619Y-72261904D01*
X169047619Y-71976190D01*
X169000000Y-71880952D01*
X168952380Y-71833333D01*
X168857142Y-71785714D01*
X168666666Y-71785714D01*
X168571428Y-71833333D01*
X167761904Y-72404761D02*
X167857142Y-72452380D01*
X168047619Y-72452380D01*
X168142857Y-72404761D01*
X168190476Y-72309523D01*
X168190476Y-71928571D01*
X168142857Y-71833333D01*
X168047619Y-71785714D01*
X167857142Y-71785714D01*
X167761904Y-71833333D01*
X167714285Y-71928571D01*
X167714285Y-72023809D01*
X168190476Y-72119047D01*
X166523809Y-72452380D02*
X166523809Y-71452380D01*
X166142857Y-71452380D01*
X166047619Y-71500000D01*
X166000000Y-71547619D01*
X165952380Y-71642857D01*
X165952380Y-71785714D01*
X166000000Y-71880952D01*
X166047619Y-71928571D01*
X166142857Y-71976190D01*
X166523809Y-71976190D01*
X165523809Y-72452380D02*
X165523809Y-71785714D01*
X165523809Y-71976190D02*
X165476190Y-71880952D01*
X165428571Y-71833333D01*
X165333333Y-71785714D01*
X165238095Y-71785714D01*
X164761904Y-72452380D02*
X164857142Y-72404761D01*
X164904761Y-72357142D01*
X164952380Y-72261904D01*
X164952380Y-71976190D01*
X164904761Y-71880952D01*
X164857142Y-71833333D01*
X164761904Y-71785714D01*
X164619047Y-71785714D01*
X164523809Y-71833333D01*
X164476190Y-71880952D01*
X164428571Y-71976190D01*
X164428571Y-72261904D01*
X164476190Y-72357142D01*
X164523809Y-72404761D01*
X164619047Y-72452380D01*
X164761904Y-72452380D01*
X163571428Y-72452380D02*
X163571428Y-71452380D01*
X163571428Y-72404761D02*
X163666666Y-72452380D01*
X163857142Y-72452380D01*
X163952380Y-72404761D01*
X164000000Y-72357142D01*
X164047619Y-72261904D01*
X164047619Y-71976190D01*
X164000000Y-71880952D01*
X163952380Y-71833333D01*
X163857142Y-71785714D01*
X163666666Y-71785714D01*
X163571428Y-71833333D01*
X162666666Y-71785714D02*
X162666666Y-72452380D01*
X163095238Y-71785714D02*
X163095238Y-72309523D01*
X163047619Y-72404761D01*
X162952380Y-72452380D01*
X162809523Y-72452380D01*
X162714285Y-72404761D01*
X162666666Y-72357142D01*
X161761904Y-72404761D02*
X161857142Y-72452380D01*
X162047619Y-72452380D01*
X162142857Y-72404761D01*
X162190476Y-72357142D01*
X162238095Y-72261904D01*
X162238095Y-71976190D01*
X162190476Y-71880952D01*
X162142857Y-71833333D01*
X162047619Y-71785714D01*
X161857142Y-71785714D01*
X161761904Y-71833333D01*
X161476190Y-71785714D02*
X161095238Y-71785714D01*
X161333333Y-71452380D02*
X161333333Y-72309523D01*
X161285714Y-72404761D01*
X161190476Y-72452380D01*
X161095238Y-72452380D01*
X160761904Y-72452380D02*
X160761904Y-71785714D01*
X160761904Y-71452380D02*
X160809523Y-71500000D01*
X160761904Y-71547619D01*
X160714285Y-71500000D01*
X160761904Y-71452380D01*
X160761904Y-71547619D01*
X160142857Y-72452380D02*
X160238095Y-72404761D01*
X160285714Y-72357142D01*
X160333333Y-72261904D01*
X160333333Y-71976190D01*
X160285714Y-71880952D01*
X160238095Y-71833333D01*
X160142857Y-71785714D01*
X160000000Y-71785714D01*
X159904761Y-71833333D01*
X159857142Y-71880952D01*
X159809523Y-71976190D01*
X159809523Y-72261904D01*
X159857142Y-72357142D01*
X159904761Y-72404761D01*
X160000000Y-72452380D01*
X160142857Y-72452380D01*
X159380952Y-71785714D02*
X159380952Y-72452380D01*
X159380952Y-71880952D02*
X159333333Y-71833333D01*
X159238095Y-71785714D01*
X159095238Y-71785714D01*
X159000000Y-71833333D01*
X158952380Y-71928571D01*
X158952380Y-72452380D01*
X157142857Y-72357142D02*
X157190476Y-72404761D01*
X157333333Y-72452380D01*
X157428571Y-72452380D01*
X157571428Y-72404761D01*
X157666666Y-72309523D01*
X157714285Y-72214285D01*
X157761904Y-72023809D01*
X157761904Y-71880952D01*
X157714285Y-71690476D01*
X157666666Y-71595238D01*
X157571428Y-71500000D01*
X157428571Y-71452380D01*
X157333333Y-71452380D01*
X157190476Y-71500000D01*
X157142857Y-71547619D01*
X156571428Y-72452380D02*
X156666666Y-72404761D01*
X156714285Y-72357142D01*
X156761904Y-72261904D01*
X156761904Y-71976190D01*
X156714285Y-71880952D01*
X156666666Y-71833333D01*
X156571428Y-71785714D01*
X156428571Y-71785714D01*
X156333333Y-71833333D01*
X156285714Y-71880952D01*
X156238095Y-71976190D01*
X156238095Y-72261904D01*
X156285714Y-72357142D01*
X156333333Y-72404761D01*
X156428571Y-72452380D01*
X156571428Y-72452380D01*
X155380952Y-72452380D02*
X155380952Y-71452380D01*
X155380952Y-72404761D02*
X155476190Y-72452380D01*
X155666666Y-72452380D01*
X155761904Y-72404761D01*
X155809523Y-72357142D01*
X155857142Y-72261904D01*
X155857142Y-71976190D01*
X155809523Y-71880952D01*
X155761904Y-71833333D01*
X155666666Y-71785714D01*
X155476190Y-71785714D01*
X155380952Y-71833333D01*
X154523809Y-72404761D02*
X154619047Y-72452380D01*
X154809523Y-72452380D01*
X154904761Y-72404761D01*
X154952380Y-72309523D01*
X154952380Y-71928571D01*
X154904761Y-71833333D01*
X154809523Y-71785714D01*
X154619047Y-71785714D01*
X154523809Y-71833333D01*
X154476190Y-71928571D01*
X154476190Y-72023809D01*
X154952380Y-72119047D01*
X153285714Y-72452380D02*
X153285714Y-71452380D01*
X152857142Y-72452380D02*
X152857142Y-71928571D01*
X152904761Y-71833333D01*
X153000000Y-71785714D01*
X153142857Y-71785714D01*
X153238095Y-71833333D01*
X153285714Y-71880952D01*
X152000000Y-72404761D02*
X152095238Y-72452380D01*
X152285714Y-72452380D01*
X152380952Y-72404761D01*
X152428571Y-72309523D01*
X152428571Y-71928571D01*
X152380952Y-71833333D01*
X152285714Y-71785714D01*
X152095238Y-71785714D01*
X152000000Y-71833333D01*
X151952380Y-71928571D01*
X151952380Y-72023809D01*
X152428571Y-72119047D01*
X151523809Y-72452380D02*
X151523809Y-71785714D01*
X151523809Y-71976190D02*
X151476190Y-71880952D01*
X151428571Y-71833333D01*
X151333333Y-71785714D01*
X151238095Y-71785714D01*
X150523809Y-72404761D02*
X150619047Y-72452380D01*
X150809523Y-72452380D01*
X150904761Y-72404761D01*
X150952380Y-72309523D01*
X150952380Y-71928571D01*
X150904761Y-71833333D01*
X150809523Y-71785714D01*
X150619047Y-71785714D01*
X150523809Y-71833333D01*
X150476190Y-71928571D01*
X150476190Y-72023809D01*
X150952380Y-72119047D01*
X149142857Y-72452380D02*
X149238095Y-72404761D01*
X149285714Y-72357142D01*
X149333333Y-72261904D01*
X149333333Y-71976190D01*
X149285714Y-71880952D01*
X149238095Y-71833333D01*
X149142857Y-71785714D01*
X149000000Y-71785714D01*
X148904761Y-71833333D01*
X148857142Y-71880952D01*
X148809523Y-71976190D01*
X148809523Y-72261904D01*
X148857142Y-72357142D01*
X148904761Y-72404761D01*
X149000000Y-72452380D01*
X149142857Y-72452380D01*
X148380952Y-71785714D02*
X148380952Y-72452380D01*
X148380952Y-71880952D02*
X148333333Y-71833333D01*
X148238095Y-71785714D01*
X148095238Y-71785714D01*
X148000000Y-71833333D01*
X147952380Y-71928571D01*
X147952380Y-72452380D01*
X146714285Y-72452380D02*
X146714285Y-71452380D01*
X146714285Y-71833333D02*
X146619047Y-71785714D01*
X146428571Y-71785714D01*
X146333333Y-71833333D01*
X146285714Y-71880952D01*
X146238095Y-71976190D01*
X146238095Y-72261904D01*
X146285714Y-72357142D01*
X146333333Y-72404761D01*
X146428571Y-72452380D01*
X146619047Y-72452380D01*
X146714285Y-72404761D01*
X145380952Y-72452380D02*
X145380952Y-71928571D01*
X145428571Y-71833333D01*
X145523809Y-71785714D01*
X145714285Y-71785714D01*
X145809523Y-71833333D01*
X145380952Y-72404761D02*
X145476190Y-72452380D01*
X145714285Y-72452380D01*
X145809523Y-72404761D01*
X145857142Y-72309523D01*
X145857142Y-72214285D01*
X145809523Y-72119047D01*
X145714285Y-72071428D01*
X145476190Y-72071428D01*
X145380952Y-72023809D01*
X144476190Y-72404761D02*
X144571428Y-72452380D01*
X144761904Y-72452380D01*
X144857142Y-72404761D01*
X144904761Y-72357142D01*
X144952380Y-72261904D01*
X144952380Y-71976190D01*
X144904761Y-71880952D01*
X144857142Y-71833333D01*
X144761904Y-71785714D01*
X144571428Y-71785714D01*
X144476190Y-71833333D01*
X144047619Y-72452380D02*
X144047619Y-71452380D01*
X143952380Y-72071428D02*
X143666666Y-72452380D01*
X143666666Y-71785714D02*
X144047619Y-72166666D01*
X142523809Y-72404761D02*
X142428571Y-72452380D01*
X142238095Y-72452380D01*
X142142857Y-72404761D01*
X142095238Y-72309523D01*
X142095238Y-72261904D01*
X142142857Y-72166666D01*
X142238095Y-72119047D01*
X142380952Y-72119047D01*
X142476190Y-72071428D01*
X142523809Y-71976190D01*
X142523809Y-71928571D01*
X142476190Y-71833333D01*
X142380952Y-71785714D01*
X142238095Y-71785714D01*
X142142857Y-71833333D01*
X141666666Y-72452380D02*
X141666666Y-71785714D01*
X141666666Y-71452380D02*
X141714285Y-71500000D01*
X141666666Y-71547619D01*
X141619047Y-71500000D01*
X141666666Y-71452380D01*
X141666666Y-71547619D01*
X141047619Y-72452380D02*
X141142857Y-72404761D01*
X141190476Y-72309523D01*
X141190476Y-71452380D01*
X140666666Y-72452380D02*
X140666666Y-71452380D01*
X140571428Y-72071428D02*
X140285714Y-72452380D01*
X140285714Y-71785714D02*
X140666666Y-72166666D01*
X139904761Y-72404761D02*
X139809523Y-72452380D01*
X139619047Y-72452380D01*
X139523809Y-72404761D01*
X139476190Y-72309523D01*
X139476190Y-72261904D01*
X139523809Y-72166666D01*
X139619047Y-72119047D01*
X139761904Y-72119047D01*
X139857142Y-72071428D01*
X139904761Y-71976190D01*
X139904761Y-71928571D01*
X139857142Y-71833333D01*
X139761904Y-71785714D01*
X139619047Y-71785714D01*
X139523809Y-71833333D01*
X138619047Y-72404761D02*
X138714285Y-72452380D01*
X138904761Y-72452380D01*
X139000000Y-72404761D01*
X139047619Y-72357142D01*
X139095238Y-72261904D01*
X139095238Y-71976190D01*
X139047619Y-71880952D01*
X139000000Y-71833333D01*
X138904761Y-71785714D01*
X138714285Y-71785714D01*
X138619047Y-71833333D01*
X138190476Y-72452380D02*
X138190476Y-71785714D01*
X138190476Y-71976190D02*
X138142857Y-71880952D01*
X138095238Y-71833333D01*
X138000000Y-71785714D01*
X137904761Y-71785714D01*
X137190476Y-72404761D02*
X137285714Y-72452380D01*
X137476190Y-72452380D01*
X137571428Y-72404761D01*
X137619047Y-72309523D01*
X137619047Y-71928571D01*
X137571428Y-71833333D01*
X137476190Y-71785714D01*
X137285714Y-71785714D01*
X137190476Y-71833333D01*
X137142857Y-71928571D01*
X137142857Y-72023809D01*
X137619047Y-72119047D01*
X136333333Y-72404761D02*
X136428571Y-72452380D01*
X136619047Y-72452380D01*
X136714285Y-72404761D01*
X136761904Y-72309523D01*
X136761904Y-71928571D01*
X136714285Y-71833333D01*
X136619047Y-71785714D01*
X136428571Y-71785714D01*
X136333333Y-71833333D01*
X136285714Y-71928571D01*
X136285714Y-72023809D01*
X136761904Y-72119047D01*
X135857142Y-71785714D02*
X135857142Y-72452380D01*
X135857142Y-71880952D02*
X135809523Y-71833333D01*
X135714285Y-71785714D01*
X135571428Y-71785714D01*
X135476190Y-71833333D01*
X135428571Y-71928571D01*
X135428571Y-72452380D01*
X134952380Y-72357142D02*
X134904761Y-72404761D01*
X134952380Y-72452380D01*
X135000000Y-72404761D01*
X134952380Y-72357142D01*
X134952380Y-72452380D01*
X154500000Y-76500000D02*
X156500000Y-73000000D01*
X154957738Y-77750000D02*
G75*
G03X154957738Y-77750000I-1457738J0D01*
G01*
M02*
