G04 #@! TF.GenerationSoftware,KiCad,Pcbnew,5.1.5-1.fc31*
G04 #@! TF.CreationDate,2020-05-07T20:18:55-05:00*
G04 #@! TF.ProjectId,FrontPanel,46726f6e-7450-4616-9e65-6c2e6b696361,B*
G04 #@! TF.SameCoordinates,Original*
G04 #@! TF.FileFunction,Legend,Top*
G04 #@! TF.FilePolarity,Positive*
%FSLAX46Y46*%
G04 Gerber Fmt 4.6, Leading zero omitted, Abs format (unit mm)*
G04 Created by KiCad (PCBNEW 5.1.5-1.fc31) date 2020-05-07 20:18:55*
%MOMM*%
%LPD*%
G04 APERTURE LIST*
%ADD10C,0.010000*%
%ADD11C,0.500000*%
G04 APERTURE END LIST*
D10*
G36*
X159479566Y-85287021D02*
G01*
X159572770Y-85328817D01*
X159641089Y-85390670D01*
X159651669Y-85406759D01*
X159670656Y-85449199D01*
X159697550Y-85522430D01*
X159728887Y-85616467D01*
X159761206Y-85721322D01*
X159763765Y-85730000D01*
X159799540Y-85848089D01*
X159830336Y-85933725D01*
X159862268Y-85995308D01*
X159901450Y-86041238D01*
X159953997Y-86079918D01*
X160026022Y-86119747D01*
X160060041Y-86137067D01*
X160226866Y-86239732D01*
X160359432Y-86361063D01*
X160455645Y-86498590D01*
X160513410Y-86649840D01*
X160519760Y-86679367D01*
X160524182Y-86726113D01*
X160527584Y-86812296D01*
X160530014Y-86935034D01*
X160531519Y-87091443D01*
X160532144Y-87278643D01*
X160531938Y-87493749D01*
X160530946Y-87733878D01*
X160529217Y-87996150D01*
X160526796Y-88277680D01*
X160523731Y-88575586D01*
X160520069Y-88886986D01*
X160515856Y-89208996D01*
X160511139Y-89538735D01*
X160505966Y-89873319D01*
X160500383Y-90209866D01*
X160494437Y-90545493D01*
X160488175Y-90877318D01*
X160481645Y-91202458D01*
X160474891Y-91518031D01*
X160467963Y-91821153D01*
X160460906Y-92108942D01*
X160453768Y-92378515D01*
X160446595Y-92626990D01*
X160439435Y-92851484D01*
X160432334Y-93049115D01*
X160425339Y-93217000D01*
X160418497Y-93352256D01*
X160411855Y-93452000D01*
X160409054Y-93483431D01*
X160377381Y-93715727D01*
X160330549Y-93911384D01*
X160265333Y-94073513D01*
X160178509Y-94205221D01*
X160066851Y-94309620D01*
X159927134Y-94389818D01*
X159756132Y-94448925D01*
X159550621Y-94490051D01*
X159340477Y-94513687D01*
X159259607Y-94518357D01*
X159142220Y-94522317D01*
X158994123Y-94525570D01*
X158821126Y-94528119D01*
X158629038Y-94529965D01*
X158423668Y-94531111D01*
X158210825Y-94531559D01*
X157996318Y-94531313D01*
X157785956Y-94530375D01*
X157585547Y-94528747D01*
X157400902Y-94526432D01*
X157237829Y-94523432D01*
X157102137Y-94519750D01*
X156999636Y-94515388D01*
X156958968Y-94512655D01*
X156714698Y-94481965D01*
X156506721Y-94432742D01*
X156332716Y-94363808D01*
X156190361Y-94273981D01*
X156077336Y-94162083D01*
X155991320Y-94026933D01*
X155987255Y-94018654D01*
X155947280Y-93917169D01*
X155908932Y-93785200D01*
X155875055Y-93634580D01*
X155848496Y-93477142D01*
X155839213Y-93402917D01*
X155833355Y-93328170D01*
X155827655Y-93214365D01*
X155822144Y-93064777D01*
X155816854Y-92882681D01*
X155811818Y-92671352D01*
X155807066Y-92434066D01*
X155802631Y-92174096D01*
X155798544Y-91894720D01*
X155794838Y-91599211D01*
X155791543Y-91290844D01*
X155788691Y-90972896D01*
X155786315Y-90648640D01*
X155784445Y-90321352D01*
X155783115Y-89994306D01*
X155782354Y-89670779D01*
X155782196Y-89354046D01*
X155782672Y-89047380D01*
X155783814Y-88754058D01*
X155785652Y-88477354D01*
X155788220Y-88220543D01*
X155788653Y-88185334D01*
X155801316Y-87179917D01*
X156487983Y-87179917D01*
X156502871Y-88502834D01*
X156506028Y-88775254D01*
X156508978Y-89008560D01*
X156511840Y-89205969D01*
X156514731Y-89370700D01*
X156517767Y-89505970D01*
X156521065Y-89614997D01*
X156524743Y-89701000D01*
X156528918Y-89767195D01*
X156533706Y-89816800D01*
X156539224Y-89853034D01*
X156545590Y-89879115D01*
X156552921Y-89898260D01*
X156553672Y-89899834D01*
X156609499Y-89969894D01*
X156704811Y-90030695D01*
X156840042Y-90082382D01*
X157015628Y-90125104D01*
X157232002Y-90159007D01*
X157362167Y-90173334D01*
X157460792Y-90180059D01*
X157592056Y-90184823D01*
X157749187Y-90187725D01*
X157925411Y-90188865D01*
X158113955Y-90188345D01*
X158308049Y-90186263D01*
X158500918Y-90182720D01*
X158685790Y-90177817D01*
X158855893Y-90171654D01*
X159004454Y-90164330D01*
X159124701Y-90155947D01*
X159209861Y-90146604D01*
X159214250Y-90145929D01*
X159315030Y-90129015D01*
X159409784Y-90111324D01*
X159484311Y-90095585D01*
X159510584Y-90089014D01*
X159602144Y-90055699D01*
X159687294Y-90011028D01*
X159754976Y-89961932D01*
X159794137Y-89915343D01*
X159796601Y-89909713D01*
X159801422Y-89876616D01*
X159806065Y-89806023D01*
X159810492Y-89702335D01*
X159814665Y-89569953D01*
X159818546Y-89413279D01*
X159822098Y-89236716D01*
X159825283Y-89044663D01*
X159828062Y-88841524D01*
X159830399Y-88631699D01*
X159832255Y-88419590D01*
X159833593Y-88209599D01*
X159834374Y-88006127D01*
X159834561Y-87813576D01*
X159834116Y-87636348D01*
X159833001Y-87478844D01*
X159831179Y-87345466D01*
X159828611Y-87240615D01*
X159825260Y-87168692D01*
X159821088Y-87134101D01*
X159820462Y-87132535D01*
X159779152Y-87086152D01*
X159708189Y-87036143D01*
X159619000Y-86989110D01*
X159523011Y-86951652D01*
X159491374Y-86942408D01*
X159344151Y-86911279D01*
X159161752Y-86885290D01*
X158951033Y-86864543D01*
X158718851Y-86849141D01*
X158472062Y-86839187D01*
X158217522Y-86834782D01*
X157962089Y-86836031D01*
X157712617Y-86843034D01*
X157475964Y-86855895D01*
X157258987Y-86874717D01*
X157068541Y-86899602D01*
X157032527Y-86905613D01*
X156871862Y-86942184D01*
X156732196Y-86991014D01*
X156620567Y-87049102D01*
X156544011Y-87113444D01*
X156543190Y-87114413D01*
X156487983Y-87179917D01*
X155801316Y-87179917D01*
X155807982Y-86650750D01*
X155859180Y-86544917D01*
X155942949Y-86414030D01*
X156061134Y-86290504D01*
X156205818Y-86181641D01*
X156325838Y-86114549D01*
X156438095Y-86065240D01*
X156557961Y-86023224D01*
X156689530Y-85987979D01*
X156836893Y-85958981D01*
X157004145Y-85935706D01*
X157195379Y-85917633D01*
X157414688Y-85904237D01*
X157666165Y-85894996D01*
X157953904Y-85889387D01*
X158099437Y-85887883D01*
X158275433Y-85886296D01*
X158437586Y-85884474D01*
X158581144Y-85882498D01*
X158701357Y-85880448D01*
X158793476Y-85878407D01*
X158852750Y-85876454D01*
X158874426Y-85874675D01*
X158883097Y-85852877D01*
X158901859Y-85799507D01*
X158927710Y-85723250D01*
X158950058Y-85655917D01*
X158990254Y-85538270D01*
X159023925Y-85453779D01*
X159055745Y-85394777D01*
X159090390Y-85353595D01*
X159132534Y-85322565D01*
X159163724Y-85305448D01*
X159263734Y-85272988D01*
X159372784Y-85267628D01*
X159479566Y-85287021D01*
G37*
X159479566Y-85287021D02*
X159572770Y-85328817D01*
X159641089Y-85390670D01*
X159651669Y-85406759D01*
X159670656Y-85449199D01*
X159697550Y-85522430D01*
X159728887Y-85616467D01*
X159761206Y-85721322D01*
X159763765Y-85730000D01*
X159799540Y-85848089D01*
X159830336Y-85933725D01*
X159862268Y-85995308D01*
X159901450Y-86041238D01*
X159953997Y-86079918D01*
X160026022Y-86119747D01*
X160060041Y-86137067D01*
X160226866Y-86239732D01*
X160359432Y-86361063D01*
X160455645Y-86498590D01*
X160513410Y-86649840D01*
X160519760Y-86679367D01*
X160524182Y-86726113D01*
X160527584Y-86812296D01*
X160530014Y-86935034D01*
X160531519Y-87091443D01*
X160532144Y-87278643D01*
X160531938Y-87493749D01*
X160530946Y-87733878D01*
X160529217Y-87996150D01*
X160526796Y-88277680D01*
X160523731Y-88575586D01*
X160520069Y-88886986D01*
X160515856Y-89208996D01*
X160511139Y-89538735D01*
X160505966Y-89873319D01*
X160500383Y-90209866D01*
X160494437Y-90545493D01*
X160488175Y-90877318D01*
X160481645Y-91202458D01*
X160474891Y-91518031D01*
X160467963Y-91821153D01*
X160460906Y-92108942D01*
X160453768Y-92378515D01*
X160446595Y-92626990D01*
X160439435Y-92851484D01*
X160432334Y-93049115D01*
X160425339Y-93217000D01*
X160418497Y-93352256D01*
X160411855Y-93452000D01*
X160409054Y-93483431D01*
X160377381Y-93715727D01*
X160330549Y-93911384D01*
X160265333Y-94073513D01*
X160178509Y-94205221D01*
X160066851Y-94309620D01*
X159927134Y-94389818D01*
X159756132Y-94448925D01*
X159550621Y-94490051D01*
X159340477Y-94513687D01*
X159259607Y-94518357D01*
X159142220Y-94522317D01*
X158994123Y-94525570D01*
X158821126Y-94528119D01*
X158629038Y-94529965D01*
X158423668Y-94531111D01*
X158210825Y-94531559D01*
X157996318Y-94531313D01*
X157785956Y-94530375D01*
X157585547Y-94528747D01*
X157400902Y-94526432D01*
X157237829Y-94523432D01*
X157102137Y-94519750D01*
X156999636Y-94515388D01*
X156958968Y-94512655D01*
X156714698Y-94481965D01*
X156506721Y-94432742D01*
X156332716Y-94363808D01*
X156190361Y-94273981D01*
X156077336Y-94162083D01*
X155991320Y-94026933D01*
X155987255Y-94018654D01*
X155947280Y-93917169D01*
X155908932Y-93785200D01*
X155875055Y-93634580D01*
X155848496Y-93477142D01*
X155839213Y-93402917D01*
X155833355Y-93328170D01*
X155827655Y-93214365D01*
X155822144Y-93064777D01*
X155816854Y-92882681D01*
X155811818Y-92671352D01*
X155807066Y-92434066D01*
X155802631Y-92174096D01*
X155798544Y-91894720D01*
X155794838Y-91599211D01*
X155791543Y-91290844D01*
X155788691Y-90972896D01*
X155786315Y-90648640D01*
X155784445Y-90321352D01*
X155783115Y-89994306D01*
X155782354Y-89670779D01*
X155782196Y-89354046D01*
X155782672Y-89047380D01*
X155783814Y-88754058D01*
X155785652Y-88477354D01*
X155788220Y-88220543D01*
X155788653Y-88185334D01*
X155801316Y-87179917D01*
X156487983Y-87179917D01*
X156502871Y-88502834D01*
X156506028Y-88775254D01*
X156508978Y-89008560D01*
X156511840Y-89205969D01*
X156514731Y-89370700D01*
X156517767Y-89505970D01*
X156521065Y-89614997D01*
X156524743Y-89701000D01*
X156528918Y-89767195D01*
X156533706Y-89816800D01*
X156539224Y-89853034D01*
X156545590Y-89879115D01*
X156552921Y-89898260D01*
X156553672Y-89899834D01*
X156609499Y-89969894D01*
X156704811Y-90030695D01*
X156840042Y-90082382D01*
X157015628Y-90125104D01*
X157232002Y-90159007D01*
X157362167Y-90173334D01*
X157460792Y-90180059D01*
X157592056Y-90184823D01*
X157749187Y-90187725D01*
X157925411Y-90188865D01*
X158113955Y-90188345D01*
X158308049Y-90186263D01*
X158500918Y-90182720D01*
X158685790Y-90177817D01*
X158855893Y-90171654D01*
X159004454Y-90164330D01*
X159124701Y-90155947D01*
X159209861Y-90146604D01*
X159214250Y-90145929D01*
X159315030Y-90129015D01*
X159409784Y-90111324D01*
X159484311Y-90095585D01*
X159510584Y-90089014D01*
X159602144Y-90055699D01*
X159687294Y-90011028D01*
X159754976Y-89961932D01*
X159794137Y-89915343D01*
X159796601Y-89909713D01*
X159801422Y-89876616D01*
X159806065Y-89806023D01*
X159810492Y-89702335D01*
X159814665Y-89569953D01*
X159818546Y-89413279D01*
X159822098Y-89236716D01*
X159825283Y-89044663D01*
X159828062Y-88841524D01*
X159830399Y-88631699D01*
X159832255Y-88419590D01*
X159833593Y-88209599D01*
X159834374Y-88006127D01*
X159834561Y-87813576D01*
X159834116Y-87636348D01*
X159833001Y-87478844D01*
X159831179Y-87345466D01*
X159828611Y-87240615D01*
X159825260Y-87168692D01*
X159821088Y-87134101D01*
X159820462Y-87132535D01*
X159779152Y-87086152D01*
X159708189Y-87036143D01*
X159619000Y-86989110D01*
X159523011Y-86951652D01*
X159491374Y-86942408D01*
X159344151Y-86911279D01*
X159161752Y-86885290D01*
X158951033Y-86864543D01*
X158718851Y-86849141D01*
X158472062Y-86839187D01*
X158217522Y-86834782D01*
X157962089Y-86836031D01*
X157712617Y-86843034D01*
X157475964Y-86855895D01*
X157258987Y-86874717D01*
X157068541Y-86899602D01*
X157032527Y-86905613D01*
X156871862Y-86942184D01*
X156732196Y-86991014D01*
X156620567Y-87049102D01*
X156544011Y-87113444D01*
X156543190Y-87114413D01*
X156487983Y-87179917D01*
X155801316Y-87179917D01*
X155807982Y-86650750D01*
X155859180Y-86544917D01*
X155942949Y-86414030D01*
X156061134Y-86290504D01*
X156205818Y-86181641D01*
X156325838Y-86114549D01*
X156438095Y-86065240D01*
X156557961Y-86023224D01*
X156689530Y-85987979D01*
X156836893Y-85958981D01*
X157004145Y-85935706D01*
X157195379Y-85917633D01*
X157414688Y-85904237D01*
X157666165Y-85894996D01*
X157953904Y-85889387D01*
X158099437Y-85887883D01*
X158275433Y-85886296D01*
X158437586Y-85884474D01*
X158581144Y-85882498D01*
X158701357Y-85880448D01*
X158793476Y-85878407D01*
X158852750Y-85876454D01*
X158874426Y-85874675D01*
X158883097Y-85852877D01*
X158901859Y-85799507D01*
X158927710Y-85723250D01*
X158950058Y-85655917D01*
X158990254Y-85538270D01*
X159023925Y-85453779D01*
X159055745Y-85394777D01*
X159090390Y-85353595D01*
X159132534Y-85322565D01*
X159163724Y-85305448D01*
X159263734Y-85272988D01*
X159372784Y-85267628D01*
X159479566Y-85287021D01*
D11*
X122226190Y-95904761D02*
X123369047Y-95904761D01*
X122797619Y-97904761D02*
X122797619Y-95904761D01*
X123845238Y-95904761D02*
X125178571Y-97904761D01*
X125178571Y-95904761D02*
X123845238Y-97904761D01*
X128059523Y-97333333D02*
X129011904Y-97333333D01*
X127869047Y-97904761D02*
X128535714Y-95904761D01*
X129202380Y-97904761D01*
X130726190Y-96571428D02*
X130726190Y-97904761D01*
X129869047Y-96571428D02*
X129869047Y-97619047D01*
X129964285Y-97809523D01*
X130154761Y-97904761D01*
X130440476Y-97904761D01*
X130630952Y-97809523D01*
X130726190Y-97714285D01*
X131488095Y-97904761D02*
X132535714Y-96571428D01*
X131488095Y-96571428D02*
X132535714Y-97904761D01*
X114726190Y-97904761D02*
X114726190Y-95904761D01*
X115202380Y-95904761D01*
X115488095Y-96000000D01*
X115678571Y-96190476D01*
X115773809Y-96380952D01*
X115869047Y-96761904D01*
X115869047Y-97047619D01*
X115773809Y-97428571D01*
X115678571Y-97619047D01*
X115488095Y-97809523D01*
X115202380Y-97904761D01*
X114726190Y-97904761D01*
X117869047Y-97714285D02*
X117773809Y-97809523D01*
X117488095Y-97904761D01*
X117297619Y-97904761D01*
X117011904Y-97809523D01*
X116821428Y-97619047D01*
X116726190Y-97428571D01*
X116630952Y-97047619D01*
X116630952Y-96761904D01*
X116726190Y-96380952D01*
X116821428Y-96190476D01*
X117011904Y-96000000D01*
X117297619Y-95904761D01*
X117488095Y-95904761D01*
X117773809Y-96000000D01*
X117869047Y-96095238D01*
X118726190Y-97904761D02*
X118726190Y-95904761D01*
X119202380Y-95904761D01*
X119488095Y-96000000D01*
X119678571Y-96190476D01*
X119773809Y-96380952D01*
X119869047Y-96761904D01*
X119869047Y-97047619D01*
X119773809Y-97428571D01*
X119678571Y-97619047D01*
X119488095Y-97809523D01*
X119202380Y-97904761D01*
X118726190Y-97904761D01*
X146297619Y-97904761D02*
X146297619Y-95904761D01*
X147059523Y-95904761D01*
X147250000Y-96000000D01*
X147345238Y-96095238D01*
X147440476Y-96285714D01*
X147440476Y-96571428D01*
X147345238Y-96761904D01*
X147250000Y-96857142D01*
X147059523Y-96952380D01*
X146297619Y-96952380D01*
X148583333Y-97904761D02*
X148392857Y-97809523D01*
X148297619Y-97714285D01*
X148202380Y-97523809D01*
X148202380Y-96952380D01*
X148297619Y-96761904D01*
X148392857Y-96666666D01*
X148583333Y-96571428D01*
X148869047Y-96571428D01*
X149059523Y-96666666D01*
X149154761Y-96761904D01*
X149250000Y-96952380D01*
X149250000Y-97523809D01*
X149154761Y-97714285D01*
X149059523Y-97809523D01*
X148869047Y-97904761D01*
X148583333Y-97904761D01*
X149916666Y-96571428D02*
X150297619Y-97904761D01*
X150678571Y-96952380D01*
X151059523Y-97904761D01*
X151440476Y-96571428D01*
X152964285Y-97809523D02*
X152773809Y-97904761D01*
X152392857Y-97904761D01*
X152202380Y-97809523D01*
X152107142Y-97619047D01*
X152107142Y-96857142D01*
X152202380Y-96666666D01*
X152392857Y-96571428D01*
X152773809Y-96571428D01*
X152964285Y-96666666D01*
X153059523Y-96857142D01*
X153059523Y-97047619D01*
X152107142Y-97238095D01*
X153916666Y-97904761D02*
X153916666Y-96571428D01*
X153916666Y-96952380D02*
X154011904Y-96761904D01*
X154107142Y-96666666D01*
X154297619Y-96571428D01*
X154488095Y-96571428D01*
M02*
