G04 #@! TF.GenerationSoftware,KiCad,Pcbnew,5.1.5-1.fc31*
G04 #@! TF.CreationDate,2020-05-07T20:18:55-05:00*
G04 #@! TF.ProjectId,FrontPanel,46726f6e-7450-4616-9e65-6c2e6b696361,B*
G04 #@! TF.SameCoordinates,Original*
G04 #@! TF.FileFunction,Soldermask,Top*
G04 #@! TF.FilePolarity,Negative*
%FSLAX46Y46*%
G04 Gerber Fmt 4.6, Leading zero omitted, Abs format (unit mm)*
G04 Created by KiCad (PCBNEW 5.1.5-1.fc31) date 2020-05-07 20:18:55*
%MOMM*%
%LPD*%
G04 APERTURE LIST*
%ADD10C,0.150000*%
%ADD11C,0.300000*%
%ADD12C,0.010000*%
%ADD13C,0.100000*%
G04 APERTURE END LIST*
D10*
X115407142Y-84178571D02*
X115921428Y-85178571D01*
X116435714Y-84464285D01*
X116950000Y-85178571D01*
X117464285Y-84178571D01*
X118235714Y-84178571D02*
X118750000Y-85178571D01*
X119264285Y-84464285D01*
X119778571Y-85178571D01*
X120292857Y-84178571D01*
X121064285Y-84178571D02*
X121578571Y-85178571D01*
X122092857Y-84464285D01*
X122607142Y-85178571D01*
X123121428Y-84178571D01*
X124150000Y-85035714D02*
X124278571Y-85107142D01*
X124150000Y-85178571D01*
X124021428Y-85107142D01*
X124150000Y-85035714D01*
X124150000Y-85178571D01*
X125435714Y-85178571D02*
X125435714Y-84178571D01*
X125435714Y-84321428D02*
X125564285Y-84250000D01*
X125821428Y-84178571D01*
X126207142Y-84178571D01*
X126464285Y-84250000D01*
X126592857Y-84392857D01*
X126592857Y-85178571D01*
X126592857Y-84392857D02*
X126721428Y-84250000D01*
X126978571Y-84178571D01*
X127364285Y-84178571D01*
X127621428Y-84250000D01*
X127750000Y-84392857D01*
X127750000Y-85178571D01*
X129421428Y-85178571D02*
X129164285Y-85107142D01*
X129035714Y-85035714D01*
X128907142Y-84892857D01*
X128907142Y-84464285D01*
X129035714Y-84321428D01*
X129164285Y-84250000D01*
X129421428Y-84178571D01*
X129807142Y-84178571D01*
X130064285Y-84250000D01*
X130192857Y-84321428D01*
X130321428Y-84464285D01*
X130321428Y-84892857D01*
X130192857Y-85035714D01*
X130064285Y-85107142D01*
X129807142Y-85178571D01*
X129421428Y-85178571D01*
X131478571Y-85178571D02*
X131478571Y-83678571D01*
X131478571Y-84250000D02*
X131735714Y-84178571D01*
X132250000Y-84178571D01*
X132507142Y-84250000D01*
X132635714Y-84321428D01*
X132764285Y-84464285D01*
X132764285Y-84892857D01*
X132635714Y-85035714D01*
X132507142Y-85107142D01*
X132250000Y-85178571D01*
X131735714Y-85178571D01*
X131478571Y-85107142D01*
X133921428Y-85178571D02*
X133921428Y-84178571D01*
X133921428Y-83678571D02*
X133792857Y-83750000D01*
X133921428Y-83821428D01*
X134050000Y-83750000D01*
X133921428Y-83678571D01*
X133921428Y-83821428D01*
X135592857Y-85178571D02*
X135335714Y-85107142D01*
X135207142Y-84964285D01*
X135207142Y-83678571D01*
X136621428Y-85178571D02*
X136621428Y-84178571D01*
X136621428Y-83678571D02*
X136492857Y-83750000D01*
X136621428Y-83821428D01*
X136750000Y-83750000D01*
X136621428Y-83678571D01*
X136621428Y-83821428D01*
X137907142Y-84178571D02*
X137907142Y-85178571D01*
X137907142Y-84321428D02*
X138035714Y-84250000D01*
X138292857Y-84178571D01*
X138678571Y-84178571D01*
X138935714Y-84250000D01*
X139064285Y-84392857D01*
X139064285Y-85178571D01*
X140350000Y-85178571D02*
X140350000Y-83678571D01*
X140607142Y-84607142D02*
X141378571Y-85178571D01*
X141378571Y-84178571D02*
X140350000Y-84750000D01*
X143692857Y-85178571D02*
X143692857Y-83678571D01*
X143692857Y-85107142D02*
X143435714Y-85178571D01*
X142921428Y-85178571D01*
X142664285Y-85107142D01*
X142535714Y-85035714D01*
X142407142Y-84892857D01*
X142407142Y-84464285D01*
X142535714Y-84321428D01*
X142664285Y-84250000D01*
X142921428Y-84178571D01*
X143435714Y-84178571D01*
X143692857Y-84250000D01*
X144978571Y-85035714D02*
X145107142Y-85107142D01*
X144978571Y-85178571D01*
X144850000Y-85107142D01*
X144978571Y-85035714D01*
X144978571Y-85178571D01*
X147421428Y-85107142D02*
X147164285Y-85178571D01*
X146650000Y-85178571D01*
X146392857Y-85107142D01*
X146264285Y-85035714D01*
X146135714Y-84892857D01*
X146135714Y-84464285D01*
X146264285Y-84321428D01*
X146392857Y-84250000D01*
X146650000Y-84178571D01*
X147164285Y-84178571D01*
X147421428Y-84250000D01*
X148964285Y-85178571D02*
X148707142Y-85107142D01*
X148578571Y-85035714D01*
X148450000Y-84892857D01*
X148450000Y-84464285D01*
X148578571Y-84321428D01*
X148707142Y-84250000D01*
X148964285Y-84178571D01*
X149350000Y-84178571D01*
X149607142Y-84250000D01*
X149735714Y-84321428D01*
X149864285Y-84464285D01*
X149864285Y-84892857D01*
X149735714Y-85035714D01*
X149607142Y-85107142D01*
X149350000Y-85178571D01*
X148964285Y-85178571D01*
X151021428Y-85178571D02*
X151021428Y-84178571D01*
X151021428Y-84321428D02*
X151150000Y-84250000D01*
X151407142Y-84178571D01*
X151792857Y-84178571D01*
X152050000Y-84250000D01*
X152178571Y-84392857D01*
X152178571Y-85178571D01*
X152178571Y-84392857D02*
X152307142Y-84250000D01*
X152564285Y-84178571D01*
X152950000Y-84178571D01*
X153207142Y-84250000D01*
X153335714Y-84392857D01*
X153335714Y-85178571D01*
D11*
X115428571Y-82761904D02*
X115428571Y-77761904D01*
X118285714Y-82761904D01*
X118285714Y-77761904D01*
X122809523Y-79428571D02*
X122809523Y-82761904D01*
X120666666Y-79428571D02*
X120666666Y-82047619D01*
X120904761Y-82523809D01*
X121380952Y-82761904D01*
X122095238Y-82761904D01*
X122571428Y-82523809D01*
X122809523Y-82285714D01*
X127333333Y-82523809D02*
X126857142Y-82761904D01*
X125904761Y-82761904D01*
X125428571Y-82523809D01*
X125190476Y-82285714D01*
X124952380Y-81809523D01*
X124952380Y-80380952D01*
X125190476Y-79904761D01*
X125428571Y-79666666D01*
X125904761Y-79428571D01*
X126857142Y-79428571D01*
X127333333Y-79666666D01*
X130190476Y-82761904D02*
X129714285Y-82523809D01*
X129476190Y-82047619D01*
X129476190Y-77761904D01*
X134000000Y-82523809D02*
X133523809Y-82761904D01*
X132571428Y-82761904D01*
X132095238Y-82523809D01*
X131857142Y-82047619D01*
X131857142Y-80142857D01*
X132095238Y-79666666D01*
X132571428Y-79428571D01*
X133523809Y-79428571D01*
X134000000Y-79666666D01*
X134238095Y-80142857D01*
X134238095Y-80619047D01*
X131857142Y-81095238D01*
X137095238Y-82761904D02*
X136619047Y-82523809D01*
X136380952Y-82285714D01*
X136142857Y-81809523D01*
X136142857Y-80380952D01*
X136380952Y-79904761D01*
X136619047Y-79666666D01*
X137095238Y-79428571D01*
X137809523Y-79428571D01*
X138285714Y-79666666D01*
X138523809Y-79904761D01*
X138761904Y-80380952D01*
X138761904Y-81809523D01*
X138523809Y-82285714D01*
X138285714Y-82523809D01*
X137809523Y-82761904D01*
X137095238Y-82761904D01*
X140190476Y-77761904D02*
X143047619Y-77761904D01*
X141619047Y-82761904D02*
X141619047Y-77761904D01*
X144714285Y-82761904D02*
X144714285Y-77761904D01*
X147571428Y-82761904D01*
X147571428Y-77761904D01*
X152809523Y-82285714D02*
X152571428Y-82523809D01*
X151857142Y-82761904D01*
X151380952Y-82761904D01*
X150666666Y-82523809D01*
X150190476Y-82047619D01*
X149952380Y-81571428D01*
X149714285Y-80619047D01*
X149714285Y-79904761D01*
X149952380Y-78952380D01*
X150190476Y-78476190D01*
X150666666Y-78000000D01*
X151380952Y-77761904D01*
X151857142Y-77761904D01*
X152571428Y-78000000D01*
X152809523Y-78238095D01*
D12*
G36*
X158371871Y-87328133D02*
G01*
X158570299Y-87328377D01*
X158733672Y-87328956D01*
X158865631Y-87330011D01*
X158969816Y-87331683D01*
X159049865Y-87334114D01*
X159109420Y-87337444D01*
X159152119Y-87341816D01*
X159181601Y-87347369D01*
X159201508Y-87354246D01*
X159215478Y-87362588D01*
X159224778Y-87370367D01*
X159249069Y-87392328D01*
X159269725Y-87413065D01*
X159287060Y-87436017D01*
X159301388Y-87464628D01*
X159313023Y-87502339D01*
X159322277Y-87552591D01*
X159329464Y-87618828D01*
X159334897Y-87704489D01*
X159338891Y-87813019D01*
X159341758Y-87947857D01*
X159343813Y-88112446D01*
X159345367Y-88310228D01*
X159346736Y-88544645D01*
X159347683Y-88719792D01*
X159354116Y-89899834D01*
X158907334Y-89899834D01*
X158907334Y-87846667D01*
X158357000Y-87846667D01*
X158357000Y-89899834D01*
X157912500Y-89899834D01*
X157912500Y-87846667D01*
X157362167Y-87846667D01*
X157362167Y-89899834D01*
X156938834Y-89899834D01*
X156938834Y-88713449D01*
X156938848Y-88452762D01*
X156939071Y-88230987D01*
X156939771Y-88044705D01*
X156941220Y-87890495D01*
X156943686Y-87764937D01*
X156947439Y-87664611D01*
X156952749Y-87586096D01*
X156959885Y-87525971D01*
X156969117Y-87480817D01*
X156980715Y-87447213D01*
X156994948Y-87421738D01*
X157012087Y-87400973D01*
X157032400Y-87381497D01*
X157044722Y-87370367D01*
X157056569Y-87360759D01*
X157071455Y-87352728D01*
X157093021Y-87346133D01*
X157124906Y-87340832D01*
X157170750Y-87336684D01*
X157234192Y-87333549D01*
X157318872Y-87331284D01*
X157428431Y-87329750D01*
X157566507Y-87328803D01*
X157736740Y-87328305D01*
X157942770Y-87328112D01*
X158134750Y-87328084D01*
X158371871Y-87328133D01*
G37*
X158371871Y-87328133D02*
X158570299Y-87328377D01*
X158733672Y-87328956D01*
X158865631Y-87330011D01*
X158969816Y-87331683D01*
X159049865Y-87334114D01*
X159109420Y-87337444D01*
X159152119Y-87341816D01*
X159181601Y-87347369D01*
X159201508Y-87354246D01*
X159215478Y-87362588D01*
X159224778Y-87370367D01*
X159249069Y-87392328D01*
X159269725Y-87413065D01*
X159287060Y-87436017D01*
X159301388Y-87464628D01*
X159313023Y-87502339D01*
X159322277Y-87552591D01*
X159329464Y-87618828D01*
X159334897Y-87704489D01*
X159338891Y-87813019D01*
X159341758Y-87947857D01*
X159343813Y-88112446D01*
X159345367Y-88310228D01*
X159346736Y-88544645D01*
X159347683Y-88719792D01*
X159354116Y-89899834D01*
X158907334Y-89899834D01*
X158907334Y-87846667D01*
X158357000Y-87846667D01*
X158357000Y-89899834D01*
X157912500Y-89899834D01*
X157912500Y-87846667D01*
X157362167Y-87846667D01*
X157362167Y-89899834D01*
X156938834Y-89899834D01*
X156938834Y-88713449D01*
X156938848Y-88452762D01*
X156939071Y-88230987D01*
X156939771Y-88044705D01*
X156941220Y-87890495D01*
X156943686Y-87764937D01*
X156947439Y-87664611D01*
X156952749Y-87586096D01*
X156959885Y-87525971D01*
X156969117Y-87480817D01*
X156980715Y-87447213D01*
X156994948Y-87421738D01*
X157012087Y-87400973D01*
X157032400Y-87381497D01*
X157044722Y-87370367D01*
X157056569Y-87360759D01*
X157071455Y-87352728D01*
X157093021Y-87346133D01*
X157124906Y-87340832D01*
X157170750Y-87336684D01*
X157234192Y-87333549D01*
X157318872Y-87331284D01*
X157428431Y-87329750D01*
X157566507Y-87328803D01*
X157736740Y-87328305D01*
X157942770Y-87328112D01*
X158134750Y-87328084D01*
X158371871Y-87328133D01*
G36*
X160355647Y-79035669D02*
G01*
X160843042Y-79063230D01*
X161329713Y-79131866D01*
X161812689Y-79240380D01*
X162288997Y-79387571D01*
X162755667Y-79572243D01*
X163209727Y-79793196D01*
X163648203Y-80049232D01*
X164068126Y-80339152D01*
X164466522Y-80661760D01*
X164531907Y-80719778D01*
X164887096Y-81066165D01*
X165214402Y-81440217D01*
X165512336Y-81838707D01*
X165779406Y-82258405D01*
X166014122Y-82696084D01*
X166214993Y-83148514D01*
X166380529Y-83612467D01*
X166509238Y-84084714D01*
X166599631Y-84562028D01*
X166650216Y-85041179D01*
X166660868Y-85330909D01*
X166664917Y-85725567D01*
X166599173Y-85807159D01*
X166500314Y-85900669D01*
X166386598Y-85957581D01*
X166263750Y-85975773D01*
X166175219Y-85964292D01*
X166074128Y-85921021D01*
X165983322Y-85848853D01*
X165914495Y-85758923D01*
X165884638Y-85687667D01*
X165878547Y-85648858D01*
X165870989Y-85576393D01*
X165862722Y-85478893D01*
X165854506Y-85364977D01*
X165850141Y-85296084D01*
X165839724Y-85152364D01*
X165825509Y-84996807D01*
X165809200Y-84846192D01*
X165792503Y-84717296D01*
X165788840Y-84692834D01*
X165694346Y-84216993D01*
X165561444Y-83756222D01*
X165391901Y-83312280D01*
X165187484Y-82886923D01*
X164949959Y-82481907D01*
X164681093Y-82098991D01*
X164382653Y-81739931D01*
X164056405Y-81406485D01*
X163704117Y-81100408D01*
X163327556Y-80823460D01*
X162928487Y-80577396D01*
X162508678Y-80363974D01*
X162069895Y-80184950D01*
X161613905Y-80042083D01*
X161142476Y-79937129D01*
X160980302Y-79910589D01*
X160849159Y-79893254D01*
X160693835Y-79876121D01*
X160532451Y-79861011D01*
X160383129Y-79849747D01*
X160362616Y-79848485D01*
X160211504Y-79837909D01*
X160095461Y-79824894D01*
X160007223Y-79807086D01*
X159939524Y-79782132D01*
X159885100Y-79747676D01*
X159836687Y-79701366D01*
X159809372Y-79669227D01*
X159768604Y-79608521D01*
X159746519Y-79542854D01*
X159736994Y-79465521D01*
X159745096Y-79329278D01*
X159790229Y-79213051D01*
X159871960Y-79117793D01*
X159906600Y-79091321D01*
X159994211Y-79030750D01*
X160355647Y-79035669D01*
G37*
X160355647Y-79035669D02*
X160843042Y-79063230D01*
X161329713Y-79131866D01*
X161812689Y-79240380D01*
X162288997Y-79387571D01*
X162755667Y-79572243D01*
X163209727Y-79793196D01*
X163648203Y-80049232D01*
X164068126Y-80339152D01*
X164466522Y-80661760D01*
X164531907Y-80719778D01*
X164887096Y-81066165D01*
X165214402Y-81440217D01*
X165512336Y-81838707D01*
X165779406Y-82258405D01*
X166014122Y-82696084D01*
X166214993Y-83148514D01*
X166380529Y-83612467D01*
X166509238Y-84084714D01*
X166599631Y-84562028D01*
X166650216Y-85041179D01*
X166660868Y-85330909D01*
X166664917Y-85725567D01*
X166599173Y-85807159D01*
X166500314Y-85900669D01*
X166386598Y-85957581D01*
X166263750Y-85975773D01*
X166175219Y-85964292D01*
X166074128Y-85921021D01*
X165983322Y-85848853D01*
X165914495Y-85758923D01*
X165884638Y-85687667D01*
X165878547Y-85648858D01*
X165870989Y-85576393D01*
X165862722Y-85478893D01*
X165854506Y-85364977D01*
X165850141Y-85296084D01*
X165839724Y-85152364D01*
X165825509Y-84996807D01*
X165809200Y-84846192D01*
X165792503Y-84717296D01*
X165788840Y-84692834D01*
X165694346Y-84216993D01*
X165561444Y-83756222D01*
X165391901Y-83312280D01*
X165187484Y-82886923D01*
X164949959Y-82481907D01*
X164681093Y-82098991D01*
X164382653Y-81739931D01*
X164056405Y-81406485D01*
X163704117Y-81100408D01*
X163327556Y-80823460D01*
X162928487Y-80577396D01*
X162508678Y-80363974D01*
X162069895Y-80184950D01*
X161613905Y-80042083D01*
X161142476Y-79937129D01*
X160980302Y-79910589D01*
X160849159Y-79893254D01*
X160693835Y-79876121D01*
X160532451Y-79861011D01*
X160383129Y-79849747D01*
X160362616Y-79848485D01*
X160211504Y-79837909D01*
X160095461Y-79824894D01*
X160007223Y-79807086D01*
X159939524Y-79782132D01*
X159885100Y-79747676D01*
X159836687Y-79701366D01*
X159809372Y-79669227D01*
X159768604Y-79608521D01*
X159746519Y-79542854D01*
X159736994Y-79465521D01*
X159745096Y-79329278D01*
X159790229Y-79213051D01*
X159871960Y-79117793D01*
X159906600Y-79091321D01*
X159994211Y-79030750D01*
X160355647Y-79035669D01*
G36*
X160375956Y-81076599D02*
G01*
X160552938Y-81088621D01*
X160742751Y-81110448D01*
X160939801Y-81141779D01*
X161138494Y-81182317D01*
X161225084Y-81203014D01*
X161643783Y-81329209D01*
X162043426Y-81492638D01*
X162422303Y-81691918D01*
X162778704Y-81925666D01*
X163110919Y-82192501D01*
X163417237Y-82491040D01*
X163695948Y-82819899D01*
X163945343Y-83177697D01*
X164163710Y-83563051D01*
X164177062Y-83589566D01*
X164311550Y-83893569D01*
X164425820Y-84223012D01*
X164517011Y-84566316D01*
X164582263Y-84911899D01*
X164618715Y-85248181D01*
X164625154Y-85403606D01*
X164626264Y-85516104D01*
X164624163Y-85596620D01*
X164617588Y-85655460D01*
X164605273Y-85702931D01*
X164585954Y-85749338D01*
X164581599Y-85758447D01*
X164514110Y-85852037D01*
X164418908Y-85922235D01*
X164306199Y-85964468D01*
X164186190Y-85974166D01*
X164122053Y-85964292D01*
X164018570Y-85919200D01*
X163926726Y-85842280D01*
X163880461Y-85781236D01*
X163860926Y-85742853D01*
X163845279Y-85693692D01*
X163832078Y-85626140D01*
X163819882Y-85532586D01*
X163807249Y-85405415D01*
X163805386Y-85384740D01*
X163789818Y-85218881D01*
X163775127Y-85084800D01*
X163759689Y-84972016D01*
X163741880Y-84870047D01*
X163720076Y-84768414D01*
X163692653Y-84656633D01*
X163692448Y-84655833D01*
X163576867Y-84287605D01*
X163424222Y-83936826D01*
X163236959Y-83605824D01*
X163017527Y-83296925D01*
X162768372Y-83012455D01*
X162491943Y-82754740D01*
X162190687Y-82526107D01*
X161867051Y-82328883D01*
X161523483Y-82165393D01*
X161162431Y-82037964D01*
X160859136Y-81962837D01*
X160747553Y-81943309D01*
X160612096Y-81924097D01*
X160471176Y-81907614D01*
X160361720Y-81897618D01*
X160214710Y-81885170D01*
X160102813Y-81871919D01*
X160018822Y-81855946D01*
X159955531Y-81835335D01*
X159905733Y-81808168D01*
X159862221Y-81772528D01*
X159851202Y-81761791D01*
X159777425Y-81663142D01*
X159740836Y-81549516D01*
X159739226Y-81419682D01*
X159768702Y-81298275D01*
X159832015Y-81199230D01*
X159908193Y-81132542D01*
X159977922Y-81102353D01*
X160082854Y-81083166D01*
X160217396Y-81074681D01*
X160375956Y-81076599D01*
G37*
X160375956Y-81076599D02*
X160552938Y-81088621D01*
X160742751Y-81110448D01*
X160939801Y-81141779D01*
X161138494Y-81182317D01*
X161225084Y-81203014D01*
X161643783Y-81329209D01*
X162043426Y-81492638D01*
X162422303Y-81691918D01*
X162778704Y-81925666D01*
X163110919Y-82192501D01*
X163417237Y-82491040D01*
X163695948Y-82819899D01*
X163945343Y-83177697D01*
X164163710Y-83563051D01*
X164177062Y-83589566D01*
X164311550Y-83893569D01*
X164425820Y-84223012D01*
X164517011Y-84566316D01*
X164582263Y-84911899D01*
X164618715Y-85248181D01*
X164625154Y-85403606D01*
X164626264Y-85516104D01*
X164624163Y-85596620D01*
X164617588Y-85655460D01*
X164605273Y-85702931D01*
X164585954Y-85749338D01*
X164581599Y-85758447D01*
X164514110Y-85852037D01*
X164418908Y-85922235D01*
X164306199Y-85964468D01*
X164186190Y-85974166D01*
X164122053Y-85964292D01*
X164018570Y-85919200D01*
X163926726Y-85842280D01*
X163880461Y-85781236D01*
X163860926Y-85742853D01*
X163845279Y-85693692D01*
X163832078Y-85626140D01*
X163819882Y-85532586D01*
X163807249Y-85405415D01*
X163805386Y-85384740D01*
X163789818Y-85218881D01*
X163775127Y-85084800D01*
X163759689Y-84972016D01*
X163741880Y-84870047D01*
X163720076Y-84768414D01*
X163692653Y-84656633D01*
X163692448Y-84655833D01*
X163576867Y-84287605D01*
X163424222Y-83936826D01*
X163236959Y-83605824D01*
X163017527Y-83296925D01*
X162768372Y-83012455D01*
X162491943Y-82754740D01*
X162190687Y-82526107D01*
X161867051Y-82328883D01*
X161523483Y-82165393D01*
X161162431Y-82037964D01*
X160859136Y-81962837D01*
X160747553Y-81943309D01*
X160612096Y-81924097D01*
X160471176Y-81907614D01*
X160361720Y-81897618D01*
X160214710Y-81885170D01*
X160102813Y-81871919D01*
X160018822Y-81855946D01*
X159955531Y-81835335D01*
X159905733Y-81808168D01*
X159862221Y-81772528D01*
X159851202Y-81761791D01*
X159777425Y-81663142D01*
X159740836Y-81549516D01*
X159739226Y-81419682D01*
X159768702Y-81298275D01*
X159832015Y-81199230D01*
X159908193Y-81132542D01*
X159977922Y-81102353D01*
X160082854Y-81083166D01*
X160217396Y-81074681D01*
X160375956Y-81076599D01*
G36*
X160294979Y-83126671D02*
G01*
X160336084Y-83129604D01*
X160652095Y-83174581D01*
X160955115Y-83259528D01*
X161243249Y-83383565D01*
X161514606Y-83545811D01*
X161767292Y-83745384D01*
X161871898Y-83844621D01*
X162087208Y-84088287D01*
X162264012Y-84349524D01*
X162402443Y-84628605D01*
X162502634Y-84925803D01*
X162564716Y-85241391D01*
X162570076Y-85284480D01*
X162583837Y-85460852D01*
X162579539Y-85602951D01*
X162556791Y-85714973D01*
X162522826Y-85789400D01*
X162445099Y-85877256D01*
X162342161Y-85939395D01*
X162225524Y-85971169D01*
X162106696Y-85967929D01*
X162089915Y-85964264D01*
X161990434Y-85930020D01*
X161912583Y-85878486D01*
X161853039Y-85804468D01*
X161808480Y-85702776D01*
X161775583Y-85568219D01*
X161756682Y-85443535D01*
X161739926Y-85329302D01*
X161719179Y-85216410D01*
X161697342Y-85119441D01*
X161681077Y-85063250D01*
X161575491Y-84819386D01*
X161437136Y-84600154D01*
X161269106Y-84408036D01*
X161074498Y-84245513D01*
X160856405Y-84115065D01*
X160617923Y-84019175D01*
X160362146Y-83960323D01*
X160294394Y-83951526D01*
X160200613Y-83940630D01*
X160115814Y-83929736D01*
X160053981Y-83920676D01*
X160039750Y-83918160D01*
X159928851Y-83877271D01*
X159840725Y-83806993D01*
X159777494Y-83714894D01*
X159741282Y-83608541D01*
X159734212Y-83495501D01*
X159758408Y-83383341D01*
X159815994Y-83279629D01*
X159849810Y-83241243D01*
X159913006Y-83186803D01*
X159980423Y-83150122D01*
X160060759Y-83129205D01*
X160162711Y-83122053D01*
X160294979Y-83126671D01*
G37*
X160294979Y-83126671D02*
X160336084Y-83129604D01*
X160652095Y-83174581D01*
X160955115Y-83259528D01*
X161243249Y-83383565D01*
X161514606Y-83545811D01*
X161767292Y-83745384D01*
X161871898Y-83844621D01*
X162087208Y-84088287D01*
X162264012Y-84349524D01*
X162402443Y-84628605D01*
X162502634Y-84925803D01*
X162564716Y-85241391D01*
X162570076Y-85284480D01*
X162583837Y-85460852D01*
X162579539Y-85602951D01*
X162556791Y-85714973D01*
X162522826Y-85789400D01*
X162445099Y-85877256D01*
X162342161Y-85939395D01*
X162225524Y-85971169D01*
X162106696Y-85967929D01*
X162089915Y-85964264D01*
X161990434Y-85930020D01*
X161912583Y-85878486D01*
X161853039Y-85804468D01*
X161808480Y-85702776D01*
X161775583Y-85568219D01*
X161756682Y-85443535D01*
X161739926Y-85329302D01*
X161719179Y-85216410D01*
X161697342Y-85119441D01*
X161681077Y-85063250D01*
X161575491Y-84819386D01*
X161437136Y-84600154D01*
X161269106Y-84408036D01*
X161074498Y-84245513D01*
X160856405Y-84115065D01*
X160617923Y-84019175D01*
X160362146Y-83960323D01*
X160294394Y-83951526D01*
X160200613Y-83940630D01*
X160115814Y-83929736D01*
X160053981Y-83920676D01*
X160039750Y-83918160D01*
X159928851Y-83877271D01*
X159840725Y-83806993D01*
X159777494Y-83714894D01*
X159741282Y-83608541D01*
X159734212Y-83495501D01*
X159758408Y-83383341D01*
X159815994Y-83279629D01*
X159849810Y-83241243D01*
X159913006Y-83186803D01*
X159980423Y-83150122D01*
X160060759Y-83129205D01*
X160162711Y-83122053D01*
X160294979Y-83126671D01*
D13*
G36*
X168148903Y-94943213D02*
G01*
X168371177Y-94987426D01*
X168789932Y-95160880D01*
X169166802Y-95412696D01*
X169487304Y-95733198D01*
X169739120Y-96110068D01*
X169912574Y-96528823D01*
X170001000Y-96973371D01*
X170001000Y-97426629D01*
X169912574Y-97871177D01*
X169739120Y-98289932D01*
X169487304Y-98666802D01*
X169166802Y-98987304D01*
X168789932Y-99239120D01*
X168371177Y-99412574D01*
X168148903Y-99456787D01*
X167926630Y-99501000D01*
X167473370Y-99501000D01*
X167251097Y-99456787D01*
X167028823Y-99412574D01*
X166610068Y-99239120D01*
X166233198Y-98987304D01*
X165912696Y-98666802D01*
X165660880Y-98289932D01*
X165487426Y-97871177D01*
X165399000Y-97426629D01*
X165399000Y-96973371D01*
X165487426Y-96528823D01*
X165660880Y-96110068D01*
X165912696Y-95733198D01*
X166233198Y-95412696D01*
X166610068Y-95160880D01*
X167028823Y-94987426D01*
X167251097Y-94943213D01*
X167473370Y-94899000D01*
X167926630Y-94899000D01*
X168148903Y-94943213D01*
G37*
G36*
X103748903Y-94943213D02*
G01*
X103971177Y-94987426D01*
X104389932Y-95160880D01*
X104766802Y-95412696D01*
X105087304Y-95733198D01*
X105339120Y-96110068D01*
X105512574Y-96528823D01*
X105601000Y-96973371D01*
X105601000Y-97426629D01*
X105512574Y-97871177D01*
X105339120Y-98289932D01*
X105087304Y-98666802D01*
X104766802Y-98987304D01*
X104389932Y-99239120D01*
X103971177Y-99412574D01*
X103748903Y-99456787D01*
X103526630Y-99501000D01*
X103073370Y-99501000D01*
X102851097Y-99456787D01*
X102628823Y-99412574D01*
X102210068Y-99239120D01*
X101833198Y-98987304D01*
X101512696Y-98666802D01*
X101260880Y-98289932D01*
X101087426Y-97871177D01*
X100999000Y-97426629D01*
X100999000Y-96973371D01*
X101087426Y-96528823D01*
X101260880Y-96110068D01*
X101512696Y-95733198D01*
X101833198Y-95412696D01*
X102210068Y-95160880D01*
X102628823Y-94987426D01*
X102851097Y-94943213D01*
X103073370Y-94899000D01*
X103526630Y-94899000D01*
X103748903Y-94943213D01*
G37*
G36*
X150775331Y-89268211D02*
G01*
X151103092Y-89403974D01*
X151398070Y-89601072D01*
X151648928Y-89851930D01*
X151846026Y-90146908D01*
X151981789Y-90474669D01*
X152051000Y-90822616D01*
X152051000Y-91177384D01*
X151981789Y-91525331D01*
X151846026Y-91853092D01*
X151648928Y-92148070D01*
X151398070Y-92398928D01*
X151103092Y-92596026D01*
X150775331Y-92731789D01*
X150427384Y-92801000D01*
X150072616Y-92801000D01*
X149724669Y-92731789D01*
X149396908Y-92596026D01*
X149101930Y-92398928D01*
X148851072Y-92148070D01*
X148653974Y-91853092D01*
X148518211Y-91525331D01*
X148449000Y-91177384D01*
X148449000Y-90822616D01*
X148518211Y-90474669D01*
X148653974Y-90146908D01*
X148851072Y-89851930D01*
X149101930Y-89601072D01*
X149396908Y-89403974D01*
X149724669Y-89268211D01*
X150072616Y-89199000D01*
X150427384Y-89199000D01*
X150775331Y-89268211D01*
G37*
G36*
X130775331Y-89268211D02*
G01*
X131103092Y-89403974D01*
X131398070Y-89601072D01*
X131648928Y-89851930D01*
X131846026Y-90146908D01*
X131981789Y-90474669D01*
X132051000Y-90822616D01*
X132051000Y-91177384D01*
X131981789Y-91525331D01*
X131846026Y-91853092D01*
X131648928Y-92148070D01*
X131398070Y-92398928D01*
X131103092Y-92596026D01*
X130775331Y-92731789D01*
X130427384Y-92801000D01*
X130072616Y-92801000D01*
X129724669Y-92731789D01*
X129396908Y-92596026D01*
X129101930Y-92398928D01*
X128851072Y-92148070D01*
X128653974Y-91853092D01*
X128518211Y-91525331D01*
X128449000Y-91177384D01*
X128449000Y-90822616D01*
X128518211Y-90474669D01*
X128653974Y-90146908D01*
X128851072Y-89851930D01*
X129101930Y-89601072D01*
X129396908Y-89403974D01*
X129724669Y-89268211D01*
X130072616Y-89199000D01*
X130427384Y-89199000D01*
X130775331Y-89268211D01*
G37*
G36*
X124275331Y-89268211D02*
G01*
X124603092Y-89403974D01*
X124898070Y-89601072D01*
X125148928Y-89851930D01*
X125346026Y-90146908D01*
X125481789Y-90474669D01*
X125551000Y-90822616D01*
X125551000Y-91177384D01*
X125481789Y-91525331D01*
X125346026Y-91853092D01*
X125148928Y-92148070D01*
X124898070Y-92398928D01*
X124603092Y-92596026D01*
X124275331Y-92731789D01*
X123927384Y-92801000D01*
X123572616Y-92801000D01*
X123224669Y-92731789D01*
X122896908Y-92596026D01*
X122601930Y-92398928D01*
X122351072Y-92148070D01*
X122153974Y-91853092D01*
X122018211Y-91525331D01*
X121949000Y-91177384D01*
X121949000Y-90822616D01*
X122018211Y-90474669D01*
X122153974Y-90146908D01*
X122351072Y-89851930D01*
X122601930Y-89601072D01*
X122896908Y-89403974D01*
X123224669Y-89268211D01*
X123572616Y-89199000D01*
X123927384Y-89199000D01*
X124275331Y-89268211D01*
G37*
G36*
X117775331Y-89268211D02*
G01*
X118103092Y-89403974D01*
X118398070Y-89601072D01*
X118648928Y-89851930D01*
X118846026Y-90146908D01*
X118981789Y-90474669D01*
X119051000Y-90822616D01*
X119051000Y-91177384D01*
X118981789Y-91525331D01*
X118846026Y-91853092D01*
X118648928Y-92148070D01*
X118398070Y-92398928D01*
X118103092Y-92596026D01*
X117775331Y-92731789D01*
X117427384Y-92801000D01*
X117072616Y-92801000D01*
X116724669Y-92731789D01*
X116396908Y-92596026D01*
X116101930Y-92398928D01*
X115851072Y-92148070D01*
X115653974Y-91853092D01*
X115518211Y-91525331D01*
X115449000Y-91177384D01*
X115449000Y-90822616D01*
X115518211Y-90474669D01*
X115653974Y-90146908D01*
X115851072Y-89851930D01*
X116101930Y-89601072D01*
X116396908Y-89403974D01*
X116724669Y-89268211D01*
X117072616Y-89199000D01*
X117427384Y-89199000D01*
X117775331Y-89268211D01*
G37*
G36*
X168148903Y-76543213D02*
G01*
X168371177Y-76587426D01*
X168789932Y-76760880D01*
X169166802Y-77012696D01*
X169487304Y-77333198D01*
X169739120Y-77710068D01*
X169912574Y-78128823D01*
X170001000Y-78573371D01*
X170001000Y-79026629D01*
X169912574Y-79471177D01*
X169739120Y-79889932D01*
X169487304Y-80266802D01*
X169166802Y-80587304D01*
X168789932Y-80839120D01*
X168371177Y-81012574D01*
X168148903Y-81056787D01*
X167926630Y-81101000D01*
X167473370Y-81101000D01*
X167251097Y-81056787D01*
X167028823Y-81012574D01*
X166610068Y-80839120D01*
X166233198Y-80587304D01*
X165912696Y-80266802D01*
X165660880Y-79889932D01*
X165487426Y-79471177D01*
X165399000Y-79026629D01*
X165399000Y-78573371D01*
X165487426Y-78128823D01*
X165660880Y-77710068D01*
X165912696Y-77333198D01*
X166233198Y-77012696D01*
X166610068Y-76760880D01*
X167028823Y-76587426D01*
X167251097Y-76543213D01*
X167473370Y-76499000D01*
X167926630Y-76499000D01*
X168148903Y-76543213D01*
G37*
G36*
X103748903Y-76543213D02*
G01*
X103971177Y-76587426D01*
X104389932Y-76760880D01*
X104766802Y-77012696D01*
X105087304Y-77333198D01*
X105339120Y-77710068D01*
X105512574Y-78128823D01*
X105601000Y-78573371D01*
X105601000Y-79026629D01*
X105512574Y-79471177D01*
X105339120Y-79889932D01*
X105087304Y-80266802D01*
X104766802Y-80587304D01*
X104389932Y-80839120D01*
X103971177Y-81012574D01*
X103748903Y-81056787D01*
X103526630Y-81101000D01*
X103073370Y-81101000D01*
X102851097Y-81056787D01*
X102628823Y-81012574D01*
X102210068Y-80839120D01*
X101833198Y-80587304D01*
X101512696Y-80266802D01*
X101260880Y-79889932D01*
X101087426Y-79471177D01*
X100999000Y-79026629D01*
X100999000Y-78573371D01*
X101087426Y-78128823D01*
X101260880Y-77710068D01*
X101512696Y-77333198D01*
X101833198Y-77012696D01*
X102210068Y-76760880D01*
X102628823Y-76587426D01*
X102851097Y-76543213D01*
X103073370Y-76499000D01*
X103526630Y-76499000D01*
X103748903Y-76543213D01*
G37*
M02*
