G04 #@! TF.GenerationSoftware,KiCad,Pcbnew,5.1.5-1.fc31*
G04 #@! TF.CreationDate,2020-05-07T20:18:55-05:00*
G04 #@! TF.ProjectId,FrontPanel,46726f6e-7450-4616-9e65-6c2e6b696361,B*
G04 #@! TF.SameCoordinates,Original*
G04 #@! TF.FileFunction,Soldermask,Bot*
G04 #@! TF.FilePolarity,Negative*
%FSLAX46Y46*%
G04 Gerber Fmt 4.6, Leading zero omitted, Abs format (unit mm)*
G04 Created by KiCad (PCBNEW 5.1.5-1.fc31) date 2020-05-07 20:18:55*
%MOMM*%
%LPD*%
G04 APERTURE LIST*
%ADD10C,0.100000*%
G04 APERTURE END LIST*
D10*
G36*
X168148903Y-94943213D02*
G01*
X168371177Y-94987426D01*
X168789932Y-95160880D01*
X169166802Y-95412696D01*
X169487304Y-95733198D01*
X169739120Y-96110068D01*
X169912574Y-96528823D01*
X170001000Y-96973371D01*
X170001000Y-97426629D01*
X169912574Y-97871177D01*
X169739120Y-98289932D01*
X169487304Y-98666802D01*
X169166802Y-98987304D01*
X168789932Y-99239120D01*
X168371177Y-99412574D01*
X168148903Y-99456787D01*
X167926630Y-99501000D01*
X167473370Y-99501000D01*
X167251097Y-99456787D01*
X167028823Y-99412574D01*
X166610068Y-99239120D01*
X166233198Y-98987304D01*
X165912696Y-98666802D01*
X165660880Y-98289932D01*
X165487426Y-97871177D01*
X165399000Y-97426629D01*
X165399000Y-96973371D01*
X165487426Y-96528823D01*
X165660880Y-96110068D01*
X165912696Y-95733198D01*
X166233198Y-95412696D01*
X166610068Y-95160880D01*
X167028823Y-94987426D01*
X167251097Y-94943213D01*
X167473370Y-94899000D01*
X167926630Y-94899000D01*
X168148903Y-94943213D01*
G37*
G36*
X103748903Y-94943213D02*
G01*
X103971177Y-94987426D01*
X104389932Y-95160880D01*
X104766802Y-95412696D01*
X105087304Y-95733198D01*
X105339120Y-96110068D01*
X105512574Y-96528823D01*
X105601000Y-96973371D01*
X105601000Y-97426629D01*
X105512574Y-97871177D01*
X105339120Y-98289932D01*
X105087304Y-98666802D01*
X104766802Y-98987304D01*
X104389932Y-99239120D01*
X103971177Y-99412574D01*
X103748903Y-99456787D01*
X103526630Y-99501000D01*
X103073370Y-99501000D01*
X102851097Y-99456787D01*
X102628823Y-99412574D01*
X102210068Y-99239120D01*
X101833198Y-98987304D01*
X101512696Y-98666802D01*
X101260880Y-98289932D01*
X101087426Y-97871177D01*
X100999000Y-97426629D01*
X100999000Y-96973371D01*
X101087426Y-96528823D01*
X101260880Y-96110068D01*
X101512696Y-95733198D01*
X101833198Y-95412696D01*
X102210068Y-95160880D01*
X102628823Y-94987426D01*
X102851097Y-94943213D01*
X103073370Y-94899000D01*
X103526630Y-94899000D01*
X103748903Y-94943213D01*
G37*
G36*
X150775331Y-89268211D02*
G01*
X151103092Y-89403974D01*
X151398070Y-89601072D01*
X151648928Y-89851930D01*
X151846026Y-90146908D01*
X151981789Y-90474669D01*
X152051000Y-90822616D01*
X152051000Y-91177384D01*
X151981789Y-91525331D01*
X151846026Y-91853092D01*
X151648928Y-92148070D01*
X151398070Y-92398928D01*
X151103092Y-92596026D01*
X150775331Y-92731789D01*
X150427384Y-92801000D01*
X150072616Y-92801000D01*
X149724669Y-92731789D01*
X149396908Y-92596026D01*
X149101930Y-92398928D01*
X148851072Y-92148070D01*
X148653974Y-91853092D01*
X148518211Y-91525331D01*
X148449000Y-91177384D01*
X148449000Y-90822616D01*
X148518211Y-90474669D01*
X148653974Y-90146908D01*
X148851072Y-89851930D01*
X149101930Y-89601072D01*
X149396908Y-89403974D01*
X149724669Y-89268211D01*
X150072616Y-89199000D01*
X150427384Y-89199000D01*
X150775331Y-89268211D01*
G37*
G36*
X130775331Y-89268211D02*
G01*
X131103092Y-89403974D01*
X131398070Y-89601072D01*
X131648928Y-89851930D01*
X131846026Y-90146908D01*
X131981789Y-90474669D01*
X132051000Y-90822616D01*
X132051000Y-91177384D01*
X131981789Y-91525331D01*
X131846026Y-91853092D01*
X131648928Y-92148070D01*
X131398070Y-92398928D01*
X131103092Y-92596026D01*
X130775331Y-92731789D01*
X130427384Y-92801000D01*
X130072616Y-92801000D01*
X129724669Y-92731789D01*
X129396908Y-92596026D01*
X129101930Y-92398928D01*
X128851072Y-92148070D01*
X128653974Y-91853092D01*
X128518211Y-91525331D01*
X128449000Y-91177384D01*
X128449000Y-90822616D01*
X128518211Y-90474669D01*
X128653974Y-90146908D01*
X128851072Y-89851930D01*
X129101930Y-89601072D01*
X129396908Y-89403974D01*
X129724669Y-89268211D01*
X130072616Y-89199000D01*
X130427384Y-89199000D01*
X130775331Y-89268211D01*
G37*
G36*
X124275331Y-89268211D02*
G01*
X124603092Y-89403974D01*
X124898070Y-89601072D01*
X125148928Y-89851930D01*
X125346026Y-90146908D01*
X125481789Y-90474669D01*
X125551000Y-90822616D01*
X125551000Y-91177384D01*
X125481789Y-91525331D01*
X125346026Y-91853092D01*
X125148928Y-92148070D01*
X124898070Y-92398928D01*
X124603092Y-92596026D01*
X124275331Y-92731789D01*
X123927384Y-92801000D01*
X123572616Y-92801000D01*
X123224669Y-92731789D01*
X122896908Y-92596026D01*
X122601930Y-92398928D01*
X122351072Y-92148070D01*
X122153974Y-91853092D01*
X122018211Y-91525331D01*
X121949000Y-91177384D01*
X121949000Y-90822616D01*
X122018211Y-90474669D01*
X122153974Y-90146908D01*
X122351072Y-89851930D01*
X122601930Y-89601072D01*
X122896908Y-89403974D01*
X123224669Y-89268211D01*
X123572616Y-89199000D01*
X123927384Y-89199000D01*
X124275331Y-89268211D01*
G37*
G36*
X117775331Y-89268211D02*
G01*
X118103092Y-89403974D01*
X118398070Y-89601072D01*
X118648928Y-89851930D01*
X118846026Y-90146908D01*
X118981789Y-90474669D01*
X119051000Y-90822616D01*
X119051000Y-91177384D01*
X118981789Y-91525331D01*
X118846026Y-91853092D01*
X118648928Y-92148070D01*
X118398070Y-92398928D01*
X118103092Y-92596026D01*
X117775331Y-92731789D01*
X117427384Y-92801000D01*
X117072616Y-92801000D01*
X116724669Y-92731789D01*
X116396908Y-92596026D01*
X116101930Y-92398928D01*
X115851072Y-92148070D01*
X115653974Y-91853092D01*
X115518211Y-91525331D01*
X115449000Y-91177384D01*
X115449000Y-90822616D01*
X115518211Y-90474669D01*
X115653974Y-90146908D01*
X115851072Y-89851930D01*
X116101930Y-89601072D01*
X116396908Y-89403974D01*
X116724669Y-89268211D01*
X117072616Y-89199000D01*
X117427384Y-89199000D01*
X117775331Y-89268211D01*
G37*
G36*
X168148903Y-76543213D02*
G01*
X168371177Y-76587426D01*
X168789932Y-76760880D01*
X169166802Y-77012696D01*
X169487304Y-77333198D01*
X169739120Y-77710068D01*
X169912574Y-78128823D01*
X170001000Y-78573371D01*
X170001000Y-79026629D01*
X169912574Y-79471177D01*
X169739120Y-79889932D01*
X169487304Y-80266802D01*
X169166802Y-80587304D01*
X168789932Y-80839120D01*
X168371177Y-81012574D01*
X168148903Y-81056787D01*
X167926630Y-81101000D01*
X167473370Y-81101000D01*
X167251097Y-81056787D01*
X167028823Y-81012574D01*
X166610068Y-80839120D01*
X166233198Y-80587304D01*
X165912696Y-80266802D01*
X165660880Y-79889932D01*
X165487426Y-79471177D01*
X165399000Y-79026629D01*
X165399000Y-78573371D01*
X165487426Y-78128823D01*
X165660880Y-77710068D01*
X165912696Y-77333198D01*
X166233198Y-77012696D01*
X166610068Y-76760880D01*
X167028823Y-76587426D01*
X167251097Y-76543213D01*
X167473370Y-76499000D01*
X167926630Y-76499000D01*
X168148903Y-76543213D01*
G37*
G36*
X103748903Y-76543213D02*
G01*
X103971177Y-76587426D01*
X104389932Y-76760880D01*
X104766802Y-77012696D01*
X105087304Y-77333198D01*
X105339120Y-77710068D01*
X105512574Y-78128823D01*
X105601000Y-78573371D01*
X105601000Y-79026629D01*
X105512574Y-79471177D01*
X105339120Y-79889932D01*
X105087304Y-80266802D01*
X104766802Y-80587304D01*
X104389932Y-80839120D01*
X103971177Y-81012574D01*
X103748903Y-81056787D01*
X103526630Y-81101000D01*
X103073370Y-81101000D01*
X102851097Y-81056787D01*
X102628823Y-81012574D01*
X102210068Y-80839120D01*
X101833198Y-80587304D01*
X101512696Y-80266802D01*
X101260880Y-79889932D01*
X101087426Y-79471177D01*
X100999000Y-79026629D01*
X100999000Y-78573371D01*
X101087426Y-78128823D01*
X101260880Y-77710068D01*
X101512696Y-77333198D01*
X101833198Y-77012696D01*
X102210068Y-76760880D01*
X102628823Y-76587426D01*
X102851097Y-76543213D01*
X103073370Y-76499000D01*
X103526630Y-76499000D01*
X103748903Y-76543213D01*
G37*
M02*
