G04 #@! TF.GenerationSoftware,KiCad,Pcbnew,5.1.5-1.fc31*
G04 #@! TF.CreationDate,2020-05-07T20:15:57-05:00*
G04 #@! TF.ProjectId,Spacer,53706163-6572-42e6-9b69-6361645f7063,B*
G04 #@! TF.SameCoordinates,Original*
G04 #@! TF.FileFunction,Other,Fab,Top*
%FSLAX46Y46*%
G04 Gerber Fmt 4.6, Leading zero omitted, Abs format (unit mm)*
G04 Created by KiCad (PCBNEW 5.1.5-1.fc31) date 2020-05-07 20:15:57*
%MOMM*%
%LPD*%
G04 APERTURE LIST*
%ADD10C,0.150000*%
G04 APERTURE END LIST*
D10*
X142904761Y-82202380D02*
X142904761Y-81202380D01*
X143285714Y-81202380D01*
X143380952Y-81250000D01*
X143428571Y-81297619D01*
X143476190Y-81392857D01*
X143476190Y-81535714D01*
X143428571Y-81630952D01*
X143380952Y-81678571D01*
X143285714Y-81726190D01*
X142904761Y-81726190D01*
X144047619Y-82202380D02*
X143952380Y-82154761D01*
X143904761Y-82059523D01*
X143904761Y-81202380D01*
X144809523Y-82154761D02*
X144714285Y-82202380D01*
X144523809Y-82202380D01*
X144428571Y-82154761D01*
X144380952Y-82059523D01*
X144380952Y-81678571D01*
X144428571Y-81583333D01*
X144523809Y-81535714D01*
X144714285Y-81535714D01*
X144809523Y-81583333D01*
X144857142Y-81678571D01*
X144857142Y-81773809D01*
X144380952Y-81869047D01*
X145714285Y-82202380D02*
X145714285Y-81678571D01*
X145666666Y-81583333D01*
X145571428Y-81535714D01*
X145380952Y-81535714D01*
X145285714Y-81583333D01*
X145714285Y-82154761D02*
X145619047Y-82202380D01*
X145380952Y-82202380D01*
X145285714Y-82154761D01*
X145238095Y-82059523D01*
X145238095Y-81964285D01*
X145285714Y-81869047D01*
X145380952Y-81821428D01*
X145619047Y-81821428D01*
X145714285Y-81773809D01*
X146142857Y-82154761D02*
X146238095Y-82202380D01*
X146428571Y-82202380D01*
X146523809Y-82154761D01*
X146571428Y-82059523D01*
X146571428Y-82011904D01*
X146523809Y-81916666D01*
X146428571Y-81869047D01*
X146285714Y-81869047D01*
X146190476Y-81821428D01*
X146142857Y-81726190D01*
X146142857Y-81678571D01*
X146190476Y-81583333D01*
X146285714Y-81535714D01*
X146428571Y-81535714D01*
X146523809Y-81583333D01*
X147380952Y-82154761D02*
X147285714Y-82202380D01*
X147095238Y-82202380D01*
X147000000Y-82154761D01*
X146952380Y-82059523D01*
X146952380Y-81678571D01*
X147000000Y-81583333D01*
X147095238Y-81535714D01*
X147285714Y-81535714D01*
X147380952Y-81583333D01*
X147428571Y-81678571D01*
X147428571Y-81773809D01*
X146952380Y-81869047D01*
X148619047Y-81535714D02*
X148619047Y-82535714D01*
X148619047Y-81583333D02*
X148714285Y-81535714D01*
X148904761Y-81535714D01*
X149000000Y-81583333D01*
X149047619Y-81630952D01*
X149095238Y-81726190D01*
X149095238Y-82011904D01*
X149047619Y-82107142D01*
X149000000Y-82154761D01*
X148904761Y-82202380D01*
X148714285Y-82202380D01*
X148619047Y-82154761D01*
X149666666Y-82202380D02*
X149571428Y-82154761D01*
X149523809Y-82059523D01*
X149523809Y-81202380D01*
X150476190Y-82202380D02*
X150476190Y-81678571D01*
X150428571Y-81583333D01*
X150333333Y-81535714D01*
X150142857Y-81535714D01*
X150047619Y-81583333D01*
X150476190Y-82154761D02*
X150380952Y-82202380D01*
X150142857Y-82202380D01*
X150047619Y-82154761D01*
X150000000Y-82059523D01*
X150000000Y-81964285D01*
X150047619Y-81869047D01*
X150142857Y-81821428D01*
X150380952Y-81821428D01*
X150476190Y-81773809D01*
X151380952Y-82154761D02*
X151285714Y-82202380D01*
X151095238Y-82202380D01*
X151000000Y-82154761D01*
X150952380Y-82107142D01*
X150904761Y-82011904D01*
X150904761Y-81726190D01*
X150952380Y-81630952D01*
X151000000Y-81583333D01*
X151095238Y-81535714D01*
X151285714Y-81535714D01*
X151380952Y-81583333D01*
X152190476Y-82154761D02*
X152095238Y-82202380D01*
X151904761Y-82202380D01*
X151809523Y-82154761D01*
X151761904Y-82059523D01*
X151761904Y-81678571D01*
X151809523Y-81583333D01*
X151904761Y-81535714D01*
X152095238Y-81535714D01*
X152190476Y-81583333D01*
X152238095Y-81678571D01*
X152238095Y-81773809D01*
X151761904Y-81869047D01*
X153428571Y-82202380D02*
X153428571Y-81202380D01*
X153809523Y-81202380D01*
X153904761Y-81250000D01*
X153952380Y-81297619D01*
X154000000Y-81392857D01*
X154000000Y-81535714D01*
X153952380Y-81630952D01*
X153904761Y-81678571D01*
X153809523Y-81726190D01*
X153428571Y-81726190D01*
X154428571Y-82202380D02*
X154428571Y-81535714D01*
X154428571Y-81726190D02*
X154476190Y-81630952D01*
X154523809Y-81583333D01*
X154619047Y-81535714D01*
X154714285Y-81535714D01*
X155190476Y-82202380D02*
X155095238Y-82154761D01*
X155047619Y-82107142D01*
X155000000Y-82011904D01*
X155000000Y-81726190D01*
X155047619Y-81630952D01*
X155095238Y-81583333D01*
X155190476Y-81535714D01*
X155333333Y-81535714D01*
X155428571Y-81583333D01*
X155476190Y-81630952D01*
X155523809Y-81726190D01*
X155523809Y-82011904D01*
X155476190Y-82107142D01*
X155428571Y-82154761D01*
X155333333Y-82202380D01*
X155190476Y-82202380D01*
X156380952Y-82202380D02*
X156380952Y-81202380D01*
X156380952Y-82154761D02*
X156285714Y-82202380D01*
X156095238Y-82202380D01*
X156000000Y-82154761D01*
X155952380Y-82107142D01*
X155904761Y-82011904D01*
X155904761Y-81726190D01*
X155952380Y-81630952D01*
X156000000Y-81583333D01*
X156095238Y-81535714D01*
X156285714Y-81535714D01*
X156380952Y-81583333D01*
X157285714Y-81535714D02*
X157285714Y-82202380D01*
X156857142Y-81535714D02*
X156857142Y-82059523D01*
X156904761Y-82154761D01*
X157000000Y-82202380D01*
X157142857Y-82202380D01*
X157238095Y-82154761D01*
X157285714Y-82107142D01*
X158190476Y-82154761D02*
X158095238Y-82202380D01*
X157904761Y-82202380D01*
X157809523Y-82154761D01*
X157761904Y-82107142D01*
X157714285Y-82011904D01*
X157714285Y-81726190D01*
X157761904Y-81630952D01*
X157809523Y-81583333D01*
X157904761Y-81535714D01*
X158095238Y-81535714D01*
X158190476Y-81583333D01*
X158476190Y-81535714D02*
X158857142Y-81535714D01*
X158619047Y-81202380D02*
X158619047Y-82059523D01*
X158666666Y-82154761D01*
X158761904Y-82202380D01*
X158857142Y-82202380D01*
X159190476Y-82202380D02*
X159190476Y-81535714D01*
X159190476Y-81202380D02*
X159142857Y-81250000D01*
X159190476Y-81297619D01*
X159238095Y-81250000D01*
X159190476Y-81202380D01*
X159190476Y-81297619D01*
X159809523Y-82202380D02*
X159714285Y-82154761D01*
X159666666Y-82107142D01*
X159619047Y-82011904D01*
X159619047Y-81726190D01*
X159666666Y-81630952D01*
X159714285Y-81583333D01*
X159809523Y-81535714D01*
X159952380Y-81535714D01*
X160047619Y-81583333D01*
X160095238Y-81630952D01*
X160142857Y-81726190D01*
X160142857Y-82011904D01*
X160095238Y-82107142D01*
X160047619Y-82154761D01*
X159952380Y-82202380D01*
X159809523Y-82202380D01*
X160571428Y-81535714D02*
X160571428Y-82202380D01*
X160571428Y-81630952D02*
X160619047Y-81583333D01*
X160714285Y-81535714D01*
X160857142Y-81535714D01*
X160952380Y-81583333D01*
X161000000Y-81678571D01*
X161000000Y-82202380D01*
X162809523Y-82107142D02*
X162761904Y-82154761D01*
X162619047Y-82202380D01*
X162523809Y-82202380D01*
X162380952Y-82154761D01*
X162285714Y-82059523D01*
X162238095Y-81964285D01*
X162190476Y-81773809D01*
X162190476Y-81630952D01*
X162238095Y-81440476D01*
X162285714Y-81345238D01*
X162380952Y-81250000D01*
X162523809Y-81202380D01*
X162619047Y-81202380D01*
X162761904Y-81250000D01*
X162809523Y-81297619D01*
X163380952Y-82202380D02*
X163285714Y-82154761D01*
X163238095Y-82107142D01*
X163190476Y-82011904D01*
X163190476Y-81726190D01*
X163238095Y-81630952D01*
X163285714Y-81583333D01*
X163380952Y-81535714D01*
X163523809Y-81535714D01*
X163619047Y-81583333D01*
X163666666Y-81630952D01*
X163714285Y-81726190D01*
X163714285Y-82011904D01*
X163666666Y-82107142D01*
X163619047Y-82154761D01*
X163523809Y-82202380D01*
X163380952Y-82202380D01*
X164571428Y-82202380D02*
X164571428Y-81202380D01*
X164571428Y-82154761D02*
X164476190Y-82202380D01*
X164285714Y-82202380D01*
X164190476Y-82154761D01*
X164142857Y-82107142D01*
X164095238Y-82011904D01*
X164095238Y-81726190D01*
X164142857Y-81630952D01*
X164190476Y-81583333D01*
X164285714Y-81535714D01*
X164476190Y-81535714D01*
X164571428Y-81583333D01*
X165428571Y-82154761D02*
X165333333Y-82202380D01*
X165142857Y-82202380D01*
X165047619Y-82154761D01*
X164999999Y-82059523D01*
X164999999Y-81678571D01*
X165047619Y-81583333D01*
X165142857Y-81535714D01*
X165333333Y-81535714D01*
X165428571Y-81583333D01*
X165476190Y-81678571D01*
X165476190Y-81773809D01*
X164999999Y-81869047D01*
X166666666Y-82202380D02*
X166666666Y-81202380D01*
X167095238Y-82202380D02*
X167095238Y-81678571D01*
X167047619Y-81583333D01*
X166952380Y-81535714D01*
X166809523Y-81535714D01*
X166714285Y-81583333D01*
X166666666Y-81630952D01*
X167952380Y-82154761D02*
X167857142Y-82202380D01*
X167666666Y-82202380D01*
X167571428Y-82154761D01*
X167523809Y-82059523D01*
X167523809Y-81678571D01*
X167571428Y-81583333D01*
X167666666Y-81535714D01*
X167857142Y-81535714D01*
X167952380Y-81583333D01*
X167999999Y-81678571D01*
X167999999Y-81773809D01*
X167523809Y-81869047D01*
X168428571Y-82202380D02*
X168428571Y-81535714D01*
X168428571Y-81726190D02*
X168476190Y-81630952D01*
X168523809Y-81583333D01*
X168619047Y-81535714D01*
X168714285Y-81535714D01*
X169428571Y-82154761D02*
X169333333Y-82202380D01*
X169142857Y-82202380D01*
X169047619Y-82154761D01*
X168999999Y-82059523D01*
X168999999Y-81678571D01*
X169047619Y-81583333D01*
X169142857Y-81535714D01*
X169333333Y-81535714D01*
X169428571Y-81583333D01*
X169476190Y-81678571D01*
X169476190Y-81773809D01*
X168999999Y-81869047D01*
X170809523Y-82202380D02*
X170714285Y-82154761D01*
X170666666Y-82107142D01*
X170619047Y-82011904D01*
X170619047Y-81726190D01*
X170666666Y-81630952D01*
X170714285Y-81583333D01*
X170809523Y-81535714D01*
X170952380Y-81535714D01*
X171047619Y-81583333D01*
X171095238Y-81630952D01*
X171142857Y-81726190D01*
X171142857Y-82011904D01*
X171095238Y-82107142D01*
X171047619Y-82154761D01*
X170952380Y-82202380D01*
X170809523Y-82202380D01*
X171571428Y-81535714D02*
X171571428Y-82202380D01*
X171571428Y-81630952D02*
X171619047Y-81583333D01*
X171714285Y-81535714D01*
X171857142Y-81535714D01*
X171952380Y-81583333D01*
X171999999Y-81678571D01*
X171999999Y-82202380D01*
X173095238Y-81535714D02*
X173476190Y-81535714D01*
X173238095Y-82202380D02*
X173238095Y-81345238D01*
X173285714Y-81250000D01*
X173380952Y-81202380D01*
X173476190Y-81202380D01*
X173809523Y-82202380D02*
X173809523Y-81535714D01*
X173809523Y-81726190D02*
X173857142Y-81630952D01*
X173904761Y-81583333D01*
X173999999Y-81535714D01*
X174095238Y-81535714D01*
X174571428Y-82202380D02*
X174476190Y-82154761D01*
X174428571Y-82107142D01*
X174380952Y-82011904D01*
X174380952Y-81726190D01*
X174428571Y-81630952D01*
X174476190Y-81583333D01*
X174571428Y-81535714D01*
X174714285Y-81535714D01*
X174809523Y-81583333D01*
X174857142Y-81630952D01*
X174904761Y-81726190D01*
X174904761Y-82011904D01*
X174857142Y-82107142D01*
X174809523Y-82154761D01*
X174714285Y-82202380D01*
X174571428Y-82202380D01*
X175333333Y-81535714D02*
X175333333Y-82202380D01*
X175333333Y-81630952D02*
X175380952Y-81583333D01*
X175476190Y-81535714D01*
X175619047Y-81535714D01*
X175714285Y-81583333D01*
X175761904Y-81678571D01*
X175761904Y-82202380D01*
X176095238Y-81535714D02*
X176476190Y-81535714D01*
X176238095Y-81202380D02*
X176238095Y-82059523D01*
X176285714Y-82154761D01*
X176380952Y-82202380D01*
X176476190Y-82202380D01*
X177523809Y-82154761D02*
X177619047Y-82202380D01*
X177809523Y-82202380D01*
X177904761Y-82154761D01*
X177952380Y-82059523D01*
X177952380Y-82011904D01*
X177904761Y-81916666D01*
X177809523Y-81869047D01*
X177666666Y-81869047D01*
X177571428Y-81821428D01*
X177523809Y-81726190D01*
X177523809Y-81678571D01*
X177571428Y-81583333D01*
X177666666Y-81535714D01*
X177809523Y-81535714D01*
X177904761Y-81583333D01*
X178380952Y-82202380D02*
X178380952Y-81535714D01*
X178380952Y-81202380D02*
X178333333Y-81250000D01*
X178380952Y-81297619D01*
X178428571Y-81250000D01*
X178380952Y-81202380D01*
X178380952Y-81297619D01*
X178999999Y-82202380D02*
X178904761Y-82154761D01*
X178857142Y-82059523D01*
X178857142Y-81202380D01*
X179380952Y-82202380D02*
X179380952Y-81202380D01*
X179476190Y-81821428D02*
X179761904Y-82202380D01*
X179761904Y-81535714D02*
X179380952Y-81916666D01*
X180142857Y-82154761D02*
X180238095Y-82202380D01*
X180428571Y-82202380D01*
X180523809Y-82154761D01*
X180571428Y-82059523D01*
X180571428Y-82011904D01*
X180523809Y-81916666D01*
X180428571Y-81869047D01*
X180285714Y-81869047D01*
X180190476Y-81821428D01*
X180142857Y-81726190D01*
X180142857Y-81678571D01*
X180190476Y-81583333D01*
X180285714Y-81535714D01*
X180428571Y-81535714D01*
X180523809Y-81583333D01*
X181428571Y-82154761D02*
X181333333Y-82202380D01*
X181142857Y-82202380D01*
X181047619Y-82154761D01*
X180999999Y-82107142D01*
X180952380Y-82011904D01*
X180952380Y-81726190D01*
X180999999Y-81630952D01*
X181047619Y-81583333D01*
X181142857Y-81535714D01*
X181333333Y-81535714D01*
X181428571Y-81583333D01*
X181857142Y-82202380D02*
X181857142Y-81535714D01*
X181857142Y-81726190D02*
X181904761Y-81630952D01*
X181952380Y-81583333D01*
X182047619Y-81535714D01*
X182142857Y-81535714D01*
X182857142Y-82154761D02*
X182761904Y-82202380D01*
X182571428Y-82202380D01*
X182476190Y-82154761D01*
X182428571Y-82059523D01*
X182428571Y-81678571D01*
X182476190Y-81583333D01*
X182571428Y-81535714D01*
X182761904Y-81535714D01*
X182857142Y-81583333D01*
X182904761Y-81678571D01*
X182904761Y-81773809D01*
X182428571Y-81869047D01*
X183714285Y-82154761D02*
X183619047Y-82202380D01*
X183428571Y-82202380D01*
X183333333Y-82154761D01*
X183285714Y-82059523D01*
X183285714Y-81678571D01*
X183333333Y-81583333D01*
X183428571Y-81535714D01*
X183619047Y-81535714D01*
X183714285Y-81583333D01*
X183761904Y-81678571D01*
X183761904Y-81773809D01*
X183285714Y-81869047D01*
X184190476Y-81535714D02*
X184190476Y-82202380D01*
X184190476Y-81630952D02*
X184238095Y-81583333D01*
X184333333Y-81535714D01*
X184476190Y-81535714D01*
X184571428Y-81583333D01*
X184619047Y-81678571D01*
X184619047Y-82202380D01*
X185095238Y-82107142D02*
X185142857Y-82154761D01*
X185095238Y-82202380D01*
X185047619Y-82154761D01*
X185095238Y-82107142D01*
X185095238Y-82202380D01*
X164000000Y-82500000D02*
X165250000Y-82500000D01*
X161500000Y-84500000D02*
X164000000Y-82500000D01*
X161500000Y-84750000D02*
G75*
G03X161500000Y-84750000I-500000J0D01*
G01*
M02*
