M48
; DRILL file {KiCad 5.1.10-1.fc33} date Sat Jul 17 23:10:49 2021
; FORMAT={-:-/ absolute / metric / decimal}
; #@! TF.CreationDate,2021-07-17T23:10:49-05:00
; #@! TF.GenerationSoftware,Kicad,Pcbnew,5.1.10-1.fc33
FMAT,2
METRIC
T1C0.400
T2C0.800
T3C0.900
T4C0.990
T5C1.020
T6C1.100
T7C1.300
T8C3.200
T9C1.100
%
G90
G05
T1
X149.0Y-98.0
X159.5Y-83.0
X162.775Y-95.5
T2
X128.0Y-100.0
X128.0Y-107.62
X128.0Y-110.0
X128.0Y-115.0
X128.0Y-118.88
X128.0Y-126.5
X128.5Y-77.5
X128.5Y-82.5
X128.92Y-131.5
X129.5Y-62.0
X129.5Y-69.62
X129.5Y-87.0
X129.5Y-94.62
X131.46Y-131.5
X132.0Y-100.0
X132.0Y-107.62
X132.0Y-119.0
X132.0Y-126.62
X132.25Y-110.0
X132.25Y-115.0
X133.5Y-76.38
X133.5Y-84.0
X133.5Y-87.0
X133.5Y-94.62
X134.0Y-63.0
X134.0Y-68.0
X134.0Y-131.5
X134.12Y-57.62
X136.0Y-98.0
X136.0Y-103.0
X136.0Y-118.88
X136.0Y-126.5
X136.04Y-76.38
X136.04Y-84.0
X137.0Y-106.88
X137.0Y-114.5
X137.42Y-131.5
X137.5Y-86.88
X137.5Y-94.5
X138.0Y-63.0
X138.0Y-68.0
X138.58Y-76.38
X138.58Y-84.0
X139.96Y-131.5
X140.0Y-98.0
X140.0Y-103.0
X140.5Y-107.0
X140.5Y-114.62
X141.0Y-87.0
X141.0Y-92.0
X141.0Y-119.0
X141.0Y-126.62
X141.12Y-76.38
X141.12Y-84.0
X141.74Y-57.62
X142.0Y-63.0
X142.0Y-68.0
X142.5Y-131.5
X143.66Y-76.38
X143.66Y-84.0
X145.0Y-110.0
X145.0Y-115.0
X145.0Y-119.0
X145.0Y-126.62
X146.2Y-76.38
X146.2Y-84.0
X146.5Y-61.88
X146.5Y-69.5
X147.5Y-87.88
X147.5Y-95.5
X148.74Y-76.38
X148.74Y-84.0
X149.0Y-119.0
X149.0Y-126.62
X150.5Y-62.0
X150.5Y-69.62
X151.0Y-100.0
X151.0Y-105.0
X151.0Y-109.5
X151.0Y-114.5
X151.5Y-88.0
X151.5Y-95.62
X153.0Y-119.0
X153.0Y-126.62
X157.0Y-58.88
X157.0Y-66.5
X163.5Y-58.88
X163.5Y-66.5
X166.5Y-74.5
X166.5Y-79.5
X169.88Y-71.88
X169.88Y-74.42
X169.88Y-76.96
X169.88Y-79.5
X169.88Y-84.5
X169.88Y-89.5
X170.0Y-58.88
X170.0Y-66.5
X177.5Y-71.88
X177.5Y-74.42
X177.5Y-76.96
X177.5Y-79.5
X177.5Y-84.5
X177.5Y-89.5
T3
X136.96Y-54.5
X139.5Y-54.5
X156.96Y-54.5
X159.5Y-54.5
X163.46Y-54.5
X166.0Y-54.5
X169.96Y-54.5
X172.5Y-54.5
T4
X148.0Y-146.0
X152.5Y-146.0
T5
X158.13Y-104.155
X158.13Y-109.235
X158.13Y-114.315
X158.13Y-119.395
X158.13Y-124.475
X158.13Y-129.555
X158.13Y-134.635
X158.13Y-139.715
X158.63Y-106.695
X158.63Y-111.775
X158.63Y-116.855
X158.63Y-121.935
X158.63Y-127.015
X158.63Y-132.095
X158.63Y-137.175
X173.37Y-106.695
X173.37Y-111.775
X173.37Y-116.855
X173.37Y-121.935
X173.37Y-127.015
X173.37Y-132.095
X173.37Y-137.175
X173.87Y-104.155
X173.87Y-109.235
X173.87Y-114.315
X173.87Y-119.395
X173.87Y-124.475
X173.87Y-129.555
X173.87Y-134.635
X173.87Y-139.715
T6
X133.2Y-146.1
X136.4Y-138.0
X139.6Y-138.0
X141.6Y-141.1
X142.5Y-146.1
T7
X146.74Y-143.51
X153.75Y-143.51
T8
X124.0Y-54.0
X124.0Y-145.0
X182.0Y-54.0
X182.0Y-145.0
T9
X138.0Y-141.1
X138.0Y-146.1
T0
M30
