G04 #@! TF.GenerationSoftware,KiCad,Pcbnew,5.1.5-1.fc31*
G04 #@! TF.CreationDate,2020-05-07T20:15:09-05:00*
G04 #@! TF.ProjectId,Nucleo32TNC,4e75636c-656f-4333-9254-4e432e6b6963,B*
G04 #@! TF.SameCoordinates,Original*
G04 #@! TF.FileFunction,Soldermask,Top*
G04 #@! TF.FilePolarity,Negative*
%FSLAX46Y46*%
G04 Gerber Fmt 4.6, Leading zero omitted, Abs format (unit mm)*
G04 Created by KiCad (PCBNEW 5.1.5-1.fc31) date 2020-05-07 20:15:09*
%MOMM*%
%LPD*%
G04 APERTURE LIST*
%ADD10C,0.200000*%
%ADD11C,0.010000*%
%ADD12C,0.100000*%
G04 APERTURE END LIST*
D10*
X178464285Y-64714285D02*
X178035714Y-65071428D01*
X178464285Y-65357142D02*
X177464285Y-65357142D01*
X177464285Y-64928571D01*
X177535714Y-64785714D01*
X177678571Y-64714285D01*
X177821428Y-64714285D01*
X177964285Y-64785714D01*
X178035714Y-64928571D01*
X178035714Y-65357142D01*
X176964285Y-65071428D02*
X177035714Y-65428571D01*
X177250000Y-65785714D01*
X177607142Y-66000000D01*
X177964285Y-66071428D01*
X178321428Y-66000000D01*
X178678571Y-65785714D01*
X178892857Y-65428571D01*
X178964285Y-65071428D01*
X178892857Y-64714285D01*
X178678571Y-64357142D01*
X178321428Y-64142857D01*
X177964285Y-64071428D01*
X177607142Y-64142857D01*
X177250000Y-64357142D01*
X177035714Y-64714285D01*
X176964285Y-65071428D01*
X177535714Y-62214285D02*
X177464285Y-62357142D01*
X177464285Y-62642857D01*
X177535714Y-62785714D01*
X177678571Y-62928571D01*
X177821428Y-63000000D01*
X178107142Y-63000000D01*
X178250000Y-62928571D01*
X178392857Y-62785714D01*
X178464285Y-62642857D01*
X178464285Y-62357142D01*
X178392857Y-62214285D01*
X176964285Y-62500000D02*
X177035714Y-62857142D01*
X177250000Y-63214285D01*
X177607142Y-63428571D01*
X177964285Y-63500000D01*
X178321428Y-63428571D01*
X178678571Y-63214285D01*
X178892857Y-62857142D01*
X178964285Y-62500000D01*
X178892857Y-62142857D01*
X178678571Y-61785714D01*
X178321428Y-61571428D01*
X177964285Y-61500000D01*
X177607142Y-61571428D01*
X177250000Y-61785714D01*
X177035714Y-62142857D01*
X176964285Y-62500000D01*
X178464285Y-59571428D02*
X178035714Y-59928571D01*
X178464285Y-60214285D02*
X177464285Y-60214285D01*
X177464285Y-59785714D01*
X177535714Y-59642857D01*
X177678571Y-59571428D01*
X177821428Y-59571428D01*
X177964285Y-59642857D01*
X178035714Y-59785714D01*
X178035714Y-60214285D01*
X176964285Y-59928571D02*
X177035714Y-60285714D01*
X177250000Y-60642857D01*
X177607142Y-60857142D01*
X177964285Y-60928571D01*
X178321428Y-60857142D01*
X178678571Y-60642857D01*
X178892857Y-60285714D01*
X178964285Y-59928571D01*
X178892857Y-59571428D01*
X178678571Y-59214285D01*
X178321428Y-59000000D01*
X177964285Y-58928571D01*
X177607142Y-59000000D01*
X177250000Y-59214285D01*
X177035714Y-59571428D01*
X176964285Y-59928571D01*
D11*
G36*
X156221871Y-79978133D02*
G01*
X156420299Y-79978377D01*
X156583672Y-79978956D01*
X156715631Y-79980011D01*
X156819816Y-79981683D01*
X156899865Y-79984114D01*
X156959420Y-79987444D01*
X157002119Y-79991816D01*
X157031601Y-79997369D01*
X157051508Y-80004246D01*
X157065478Y-80012588D01*
X157074778Y-80020367D01*
X157099069Y-80042328D01*
X157119725Y-80063065D01*
X157137060Y-80086017D01*
X157151388Y-80114628D01*
X157163023Y-80152339D01*
X157172277Y-80202591D01*
X157179464Y-80268828D01*
X157184897Y-80354489D01*
X157188891Y-80463019D01*
X157191758Y-80597857D01*
X157193813Y-80762446D01*
X157195367Y-80960228D01*
X157196736Y-81194645D01*
X157197683Y-81369792D01*
X157204116Y-82549834D01*
X156757334Y-82549834D01*
X156757334Y-80496667D01*
X156207000Y-80496667D01*
X156207000Y-82549834D01*
X155762500Y-82549834D01*
X155762500Y-80496667D01*
X155212167Y-80496667D01*
X155212167Y-82549834D01*
X154788834Y-82549834D01*
X154788834Y-81363449D01*
X154788848Y-81102762D01*
X154789071Y-80880987D01*
X154789771Y-80694705D01*
X154791220Y-80540495D01*
X154793686Y-80414937D01*
X154797439Y-80314611D01*
X154802749Y-80236096D01*
X154809885Y-80175971D01*
X154819117Y-80130817D01*
X154830715Y-80097213D01*
X154844948Y-80071738D01*
X154862087Y-80050973D01*
X154882400Y-80031497D01*
X154894722Y-80020367D01*
X154906569Y-80010759D01*
X154921455Y-80002728D01*
X154943021Y-79996133D01*
X154974906Y-79990832D01*
X155020750Y-79986684D01*
X155084192Y-79983549D01*
X155168872Y-79981284D01*
X155278431Y-79979750D01*
X155416507Y-79978803D01*
X155586740Y-79978305D01*
X155792770Y-79978112D01*
X155984750Y-79978084D01*
X156221871Y-79978133D01*
G37*
X156221871Y-79978133D02*
X156420299Y-79978377D01*
X156583672Y-79978956D01*
X156715631Y-79980011D01*
X156819816Y-79981683D01*
X156899865Y-79984114D01*
X156959420Y-79987444D01*
X157002119Y-79991816D01*
X157031601Y-79997369D01*
X157051508Y-80004246D01*
X157065478Y-80012588D01*
X157074778Y-80020367D01*
X157099069Y-80042328D01*
X157119725Y-80063065D01*
X157137060Y-80086017D01*
X157151388Y-80114628D01*
X157163023Y-80152339D01*
X157172277Y-80202591D01*
X157179464Y-80268828D01*
X157184897Y-80354489D01*
X157188891Y-80463019D01*
X157191758Y-80597857D01*
X157193813Y-80762446D01*
X157195367Y-80960228D01*
X157196736Y-81194645D01*
X157197683Y-81369792D01*
X157204116Y-82549834D01*
X156757334Y-82549834D01*
X156757334Y-80496667D01*
X156207000Y-80496667D01*
X156207000Y-82549834D01*
X155762500Y-82549834D01*
X155762500Y-80496667D01*
X155212167Y-80496667D01*
X155212167Y-82549834D01*
X154788834Y-82549834D01*
X154788834Y-81363449D01*
X154788848Y-81102762D01*
X154789071Y-80880987D01*
X154789771Y-80694705D01*
X154791220Y-80540495D01*
X154793686Y-80414937D01*
X154797439Y-80314611D01*
X154802749Y-80236096D01*
X154809885Y-80175971D01*
X154819117Y-80130817D01*
X154830715Y-80097213D01*
X154844948Y-80071738D01*
X154862087Y-80050973D01*
X154882400Y-80031497D01*
X154894722Y-80020367D01*
X154906569Y-80010759D01*
X154921455Y-80002728D01*
X154943021Y-79996133D01*
X154974906Y-79990832D01*
X155020750Y-79986684D01*
X155084192Y-79983549D01*
X155168872Y-79981284D01*
X155278431Y-79979750D01*
X155416507Y-79978803D01*
X155586740Y-79978305D01*
X155792770Y-79978112D01*
X155984750Y-79978084D01*
X156221871Y-79978133D01*
D12*
G36*
X182817021Y-142306640D02*
G01*
X183326769Y-142517785D01*
X183326771Y-142517786D01*
X183785534Y-142824321D01*
X184175679Y-143214466D01*
X184445605Y-143618440D01*
X184482215Y-143673231D01*
X184693360Y-144182979D01*
X184801000Y-144724124D01*
X184801000Y-145275876D01*
X184693360Y-145817021D01*
X184503532Y-146275305D01*
X184482214Y-146326771D01*
X184175679Y-146785534D01*
X183785534Y-147175679D01*
X183326771Y-147482214D01*
X183326770Y-147482215D01*
X183326769Y-147482215D01*
X182817021Y-147693360D01*
X182275876Y-147801000D01*
X181724124Y-147801000D01*
X181182979Y-147693360D01*
X180673231Y-147482215D01*
X180673230Y-147482215D01*
X180673229Y-147482214D01*
X180214466Y-147175679D01*
X179824321Y-146785534D01*
X179517786Y-146326771D01*
X179496468Y-146275305D01*
X179306640Y-145817021D01*
X179199000Y-145275876D01*
X179199000Y-144724124D01*
X179306640Y-144182979D01*
X179517785Y-143673231D01*
X179554395Y-143618440D01*
X179824321Y-143214466D01*
X180214466Y-142824321D01*
X180673229Y-142517786D01*
X180673231Y-142517785D01*
X181182979Y-142306640D01*
X181724124Y-142199000D01*
X182275876Y-142199000D01*
X182817021Y-142306640D01*
G37*
G36*
X124817021Y-142306640D02*
G01*
X125326769Y-142517785D01*
X125326771Y-142517786D01*
X125785534Y-142824321D01*
X126175679Y-143214466D01*
X126445605Y-143618440D01*
X126482215Y-143673231D01*
X126693360Y-144182979D01*
X126801000Y-144724124D01*
X126801000Y-145275876D01*
X126693360Y-145817021D01*
X126503532Y-146275305D01*
X126482214Y-146326771D01*
X126175679Y-146785534D01*
X125785534Y-147175679D01*
X125326771Y-147482214D01*
X125326770Y-147482215D01*
X125326769Y-147482215D01*
X124817021Y-147693360D01*
X124275876Y-147801000D01*
X123724124Y-147801000D01*
X123182979Y-147693360D01*
X122673231Y-147482215D01*
X122673230Y-147482215D01*
X122673229Y-147482214D01*
X122214466Y-147175679D01*
X121824321Y-146785534D01*
X121517786Y-146326771D01*
X121496468Y-146275305D01*
X121306640Y-145817021D01*
X121199000Y-145275876D01*
X121199000Y-144724124D01*
X121306640Y-144182979D01*
X121517785Y-143673231D01*
X121554395Y-143618440D01*
X121824321Y-143214466D01*
X122214466Y-142824321D01*
X122673229Y-142517786D01*
X122673231Y-142517785D01*
X123182979Y-142306640D01*
X123724124Y-142199000D01*
X124275876Y-142199000D01*
X124817021Y-142306640D01*
G37*
G36*
X142670899Y-145240832D02*
G01*
X142755520Y-145257664D01*
X142914942Y-145323699D01*
X143058418Y-145419566D01*
X143180434Y-145541582D01*
X143276301Y-145685058D01*
X143342336Y-145844480D01*
X143376000Y-146013721D01*
X143376000Y-146186279D01*
X143342336Y-146355520D01*
X143276301Y-146514942D01*
X143180434Y-146658418D01*
X143058418Y-146780434D01*
X142914942Y-146876301D01*
X142755520Y-146942336D01*
X142670899Y-146959168D01*
X142586280Y-146976000D01*
X142413720Y-146976000D01*
X142329101Y-146959168D01*
X142244480Y-146942336D01*
X142085058Y-146876301D01*
X141941582Y-146780434D01*
X141819566Y-146658418D01*
X141723699Y-146514942D01*
X141657664Y-146355520D01*
X141624000Y-146186279D01*
X141624000Y-146013721D01*
X141657664Y-145844480D01*
X141723699Y-145685058D01*
X141819566Y-145541582D01*
X141941582Y-145419566D01*
X142085058Y-145323699D01*
X142244480Y-145257664D01*
X142329101Y-145240832D01*
X142413720Y-145224000D01*
X142586280Y-145224000D01*
X142670899Y-145240832D01*
G37*
G36*
X134076000Y-146976000D02*
G01*
X132324000Y-146976000D01*
X132324000Y-145224000D01*
X134076000Y-145224000D01*
X134076000Y-146976000D01*
G37*
G36*
X152770104Y-145109585D02*
G01*
X152938626Y-145179389D01*
X153090291Y-145280728D01*
X153219272Y-145409709D01*
X153320611Y-145561374D01*
X153390415Y-145729896D01*
X153426000Y-145908797D01*
X153426000Y-146091203D01*
X153390415Y-146270104D01*
X153320611Y-146438626D01*
X153219272Y-146590291D01*
X153090291Y-146719272D01*
X152938626Y-146820611D01*
X152770104Y-146890415D01*
X152591203Y-146926000D01*
X152408797Y-146926000D01*
X152229896Y-146890415D01*
X152061374Y-146820611D01*
X151909709Y-146719272D01*
X151780728Y-146590291D01*
X151679389Y-146438626D01*
X151609585Y-146270104D01*
X151574000Y-146091203D01*
X151574000Y-145908797D01*
X151609585Y-145729896D01*
X151679389Y-145561374D01*
X151780728Y-145409709D01*
X151909709Y-145280728D01*
X152061374Y-145179389D01*
X152229896Y-145109585D01*
X152408797Y-145074000D01*
X152591203Y-145074000D01*
X152770104Y-145109585D01*
G37*
G36*
X148270104Y-145109585D02*
G01*
X148438626Y-145179389D01*
X148590291Y-145280728D01*
X148719272Y-145409709D01*
X148820611Y-145561374D01*
X148890415Y-145729896D01*
X148926000Y-145908797D01*
X148926000Y-146091203D01*
X148890415Y-146270104D01*
X148820611Y-146438626D01*
X148719272Y-146590291D01*
X148590291Y-146719272D01*
X148438626Y-146820611D01*
X148270104Y-146890415D01*
X148091203Y-146926000D01*
X147908797Y-146926000D01*
X147729896Y-146890415D01*
X147561374Y-146820611D01*
X147409709Y-146719272D01*
X147280728Y-146590291D01*
X147179389Y-146438626D01*
X147109585Y-146270104D01*
X147074000Y-146091203D01*
X147074000Y-145908797D01*
X147109585Y-145729896D01*
X147179389Y-145561374D01*
X147280728Y-145409709D01*
X147409709Y-145280728D01*
X147561374Y-145179389D01*
X147729896Y-145109585D01*
X147908797Y-145074000D01*
X148091203Y-145074000D01*
X148270104Y-145109585D01*
G37*
G36*
X138136601Y-145514397D02*
G01*
X138175305Y-145522096D01*
X138207340Y-145535365D01*
X138284680Y-145567400D01*
X138383115Y-145633173D01*
X138466827Y-145716885D01*
X138532600Y-145815320D01*
X138577904Y-145924696D01*
X138601000Y-146040805D01*
X138601000Y-146159195D01*
X138595612Y-146186280D01*
X138578939Y-146270104D01*
X138577904Y-146275304D01*
X138532600Y-146384680D01*
X138466827Y-146483115D01*
X138383115Y-146566827D01*
X138284680Y-146632600D01*
X138222348Y-146658418D01*
X138175305Y-146677904D01*
X138136601Y-146685603D01*
X138059195Y-146701000D01*
X137940805Y-146701000D01*
X137863399Y-146685603D01*
X137824695Y-146677904D01*
X137777652Y-146658418D01*
X137715320Y-146632600D01*
X137616885Y-146566827D01*
X137533173Y-146483115D01*
X137467400Y-146384680D01*
X137422096Y-146275304D01*
X137421062Y-146270104D01*
X137404388Y-146186280D01*
X137399000Y-146159195D01*
X137399000Y-146040805D01*
X137422096Y-145924696D01*
X137467400Y-145815320D01*
X137533173Y-145716885D01*
X137616885Y-145633173D01*
X137715320Y-145567400D01*
X137792660Y-145535365D01*
X137824695Y-145522096D01*
X137863399Y-145514397D01*
X137940805Y-145499000D01*
X138059195Y-145499000D01*
X138136601Y-145514397D01*
G37*
G36*
X153964794Y-142430155D02*
G01*
X154071150Y-142451311D01*
X154271520Y-142534307D01*
X154451844Y-142654795D01*
X154605205Y-142808156D01*
X154725693Y-142988480D01*
X154725693Y-142988481D01*
X154808689Y-143188850D01*
X154829845Y-143295206D01*
X154851000Y-143401560D01*
X154851000Y-143618440D01*
X154808689Y-143831149D01*
X154725693Y-144031520D01*
X154605205Y-144211844D01*
X154451844Y-144365205D01*
X154271520Y-144485693D01*
X154171334Y-144527191D01*
X154071150Y-144568689D01*
X153964795Y-144589844D01*
X153858440Y-144611000D01*
X153641560Y-144611000D01*
X153535205Y-144589844D01*
X153428850Y-144568689D01*
X153328666Y-144527191D01*
X153228480Y-144485693D01*
X153048156Y-144365205D01*
X152894795Y-144211844D01*
X152774307Y-144031520D01*
X152691311Y-143831149D01*
X152649000Y-143618440D01*
X152649000Y-143401560D01*
X152670155Y-143295206D01*
X152691311Y-143188850D01*
X152774307Y-142988481D01*
X152774307Y-142988480D01*
X152894795Y-142808156D01*
X153048156Y-142654795D01*
X153228480Y-142534307D01*
X153428850Y-142451311D01*
X153535206Y-142430155D01*
X153641560Y-142409000D01*
X153858440Y-142409000D01*
X153964794Y-142430155D01*
G37*
G36*
X146954794Y-142430155D02*
G01*
X147061150Y-142451311D01*
X147261520Y-142534307D01*
X147441844Y-142654795D01*
X147595205Y-142808156D01*
X147715693Y-142988480D01*
X147715693Y-142988481D01*
X147798689Y-143188850D01*
X147819845Y-143295206D01*
X147841000Y-143401560D01*
X147841000Y-143618440D01*
X147798689Y-143831149D01*
X147715693Y-144031520D01*
X147595205Y-144211844D01*
X147441844Y-144365205D01*
X147261520Y-144485693D01*
X147161334Y-144527191D01*
X147061150Y-144568689D01*
X146954795Y-144589844D01*
X146848440Y-144611000D01*
X146631560Y-144611000D01*
X146525205Y-144589844D01*
X146418850Y-144568689D01*
X146318666Y-144527191D01*
X146218480Y-144485693D01*
X146038156Y-144365205D01*
X145884795Y-144211844D01*
X145764307Y-144031520D01*
X145681311Y-143831149D01*
X145639000Y-143618440D01*
X145639000Y-143401560D01*
X145660155Y-143295206D01*
X145681311Y-143188850D01*
X145764307Y-142988481D01*
X145764307Y-142988480D01*
X145884795Y-142808156D01*
X146038156Y-142654795D01*
X146218480Y-142534307D01*
X146418850Y-142451311D01*
X146525206Y-142430155D01*
X146631560Y-142409000D01*
X146848440Y-142409000D01*
X146954794Y-142430155D01*
G37*
G36*
X141855520Y-140257664D02*
G01*
X142014942Y-140323699D01*
X142158418Y-140419566D01*
X142280434Y-140541582D01*
X142376301Y-140685058D01*
X142442336Y-140844480D01*
X142476000Y-141013721D01*
X142476000Y-141186279D01*
X142442336Y-141355520D01*
X142376301Y-141514942D01*
X142280434Y-141658418D01*
X142158418Y-141780434D01*
X142014942Y-141876301D01*
X141855520Y-141942336D01*
X141686280Y-141976000D01*
X141513720Y-141976000D01*
X141344480Y-141942336D01*
X141185058Y-141876301D01*
X141041582Y-141780434D01*
X140919566Y-141658418D01*
X140823699Y-141514942D01*
X140757664Y-141355520D01*
X140724000Y-141186279D01*
X140724000Y-141013721D01*
X140757664Y-140844480D01*
X140823699Y-140685058D01*
X140919566Y-140541582D01*
X141041582Y-140419566D01*
X141185058Y-140323699D01*
X141344480Y-140257664D01*
X141513720Y-140224000D01*
X141686280Y-140224000D01*
X141855520Y-140257664D01*
G37*
G36*
X138136601Y-140514397D02*
G01*
X138175305Y-140522096D01*
X138196801Y-140531000D01*
X138284680Y-140567400D01*
X138383115Y-140633173D01*
X138466827Y-140716885D01*
X138532600Y-140815320D01*
X138577904Y-140924696D01*
X138601000Y-141040805D01*
X138601000Y-141159195D01*
X138577904Y-141275304D01*
X138532600Y-141384680D01*
X138466827Y-141483115D01*
X138383115Y-141566827D01*
X138284680Y-141632600D01*
X138222348Y-141658418D01*
X138175305Y-141677904D01*
X138136601Y-141685603D01*
X138059195Y-141701000D01*
X137940805Y-141701000D01*
X137863399Y-141685603D01*
X137824695Y-141677904D01*
X137777652Y-141658418D01*
X137715320Y-141632600D01*
X137616885Y-141566827D01*
X137533173Y-141483115D01*
X137467400Y-141384680D01*
X137422096Y-141275304D01*
X137399000Y-141159195D01*
X137399000Y-141040805D01*
X137422096Y-140924696D01*
X137467400Y-140815320D01*
X137533173Y-140716885D01*
X137616885Y-140633173D01*
X137715320Y-140567400D01*
X137803199Y-140531000D01*
X137824695Y-140522096D01*
X137863399Y-140514397D01*
X137940805Y-140499000D01*
X138059195Y-140499000D01*
X138136601Y-140514397D01*
G37*
G36*
X174686000Y-140531000D02*
G01*
X173054000Y-140531000D01*
X173054000Y-138899000D01*
X174686000Y-138899000D01*
X174686000Y-140531000D01*
G37*
G36*
X158946000Y-140531000D02*
G01*
X157314000Y-140531000D01*
X157314000Y-138899000D01*
X158946000Y-138899000D01*
X158946000Y-140531000D01*
G37*
G36*
X136570899Y-137140832D02*
G01*
X136655520Y-137157664D01*
X136814942Y-137223699D01*
X136958418Y-137319566D01*
X137080434Y-137441582D01*
X137176301Y-137585058D01*
X137242336Y-137744480D01*
X137276000Y-137913721D01*
X137276000Y-138086279D01*
X137242336Y-138255520D01*
X137176301Y-138414942D01*
X137080434Y-138558418D01*
X136958418Y-138680434D01*
X136814942Y-138776301D01*
X136655520Y-138842336D01*
X136486280Y-138876000D01*
X136313720Y-138876000D01*
X136144480Y-138842336D01*
X135985058Y-138776301D01*
X135841582Y-138680434D01*
X135719566Y-138558418D01*
X135623699Y-138414942D01*
X135557664Y-138255520D01*
X135524000Y-138086279D01*
X135524000Y-137913721D01*
X135557664Y-137744480D01*
X135623699Y-137585058D01*
X135719566Y-137441582D01*
X135841582Y-137319566D01*
X135985058Y-137223699D01*
X136144480Y-137157664D01*
X136229101Y-137140832D01*
X136313720Y-137124000D01*
X136486280Y-137124000D01*
X136570899Y-137140832D01*
G37*
G36*
X139770899Y-137140832D02*
G01*
X139855520Y-137157664D01*
X140014942Y-137223699D01*
X140158418Y-137319566D01*
X140280434Y-137441582D01*
X140376301Y-137585058D01*
X140442336Y-137744480D01*
X140476000Y-137913721D01*
X140476000Y-138086279D01*
X140442336Y-138255520D01*
X140376301Y-138414942D01*
X140280434Y-138558418D01*
X140158418Y-138680434D01*
X140014942Y-138776301D01*
X139855520Y-138842336D01*
X139686280Y-138876000D01*
X139513720Y-138876000D01*
X139344480Y-138842336D01*
X139185058Y-138776301D01*
X139041582Y-138680434D01*
X138919566Y-138558418D01*
X138823699Y-138414942D01*
X138757664Y-138255520D01*
X138724000Y-138086279D01*
X138724000Y-137913721D01*
X138757664Y-137744480D01*
X138823699Y-137585058D01*
X138919566Y-137441582D01*
X139041582Y-137319566D01*
X139185058Y-137223699D01*
X139344480Y-137157664D01*
X139429101Y-137140832D01*
X139513720Y-137124000D01*
X139686280Y-137124000D01*
X139770899Y-137140832D01*
G37*
G36*
X158868017Y-136390358D02*
G01*
X158942270Y-136421115D01*
X159016521Y-136451870D01*
X159016522Y-136451871D01*
X159150167Y-136541169D01*
X159263831Y-136654833D01*
X159330805Y-136755067D01*
X159353130Y-136788479D01*
X159414642Y-136936983D01*
X159446000Y-137094630D01*
X159446000Y-137255370D01*
X159414642Y-137413017D01*
X159353130Y-137561521D01*
X159353129Y-137561522D01*
X159263831Y-137695167D01*
X159150167Y-137808831D01*
X159049933Y-137875804D01*
X159016521Y-137898130D01*
X158978880Y-137913721D01*
X158868017Y-137959642D01*
X158710370Y-137991000D01*
X158549630Y-137991000D01*
X158391983Y-137959642D01*
X158281120Y-137913721D01*
X158243479Y-137898130D01*
X158210067Y-137875804D01*
X158109833Y-137808831D01*
X157996169Y-137695167D01*
X157906871Y-137561522D01*
X157906870Y-137561521D01*
X157845358Y-137413017D01*
X157814000Y-137255370D01*
X157814000Y-137094630D01*
X157845358Y-136936983D01*
X157906870Y-136788479D01*
X157929195Y-136755067D01*
X157996169Y-136654833D01*
X158109833Y-136541169D01*
X158243478Y-136451871D01*
X158243479Y-136451870D01*
X158317730Y-136421115D01*
X158391983Y-136390358D01*
X158549630Y-136359000D01*
X158710370Y-136359000D01*
X158868017Y-136390358D01*
G37*
G36*
X173608017Y-136390358D02*
G01*
X173682270Y-136421115D01*
X173756521Y-136451870D01*
X173756522Y-136451871D01*
X173890167Y-136541169D01*
X174003831Y-136654833D01*
X174070805Y-136755067D01*
X174093130Y-136788479D01*
X174154642Y-136936983D01*
X174186000Y-137094630D01*
X174186000Y-137255370D01*
X174154642Y-137413017D01*
X174093130Y-137561521D01*
X174093129Y-137561522D01*
X174003831Y-137695167D01*
X173890167Y-137808831D01*
X173789933Y-137875804D01*
X173756521Y-137898130D01*
X173718880Y-137913721D01*
X173608017Y-137959642D01*
X173450370Y-137991000D01*
X173289630Y-137991000D01*
X173131983Y-137959642D01*
X173021120Y-137913721D01*
X172983479Y-137898130D01*
X172950067Y-137875804D01*
X172849833Y-137808831D01*
X172736169Y-137695167D01*
X172646871Y-137561522D01*
X172646870Y-137561521D01*
X172585358Y-137413017D01*
X172554000Y-137255370D01*
X172554000Y-137094630D01*
X172585358Y-136936983D01*
X172646870Y-136788479D01*
X172669195Y-136755067D01*
X172736169Y-136654833D01*
X172849833Y-136541169D01*
X172983478Y-136451871D01*
X172983479Y-136451870D01*
X173057730Y-136421115D01*
X173131983Y-136390358D01*
X173289630Y-136359000D01*
X173450370Y-136359000D01*
X173608017Y-136390358D01*
G37*
G36*
X158368017Y-133850358D02*
G01*
X158442270Y-133881115D01*
X158516521Y-133911870D01*
X158516522Y-133911871D01*
X158650167Y-134001169D01*
X158763831Y-134114833D01*
X158830805Y-134215067D01*
X158853130Y-134248479D01*
X158883885Y-134322730D01*
X158914642Y-134396983D01*
X158946000Y-134554630D01*
X158946000Y-134715370D01*
X158914642Y-134873017D01*
X158853130Y-135021521D01*
X158853129Y-135021522D01*
X158763831Y-135155167D01*
X158650167Y-135268831D01*
X158549933Y-135335804D01*
X158516521Y-135358130D01*
X158368017Y-135419642D01*
X158210370Y-135451000D01*
X158049630Y-135451000D01*
X157891983Y-135419642D01*
X157743479Y-135358130D01*
X157710067Y-135335805D01*
X157609833Y-135268831D01*
X157496169Y-135155167D01*
X157406871Y-135021522D01*
X157406870Y-135021521D01*
X157376115Y-134947270D01*
X157345358Y-134873017D01*
X157314000Y-134715370D01*
X157314000Y-134554630D01*
X157345358Y-134396983D01*
X157376115Y-134322730D01*
X157406870Y-134248479D01*
X157429196Y-134215067D01*
X157496169Y-134114833D01*
X157609833Y-134001169D01*
X157743478Y-133911871D01*
X157743479Y-133911870D01*
X157817730Y-133881115D01*
X157891983Y-133850358D01*
X158049630Y-133819000D01*
X158210370Y-133819000D01*
X158368017Y-133850358D01*
G37*
G36*
X174108017Y-133850358D02*
G01*
X174182270Y-133881115D01*
X174256521Y-133911870D01*
X174256522Y-133911871D01*
X174390167Y-134001169D01*
X174503831Y-134114833D01*
X174570805Y-134215067D01*
X174593130Y-134248479D01*
X174623885Y-134322730D01*
X174654642Y-134396983D01*
X174686000Y-134554630D01*
X174686000Y-134715370D01*
X174654642Y-134873017D01*
X174593130Y-135021521D01*
X174593129Y-135021522D01*
X174503831Y-135155167D01*
X174390167Y-135268831D01*
X174289933Y-135335804D01*
X174256521Y-135358130D01*
X174108017Y-135419642D01*
X173950370Y-135451000D01*
X173789630Y-135451000D01*
X173631983Y-135419642D01*
X173483479Y-135358130D01*
X173450067Y-135335805D01*
X173349833Y-135268831D01*
X173236169Y-135155167D01*
X173146871Y-135021522D01*
X173146870Y-135021521D01*
X173116115Y-134947270D01*
X173085358Y-134873017D01*
X173054000Y-134715370D01*
X173054000Y-134554630D01*
X173085358Y-134396983D01*
X173116115Y-134322730D01*
X173146870Y-134248479D01*
X173169196Y-134215067D01*
X173236169Y-134114833D01*
X173349833Y-134001169D01*
X173483478Y-133911871D01*
X173483479Y-133911870D01*
X173557730Y-133881115D01*
X173631983Y-133850358D01*
X173789630Y-133819000D01*
X173950370Y-133819000D01*
X174108017Y-133850358D01*
G37*
G36*
X158868017Y-131310358D02*
G01*
X158942270Y-131341115D01*
X159016521Y-131371870D01*
X159016522Y-131371871D01*
X159150167Y-131461169D01*
X159263831Y-131574833D01*
X159330804Y-131675067D01*
X159353130Y-131708479D01*
X159371690Y-131753288D01*
X159414642Y-131856983D01*
X159446000Y-132014630D01*
X159446000Y-132175370D01*
X159414642Y-132333017D01*
X159353130Y-132481521D01*
X159353129Y-132481522D01*
X159263831Y-132615167D01*
X159150167Y-132728831D01*
X159049933Y-132795805D01*
X159016521Y-132818130D01*
X158868017Y-132879642D01*
X158710370Y-132911000D01*
X158549630Y-132911000D01*
X158391983Y-132879642D01*
X158243479Y-132818130D01*
X158210067Y-132795805D01*
X158109833Y-132728831D01*
X157996169Y-132615167D01*
X157906871Y-132481522D01*
X157906870Y-132481521D01*
X157845358Y-132333017D01*
X157814000Y-132175370D01*
X157814000Y-132014630D01*
X157845358Y-131856983D01*
X157888310Y-131753288D01*
X157906870Y-131708479D01*
X157929196Y-131675067D01*
X157996169Y-131574833D01*
X158109833Y-131461169D01*
X158243478Y-131371871D01*
X158243479Y-131371870D01*
X158317730Y-131341115D01*
X158391983Y-131310358D01*
X158549630Y-131279000D01*
X158710370Y-131279000D01*
X158868017Y-131310358D01*
G37*
G36*
X173608017Y-131310358D02*
G01*
X173682270Y-131341115D01*
X173756521Y-131371870D01*
X173756522Y-131371871D01*
X173890167Y-131461169D01*
X174003831Y-131574833D01*
X174070804Y-131675067D01*
X174093130Y-131708479D01*
X174111690Y-131753288D01*
X174154642Y-131856983D01*
X174186000Y-132014630D01*
X174186000Y-132175370D01*
X174154642Y-132333017D01*
X174093130Y-132481521D01*
X174093129Y-132481522D01*
X174003831Y-132615167D01*
X173890167Y-132728831D01*
X173789933Y-132795805D01*
X173756521Y-132818130D01*
X173608017Y-132879642D01*
X173450370Y-132911000D01*
X173289630Y-132911000D01*
X173131983Y-132879642D01*
X172983479Y-132818130D01*
X172950067Y-132795805D01*
X172849833Y-132728831D01*
X172736169Y-132615167D01*
X172646871Y-132481522D01*
X172646870Y-132481521D01*
X172585358Y-132333017D01*
X172554000Y-132175370D01*
X172554000Y-132014630D01*
X172585358Y-131856983D01*
X172628310Y-131753288D01*
X172646870Y-131708479D01*
X172669196Y-131675067D01*
X172736169Y-131574833D01*
X172849833Y-131461169D01*
X172983478Y-131371871D01*
X172983479Y-131371870D01*
X173057730Y-131341115D01*
X173131983Y-131310358D01*
X173289630Y-131279000D01*
X173450370Y-131279000D01*
X173608017Y-131310358D01*
G37*
G36*
X132842916Y-130707334D02*
G01*
X132951492Y-130740271D01*
X132951495Y-130740272D01*
X132987601Y-130759571D01*
X133051557Y-130793756D01*
X133139264Y-130865736D01*
X133202383Y-130942646D01*
X133219702Y-130959965D01*
X133240077Y-130973579D01*
X133262716Y-130982957D01*
X133286749Y-130987737D01*
X133311253Y-130987737D01*
X133335286Y-130982957D01*
X133357925Y-130973579D01*
X133378299Y-130959966D01*
X133395626Y-130942639D01*
X133409240Y-130922264D01*
X133418618Y-130899625D01*
X133423398Y-130875592D01*
X133424000Y-130863340D01*
X133424000Y-130699000D01*
X134576000Y-130699000D01*
X134576000Y-132301000D01*
X133424000Y-132301000D01*
X133424000Y-132136660D01*
X133421598Y-132112274D01*
X133414485Y-132088825D01*
X133402934Y-132067214D01*
X133387389Y-132048272D01*
X133368447Y-132032727D01*
X133346836Y-132021176D01*
X133323387Y-132014063D01*
X133299001Y-132011661D01*
X133274615Y-132014063D01*
X133251166Y-132021176D01*
X133229555Y-132032727D01*
X133202381Y-132057356D01*
X133139264Y-132134264D01*
X133051556Y-132206244D01*
X132987600Y-132240429D01*
X132951494Y-132259728D01*
X132951491Y-132259729D01*
X132842915Y-132292666D01*
X132730000Y-132303787D01*
X132617084Y-132292666D01*
X132508508Y-132259729D01*
X132508505Y-132259728D01*
X132472399Y-132240429D01*
X132408443Y-132206244D01*
X132320736Y-132134264D01*
X132248756Y-132046556D01*
X132205239Y-131965140D01*
X132191625Y-131944766D01*
X132174298Y-131927439D01*
X132153924Y-131913825D01*
X132131285Y-131904448D01*
X132107251Y-131899668D01*
X132082747Y-131899668D01*
X132058714Y-131904449D01*
X132036075Y-131913826D01*
X132015701Y-131927440D01*
X131998374Y-131944767D01*
X131984762Y-131965140D01*
X131941244Y-132046557D01*
X131869264Y-132134264D01*
X131781556Y-132206244D01*
X131717600Y-132240429D01*
X131681494Y-132259728D01*
X131681491Y-132259729D01*
X131572915Y-132292666D01*
X131460000Y-132303787D01*
X131347084Y-132292666D01*
X131238508Y-132259729D01*
X131238505Y-132259728D01*
X131202399Y-132240429D01*
X131138443Y-132206244D01*
X131050736Y-132134264D01*
X130978756Y-132046556D01*
X130935239Y-131965140D01*
X130925272Y-131946494D01*
X130919492Y-131927440D01*
X130892334Y-131837915D01*
X130884000Y-131753297D01*
X130884000Y-131246702D01*
X130892334Y-131162084D01*
X130925271Y-131053508D01*
X130925272Y-131053505D01*
X130978756Y-130953445D01*
X130978757Y-130953443D01*
X131050737Y-130865736D01*
X131138444Y-130793756D01*
X131202400Y-130759571D01*
X131238506Y-130740272D01*
X131238509Y-130740271D01*
X131347085Y-130707334D01*
X131460000Y-130696213D01*
X131572916Y-130707334D01*
X131681492Y-130740271D01*
X131681495Y-130740272D01*
X131717601Y-130759571D01*
X131781557Y-130793756D01*
X131869264Y-130865736D01*
X131941244Y-130953443D01*
X131957019Y-130982957D01*
X131984761Y-131034859D01*
X131998375Y-131055234D01*
X132015702Y-131072561D01*
X132036076Y-131086174D01*
X132058715Y-131095552D01*
X132082748Y-131100332D01*
X132107252Y-131100332D01*
X132131285Y-131095552D01*
X132153924Y-131086174D01*
X132174299Y-131072560D01*
X132191626Y-131055233D01*
X132205239Y-131034859D01*
X132248756Y-130953445D01*
X132248757Y-130953443D01*
X132320737Y-130865736D01*
X132408444Y-130793756D01*
X132472400Y-130759571D01*
X132508506Y-130740272D01*
X132508509Y-130740271D01*
X132617085Y-130707334D01*
X132730000Y-130696213D01*
X132842916Y-130707334D01*
G37*
G36*
X141342916Y-130707334D02*
G01*
X141451492Y-130740271D01*
X141451495Y-130740272D01*
X141487601Y-130759571D01*
X141551557Y-130793756D01*
X141639264Y-130865736D01*
X141702383Y-130942646D01*
X141719702Y-130959965D01*
X141740077Y-130973579D01*
X141762716Y-130982957D01*
X141786749Y-130987737D01*
X141811253Y-130987737D01*
X141835286Y-130982957D01*
X141857925Y-130973579D01*
X141878299Y-130959966D01*
X141895626Y-130942639D01*
X141909240Y-130922264D01*
X141918618Y-130899625D01*
X141923398Y-130875592D01*
X141924000Y-130863340D01*
X141924000Y-130699000D01*
X143076000Y-130699000D01*
X143076000Y-132301000D01*
X141924000Y-132301000D01*
X141924000Y-132136660D01*
X141921598Y-132112274D01*
X141914485Y-132088825D01*
X141902934Y-132067214D01*
X141887389Y-132048272D01*
X141868447Y-132032727D01*
X141846836Y-132021176D01*
X141823387Y-132014063D01*
X141799001Y-132011661D01*
X141774615Y-132014063D01*
X141751166Y-132021176D01*
X141729555Y-132032727D01*
X141702381Y-132057356D01*
X141639264Y-132134264D01*
X141551556Y-132206244D01*
X141487600Y-132240429D01*
X141451494Y-132259728D01*
X141451491Y-132259729D01*
X141342915Y-132292666D01*
X141230000Y-132303787D01*
X141117084Y-132292666D01*
X141008508Y-132259729D01*
X141008505Y-132259728D01*
X140972399Y-132240429D01*
X140908443Y-132206244D01*
X140820736Y-132134264D01*
X140748756Y-132046556D01*
X140705239Y-131965140D01*
X140691625Y-131944766D01*
X140674298Y-131927439D01*
X140653924Y-131913825D01*
X140631285Y-131904448D01*
X140607251Y-131899668D01*
X140582747Y-131899668D01*
X140558714Y-131904449D01*
X140536075Y-131913826D01*
X140515701Y-131927440D01*
X140498374Y-131944767D01*
X140484762Y-131965140D01*
X140441244Y-132046557D01*
X140369264Y-132134264D01*
X140281556Y-132206244D01*
X140217600Y-132240429D01*
X140181494Y-132259728D01*
X140181491Y-132259729D01*
X140072915Y-132292666D01*
X139960000Y-132303787D01*
X139847084Y-132292666D01*
X139738508Y-132259729D01*
X139738505Y-132259728D01*
X139702399Y-132240429D01*
X139638443Y-132206244D01*
X139550736Y-132134264D01*
X139478756Y-132046556D01*
X139435239Y-131965140D01*
X139425272Y-131946494D01*
X139419492Y-131927440D01*
X139392334Y-131837915D01*
X139384000Y-131753297D01*
X139384000Y-131246702D01*
X139392334Y-131162084D01*
X139425271Y-131053508D01*
X139425272Y-131053505D01*
X139478756Y-130953445D01*
X139478757Y-130953443D01*
X139550737Y-130865736D01*
X139638444Y-130793756D01*
X139702400Y-130759571D01*
X139738506Y-130740272D01*
X139738509Y-130740271D01*
X139847085Y-130707334D01*
X139960000Y-130696213D01*
X140072916Y-130707334D01*
X140181492Y-130740271D01*
X140181495Y-130740272D01*
X140217601Y-130759571D01*
X140281557Y-130793756D01*
X140369264Y-130865736D01*
X140441244Y-130953443D01*
X140457019Y-130982957D01*
X140484761Y-131034859D01*
X140498375Y-131055234D01*
X140515702Y-131072561D01*
X140536076Y-131086174D01*
X140558715Y-131095552D01*
X140582748Y-131100332D01*
X140607252Y-131100332D01*
X140631285Y-131095552D01*
X140653924Y-131086174D01*
X140674299Y-131072560D01*
X140691626Y-131055233D01*
X140705239Y-131034859D01*
X140748756Y-130953445D01*
X140748757Y-130953443D01*
X140820737Y-130865736D01*
X140908444Y-130793756D01*
X140972400Y-130759571D01*
X141008506Y-130740272D01*
X141008509Y-130740271D01*
X141117085Y-130707334D01*
X141230000Y-130696213D01*
X141342916Y-130707334D01*
G37*
G36*
X158368017Y-128770358D02*
G01*
X158442270Y-128801115D01*
X158516521Y-128831870D01*
X158516522Y-128831871D01*
X158650167Y-128921169D01*
X158763831Y-129034833D01*
X158830804Y-129135067D01*
X158853130Y-129168479D01*
X158914642Y-129316983D01*
X158946000Y-129474630D01*
X158946000Y-129635370D01*
X158914642Y-129793017D01*
X158853130Y-129941521D01*
X158853129Y-129941522D01*
X158763831Y-130075167D01*
X158650167Y-130188831D01*
X158549933Y-130255805D01*
X158516521Y-130278130D01*
X158368017Y-130339642D01*
X158210370Y-130371000D01*
X158049630Y-130371000D01*
X157891983Y-130339642D01*
X157743479Y-130278130D01*
X157710067Y-130255804D01*
X157609833Y-130188831D01*
X157496169Y-130075167D01*
X157406871Y-129941522D01*
X157406870Y-129941521D01*
X157345358Y-129793017D01*
X157314000Y-129635370D01*
X157314000Y-129474630D01*
X157345358Y-129316983D01*
X157406870Y-129168479D01*
X157429195Y-129135067D01*
X157496169Y-129034833D01*
X157609833Y-128921169D01*
X157743478Y-128831871D01*
X157743479Y-128831870D01*
X157817730Y-128801115D01*
X157891983Y-128770358D01*
X158049630Y-128739000D01*
X158210370Y-128739000D01*
X158368017Y-128770358D01*
G37*
G36*
X174108017Y-128770358D02*
G01*
X174182270Y-128801115D01*
X174256521Y-128831870D01*
X174256522Y-128831871D01*
X174390167Y-128921169D01*
X174503831Y-129034833D01*
X174570804Y-129135067D01*
X174593130Y-129168479D01*
X174654642Y-129316983D01*
X174686000Y-129474630D01*
X174686000Y-129635370D01*
X174654642Y-129793017D01*
X174593130Y-129941521D01*
X174593129Y-129941522D01*
X174503831Y-130075167D01*
X174390167Y-130188831D01*
X174289933Y-130255805D01*
X174256521Y-130278130D01*
X174108017Y-130339642D01*
X173950370Y-130371000D01*
X173789630Y-130371000D01*
X173631983Y-130339642D01*
X173483479Y-130278130D01*
X173450067Y-130255804D01*
X173349833Y-130188831D01*
X173236169Y-130075167D01*
X173146871Y-129941522D01*
X173146870Y-129941521D01*
X173085358Y-129793017D01*
X173054000Y-129635370D01*
X173054000Y-129474630D01*
X173085358Y-129316983D01*
X173146870Y-129168479D01*
X173169195Y-129135067D01*
X173236169Y-129034833D01*
X173349833Y-128921169D01*
X173483478Y-128831871D01*
X173483479Y-128831870D01*
X173557730Y-128801115D01*
X173631983Y-128770358D01*
X173789630Y-128739000D01*
X173950370Y-128739000D01*
X174108017Y-128770358D01*
G37*
G36*
X158868017Y-126230358D02*
G01*
X158942270Y-126261115D01*
X159016521Y-126291870D01*
X159016522Y-126291871D01*
X159150167Y-126381169D01*
X159263831Y-126494833D01*
X159291461Y-126536185D01*
X159353130Y-126628479D01*
X159383885Y-126702730D01*
X159414642Y-126776983D01*
X159446000Y-126934630D01*
X159446000Y-127095370D01*
X159414642Y-127253017D01*
X159387603Y-127318295D01*
X159353130Y-127401521D01*
X159353129Y-127401522D01*
X159263831Y-127535167D01*
X159150167Y-127648831D01*
X159049933Y-127715805D01*
X159016521Y-127738130D01*
X158868017Y-127799642D01*
X158710370Y-127831000D01*
X158549630Y-127831000D01*
X158391983Y-127799642D01*
X158243479Y-127738130D01*
X158210067Y-127715804D01*
X158109833Y-127648831D01*
X157996169Y-127535167D01*
X157906871Y-127401522D01*
X157906870Y-127401521D01*
X157872397Y-127318295D01*
X157845358Y-127253017D01*
X157814000Y-127095370D01*
X157814000Y-126934630D01*
X157845358Y-126776983D01*
X157876115Y-126702730D01*
X157906870Y-126628479D01*
X157968539Y-126536185D01*
X157996169Y-126494833D01*
X158109833Y-126381169D01*
X158243478Y-126291871D01*
X158243479Y-126291870D01*
X158317730Y-126261115D01*
X158391983Y-126230358D01*
X158549630Y-126199000D01*
X158710370Y-126199000D01*
X158868017Y-126230358D01*
G37*
G36*
X173608017Y-126230358D02*
G01*
X173682270Y-126261115D01*
X173756521Y-126291870D01*
X173756522Y-126291871D01*
X173890167Y-126381169D01*
X174003831Y-126494833D01*
X174031461Y-126536185D01*
X174093130Y-126628479D01*
X174123885Y-126702730D01*
X174154642Y-126776983D01*
X174186000Y-126934630D01*
X174186000Y-127095370D01*
X174154642Y-127253017D01*
X174127603Y-127318295D01*
X174093130Y-127401521D01*
X174093129Y-127401522D01*
X174003831Y-127535167D01*
X173890167Y-127648831D01*
X173789933Y-127715805D01*
X173756521Y-127738130D01*
X173608017Y-127799642D01*
X173450370Y-127831000D01*
X173289630Y-127831000D01*
X173131983Y-127799642D01*
X172983479Y-127738130D01*
X172950067Y-127715804D01*
X172849833Y-127648831D01*
X172736169Y-127535167D01*
X172646871Y-127401522D01*
X172646870Y-127401521D01*
X172612397Y-127318295D01*
X172585358Y-127253017D01*
X172554000Y-127095370D01*
X172554000Y-126934630D01*
X172585358Y-126776983D01*
X172616115Y-126702730D01*
X172646870Y-126628479D01*
X172708539Y-126536185D01*
X172736169Y-126494833D01*
X172849833Y-126381169D01*
X172983478Y-126291871D01*
X172983479Y-126291870D01*
X173057730Y-126261115D01*
X173131983Y-126230358D01*
X173289630Y-126199000D01*
X173450370Y-126199000D01*
X173608017Y-126230358D01*
G37*
G36*
X134748228Y-125801703D02*
G01*
X134903100Y-125865853D01*
X135042481Y-125958985D01*
X135161015Y-126077519D01*
X135254147Y-126216900D01*
X135318297Y-126371772D01*
X135351000Y-126536184D01*
X135351000Y-126703816D01*
X135318297Y-126868228D01*
X135254147Y-127023100D01*
X135161015Y-127162481D01*
X135042481Y-127281015D01*
X134903100Y-127374147D01*
X134748228Y-127438297D01*
X134583816Y-127471000D01*
X134416184Y-127471000D01*
X134251772Y-127438297D01*
X134096900Y-127374147D01*
X133957519Y-127281015D01*
X133838985Y-127162481D01*
X133745853Y-127023100D01*
X133681703Y-126868228D01*
X133649000Y-126703816D01*
X133649000Y-126536184D01*
X133681703Y-126371772D01*
X133745853Y-126216900D01*
X133838985Y-126077519D01*
X133957519Y-125958985D01*
X134096900Y-125865853D01*
X134251772Y-125801703D01*
X134416184Y-125769000D01*
X134583816Y-125769000D01*
X134748228Y-125801703D01*
G37*
G36*
X143748228Y-125801703D02*
G01*
X143903100Y-125865853D01*
X144042481Y-125958985D01*
X144161015Y-126077519D01*
X144254147Y-126216900D01*
X144318297Y-126371772D01*
X144351000Y-126536184D01*
X144351000Y-126703816D01*
X144318297Y-126868228D01*
X144254147Y-127023100D01*
X144161015Y-127162481D01*
X144042481Y-127281015D01*
X143903100Y-127374147D01*
X143748228Y-127438297D01*
X143583816Y-127471000D01*
X143416184Y-127471000D01*
X143251772Y-127438297D01*
X143096900Y-127374147D01*
X142957519Y-127281015D01*
X142838985Y-127162481D01*
X142745853Y-127023100D01*
X142681703Y-126868228D01*
X142649000Y-126703816D01*
X142649000Y-126536184D01*
X142681703Y-126371772D01*
X142745853Y-126216900D01*
X142838985Y-126077519D01*
X142957519Y-125958985D01*
X143096900Y-125865853D01*
X143251772Y-125801703D01*
X143416184Y-125769000D01*
X143583816Y-125769000D01*
X143748228Y-125801703D01*
G37*
G36*
X148748228Y-125801703D02*
G01*
X148903100Y-125865853D01*
X149042481Y-125958985D01*
X149161015Y-126077519D01*
X149254147Y-126216900D01*
X149318297Y-126371772D01*
X149351000Y-126536184D01*
X149351000Y-126703816D01*
X149318297Y-126868228D01*
X149254147Y-127023100D01*
X149161015Y-127162481D01*
X149042481Y-127281015D01*
X148903100Y-127374147D01*
X148748228Y-127438297D01*
X148583816Y-127471000D01*
X148416184Y-127471000D01*
X148251772Y-127438297D01*
X148096900Y-127374147D01*
X147957519Y-127281015D01*
X147838985Y-127162481D01*
X147745853Y-127023100D01*
X147681703Y-126868228D01*
X147649000Y-126703816D01*
X147649000Y-126536184D01*
X147681703Y-126371772D01*
X147745853Y-126216900D01*
X147838985Y-126077519D01*
X147957519Y-125958985D01*
X148096900Y-125865853D01*
X148251772Y-125801703D01*
X148416184Y-125769000D01*
X148583816Y-125769000D01*
X148748228Y-125801703D01*
G37*
G36*
X127748228Y-125681703D02*
G01*
X127903100Y-125745853D01*
X128042481Y-125838985D01*
X128161015Y-125957519D01*
X128254147Y-126096900D01*
X128318297Y-126251772D01*
X128351000Y-126416184D01*
X128351000Y-126583816D01*
X128318297Y-126748228D01*
X128254147Y-126903100D01*
X128161015Y-127042481D01*
X128042481Y-127161015D01*
X127903100Y-127254147D01*
X127748228Y-127318297D01*
X127583816Y-127351000D01*
X127416184Y-127351000D01*
X127251772Y-127318297D01*
X127096900Y-127254147D01*
X126957519Y-127161015D01*
X126838985Y-127042481D01*
X126745853Y-126903100D01*
X126681703Y-126748228D01*
X126649000Y-126583816D01*
X126649000Y-126416184D01*
X126681703Y-126251772D01*
X126745853Y-126096900D01*
X126838985Y-125957519D01*
X126957519Y-125838985D01*
X127096900Y-125745853D01*
X127251772Y-125681703D01*
X127416184Y-125649000D01*
X127583816Y-125649000D01*
X127748228Y-125681703D01*
G37*
G36*
X131248228Y-125681703D02*
G01*
X131403100Y-125745853D01*
X131542481Y-125838985D01*
X131661015Y-125957519D01*
X131754147Y-126096900D01*
X131818297Y-126251772D01*
X131851000Y-126416184D01*
X131851000Y-126583816D01*
X131818297Y-126748228D01*
X131754147Y-126903100D01*
X131661015Y-127042481D01*
X131542481Y-127161015D01*
X131403100Y-127254147D01*
X131248228Y-127318297D01*
X131083816Y-127351000D01*
X130916184Y-127351000D01*
X130751772Y-127318297D01*
X130596900Y-127254147D01*
X130457519Y-127161015D01*
X130338985Y-127042481D01*
X130245853Y-126903100D01*
X130181703Y-126748228D01*
X130149000Y-126583816D01*
X130149000Y-126416184D01*
X130181703Y-126251772D01*
X130245853Y-126096900D01*
X130338985Y-125957519D01*
X130457519Y-125838985D01*
X130596900Y-125745853D01*
X130751772Y-125681703D01*
X130916184Y-125649000D01*
X131083816Y-125649000D01*
X131248228Y-125681703D01*
G37*
G36*
X139748228Y-125681703D02*
G01*
X139903100Y-125745853D01*
X140042481Y-125838985D01*
X140161015Y-125957519D01*
X140254147Y-126096900D01*
X140318297Y-126251772D01*
X140351000Y-126416184D01*
X140351000Y-126583816D01*
X140318297Y-126748228D01*
X140254147Y-126903100D01*
X140161015Y-127042481D01*
X140042481Y-127161015D01*
X139903100Y-127254147D01*
X139748228Y-127318297D01*
X139583816Y-127351000D01*
X139416184Y-127351000D01*
X139251772Y-127318297D01*
X139096900Y-127254147D01*
X138957519Y-127161015D01*
X138838985Y-127042481D01*
X138745853Y-126903100D01*
X138681703Y-126748228D01*
X138649000Y-126583816D01*
X138649000Y-126416184D01*
X138681703Y-126251772D01*
X138745853Y-126096900D01*
X138838985Y-125957519D01*
X138957519Y-125838985D01*
X139096900Y-125745853D01*
X139251772Y-125681703D01*
X139416184Y-125649000D01*
X139583816Y-125649000D01*
X139748228Y-125681703D01*
G37*
G36*
X158368017Y-123690358D02*
G01*
X158442270Y-123721115D01*
X158516521Y-123751870D01*
X158516522Y-123751871D01*
X158650167Y-123841169D01*
X158763831Y-123954833D01*
X158830805Y-124055067D01*
X158853130Y-124088479D01*
X158883885Y-124162730D01*
X158914642Y-124236983D01*
X158946000Y-124394630D01*
X158946000Y-124555370D01*
X158914642Y-124713017D01*
X158853130Y-124861521D01*
X158853129Y-124861522D01*
X158763831Y-124995167D01*
X158650167Y-125108831D01*
X158549933Y-125175805D01*
X158516521Y-125198130D01*
X158368017Y-125259642D01*
X158210370Y-125291000D01*
X158049630Y-125291000D01*
X157891983Y-125259642D01*
X157743479Y-125198130D01*
X157710067Y-125175805D01*
X157609833Y-125108831D01*
X157496169Y-124995167D01*
X157406871Y-124861522D01*
X157406870Y-124861521D01*
X157345358Y-124713017D01*
X157314000Y-124555370D01*
X157314000Y-124394630D01*
X157345358Y-124236983D01*
X157376115Y-124162730D01*
X157406870Y-124088479D01*
X157429195Y-124055067D01*
X157496169Y-123954833D01*
X157609833Y-123841169D01*
X157743478Y-123751871D01*
X157743479Y-123751870D01*
X157817730Y-123721115D01*
X157891983Y-123690358D01*
X158049630Y-123659000D01*
X158210370Y-123659000D01*
X158368017Y-123690358D01*
G37*
G36*
X174108017Y-123690358D02*
G01*
X174182270Y-123721115D01*
X174256521Y-123751870D01*
X174256522Y-123751871D01*
X174390167Y-123841169D01*
X174503831Y-123954833D01*
X174570805Y-124055067D01*
X174593130Y-124088479D01*
X174623885Y-124162730D01*
X174654642Y-124236983D01*
X174686000Y-124394630D01*
X174686000Y-124555370D01*
X174654642Y-124713017D01*
X174593130Y-124861521D01*
X174593129Y-124861522D01*
X174503831Y-124995167D01*
X174390167Y-125108831D01*
X174289933Y-125175805D01*
X174256521Y-125198130D01*
X174108017Y-125259642D01*
X173950370Y-125291000D01*
X173789630Y-125291000D01*
X173631983Y-125259642D01*
X173483479Y-125198130D01*
X173450067Y-125175805D01*
X173349833Y-125108831D01*
X173236169Y-124995167D01*
X173146871Y-124861522D01*
X173146870Y-124861521D01*
X173085358Y-124713017D01*
X173054000Y-124555370D01*
X173054000Y-124394630D01*
X173085358Y-124236983D01*
X173116115Y-124162730D01*
X173146870Y-124088479D01*
X173169195Y-124055067D01*
X173236169Y-123954833D01*
X173349833Y-123841169D01*
X173483478Y-123751871D01*
X173483479Y-123751870D01*
X173557730Y-123721115D01*
X173631983Y-123690358D01*
X173789630Y-123659000D01*
X173950370Y-123659000D01*
X174108017Y-123690358D01*
G37*
G36*
X158868017Y-121150358D02*
G01*
X158942270Y-121181115D01*
X159016521Y-121211870D01*
X159016522Y-121211871D01*
X159150167Y-121301169D01*
X159263831Y-121414833D01*
X159330805Y-121515067D01*
X159353130Y-121548479D01*
X159414642Y-121696983D01*
X159446000Y-121854630D01*
X159446000Y-122015370D01*
X159414642Y-122173017D01*
X159383885Y-122247270D01*
X159353130Y-122321521D01*
X159353129Y-122321522D01*
X159263831Y-122455167D01*
X159150167Y-122568831D01*
X159049933Y-122635805D01*
X159016521Y-122658130D01*
X158868017Y-122719642D01*
X158710370Y-122751000D01*
X158549630Y-122751000D01*
X158391983Y-122719642D01*
X158243479Y-122658130D01*
X158210067Y-122635805D01*
X158109833Y-122568831D01*
X157996169Y-122455167D01*
X157906871Y-122321522D01*
X157906870Y-122321521D01*
X157876115Y-122247270D01*
X157845358Y-122173017D01*
X157814000Y-122015370D01*
X157814000Y-121854630D01*
X157845358Y-121696983D01*
X157906870Y-121548479D01*
X157929195Y-121515067D01*
X157996169Y-121414833D01*
X158109833Y-121301169D01*
X158243478Y-121211871D01*
X158243479Y-121211870D01*
X158317730Y-121181115D01*
X158391983Y-121150358D01*
X158549630Y-121119000D01*
X158710370Y-121119000D01*
X158868017Y-121150358D01*
G37*
G36*
X173608017Y-121150358D02*
G01*
X173682270Y-121181115D01*
X173756521Y-121211870D01*
X173756522Y-121211871D01*
X173890167Y-121301169D01*
X174003831Y-121414833D01*
X174070805Y-121515067D01*
X174093130Y-121548479D01*
X174154642Y-121696983D01*
X174186000Y-121854630D01*
X174186000Y-122015370D01*
X174154642Y-122173017D01*
X174123885Y-122247270D01*
X174093130Y-122321521D01*
X174093129Y-122321522D01*
X174003831Y-122455167D01*
X173890167Y-122568831D01*
X173789933Y-122635805D01*
X173756521Y-122658130D01*
X173608017Y-122719642D01*
X173450370Y-122751000D01*
X173289630Y-122751000D01*
X173131983Y-122719642D01*
X172983479Y-122658130D01*
X172950067Y-122635805D01*
X172849833Y-122568831D01*
X172736169Y-122455167D01*
X172646871Y-122321522D01*
X172646870Y-122321521D01*
X172616115Y-122247270D01*
X172585358Y-122173017D01*
X172554000Y-122015370D01*
X172554000Y-121854630D01*
X172585358Y-121696983D01*
X172646870Y-121548479D01*
X172669195Y-121515067D01*
X172736169Y-121414833D01*
X172849833Y-121301169D01*
X172983478Y-121211871D01*
X172983479Y-121211870D01*
X173057730Y-121181115D01*
X173131983Y-121150358D01*
X173289630Y-121119000D01*
X173450370Y-121119000D01*
X173608017Y-121150358D01*
G37*
G36*
X158368017Y-118610358D02*
G01*
X158442270Y-118641115D01*
X158516521Y-118671870D01*
X158516522Y-118671871D01*
X158650167Y-118761169D01*
X158763831Y-118874833D01*
X158791461Y-118916185D01*
X158853130Y-119008479D01*
X158914642Y-119156983D01*
X158946000Y-119314630D01*
X158946000Y-119475370D01*
X158914642Y-119633017D01*
X158887603Y-119698295D01*
X158853130Y-119781521D01*
X158853129Y-119781522D01*
X158763831Y-119915167D01*
X158650167Y-120028831D01*
X158549933Y-120095805D01*
X158516521Y-120118130D01*
X158368017Y-120179642D01*
X158210370Y-120211000D01*
X158049630Y-120211000D01*
X157891983Y-120179642D01*
X157743479Y-120118130D01*
X157710067Y-120095805D01*
X157609833Y-120028831D01*
X157496169Y-119915167D01*
X157406871Y-119781522D01*
X157406870Y-119781521D01*
X157372397Y-119698295D01*
X157345358Y-119633017D01*
X157314000Y-119475370D01*
X157314000Y-119314630D01*
X157345358Y-119156983D01*
X157406870Y-119008479D01*
X157468539Y-118916185D01*
X157496169Y-118874833D01*
X157609833Y-118761169D01*
X157743478Y-118671871D01*
X157743479Y-118671870D01*
X157817730Y-118641115D01*
X157891983Y-118610358D01*
X158049630Y-118579000D01*
X158210370Y-118579000D01*
X158368017Y-118610358D01*
G37*
G36*
X174108017Y-118610358D02*
G01*
X174182270Y-118641115D01*
X174256521Y-118671870D01*
X174256522Y-118671871D01*
X174390167Y-118761169D01*
X174503831Y-118874833D01*
X174531461Y-118916185D01*
X174593130Y-119008479D01*
X174654642Y-119156983D01*
X174686000Y-119314630D01*
X174686000Y-119475370D01*
X174654642Y-119633017D01*
X174627603Y-119698295D01*
X174593130Y-119781521D01*
X174593129Y-119781522D01*
X174503831Y-119915167D01*
X174390167Y-120028831D01*
X174289933Y-120095805D01*
X174256521Y-120118130D01*
X174108017Y-120179642D01*
X173950370Y-120211000D01*
X173789630Y-120211000D01*
X173631983Y-120179642D01*
X173483479Y-120118130D01*
X173450067Y-120095805D01*
X173349833Y-120028831D01*
X173236169Y-119915167D01*
X173146871Y-119781522D01*
X173146870Y-119781521D01*
X173112397Y-119698295D01*
X173085358Y-119633017D01*
X173054000Y-119475370D01*
X173054000Y-119314630D01*
X173085358Y-119156983D01*
X173146870Y-119008479D01*
X173208539Y-118916185D01*
X173236169Y-118874833D01*
X173349833Y-118761169D01*
X173483478Y-118671871D01*
X173483479Y-118671870D01*
X173557730Y-118641115D01*
X173631983Y-118610358D01*
X173789630Y-118579000D01*
X173950370Y-118579000D01*
X174108017Y-118610358D01*
G37*
G36*
X134748228Y-118181703D02*
G01*
X134903100Y-118245853D01*
X135042481Y-118338985D01*
X135161015Y-118457519D01*
X135254147Y-118596900D01*
X135318297Y-118751772D01*
X135351000Y-118916184D01*
X135351000Y-119083816D01*
X135318297Y-119248228D01*
X135254147Y-119403100D01*
X135161015Y-119542481D01*
X135042481Y-119661015D01*
X134903100Y-119754147D01*
X134748228Y-119818297D01*
X134583816Y-119851000D01*
X134416184Y-119851000D01*
X134251772Y-119818297D01*
X134096900Y-119754147D01*
X133957519Y-119661015D01*
X133838985Y-119542481D01*
X133745853Y-119403100D01*
X133681703Y-119248228D01*
X133649000Y-119083816D01*
X133649000Y-118916184D01*
X133681703Y-118751772D01*
X133745853Y-118596900D01*
X133838985Y-118457519D01*
X133957519Y-118338985D01*
X134096900Y-118245853D01*
X134251772Y-118181703D01*
X134416184Y-118149000D01*
X134583816Y-118149000D01*
X134748228Y-118181703D01*
G37*
G36*
X148748228Y-118181703D02*
G01*
X148903100Y-118245853D01*
X149042481Y-118338985D01*
X149161015Y-118457519D01*
X149254147Y-118596900D01*
X149318297Y-118751772D01*
X149351000Y-118916184D01*
X149351000Y-119083816D01*
X149318297Y-119248228D01*
X149254147Y-119403100D01*
X149161015Y-119542481D01*
X149042481Y-119661015D01*
X148903100Y-119754147D01*
X148748228Y-119818297D01*
X148583816Y-119851000D01*
X148416184Y-119851000D01*
X148251772Y-119818297D01*
X148096900Y-119754147D01*
X147957519Y-119661015D01*
X147838985Y-119542481D01*
X147745853Y-119403100D01*
X147681703Y-119248228D01*
X147649000Y-119083816D01*
X147649000Y-118916184D01*
X147681703Y-118751772D01*
X147745853Y-118596900D01*
X147838985Y-118457519D01*
X147957519Y-118338985D01*
X148096900Y-118245853D01*
X148251772Y-118181703D01*
X148416184Y-118149000D01*
X148583816Y-118149000D01*
X148748228Y-118181703D01*
G37*
G36*
X143748228Y-118181703D02*
G01*
X143903100Y-118245853D01*
X144042481Y-118338985D01*
X144161015Y-118457519D01*
X144254147Y-118596900D01*
X144318297Y-118751772D01*
X144351000Y-118916184D01*
X144351000Y-119083816D01*
X144318297Y-119248228D01*
X144254147Y-119403100D01*
X144161015Y-119542481D01*
X144042481Y-119661015D01*
X143903100Y-119754147D01*
X143748228Y-119818297D01*
X143583816Y-119851000D01*
X143416184Y-119851000D01*
X143251772Y-119818297D01*
X143096900Y-119754147D01*
X142957519Y-119661015D01*
X142838985Y-119542481D01*
X142745853Y-119403100D01*
X142681703Y-119248228D01*
X142649000Y-119083816D01*
X142649000Y-118916184D01*
X142681703Y-118751772D01*
X142745853Y-118596900D01*
X142838985Y-118457519D01*
X142957519Y-118338985D01*
X143096900Y-118245853D01*
X143251772Y-118181703D01*
X143416184Y-118149000D01*
X143583816Y-118149000D01*
X143748228Y-118181703D01*
G37*
G36*
X127748228Y-118061703D02*
G01*
X127903100Y-118125853D01*
X128042481Y-118218985D01*
X128161015Y-118337519D01*
X128254147Y-118476900D01*
X128318297Y-118631772D01*
X128351000Y-118796184D01*
X128351000Y-118963816D01*
X128318297Y-119128228D01*
X128254147Y-119283100D01*
X128161015Y-119422481D01*
X128042481Y-119541015D01*
X127903100Y-119634147D01*
X127748228Y-119698297D01*
X127583816Y-119731000D01*
X127416184Y-119731000D01*
X127251772Y-119698297D01*
X127096900Y-119634147D01*
X126957519Y-119541015D01*
X126838985Y-119422481D01*
X126745853Y-119283100D01*
X126681703Y-119128228D01*
X126649000Y-118963816D01*
X126649000Y-118796184D01*
X126681703Y-118631772D01*
X126745853Y-118476900D01*
X126838985Y-118337519D01*
X126957519Y-118218985D01*
X127096900Y-118125853D01*
X127251772Y-118061703D01*
X127416184Y-118029000D01*
X127583816Y-118029000D01*
X127748228Y-118061703D01*
G37*
G36*
X131248228Y-118061703D02*
G01*
X131403100Y-118125853D01*
X131542481Y-118218985D01*
X131661015Y-118337519D01*
X131754147Y-118476900D01*
X131818297Y-118631772D01*
X131851000Y-118796184D01*
X131851000Y-118963816D01*
X131818297Y-119128228D01*
X131754147Y-119283100D01*
X131661015Y-119422481D01*
X131542481Y-119541015D01*
X131403100Y-119634147D01*
X131248228Y-119698297D01*
X131083816Y-119731000D01*
X130916184Y-119731000D01*
X130751772Y-119698297D01*
X130596900Y-119634147D01*
X130457519Y-119541015D01*
X130338985Y-119422481D01*
X130245853Y-119283100D01*
X130181703Y-119128228D01*
X130149000Y-118963816D01*
X130149000Y-118796184D01*
X130181703Y-118631772D01*
X130245853Y-118476900D01*
X130338985Y-118337519D01*
X130457519Y-118218985D01*
X130596900Y-118125853D01*
X130751772Y-118061703D01*
X130916184Y-118029000D01*
X131083816Y-118029000D01*
X131248228Y-118061703D01*
G37*
G36*
X139748228Y-118061703D02*
G01*
X139903100Y-118125853D01*
X140042481Y-118218985D01*
X140161015Y-118337519D01*
X140254147Y-118476900D01*
X140318297Y-118631772D01*
X140351000Y-118796184D01*
X140351000Y-118963816D01*
X140318297Y-119128228D01*
X140254147Y-119283100D01*
X140161015Y-119422481D01*
X140042481Y-119541015D01*
X139903100Y-119634147D01*
X139748228Y-119698297D01*
X139583816Y-119731000D01*
X139416184Y-119731000D01*
X139251772Y-119698297D01*
X139096900Y-119634147D01*
X138957519Y-119541015D01*
X138838985Y-119422481D01*
X138745853Y-119283100D01*
X138681703Y-119128228D01*
X138649000Y-118963816D01*
X138649000Y-118796184D01*
X138681703Y-118631772D01*
X138745853Y-118476900D01*
X138838985Y-118337519D01*
X138957519Y-118218985D01*
X139096900Y-118125853D01*
X139251772Y-118061703D01*
X139416184Y-118029000D01*
X139583816Y-118029000D01*
X139748228Y-118061703D01*
G37*
G36*
X158868017Y-116070358D02*
G01*
X158942270Y-116101115D01*
X159016521Y-116131870D01*
X159016522Y-116131871D01*
X159150167Y-116221169D01*
X159263831Y-116334833D01*
X159330804Y-116435067D01*
X159353130Y-116468479D01*
X159383885Y-116542730D01*
X159414642Y-116616983D01*
X159446000Y-116774630D01*
X159446000Y-116935370D01*
X159414642Y-117093017D01*
X159353130Y-117241521D01*
X159353129Y-117241522D01*
X159263831Y-117375167D01*
X159150167Y-117488831D01*
X159049933Y-117555804D01*
X159016521Y-117578130D01*
X158868017Y-117639642D01*
X158710370Y-117671000D01*
X158549630Y-117671000D01*
X158391983Y-117639642D01*
X158243479Y-117578130D01*
X158210067Y-117555804D01*
X158109833Y-117488831D01*
X157996169Y-117375167D01*
X157906871Y-117241522D01*
X157906870Y-117241521D01*
X157876115Y-117167270D01*
X157845358Y-117093017D01*
X157814000Y-116935370D01*
X157814000Y-116774630D01*
X157845358Y-116616983D01*
X157876115Y-116542730D01*
X157906870Y-116468479D01*
X157929196Y-116435067D01*
X157996169Y-116334833D01*
X158109833Y-116221169D01*
X158243478Y-116131871D01*
X158243479Y-116131870D01*
X158317730Y-116101115D01*
X158391983Y-116070358D01*
X158549630Y-116039000D01*
X158710370Y-116039000D01*
X158868017Y-116070358D01*
G37*
G36*
X173608017Y-116070358D02*
G01*
X173682270Y-116101115D01*
X173756521Y-116131870D01*
X173756522Y-116131871D01*
X173890167Y-116221169D01*
X174003831Y-116334833D01*
X174070804Y-116435067D01*
X174093130Y-116468479D01*
X174123885Y-116542730D01*
X174154642Y-116616983D01*
X174186000Y-116774630D01*
X174186000Y-116935370D01*
X174154642Y-117093017D01*
X174093130Y-117241521D01*
X174093129Y-117241522D01*
X174003831Y-117375167D01*
X173890167Y-117488831D01*
X173789933Y-117555804D01*
X173756521Y-117578130D01*
X173608017Y-117639642D01*
X173450370Y-117671000D01*
X173289630Y-117671000D01*
X173131983Y-117639642D01*
X172983479Y-117578130D01*
X172950067Y-117555804D01*
X172849833Y-117488831D01*
X172736169Y-117375167D01*
X172646871Y-117241522D01*
X172646870Y-117241521D01*
X172616115Y-117167270D01*
X172585358Y-117093017D01*
X172554000Y-116935370D01*
X172554000Y-116774630D01*
X172585358Y-116616983D01*
X172616115Y-116542730D01*
X172646870Y-116468479D01*
X172669196Y-116435067D01*
X172736169Y-116334833D01*
X172849833Y-116221169D01*
X172983478Y-116131871D01*
X172983479Y-116131870D01*
X173057730Y-116101115D01*
X173131983Y-116070358D01*
X173289630Y-116039000D01*
X173450370Y-116039000D01*
X173608017Y-116070358D01*
G37*
G36*
X128248228Y-114181703D02*
G01*
X128403100Y-114245853D01*
X128542481Y-114338985D01*
X128661015Y-114457519D01*
X128754147Y-114596900D01*
X128818297Y-114751772D01*
X128851000Y-114916184D01*
X128851000Y-115083816D01*
X128818297Y-115248228D01*
X128754147Y-115403100D01*
X128661015Y-115542481D01*
X128542481Y-115661015D01*
X128403100Y-115754147D01*
X128248228Y-115818297D01*
X128083816Y-115851000D01*
X127916184Y-115851000D01*
X127751772Y-115818297D01*
X127596900Y-115754147D01*
X127457519Y-115661015D01*
X127338985Y-115542481D01*
X127245853Y-115403100D01*
X127181703Y-115248228D01*
X127149000Y-115083816D01*
X127149000Y-114916184D01*
X127181703Y-114751772D01*
X127245853Y-114596900D01*
X127338985Y-114457519D01*
X127457519Y-114338985D01*
X127596900Y-114245853D01*
X127751772Y-114181703D01*
X127916184Y-114149000D01*
X128083816Y-114149000D01*
X128248228Y-114181703D01*
G37*
G36*
X132248228Y-114181703D02*
G01*
X132403100Y-114245853D01*
X132542481Y-114338985D01*
X132661015Y-114457519D01*
X132754147Y-114596900D01*
X132818297Y-114751772D01*
X132851000Y-114916184D01*
X132851000Y-115083816D01*
X132818297Y-115248228D01*
X132754147Y-115403100D01*
X132661015Y-115542481D01*
X132542481Y-115661015D01*
X132403100Y-115754147D01*
X132248228Y-115818297D01*
X132083816Y-115851000D01*
X131916184Y-115851000D01*
X131751772Y-115818297D01*
X131596900Y-115754147D01*
X131457519Y-115661015D01*
X131338985Y-115542481D01*
X131245853Y-115403100D01*
X131181703Y-115248228D01*
X131149000Y-115083816D01*
X131149000Y-114916184D01*
X131181703Y-114751772D01*
X131245853Y-114596900D01*
X131338985Y-114457519D01*
X131457519Y-114338985D01*
X131596900Y-114245853D01*
X131751772Y-114181703D01*
X131916184Y-114149000D01*
X132083816Y-114149000D01*
X132248228Y-114181703D01*
G37*
G36*
X140748228Y-113801703D02*
G01*
X140903100Y-113865853D01*
X141042481Y-113958985D01*
X141161015Y-114077519D01*
X141254147Y-114216900D01*
X141318297Y-114371772D01*
X141351000Y-114536184D01*
X141351000Y-114703816D01*
X141318297Y-114868228D01*
X141254147Y-115023100D01*
X141161015Y-115162481D01*
X141042481Y-115281015D01*
X140903100Y-115374147D01*
X140748228Y-115438297D01*
X140583816Y-115471000D01*
X140416184Y-115471000D01*
X140251772Y-115438297D01*
X140096900Y-115374147D01*
X139957519Y-115281015D01*
X139838985Y-115162481D01*
X139745853Y-115023100D01*
X139681703Y-114868228D01*
X139649000Y-114703816D01*
X139649000Y-114536184D01*
X139681703Y-114371772D01*
X139745853Y-114216900D01*
X139838985Y-114077519D01*
X139957519Y-113958985D01*
X140096900Y-113865853D01*
X140251772Y-113801703D01*
X140416184Y-113769000D01*
X140583816Y-113769000D01*
X140748228Y-113801703D01*
G37*
G36*
X137851000Y-115351000D02*
G01*
X136149000Y-115351000D01*
X136149000Y-113649000D01*
X137851000Y-113649000D01*
X137851000Y-115351000D01*
G37*
G36*
X145248228Y-113681703D02*
G01*
X145403100Y-113745853D01*
X145542481Y-113838985D01*
X145661015Y-113957519D01*
X145754147Y-114096900D01*
X145818297Y-114251772D01*
X145851000Y-114416184D01*
X145851000Y-114583816D01*
X145818297Y-114748228D01*
X145754147Y-114903100D01*
X145661015Y-115042481D01*
X145542481Y-115161015D01*
X145403100Y-115254147D01*
X145248228Y-115318297D01*
X145083816Y-115351000D01*
X144916184Y-115351000D01*
X144751772Y-115318297D01*
X144596900Y-115254147D01*
X144457519Y-115161015D01*
X144338985Y-115042481D01*
X144245853Y-114903100D01*
X144181703Y-114748228D01*
X144149000Y-114583816D01*
X144149000Y-114416184D01*
X144181703Y-114251772D01*
X144245853Y-114096900D01*
X144338985Y-113957519D01*
X144457519Y-113838985D01*
X144596900Y-113745853D01*
X144751772Y-113681703D01*
X144916184Y-113649000D01*
X145083816Y-113649000D01*
X145248228Y-113681703D01*
G37*
G36*
X151248228Y-113681703D02*
G01*
X151403100Y-113745853D01*
X151542481Y-113838985D01*
X151661015Y-113957519D01*
X151754147Y-114096900D01*
X151818297Y-114251772D01*
X151851000Y-114416184D01*
X151851000Y-114583816D01*
X151818297Y-114748228D01*
X151754147Y-114903100D01*
X151661015Y-115042481D01*
X151542481Y-115161015D01*
X151403100Y-115254147D01*
X151248228Y-115318297D01*
X151083816Y-115351000D01*
X150916184Y-115351000D01*
X150751772Y-115318297D01*
X150596900Y-115254147D01*
X150457519Y-115161015D01*
X150338985Y-115042481D01*
X150245853Y-114903100D01*
X150181703Y-114748228D01*
X150149000Y-114583816D01*
X150149000Y-114416184D01*
X150181703Y-114251772D01*
X150245853Y-114096900D01*
X150338985Y-113957519D01*
X150457519Y-113838985D01*
X150596900Y-113745853D01*
X150751772Y-113681703D01*
X150916184Y-113649000D01*
X151083816Y-113649000D01*
X151248228Y-113681703D01*
G37*
G36*
X174108017Y-113530358D02*
G01*
X174182270Y-113561115D01*
X174256521Y-113591870D01*
X174256522Y-113591871D01*
X174390167Y-113681169D01*
X174503831Y-113794833D01*
X174570804Y-113895067D01*
X174593130Y-113928479D01*
X174654642Y-114076983D01*
X174686000Y-114234630D01*
X174686000Y-114395370D01*
X174654642Y-114553017D01*
X174636465Y-114596900D01*
X174593130Y-114701521D01*
X174570804Y-114734933D01*
X174503831Y-114835167D01*
X174390167Y-114948831D01*
X174289933Y-115015804D01*
X174256521Y-115038130D01*
X174182270Y-115068885D01*
X174108017Y-115099642D01*
X173950370Y-115131000D01*
X173789630Y-115131000D01*
X173631983Y-115099642D01*
X173557730Y-115068885D01*
X173483479Y-115038130D01*
X173450067Y-115015805D01*
X173349833Y-114948831D01*
X173236169Y-114835167D01*
X173169196Y-114734933D01*
X173146870Y-114701521D01*
X173103535Y-114596900D01*
X173085358Y-114553017D01*
X173054000Y-114395370D01*
X173054000Y-114234630D01*
X173085358Y-114076983D01*
X173116115Y-114002730D01*
X173146870Y-113928479D01*
X173169196Y-113895067D01*
X173236169Y-113794833D01*
X173349833Y-113681169D01*
X173483478Y-113591871D01*
X173483479Y-113591870D01*
X173557730Y-113561115D01*
X173631983Y-113530358D01*
X173789630Y-113499000D01*
X173950370Y-113499000D01*
X174108017Y-113530358D01*
G37*
G36*
X158368017Y-113530358D02*
G01*
X158442270Y-113561115D01*
X158516521Y-113591870D01*
X158516522Y-113591871D01*
X158650167Y-113681169D01*
X158763831Y-113794833D01*
X158830804Y-113895067D01*
X158853130Y-113928479D01*
X158914642Y-114076983D01*
X158946000Y-114234630D01*
X158946000Y-114395370D01*
X158914642Y-114553017D01*
X158896465Y-114596900D01*
X158853130Y-114701521D01*
X158830804Y-114734933D01*
X158763831Y-114835167D01*
X158650167Y-114948831D01*
X158549933Y-115015804D01*
X158516521Y-115038130D01*
X158442270Y-115068885D01*
X158368017Y-115099642D01*
X158210370Y-115131000D01*
X158049630Y-115131000D01*
X157891983Y-115099642D01*
X157817730Y-115068885D01*
X157743479Y-115038130D01*
X157710067Y-115015805D01*
X157609833Y-114948831D01*
X157496169Y-114835167D01*
X157429196Y-114734933D01*
X157406870Y-114701521D01*
X157363535Y-114596900D01*
X157345358Y-114553017D01*
X157314000Y-114395370D01*
X157314000Y-114234630D01*
X157345358Y-114076983D01*
X157376115Y-114002730D01*
X157406870Y-113928479D01*
X157429196Y-113895067D01*
X157496169Y-113794833D01*
X157609833Y-113681169D01*
X157743478Y-113591871D01*
X157743479Y-113591870D01*
X157817730Y-113561115D01*
X157891983Y-113530358D01*
X158049630Y-113499000D01*
X158210370Y-113499000D01*
X158368017Y-113530358D01*
G37*
G36*
X158868017Y-110990358D02*
G01*
X158942270Y-111021115D01*
X159016521Y-111051870D01*
X159016522Y-111051871D01*
X159150167Y-111141169D01*
X159263831Y-111254833D01*
X159330804Y-111355067D01*
X159353130Y-111388479D01*
X159414642Y-111536983D01*
X159446000Y-111694630D01*
X159446000Y-111855370D01*
X159414642Y-112013017D01*
X159353130Y-112161521D01*
X159353129Y-112161522D01*
X159263831Y-112295167D01*
X159150167Y-112408831D01*
X159049933Y-112475804D01*
X159016521Y-112498130D01*
X158868017Y-112559642D01*
X158710370Y-112591000D01*
X158549630Y-112591000D01*
X158391983Y-112559642D01*
X158243479Y-112498130D01*
X158210067Y-112475804D01*
X158109833Y-112408831D01*
X157996169Y-112295167D01*
X157906871Y-112161522D01*
X157906870Y-112161521D01*
X157845358Y-112013017D01*
X157814000Y-111855370D01*
X157814000Y-111694630D01*
X157845358Y-111536983D01*
X157906870Y-111388479D01*
X157929195Y-111355067D01*
X157996169Y-111254833D01*
X158109833Y-111141169D01*
X158243478Y-111051871D01*
X158243479Y-111051870D01*
X158317730Y-111021115D01*
X158391983Y-110990358D01*
X158549630Y-110959000D01*
X158710370Y-110959000D01*
X158868017Y-110990358D01*
G37*
G36*
X173608017Y-110990358D02*
G01*
X173682270Y-111021115D01*
X173756521Y-111051870D01*
X173756522Y-111051871D01*
X173890167Y-111141169D01*
X174003831Y-111254833D01*
X174070804Y-111355067D01*
X174093130Y-111388479D01*
X174154642Y-111536983D01*
X174186000Y-111694630D01*
X174186000Y-111855370D01*
X174154642Y-112013017D01*
X174093130Y-112161521D01*
X174093129Y-112161522D01*
X174003831Y-112295167D01*
X173890167Y-112408831D01*
X173789933Y-112475804D01*
X173756521Y-112498130D01*
X173608017Y-112559642D01*
X173450370Y-112591000D01*
X173289630Y-112591000D01*
X173131983Y-112559642D01*
X172983479Y-112498130D01*
X172950067Y-112475804D01*
X172849833Y-112408831D01*
X172736169Y-112295167D01*
X172646871Y-112161522D01*
X172646870Y-112161521D01*
X172585358Y-112013017D01*
X172554000Y-111855370D01*
X172554000Y-111694630D01*
X172585358Y-111536983D01*
X172646870Y-111388479D01*
X172669195Y-111355067D01*
X172736169Y-111254833D01*
X172849833Y-111141169D01*
X172983478Y-111051871D01*
X172983479Y-111051870D01*
X173057730Y-111021115D01*
X173131983Y-110990358D01*
X173289630Y-110959000D01*
X173450370Y-110959000D01*
X173608017Y-110990358D01*
G37*
G36*
X128248228Y-109181703D02*
G01*
X128403100Y-109245853D01*
X128542481Y-109338985D01*
X128661015Y-109457519D01*
X128754147Y-109596900D01*
X128818297Y-109751772D01*
X128851000Y-109916184D01*
X128851000Y-110083816D01*
X128818297Y-110248228D01*
X128754147Y-110403100D01*
X128661015Y-110542481D01*
X128542481Y-110661015D01*
X128403100Y-110754147D01*
X128248228Y-110818297D01*
X128083816Y-110851000D01*
X127916184Y-110851000D01*
X127751772Y-110818297D01*
X127596900Y-110754147D01*
X127457519Y-110661015D01*
X127338985Y-110542481D01*
X127245853Y-110403100D01*
X127181703Y-110248228D01*
X127149000Y-110083816D01*
X127149000Y-109916184D01*
X127181703Y-109751772D01*
X127245853Y-109596900D01*
X127338985Y-109457519D01*
X127457519Y-109338985D01*
X127596900Y-109245853D01*
X127751772Y-109181703D01*
X127916184Y-109149000D01*
X128083816Y-109149000D01*
X128248228Y-109181703D01*
G37*
G36*
X132248228Y-109181703D02*
G01*
X132403100Y-109245853D01*
X132542481Y-109338985D01*
X132661015Y-109457519D01*
X132754147Y-109596900D01*
X132818297Y-109751772D01*
X132851000Y-109916184D01*
X132851000Y-110083816D01*
X132818297Y-110248228D01*
X132754147Y-110403100D01*
X132661015Y-110542481D01*
X132542481Y-110661015D01*
X132403100Y-110754147D01*
X132248228Y-110818297D01*
X132083816Y-110851000D01*
X131916184Y-110851000D01*
X131751772Y-110818297D01*
X131596900Y-110754147D01*
X131457519Y-110661015D01*
X131338985Y-110542481D01*
X131245853Y-110403100D01*
X131181703Y-110248228D01*
X131149000Y-110083816D01*
X131149000Y-109916184D01*
X131181703Y-109751772D01*
X131245853Y-109596900D01*
X131338985Y-109457519D01*
X131457519Y-109338985D01*
X131596900Y-109245853D01*
X131751772Y-109181703D01*
X131916184Y-109149000D01*
X132083816Y-109149000D01*
X132248228Y-109181703D01*
G37*
G36*
X151248228Y-108681703D02*
G01*
X151403100Y-108745853D01*
X151542481Y-108838985D01*
X151661015Y-108957519D01*
X151754147Y-109096900D01*
X151818297Y-109251772D01*
X151851000Y-109416184D01*
X151851000Y-109583816D01*
X151818297Y-109748228D01*
X151754147Y-109903100D01*
X151661015Y-110042481D01*
X151542481Y-110161015D01*
X151403100Y-110254147D01*
X151248228Y-110318297D01*
X151083816Y-110351000D01*
X150916184Y-110351000D01*
X150751772Y-110318297D01*
X150596900Y-110254147D01*
X150457519Y-110161015D01*
X150338985Y-110042481D01*
X150245853Y-109903100D01*
X150181703Y-109748228D01*
X150149000Y-109583816D01*
X150149000Y-109416184D01*
X150181703Y-109251772D01*
X150245853Y-109096900D01*
X150338985Y-108957519D01*
X150457519Y-108838985D01*
X150596900Y-108745853D01*
X150751772Y-108681703D01*
X150916184Y-108649000D01*
X151083816Y-108649000D01*
X151248228Y-108681703D01*
G37*
G36*
X145248228Y-108681703D02*
G01*
X145403100Y-108745853D01*
X145542481Y-108838985D01*
X145661015Y-108957519D01*
X145754147Y-109096900D01*
X145818297Y-109251772D01*
X145851000Y-109416184D01*
X145851000Y-109583816D01*
X145818297Y-109748228D01*
X145754147Y-109903100D01*
X145661015Y-110042481D01*
X145542481Y-110161015D01*
X145403100Y-110254147D01*
X145248228Y-110318297D01*
X145083816Y-110351000D01*
X144916184Y-110351000D01*
X144751772Y-110318297D01*
X144596900Y-110254147D01*
X144457519Y-110161015D01*
X144338985Y-110042481D01*
X144245853Y-109903100D01*
X144181703Y-109748228D01*
X144149000Y-109583816D01*
X144149000Y-109416184D01*
X144181703Y-109251772D01*
X144245853Y-109096900D01*
X144338985Y-108957519D01*
X144457519Y-108838985D01*
X144596900Y-108745853D01*
X144751772Y-108681703D01*
X144916184Y-108649000D01*
X145083816Y-108649000D01*
X145248228Y-108681703D01*
G37*
G36*
X158368017Y-108450358D02*
G01*
X158417851Y-108471000D01*
X158516521Y-108511870D01*
X158516522Y-108511871D01*
X158650167Y-108601169D01*
X158763831Y-108714833D01*
X158830804Y-108815067D01*
X158853130Y-108848479D01*
X158883885Y-108922730D01*
X158914642Y-108996983D01*
X158946000Y-109154630D01*
X158946000Y-109315370D01*
X158914642Y-109473017D01*
X158883885Y-109547270D01*
X158853130Y-109621521D01*
X158853129Y-109621522D01*
X158763831Y-109755167D01*
X158650167Y-109868831D01*
X158579296Y-109916185D01*
X158516521Y-109958130D01*
X158442270Y-109988885D01*
X158368017Y-110019642D01*
X158210370Y-110051000D01*
X158049630Y-110051000D01*
X157891983Y-110019642D01*
X157817730Y-109988885D01*
X157743479Y-109958130D01*
X157680704Y-109916185D01*
X157609833Y-109868831D01*
X157496169Y-109755167D01*
X157406871Y-109621522D01*
X157406870Y-109621521D01*
X157376115Y-109547270D01*
X157345358Y-109473017D01*
X157314000Y-109315370D01*
X157314000Y-109154630D01*
X157345358Y-108996983D01*
X157376115Y-108922730D01*
X157406870Y-108848479D01*
X157429196Y-108815067D01*
X157496169Y-108714833D01*
X157609833Y-108601169D01*
X157743478Y-108511871D01*
X157743479Y-108511870D01*
X157842149Y-108471000D01*
X157891983Y-108450358D01*
X158049630Y-108419000D01*
X158210370Y-108419000D01*
X158368017Y-108450358D01*
G37*
G36*
X174108017Y-108450358D02*
G01*
X174157851Y-108471000D01*
X174256521Y-108511870D01*
X174256522Y-108511871D01*
X174390167Y-108601169D01*
X174503831Y-108714833D01*
X174570804Y-108815067D01*
X174593130Y-108848479D01*
X174623885Y-108922730D01*
X174654642Y-108996983D01*
X174686000Y-109154630D01*
X174686000Y-109315370D01*
X174654642Y-109473017D01*
X174623885Y-109547270D01*
X174593130Y-109621521D01*
X174593129Y-109621522D01*
X174503831Y-109755167D01*
X174390167Y-109868831D01*
X174319296Y-109916185D01*
X174256521Y-109958130D01*
X174182270Y-109988885D01*
X174108017Y-110019642D01*
X173950370Y-110051000D01*
X173789630Y-110051000D01*
X173631983Y-110019642D01*
X173557730Y-109988885D01*
X173483479Y-109958130D01*
X173420704Y-109916185D01*
X173349833Y-109868831D01*
X173236169Y-109755167D01*
X173146871Y-109621522D01*
X173146870Y-109621521D01*
X173116115Y-109547270D01*
X173085358Y-109473017D01*
X173054000Y-109315370D01*
X173054000Y-109154630D01*
X173085358Y-108996983D01*
X173116115Y-108922730D01*
X173146870Y-108848479D01*
X173169196Y-108815067D01*
X173236169Y-108714833D01*
X173349833Y-108601169D01*
X173483478Y-108511871D01*
X173483479Y-108511870D01*
X173582149Y-108471000D01*
X173631983Y-108450358D01*
X173789630Y-108419000D01*
X173950370Y-108419000D01*
X174108017Y-108450358D01*
G37*
G36*
X132248228Y-106801703D02*
G01*
X132403100Y-106865853D01*
X132542481Y-106958985D01*
X132661015Y-107077519D01*
X132754147Y-107216900D01*
X132818297Y-107371772D01*
X132851000Y-107536184D01*
X132851000Y-107703816D01*
X132818297Y-107868228D01*
X132754147Y-108023100D01*
X132661015Y-108162481D01*
X132542481Y-108281015D01*
X132403100Y-108374147D01*
X132248228Y-108438297D01*
X132083816Y-108471000D01*
X131916184Y-108471000D01*
X131751772Y-108438297D01*
X131596900Y-108374147D01*
X131457519Y-108281015D01*
X131338985Y-108162481D01*
X131245853Y-108023100D01*
X131181703Y-107868228D01*
X131149000Y-107703816D01*
X131149000Y-107536184D01*
X131181703Y-107371772D01*
X131245853Y-107216900D01*
X131338985Y-107077519D01*
X131457519Y-106958985D01*
X131596900Y-106865853D01*
X131751772Y-106801703D01*
X131916184Y-106769000D01*
X132083816Y-106769000D01*
X132248228Y-106801703D01*
G37*
G36*
X128248228Y-106801703D02*
G01*
X128403100Y-106865853D01*
X128542481Y-106958985D01*
X128661015Y-107077519D01*
X128754147Y-107216900D01*
X128818297Y-107371772D01*
X128851000Y-107536184D01*
X128851000Y-107703816D01*
X128818297Y-107868228D01*
X128754147Y-108023100D01*
X128661015Y-108162481D01*
X128542481Y-108281015D01*
X128403100Y-108374147D01*
X128248228Y-108438297D01*
X128083816Y-108471000D01*
X127916184Y-108471000D01*
X127751772Y-108438297D01*
X127596900Y-108374147D01*
X127457519Y-108281015D01*
X127338985Y-108162481D01*
X127245853Y-108023100D01*
X127181703Y-107868228D01*
X127149000Y-107703816D01*
X127149000Y-107536184D01*
X127181703Y-107371772D01*
X127245853Y-107216900D01*
X127338985Y-107077519D01*
X127457519Y-106958985D01*
X127596900Y-106865853D01*
X127751772Y-106801703D01*
X127916184Y-106769000D01*
X128083816Y-106769000D01*
X128248228Y-106801703D01*
G37*
G36*
X141351000Y-107851000D02*
G01*
X139649000Y-107851000D01*
X139649000Y-106149000D01*
X141351000Y-106149000D01*
X141351000Y-107851000D01*
G37*
G36*
X137248228Y-106061703D02*
G01*
X137403100Y-106125853D01*
X137542481Y-106218985D01*
X137661015Y-106337519D01*
X137754147Y-106476900D01*
X137818297Y-106631772D01*
X137851000Y-106796184D01*
X137851000Y-106963816D01*
X137818297Y-107128228D01*
X137754147Y-107283100D01*
X137661015Y-107422481D01*
X137542481Y-107541015D01*
X137403100Y-107634147D01*
X137248228Y-107698297D01*
X137083816Y-107731000D01*
X136916184Y-107731000D01*
X136751772Y-107698297D01*
X136596900Y-107634147D01*
X136457519Y-107541015D01*
X136338985Y-107422481D01*
X136245853Y-107283100D01*
X136181703Y-107128228D01*
X136149000Y-106963816D01*
X136149000Y-106796184D01*
X136181703Y-106631772D01*
X136245853Y-106476900D01*
X136338985Y-106337519D01*
X136457519Y-106218985D01*
X136596900Y-106125853D01*
X136751772Y-106061703D01*
X136916184Y-106029000D01*
X137083816Y-106029000D01*
X137248228Y-106061703D01*
G37*
G36*
X158868017Y-105910358D02*
G01*
X159016521Y-105971870D01*
X159016522Y-105971871D01*
X159150167Y-106061169D01*
X159263831Y-106174833D01*
X159293332Y-106218985D01*
X159353130Y-106308479D01*
X159365159Y-106337520D01*
X159414642Y-106456983D01*
X159446000Y-106614630D01*
X159446000Y-106775370D01*
X159414642Y-106933017D01*
X159383885Y-107007270D01*
X159353130Y-107081521D01*
X159353129Y-107081522D01*
X159263831Y-107215167D01*
X159150167Y-107328831D01*
X159049933Y-107395804D01*
X159016521Y-107418130D01*
X158868017Y-107479642D01*
X158710370Y-107511000D01*
X158549630Y-107511000D01*
X158391983Y-107479642D01*
X158317730Y-107448885D01*
X158243479Y-107418130D01*
X158210067Y-107395804D01*
X158109833Y-107328831D01*
X157996169Y-107215167D01*
X157906871Y-107081522D01*
X157906870Y-107081521D01*
X157876115Y-107007270D01*
X157845358Y-106933017D01*
X157814000Y-106775370D01*
X157814000Y-106614630D01*
X157845358Y-106456983D01*
X157894841Y-106337520D01*
X157906870Y-106308479D01*
X157966668Y-106218985D01*
X157996169Y-106174833D01*
X158109833Y-106061169D01*
X158243478Y-105971871D01*
X158243479Y-105971870D01*
X158391983Y-105910358D01*
X158549630Y-105879000D01*
X158710370Y-105879000D01*
X158868017Y-105910358D01*
G37*
G36*
X173608017Y-105910358D02*
G01*
X173756521Y-105971870D01*
X173756522Y-105971871D01*
X173890167Y-106061169D01*
X174003831Y-106174833D01*
X174033332Y-106218985D01*
X174093130Y-106308479D01*
X174105159Y-106337520D01*
X174154642Y-106456983D01*
X174186000Y-106614630D01*
X174186000Y-106775370D01*
X174154642Y-106933017D01*
X174123885Y-107007270D01*
X174093130Y-107081521D01*
X174093129Y-107081522D01*
X174003831Y-107215167D01*
X173890167Y-107328831D01*
X173789933Y-107395804D01*
X173756521Y-107418130D01*
X173608017Y-107479642D01*
X173450370Y-107511000D01*
X173289630Y-107511000D01*
X173131983Y-107479642D01*
X173057730Y-107448885D01*
X172983479Y-107418130D01*
X172950067Y-107395804D01*
X172849833Y-107328831D01*
X172736169Y-107215167D01*
X172646871Y-107081522D01*
X172646870Y-107081521D01*
X172616115Y-107007270D01*
X172585358Y-106933017D01*
X172554000Y-106775370D01*
X172554000Y-106614630D01*
X172585358Y-106456983D01*
X172634841Y-106337520D01*
X172646870Y-106308479D01*
X172706668Y-106218985D01*
X172736169Y-106174833D01*
X172849833Y-106061169D01*
X172983478Y-105971871D01*
X172983479Y-105971870D01*
X173131983Y-105910358D01*
X173289630Y-105879000D01*
X173450370Y-105879000D01*
X173608017Y-105910358D01*
G37*
G36*
X151248228Y-104181703D02*
G01*
X151403100Y-104245853D01*
X151542481Y-104338985D01*
X151661015Y-104457519D01*
X151754147Y-104596900D01*
X151818297Y-104751772D01*
X151851000Y-104916184D01*
X151851000Y-105083816D01*
X151818297Y-105248228D01*
X151754147Y-105403100D01*
X151661015Y-105542481D01*
X151542481Y-105661015D01*
X151403100Y-105754147D01*
X151248228Y-105818297D01*
X151083816Y-105851000D01*
X150916184Y-105851000D01*
X150751772Y-105818297D01*
X150596900Y-105754147D01*
X150457519Y-105661015D01*
X150338985Y-105542481D01*
X150245853Y-105403100D01*
X150181703Y-105248228D01*
X150149000Y-105083816D01*
X150149000Y-104916184D01*
X150181703Y-104751772D01*
X150245853Y-104596900D01*
X150338985Y-104457519D01*
X150457519Y-104338985D01*
X150596900Y-104245853D01*
X150751772Y-104181703D01*
X150916184Y-104149000D01*
X151083816Y-104149000D01*
X151248228Y-104181703D01*
G37*
G36*
X174108017Y-103370358D02*
G01*
X174256521Y-103431870D01*
X174256522Y-103431871D01*
X174390167Y-103521169D01*
X174503831Y-103634833D01*
X174570805Y-103735067D01*
X174593130Y-103768479D01*
X174613764Y-103818295D01*
X174654642Y-103916983D01*
X174686000Y-104074630D01*
X174686000Y-104235370D01*
X174654642Y-104393017D01*
X174627924Y-104457519D01*
X174593130Y-104541521D01*
X174593129Y-104541522D01*
X174503831Y-104675167D01*
X174390167Y-104788831D01*
X174289933Y-104855805D01*
X174256521Y-104878130D01*
X174108017Y-104939642D01*
X173950370Y-104971000D01*
X173789630Y-104971000D01*
X173631983Y-104939642D01*
X173557730Y-104908885D01*
X173483479Y-104878130D01*
X173450067Y-104855805D01*
X173349833Y-104788831D01*
X173236169Y-104675167D01*
X173146871Y-104541522D01*
X173146870Y-104541521D01*
X173112076Y-104457519D01*
X173085358Y-104393017D01*
X173054000Y-104235370D01*
X173054000Y-104074630D01*
X173085358Y-103916983D01*
X173126236Y-103818295D01*
X173146870Y-103768479D01*
X173169196Y-103735067D01*
X173236169Y-103634833D01*
X173349833Y-103521169D01*
X173483478Y-103431871D01*
X173483479Y-103431870D01*
X173557730Y-103401115D01*
X173631983Y-103370358D01*
X173789630Y-103339000D01*
X173950370Y-103339000D01*
X174108017Y-103370358D01*
G37*
G36*
X158368017Y-103370358D02*
G01*
X158516521Y-103431870D01*
X158516522Y-103431871D01*
X158650167Y-103521169D01*
X158763831Y-103634833D01*
X158830805Y-103735067D01*
X158853130Y-103768479D01*
X158873764Y-103818295D01*
X158914642Y-103916983D01*
X158946000Y-104074630D01*
X158946000Y-104235370D01*
X158914642Y-104393017D01*
X158887924Y-104457519D01*
X158853130Y-104541521D01*
X158853129Y-104541522D01*
X158763831Y-104675167D01*
X158650167Y-104788831D01*
X158549933Y-104855805D01*
X158516521Y-104878130D01*
X158368017Y-104939642D01*
X158210370Y-104971000D01*
X158049630Y-104971000D01*
X157891983Y-104939642D01*
X157817730Y-104908885D01*
X157743479Y-104878130D01*
X157710067Y-104855805D01*
X157609833Y-104788831D01*
X157496169Y-104675167D01*
X157406871Y-104541522D01*
X157406870Y-104541521D01*
X157372076Y-104457519D01*
X157345358Y-104393017D01*
X157314000Y-104235370D01*
X157314000Y-104074630D01*
X157345358Y-103916983D01*
X157386236Y-103818295D01*
X157406870Y-103768479D01*
X157429196Y-103735067D01*
X157496169Y-103634833D01*
X157609833Y-103521169D01*
X157743478Y-103431871D01*
X157743479Y-103431870D01*
X157817730Y-103401115D01*
X157891983Y-103370358D01*
X158049630Y-103339000D01*
X158210370Y-103339000D01*
X158368017Y-103370358D01*
G37*
G36*
X136248228Y-102181703D02*
G01*
X136403100Y-102245853D01*
X136542481Y-102338985D01*
X136661015Y-102457519D01*
X136754147Y-102596900D01*
X136818297Y-102751772D01*
X136851000Y-102916184D01*
X136851000Y-103083816D01*
X136818297Y-103248228D01*
X136754147Y-103403100D01*
X136661015Y-103542481D01*
X136542481Y-103661015D01*
X136403100Y-103754147D01*
X136248228Y-103818297D01*
X136083816Y-103851000D01*
X135916184Y-103851000D01*
X135751772Y-103818297D01*
X135596900Y-103754147D01*
X135457519Y-103661015D01*
X135338985Y-103542481D01*
X135245853Y-103403100D01*
X135181703Y-103248228D01*
X135149000Y-103083816D01*
X135149000Y-102916184D01*
X135181703Y-102751772D01*
X135245853Y-102596900D01*
X135338985Y-102457519D01*
X135457519Y-102338985D01*
X135596900Y-102245853D01*
X135751772Y-102181703D01*
X135916184Y-102149000D01*
X136083816Y-102149000D01*
X136248228Y-102181703D01*
G37*
G36*
X140248228Y-102181703D02*
G01*
X140403100Y-102245853D01*
X140542481Y-102338985D01*
X140661015Y-102457519D01*
X140754147Y-102596900D01*
X140818297Y-102751772D01*
X140851000Y-102916184D01*
X140851000Y-103083816D01*
X140818297Y-103248228D01*
X140754147Y-103403100D01*
X140661015Y-103542481D01*
X140542481Y-103661015D01*
X140403100Y-103754147D01*
X140248228Y-103818297D01*
X140083816Y-103851000D01*
X139916184Y-103851000D01*
X139751772Y-103818297D01*
X139596900Y-103754147D01*
X139457519Y-103661015D01*
X139338985Y-103542481D01*
X139245853Y-103403100D01*
X139181703Y-103248228D01*
X139149000Y-103083816D01*
X139149000Y-102916184D01*
X139181703Y-102751772D01*
X139245853Y-102596900D01*
X139338985Y-102457519D01*
X139457519Y-102338985D01*
X139596900Y-102245853D01*
X139751772Y-102181703D01*
X139916184Y-102149000D01*
X140083816Y-102149000D01*
X140248228Y-102181703D01*
G37*
G36*
X151248228Y-99181703D02*
G01*
X151403100Y-99245853D01*
X151542481Y-99338985D01*
X151661015Y-99457519D01*
X151754147Y-99596900D01*
X151818297Y-99751772D01*
X151851000Y-99916184D01*
X151851000Y-100083816D01*
X151818297Y-100248228D01*
X151754147Y-100403100D01*
X151661015Y-100542481D01*
X151542481Y-100661015D01*
X151403100Y-100754147D01*
X151248228Y-100818297D01*
X151083816Y-100851000D01*
X150916184Y-100851000D01*
X150751772Y-100818297D01*
X150596900Y-100754147D01*
X150457519Y-100661015D01*
X150338985Y-100542481D01*
X150245853Y-100403100D01*
X150181703Y-100248228D01*
X150149000Y-100083816D01*
X150149000Y-99916184D01*
X150181703Y-99751772D01*
X150245853Y-99596900D01*
X150338985Y-99457519D01*
X150457519Y-99338985D01*
X150596900Y-99245853D01*
X150751772Y-99181703D01*
X150916184Y-99149000D01*
X151083816Y-99149000D01*
X151248228Y-99181703D01*
G37*
G36*
X132248228Y-99181703D02*
G01*
X132403100Y-99245853D01*
X132542481Y-99338985D01*
X132661015Y-99457519D01*
X132754147Y-99596900D01*
X132818297Y-99751772D01*
X132851000Y-99916184D01*
X132851000Y-100083816D01*
X132818297Y-100248228D01*
X132754147Y-100403100D01*
X132661015Y-100542481D01*
X132542481Y-100661015D01*
X132403100Y-100754147D01*
X132248228Y-100818297D01*
X132083816Y-100851000D01*
X131916184Y-100851000D01*
X131751772Y-100818297D01*
X131596900Y-100754147D01*
X131457519Y-100661015D01*
X131338985Y-100542481D01*
X131245853Y-100403100D01*
X131181703Y-100248228D01*
X131149000Y-100083816D01*
X131149000Y-99916184D01*
X131181703Y-99751772D01*
X131245853Y-99596900D01*
X131338985Y-99457519D01*
X131457519Y-99338985D01*
X131596900Y-99245853D01*
X131751772Y-99181703D01*
X131916184Y-99149000D01*
X132083816Y-99149000D01*
X132248228Y-99181703D01*
G37*
G36*
X128248228Y-99181703D02*
G01*
X128403100Y-99245853D01*
X128542481Y-99338985D01*
X128661015Y-99457519D01*
X128754147Y-99596900D01*
X128818297Y-99751772D01*
X128851000Y-99916184D01*
X128851000Y-100083816D01*
X128818297Y-100248228D01*
X128754147Y-100403100D01*
X128661015Y-100542481D01*
X128542481Y-100661015D01*
X128403100Y-100754147D01*
X128248228Y-100818297D01*
X128083816Y-100851000D01*
X127916184Y-100851000D01*
X127751772Y-100818297D01*
X127596900Y-100754147D01*
X127457519Y-100661015D01*
X127338985Y-100542481D01*
X127245853Y-100403100D01*
X127181703Y-100248228D01*
X127149000Y-100083816D01*
X127149000Y-99916184D01*
X127181703Y-99751772D01*
X127245853Y-99596900D01*
X127338985Y-99457519D01*
X127457519Y-99338985D01*
X127596900Y-99245853D01*
X127751772Y-99181703D01*
X127916184Y-99149000D01*
X128083816Y-99149000D01*
X128248228Y-99181703D01*
G37*
G36*
X140248228Y-97181703D02*
G01*
X140403100Y-97245853D01*
X140542481Y-97338985D01*
X140661015Y-97457519D01*
X140754147Y-97596900D01*
X140818297Y-97751772D01*
X140851000Y-97916184D01*
X140851000Y-98083816D01*
X140818297Y-98248228D01*
X140754147Y-98403100D01*
X140661015Y-98542481D01*
X140542481Y-98661015D01*
X140403100Y-98754147D01*
X140248228Y-98818297D01*
X140083816Y-98851000D01*
X139916184Y-98851000D01*
X139751772Y-98818297D01*
X139596900Y-98754147D01*
X139457519Y-98661015D01*
X139338985Y-98542481D01*
X139245853Y-98403100D01*
X139181703Y-98248228D01*
X139149000Y-98083816D01*
X139149000Y-97916184D01*
X139181703Y-97751772D01*
X139245853Y-97596900D01*
X139338985Y-97457519D01*
X139457519Y-97338985D01*
X139596900Y-97245853D01*
X139751772Y-97181703D01*
X139916184Y-97149000D01*
X140083816Y-97149000D01*
X140248228Y-97181703D01*
G37*
G36*
X136248228Y-97181703D02*
G01*
X136403100Y-97245853D01*
X136542481Y-97338985D01*
X136661015Y-97457519D01*
X136754147Y-97596900D01*
X136818297Y-97751772D01*
X136851000Y-97916184D01*
X136851000Y-98083816D01*
X136818297Y-98248228D01*
X136754147Y-98403100D01*
X136661015Y-98542481D01*
X136542481Y-98661015D01*
X136403100Y-98754147D01*
X136248228Y-98818297D01*
X136083816Y-98851000D01*
X135916184Y-98851000D01*
X135751772Y-98818297D01*
X135596900Y-98754147D01*
X135457519Y-98661015D01*
X135338985Y-98542481D01*
X135245853Y-98403100D01*
X135181703Y-98248228D01*
X135149000Y-98083816D01*
X135149000Y-97916184D01*
X135181703Y-97751772D01*
X135245853Y-97596900D01*
X135338985Y-97457519D01*
X135457519Y-97338985D01*
X135596900Y-97245853D01*
X135751772Y-97181703D01*
X135916184Y-97149000D01*
X136083816Y-97149000D01*
X136248228Y-97181703D01*
G37*
G36*
X151748228Y-94801703D02*
G01*
X151903100Y-94865853D01*
X152042481Y-94958985D01*
X152161015Y-95077519D01*
X152254147Y-95216900D01*
X152318297Y-95371772D01*
X152351000Y-95536184D01*
X152351000Y-95703816D01*
X152318297Y-95868228D01*
X152254147Y-96023100D01*
X152161015Y-96162481D01*
X152042481Y-96281015D01*
X151903100Y-96374147D01*
X151748228Y-96438297D01*
X151583816Y-96471000D01*
X151416184Y-96471000D01*
X151251772Y-96438297D01*
X151096900Y-96374147D01*
X150957519Y-96281015D01*
X150838985Y-96162481D01*
X150745853Y-96023100D01*
X150681703Y-95868228D01*
X150649000Y-95703816D01*
X150649000Y-95536184D01*
X150681703Y-95371772D01*
X150745853Y-95216900D01*
X150838985Y-95077519D01*
X150957519Y-94958985D01*
X151096900Y-94865853D01*
X151251772Y-94801703D01*
X151416184Y-94769000D01*
X151583816Y-94769000D01*
X151748228Y-94801703D01*
G37*
G36*
X147748228Y-94681703D02*
G01*
X147903100Y-94745853D01*
X148042481Y-94838985D01*
X148161015Y-94957519D01*
X148254147Y-95096900D01*
X148318297Y-95251772D01*
X148351000Y-95416184D01*
X148351000Y-95583816D01*
X148318297Y-95748228D01*
X148254147Y-95903100D01*
X148161015Y-96042481D01*
X148042481Y-96161015D01*
X147903100Y-96254147D01*
X147748228Y-96318297D01*
X147583816Y-96351000D01*
X147416184Y-96351000D01*
X147251772Y-96318297D01*
X147096900Y-96254147D01*
X146957519Y-96161015D01*
X146838985Y-96042481D01*
X146745853Y-95903100D01*
X146681703Y-95748228D01*
X146649000Y-95583816D01*
X146649000Y-95416184D01*
X146681703Y-95251772D01*
X146745853Y-95096900D01*
X146838985Y-94957519D01*
X146957519Y-94838985D01*
X147096900Y-94745853D01*
X147251772Y-94681703D01*
X147416184Y-94649000D01*
X147583816Y-94649000D01*
X147748228Y-94681703D01*
G37*
G36*
X133748228Y-93801703D02*
G01*
X133903100Y-93865853D01*
X134042481Y-93958985D01*
X134161015Y-94077519D01*
X134254147Y-94216900D01*
X134318297Y-94371772D01*
X134351000Y-94536184D01*
X134351000Y-94703816D01*
X134318297Y-94868228D01*
X134254147Y-95023100D01*
X134161015Y-95162481D01*
X134042481Y-95281015D01*
X133903100Y-95374147D01*
X133748228Y-95438297D01*
X133583816Y-95471000D01*
X133416184Y-95471000D01*
X133251772Y-95438297D01*
X133096900Y-95374147D01*
X132957519Y-95281015D01*
X132838985Y-95162481D01*
X132745853Y-95023100D01*
X132681703Y-94868228D01*
X132649000Y-94703816D01*
X132649000Y-94536184D01*
X132681703Y-94371772D01*
X132745853Y-94216900D01*
X132838985Y-94077519D01*
X132957519Y-93958985D01*
X133096900Y-93865853D01*
X133251772Y-93801703D01*
X133416184Y-93769000D01*
X133583816Y-93769000D01*
X133748228Y-93801703D01*
G37*
G36*
X129748228Y-93801703D02*
G01*
X129903100Y-93865853D01*
X130042481Y-93958985D01*
X130161015Y-94077519D01*
X130254147Y-94216900D01*
X130318297Y-94371772D01*
X130351000Y-94536184D01*
X130351000Y-94703816D01*
X130318297Y-94868228D01*
X130254147Y-95023100D01*
X130161015Y-95162481D01*
X130042481Y-95281015D01*
X129903100Y-95374147D01*
X129748228Y-95438297D01*
X129583816Y-95471000D01*
X129416184Y-95471000D01*
X129251772Y-95438297D01*
X129096900Y-95374147D01*
X128957519Y-95281015D01*
X128838985Y-95162481D01*
X128745853Y-95023100D01*
X128681703Y-94868228D01*
X128649000Y-94703816D01*
X128649000Y-94536184D01*
X128681703Y-94371772D01*
X128745853Y-94216900D01*
X128838985Y-94077519D01*
X128957519Y-93958985D01*
X129096900Y-93865853D01*
X129251772Y-93801703D01*
X129416184Y-93769000D01*
X129583816Y-93769000D01*
X129748228Y-93801703D01*
G37*
G36*
X137748228Y-93681703D02*
G01*
X137903100Y-93745853D01*
X138042481Y-93838985D01*
X138161015Y-93957519D01*
X138254147Y-94096900D01*
X138318297Y-94251772D01*
X138351000Y-94416184D01*
X138351000Y-94583816D01*
X138318297Y-94748228D01*
X138254147Y-94903100D01*
X138161015Y-95042481D01*
X138042481Y-95161015D01*
X137903100Y-95254147D01*
X137748228Y-95318297D01*
X137583816Y-95351000D01*
X137416184Y-95351000D01*
X137251772Y-95318297D01*
X137096900Y-95254147D01*
X136957519Y-95161015D01*
X136838985Y-95042481D01*
X136745853Y-94903100D01*
X136681703Y-94748228D01*
X136649000Y-94583816D01*
X136649000Y-94416184D01*
X136681703Y-94251772D01*
X136745853Y-94096900D01*
X136838985Y-93957519D01*
X136957519Y-93838985D01*
X137096900Y-93745853D01*
X137251772Y-93681703D01*
X137416184Y-93649000D01*
X137583816Y-93649000D01*
X137748228Y-93681703D01*
G37*
G36*
X177748228Y-88681703D02*
G01*
X177903100Y-88745853D01*
X178042481Y-88838985D01*
X178161015Y-88957519D01*
X178254147Y-89096900D01*
X178318297Y-89251772D01*
X178351000Y-89416184D01*
X178351000Y-89583816D01*
X178318297Y-89748228D01*
X178254147Y-89903100D01*
X178161015Y-90042481D01*
X178042481Y-90161015D01*
X177903100Y-90254147D01*
X177748228Y-90318297D01*
X177583816Y-90351000D01*
X177416184Y-90351000D01*
X177251772Y-90318297D01*
X177096900Y-90254147D01*
X176957519Y-90161015D01*
X176838985Y-90042481D01*
X176745853Y-89903100D01*
X176681703Y-89748228D01*
X176649000Y-89583816D01*
X176649000Y-89416184D01*
X176681703Y-89251772D01*
X176745853Y-89096900D01*
X176838985Y-88957519D01*
X176957519Y-88838985D01*
X177096900Y-88745853D01*
X177251772Y-88681703D01*
X177416184Y-88649000D01*
X177583816Y-88649000D01*
X177748228Y-88681703D01*
G37*
G36*
X141248228Y-88681703D02*
G01*
X141403100Y-88745853D01*
X141542481Y-88838985D01*
X141661015Y-88957519D01*
X141754147Y-89096900D01*
X141818297Y-89251772D01*
X141851000Y-89416184D01*
X141851000Y-89583816D01*
X141818297Y-89748228D01*
X141754147Y-89903100D01*
X141661015Y-90042481D01*
X141542481Y-90161015D01*
X141403100Y-90254147D01*
X141248228Y-90318297D01*
X141083816Y-90351000D01*
X140916184Y-90351000D01*
X140751772Y-90318297D01*
X140596900Y-90254147D01*
X140457519Y-90161015D01*
X140338985Y-90042481D01*
X140245853Y-89903100D01*
X140181703Y-89748228D01*
X140149000Y-89583816D01*
X140149000Y-89416184D01*
X140181703Y-89251772D01*
X140245853Y-89096900D01*
X140338985Y-88957519D01*
X140457519Y-88838985D01*
X140596900Y-88745853D01*
X140751772Y-88681703D01*
X140916184Y-88649000D01*
X141083816Y-88649000D01*
X141248228Y-88681703D01*
G37*
G36*
X170128228Y-88681703D02*
G01*
X170283100Y-88745853D01*
X170422481Y-88838985D01*
X170541015Y-88957519D01*
X170634147Y-89096900D01*
X170698297Y-89251772D01*
X170731000Y-89416184D01*
X170731000Y-89583816D01*
X170698297Y-89748228D01*
X170634147Y-89903100D01*
X170541015Y-90042481D01*
X170422481Y-90161015D01*
X170283100Y-90254147D01*
X170128228Y-90318297D01*
X169963816Y-90351000D01*
X169796184Y-90351000D01*
X169631772Y-90318297D01*
X169476900Y-90254147D01*
X169337519Y-90161015D01*
X169218985Y-90042481D01*
X169125853Y-89903100D01*
X169061703Y-89748228D01*
X169029000Y-89583816D01*
X169029000Y-89416184D01*
X169061703Y-89251772D01*
X169125853Y-89096900D01*
X169218985Y-88957519D01*
X169337519Y-88838985D01*
X169476900Y-88745853D01*
X169631772Y-88681703D01*
X169796184Y-88649000D01*
X169963816Y-88649000D01*
X170128228Y-88681703D01*
G37*
G36*
X151748228Y-87181703D02*
G01*
X151903100Y-87245853D01*
X152042481Y-87338985D01*
X152161015Y-87457519D01*
X152254147Y-87596900D01*
X152318297Y-87751772D01*
X152351000Y-87916184D01*
X152351000Y-88083816D01*
X152318297Y-88248228D01*
X152254147Y-88403100D01*
X152161015Y-88542481D01*
X152042481Y-88661015D01*
X151903100Y-88754147D01*
X151748228Y-88818297D01*
X151583816Y-88851000D01*
X151416184Y-88851000D01*
X151251772Y-88818297D01*
X151096900Y-88754147D01*
X150957519Y-88661015D01*
X150838985Y-88542481D01*
X150745853Y-88403100D01*
X150681703Y-88248228D01*
X150649000Y-88083816D01*
X150649000Y-87916184D01*
X150681703Y-87751772D01*
X150745853Y-87596900D01*
X150838985Y-87457519D01*
X150957519Y-87338985D01*
X151096900Y-87245853D01*
X151251772Y-87181703D01*
X151416184Y-87149000D01*
X151583816Y-87149000D01*
X151748228Y-87181703D01*
G37*
G36*
X147748228Y-87061703D02*
G01*
X147903100Y-87125853D01*
X148042481Y-87218985D01*
X148161015Y-87337519D01*
X148254147Y-87476900D01*
X148318297Y-87631772D01*
X148351000Y-87796184D01*
X148351000Y-87963816D01*
X148318297Y-88128228D01*
X148254147Y-88283100D01*
X148161015Y-88422481D01*
X148042481Y-88541015D01*
X147903100Y-88634147D01*
X147748228Y-88698297D01*
X147583816Y-88731000D01*
X147416184Y-88731000D01*
X147251772Y-88698297D01*
X147096900Y-88634147D01*
X146957519Y-88541015D01*
X146838985Y-88422481D01*
X146745853Y-88283100D01*
X146681703Y-88128228D01*
X146649000Y-87963816D01*
X146649000Y-87796184D01*
X146681703Y-87631772D01*
X146745853Y-87476900D01*
X146838985Y-87337519D01*
X146957519Y-87218985D01*
X147096900Y-87125853D01*
X147251772Y-87061703D01*
X147416184Y-87029000D01*
X147583816Y-87029000D01*
X147748228Y-87061703D01*
G37*
G36*
X141248228Y-86181703D02*
G01*
X141403100Y-86245853D01*
X141542481Y-86338985D01*
X141661015Y-86457519D01*
X141754147Y-86596900D01*
X141818297Y-86751772D01*
X141851000Y-86916184D01*
X141851000Y-87083816D01*
X141818297Y-87248228D01*
X141754147Y-87403100D01*
X141661015Y-87542481D01*
X141542481Y-87661015D01*
X141403100Y-87754147D01*
X141248228Y-87818297D01*
X141083816Y-87851000D01*
X140916184Y-87851000D01*
X140751772Y-87818297D01*
X140596900Y-87754147D01*
X140457519Y-87661015D01*
X140338985Y-87542481D01*
X140245853Y-87403100D01*
X140181703Y-87248228D01*
X140149000Y-87083816D01*
X140149000Y-86916184D01*
X140181703Y-86751772D01*
X140245853Y-86596900D01*
X140338985Y-86457519D01*
X140457519Y-86338985D01*
X140596900Y-86245853D01*
X140751772Y-86181703D01*
X140916184Y-86149000D01*
X141083816Y-86149000D01*
X141248228Y-86181703D01*
G37*
G36*
X133748228Y-86181703D02*
G01*
X133903100Y-86245853D01*
X134042481Y-86338985D01*
X134161015Y-86457519D01*
X134254147Y-86596900D01*
X134318297Y-86751772D01*
X134351000Y-86916184D01*
X134351000Y-87083816D01*
X134318297Y-87248228D01*
X134254147Y-87403100D01*
X134161015Y-87542481D01*
X134042481Y-87661015D01*
X133903100Y-87754147D01*
X133748228Y-87818297D01*
X133583816Y-87851000D01*
X133416184Y-87851000D01*
X133251772Y-87818297D01*
X133096900Y-87754147D01*
X132957519Y-87661015D01*
X132838985Y-87542481D01*
X132745853Y-87403100D01*
X132681703Y-87248228D01*
X132649000Y-87083816D01*
X132649000Y-86916184D01*
X132681703Y-86751772D01*
X132745853Y-86596900D01*
X132838985Y-86457519D01*
X132957519Y-86338985D01*
X133096900Y-86245853D01*
X133251772Y-86181703D01*
X133416184Y-86149000D01*
X133583816Y-86149000D01*
X133748228Y-86181703D01*
G37*
G36*
X129748228Y-86181703D02*
G01*
X129903100Y-86245853D01*
X130042481Y-86338985D01*
X130161015Y-86457519D01*
X130254147Y-86596900D01*
X130318297Y-86751772D01*
X130351000Y-86916184D01*
X130351000Y-87083816D01*
X130318297Y-87248228D01*
X130254147Y-87403100D01*
X130161015Y-87542481D01*
X130042481Y-87661015D01*
X129903100Y-87754147D01*
X129748228Y-87818297D01*
X129583816Y-87851000D01*
X129416184Y-87851000D01*
X129251772Y-87818297D01*
X129096900Y-87754147D01*
X128957519Y-87661015D01*
X128838985Y-87542481D01*
X128745853Y-87403100D01*
X128681703Y-87248228D01*
X128649000Y-87083816D01*
X128649000Y-86916184D01*
X128681703Y-86751772D01*
X128745853Y-86596900D01*
X128838985Y-86457519D01*
X128957519Y-86338985D01*
X129096900Y-86245853D01*
X129251772Y-86181703D01*
X129416184Y-86149000D01*
X129583816Y-86149000D01*
X129748228Y-86181703D01*
G37*
G36*
X137748228Y-86061703D02*
G01*
X137903100Y-86125853D01*
X138042481Y-86218985D01*
X138161015Y-86337519D01*
X138254147Y-86476900D01*
X138318297Y-86631772D01*
X138351000Y-86796184D01*
X138351000Y-86963816D01*
X138318297Y-87128228D01*
X138254147Y-87283100D01*
X138161015Y-87422481D01*
X138042481Y-87541015D01*
X137903100Y-87634147D01*
X137748228Y-87698297D01*
X137583816Y-87731000D01*
X137416184Y-87731000D01*
X137251772Y-87698297D01*
X137096900Y-87634147D01*
X136957519Y-87541015D01*
X136838985Y-87422481D01*
X136745853Y-87283100D01*
X136681703Y-87128228D01*
X136649000Y-86963816D01*
X136649000Y-86796184D01*
X136681703Y-86631772D01*
X136745853Y-86476900D01*
X136838985Y-86337519D01*
X136957519Y-86218985D01*
X137096900Y-86125853D01*
X137251772Y-86061703D01*
X137416184Y-86029000D01*
X137583816Y-86029000D01*
X137748228Y-86061703D01*
G37*
G36*
X177748228Y-83681703D02*
G01*
X177903100Y-83745853D01*
X178042481Y-83838985D01*
X178161015Y-83957519D01*
X178254147Y-84096900D01*
X178318297Y-84251772D01*
X178351000Y-84416184D01*
X178351000Y-84583816D01*
X178318297Y-84748228D01*
X178254147Y-84903100D01*
X178161015Y-85042481D01*
X178042481Y-85161015D01*
X177903100Y-85254147D01*
X177748228Y-85318297D01*
X177583816Y-85351000D01*
X177416184Y-85351000D01*
X177251772Y-85318297D01*
X177096900Y-85254147D01*
X176957519Y-85161015D01*
X176838985Y-85042481D01*
X176745853Y-84903100D01*
X176681703Y-84748228D01*
X176649000Y-84583816D01*
X176649000Y-84416184D01*
X176681703Y-84251772D01*
X176745853Y-84096900D01*
X176838985Y-83957519D01*
X176957519Y-83838985D01*
X177096900Y-83745853D01*
X177251772Y-83681703D01*
X177416184Y-83649000D01*
X177583816Y-83649000D01*
X177748228Y-83681703D01*
G37*
G36*
X170128228Y-83681703D02*
G01*
X170283100Y-83745853D01*
X170422481Y-83838985D01*
X170541015Y-83957519D01*
X170634147Y-84096900D01*
X170698297Y-84251772D01*
X170731000Y-84416184D01*
X170731000Y-84583816D01*
X170698297Y-84748228D01*
X170634147Y-84903100D01*
X170541015Y-85042481D01*
X170422481Y-85161015D01*
X170283100Y-85254147D01*
X170128228Y-85318297D01*
X169963816Y-85351000D01*
X169796184Y-85351000D01*
X169631772Y-85318297D01*
X169476900Y-85254147D01*
X169337519Y-85161015D01*
X169218985Y-85042481D01*
X169125853Y-84903100D01*
X169061703Y-84748228D01*
X169029000Y-84583816D01*
X169029000Y-84416184D01*
X169061703Y-84251772D01*
X169125853Y-84096900D01*
X169218985Y-83957519D01*
X169337519Y-83838985D01*
X169476900Y-83745853D01*
X169631772Y-83681703D01*
X169796184Y-83649000D01*
X169963816Y-83649000D01*
X170128228Y-83681703D01*
G37*
G36*
X134351000Y-84851000D02*
G01*
X132649000Y-84851000D01*
X132649000Y-83149000D01*
X134351000Y-83149000D01*
X134351000Y-84851000D01*
G37*
G36*
X141368228Y-83181703D02*
G01*
X141523100Y-83245853D01*
X141662481Y-83338985D01*
X141781015Y-83457519D01*
X141874147Y-83596900D01*
X141938297Y-83751772D01*
X141971000Y-83916184D01*
X141971000Y-84083816D01*
X141938297Y-84248228D01*
X141874147Y-84403100D01*
X141781015Y-84542481D01*
X141662481Y-84661015D01*
X141523100Y-84754147D01*
X141368228Y-84818297D01*
X141203816Y-84851000D01*
X141036184Y-84851000D01*
X140871772Y-84818297D01*
X140716900Y-84754147D01*
X140577519Y-84661015D01*
X140458985Y-84542481D01*
X140365853Y-84403100D01*
X140301703Y-84248228D01*
X140269000Y-84083816D01*
X140269000Y-83916184D01*
X140301703Y-83751772D01*
X140365853Y-83596900D01*
X140458985Y-83457519D01*
X140577519Y-83338985D01*
X140716900Y-83245853D01*
X140871772Y-83181703D01*
X141036184Y-83149000D01*
X141203816Y-83149000D01*
X141368228Y-83181703D01*
G37*
G36*
X143908228Y-83181703D02*
G01*
X144063100Y-83245853D01*
X144202481Y-83338985D01*
X144321015Y-83457519D01*
X144414147Y-83596900D01*
X144478297Y-83751772D01*
X144511000Y-83916184D01*
X144511000Y-84083816D01*
X144478297Y-84248228D01*
X144414147Y-84403100D01*
X144321015Y-84542481D01*
X144202481Y-84661015D01*
X144063100Y-84754147D01*
X143908228Y-84818297D01*
X143743816Y-84851000D01*
X143576184Y-84851000D01*
X143411772Y-84818297D01*
X143256900Y-84754147D01*
X143117519Y-84661015D01*
X142998985Y-84542481D01*
X142905853Y-84403100D01*
X142841703Y-84248228D01*
X142809000Y-84083816D01*
X142809000Y-83916184D01*
X142841703Y-83751772D01*
X142905853Y-83596900D01*
X142998985Y-83457519D01*
X143117519Y-83338985D01*
X143256900Y-83245853D01*
X143411772Y-83181703D01*
X143576184Y-83149000D01*
X143743816Y-83149000D01*
X143908228Y-83181703D01*
G37*
G36*
X146448228Y-83181703D02*
G01*
X146603100Y-83245853D01*
X146742481Y-83338985D01*
X146861015Y-83457519D01*
X146954147Y-83596900D01*
X147018297Y-83751772D01*
X147051000Y-83916184D01*
X147051000Y-84083816D01*
X147018297Y-84248228D01*
X146954147Y-84403100D01*
X146861015Y-84542481D01*
X146742481Y-84661015D01*
X146603100Y-84754147D01*
X146448228Y-84818297D01*
X146283816Y-84851000D01*
X146116184Y-84851000D01*
X145951772Y-84818297D01*
X145796900Y-84754147D01*
X145657519Y-84661015D01*
X145538985Y-84542481D01*
X145445853Y-84403100D01*
X145381703Y-84248228D01*
X145349000Y-84083816D01*
X145349000Y-83916184D01*
X145381703Y-83751772D01*
X145445853Y-83596900D01*
X145538985Y-83457519D01*
X145657519Y-83338985D01*
X145796900Y-83245853D01*
X145951772Y-83181703D01*
X146116184Y-83149000D01*
X146283816Y-83149000D01*
X146448228Y-83181703D01*
G37*
G36*
X148988228Y-83181703D02*
G01*
X149143100Y-83245853D01*
X149282481Y-83338985D01*
X149401015Y-83457519D01*
X149494147Y-83596900D01*
X149558297Y-83751772D01*
X149591000Y-83916184D01*
X149591000Y-84083816D01*
X149558297Y-84248228D01*
X149494147Y-84403100D01*
X149401015Y-84542481D01*
X149282481Y-84661015D01*
X149143100Y-84754147D01*
X148988228Y-84818297D01*
X148823816Y-84851000D01*
X148656184Y-84851000D01*
X148491772Y-84818297D01*
X148336900Y-84754147D01*
X148197519Y-84661015D01*
X148078985Y-84542481D01*
X147985853Y-84403100D01*
X147921703Y-84248228D01*
X147889000Y-84083816D01*
X147889000Y-83916184D01*
X147921703Y-83751772D01*
X147985853Y-83596900D01*
X148078985Y-83457519D01*
X148197519Y-83338985D01*
X148336900Y-83245853D01*
X148491772Y-83181703D01*
X148656184Y-83149000D01*
X148823816Y-83149000D01*
X148988228Y-83181703D01*
G37*
G36*
X138828228Y-83181703D02*
G01*
X138983100Y-83245853D01*
X139122481Y-83338985D01*
X139241015Y-83457519D01*
X139334147Y-83596900D01*
X139398297Y-83751772D01*
X139431000Y-83916184D01*
X139431000Y-84083816D01*
X139398297Y-84248228D01*
X139334147Y-84403100D01*
X139241015Y-84542481D01*
X139122481Y-84661015D01*
X138983100Y-84754147D01*
X138828228Y-84818297D01*
X138663816Y-84851000D01*
X138496184Y-84851000D01*
X138331772Y-84818297D01*
X138176900Y-84754147D01*
X138037519Y-84661015D01*
X137918985Y-84542481D01*
X137825853Y-84403100D01*
X137761703Y-84248228D01*
X137729000Y-84083816D01*
X137729000Y-83916184D01*
X137761703Y-83751772D01*
X137825853Y-83596900D01*
X137918985Y-83457519D01*
X138037519Y-83338985D01*
X138176900Y-83245853D01*
X138331772Y-83181703D01*
X138496184Y-83149000D01*
X138663816Y-83149000D01*
X138828228Y-83181703D01*
G37*
G36*
X136288228Y-83181703D02*
G01*
X136443100Y-83245853D01*
X136582481Y-83338985D01*
X136701015Y-83457519D01*
X136794147Y-83596900D01*
X136858297Y-83751772D01*
X136891000Y-83916184D01*
X136891000Y-84083816D01*
X136858297Y-84248228D01*
X136794147Y-84403100D01*
X136701015Y-84542481D01*
X136582481Y-84661015D01*
X136443100Y-84754147D01*
X136288228Y-84818297D01*
X136123816Y-84851000D01*
X135956184Y-84851000D01*
X135791772Y-84818297D01*
X135636900Y-84754147D01*
X135497519Y-84661015D01*
X135378985Y-84542481D01*
X135285853Y-84403100D01*
X135221703Y-84248228D01*
X135189000Y-84083816D01*
X135189000Y-83916184D01*
X135221703Y-83751772D01*
X135285853Y-83596900D01*
X135378985Y-83457519D01*
X135497519Y-83338985D01*
X135636900Y-83245853D01*
X135791772Y-83181703D01*
X135956184Y-83149000D01*
X136123816Y-83149000D01*
X136288228Y-83181703D01*
G37*
G36*
X128748228Y-81681703D02*
G01*
X128903100Y-81745853D01*
X129042481Y-81838985D01*
X129161015Y-81957519D01*
X129254147Y-82096900D01*
X129318297Y-82251772D01*
X129351000Y-82416184D01*
X129351000Y-82583816D01*
X129318297Y-82748228D01*
X129254147Y-82903100D01*
X129161015Y-83042481D01*
X129042481Y-83161015D01*
X128903100Y-83254147D01*
X128748228Y-83318297D01*
X128583816Y-83351000D01*
X128416184Y-83351000D01*
X128251772Y-83318297D01*
X128096900Y-83254147D01*
X127957519Y-83161015D01*
X127838985Y-83042481D01*
X127745853Y-82903100D01*
X127681703Y-82748228D01*
X127649000Y-82583816D01*
X127649000Y-82416184D01*
X127681703Y-82251772D01*
X127745853Y-82096900D01*
X127838985Y-81957519D01*
X127957519Y-81838985D01*
X128096900Y-81745853D01*
X128251772Y-81681703D01*
X128416184Y-81649000D01*
X128583816Y-81649000D01*
X128748228Y-81681703D01*
G37*
G36*
X166748228Y-78681703D02*
G01*
X166903100Y-78745853D01*
X167042481Y-78838985D01*
X167161015Y-78957519D01*
X167254147Y-79096900D01*
X167318297Y-79251772D01*
X167351000Y-79416184D01*
X167351000Y-79583816D01*
X167318297Y-79748228D01*
X167254147Y-79903100D01*
X167161015Y-80042481D01*
X167042481Y-80161015D01*
X166903100Y-80254147D01*
X166748228Y-80318297D01*
X166583816Y-80351000D01*
X166416184Y-80351000D01*
X166251772Y-80318297D01*
X166096900Y-80254147D01*
X165957519Y-80161015D01*
X165838985Y-80042481D01*
X165745853Y-79903100D01*
X165681703Y-79748228D01*
X165649000Y-79583816D01*
X165649000Y-79416184D01*
X165681703Y-79251772D01*
X165745853Y-79096900D01*
X165838985Y-78957519D01*
X165957519Y-78838985D01*
X166096900Y-78745853D01*
X166251772Y-78681703D01*
X166416184Y-78649000D01*
X166583816Y-78649000D01*
X166748228Y-78681703D01*
G37*
G36*
X178351000Y-80351000D02*
G01*
X176649000Y-80351000D01*
X176649000Y-78649000D01*
X178351000Y-78649000D01*
X178351000Y-80351000D01*
G37*
G36*
X170128228Y-78681703D02*
G01*
X170283100Y-78745853D01*
X170422481Y-78838985D01*
X170541015Y-78957519D01*
X170634147Y-79096900D01*
X170698297Y-79251772D01*
X170731000Y-79416184D01*
X170731000Y-79583816D01*
X170698297Y-79748228D01*
X170634147Y-79903100D01*
X170541015Y-80042481D01*
X170422481Y-80161015D01*
X170283100Y-80254147D01*
X170128228Y-80318297D01*
X169963816Y-80351000D01*
X169796184Y-80351000D01*
X169631772Y-80318297D01*
X169476900Y-80254147D01*
X169337519Y-80161015D01*
X169218985Y-80042481D01*
X169125853Y-79903100D01*
X169061703Y-79748228D01*
X169029000Y-79583816D01*
X169029000Y-79416184D01*
X169061703Y-79251772D01*
X169125853Y-79096900D01*
X169218985Y-78957519D01*
X169337519Y-78838985D01*
X169476900Y-78745853D01*
X169631772Y-78681703D01*
X169796184Y-78649000D01*
X169963816Y-78649000D01*
X170128228Y-78681703D01*
G37*
G36*
X128748228Y-76681703D02*
G01*
X128903100Y-76745853D01*
X129042481Y-76838985D01*
X129161015Y-76957519D01*
X129254147Y-77096900D01*
X129318297Y-77251772D01*
X129351000Y-77416184D01*
X129351000Y-77583816D01*
X129318297Y-77748228D01*
X129254147Y-77903100D01*
X129161015Y-78042481D01*
X129042481Y-78161015D01*
X128903100Y-78254147D01*
X128748228Y-78318297D01*
X128583816Y-78351000D01*
X128416184Y-78351000D01*
X128251772Y-78318297D01*
X128096900Y-78254147D01*
X127957519Y-78161015D01*
X127838985Y-78042481D01*
X127745853Y-77903100D01*
X127681703Y-77748228D01*
X127649000Y-77583816D01*
X127649000Y-77416184D01*
X127681703Y-77251772D01*
X127745853Y-77096900D01*
X127838985Y-76957519D01*
X127957519Y-76838985D01*
X128096900Y-76745853D01*
X128251772Y-76681703D01*
X128416184Y-76649000D01*
X128583816Y-76649000D01*
X128748228Y-76681703D01*
G37*
G36*
X166748228Y-76181703D02*
G01*
X166903100Y-76245853D01*
X167042481Y-76338985D01*
X167161015Y-76457519D01*
X167254147Y-76596900D01*
X167318297Y-76751772D01*
X167351000Y-76916184D01*
X167351000Y-77083816D01*
X167318297Y-77248228D01*
X167254147Y-77403100D01*
X167161015Y-77542481D01*
X167042481Y-77661015D01*
X166903100Y-77754147D01*
X166748228Y-77818297D01*
X166583816Y-77851000D01*
X166416184Y-77851000D01*
X166251772Y-77818297D01*
X166096900Y-77754147D01*
X165957519Y-77661015D01*
X165838985Y-77542481D01*
X165745853Y-77403100D01*
X165681703Y-77248228D01*
X165649000Y-77083816D01*
X165649000Y-76916184D01*
X165681703Y-76751772D01*
X165745853Y-76596900D01*
X165838985Y-76457519D01*
X165957519Y-76338985D01*
X166096900Y-76245853D01*
X166251772Y-76181703D01*
X166416184Y-76149000D01*
X166583816Y-76149000D01*
X166748228Y-76181703D01*
G37*
G36*
X177748228Y-76141703D02*
G01*
X177903100Y-76205853D01*
X178042481Y-76298985D01*
X178161015Y-76417519D01*
X178254147Y-76556900D01*
X178318297Y-76711772D01*
X178351000Y-76876184D01*
X178351000Y-77043816D01*
X178318297Y-77208228D01*
X178254147Y-77363100D01*
X178161015Y-77502481D01*
X178042481Y-77621015D01*
X177903100Y-77714147D01*
X177748228Y-77778297D01*
X177583816Y-77811000D01*
X177416184Y-77811000D01*
X177251772Y-77778297D01*
X177096900Y-77714147D01*
X176957519Y-77621015D01*
X176838985Y-77502481D01*
X176745853Y-77363100D01*
X176681703Y-77208228D01*
X176649000Y-77043816D01*
X176649000Y-76876184D01*
X176681703Y-76711772D01*
X176745853Y-76556900D01*
X176838985Y-76417519D01*
X176957519Y-76298985D01*
X177096900Y-76205853D01*
X177251772Y-76141703D01*
X177416184Y-76109000D01*
X177583816Y-76109000D01*
X177748228Y-76141703D01*
G37*
G36*
X170128228Y-76141703D02*
G01*
X170283100Y-76205853D01*
X170422481Y-76298985D01*
X170541015Y-76417519D01*
X170634147Y-76556900D01*
X170698297Y-76711772D01*
X170731000Y-76876184D01*
X170731000Y-77043816D01*
X170698297Y-77208228D01*
X170634147Y-77363100D01*
X170541015Y-77502481D01*
X170422481Y-77621015D01*
X170283100Y-77714147D01*
X170128228Y-77778297D01*
X169963816Y-77811000D01*
X169796184Y-77811000D01*
X169631772Y-77778297D01*
X169476900Y-77714147D01*
X169337519Y-77621015D01*
X169218985Y-77502481D01*
X169125853Y-77363100D01*
X169061703Y-77208228D01*
X169029000Y-77043816D01*
X169029000Y-76876184D01*
X169061703Y-76711772D01*
X169125853Y-76556900D01*
X169218985Y-76417519D01*
X169337519Y-76298985D01*
X169476900Y-76205853D01*
X169631772Y-76141703D01*
X169796184Y-76109000D01*
X169963816Y-76109000D01*
X170128228Y-76141703D01*
G37*
G36*
X148988228Y-75561703D02*
G01*
X149143100Y-75625853D01*
X149282481Y-75718985D01*
X149401015Y-75837519D01*
X149494147Y-75976900D01*
X149558297Y-76131772D01*
X149591000Y-76296184D01*
X149591000Y-76463816D01*
X149558297Y-76628228D01*
X149494147Y-76783100D01*
X149401015Y-76922481D01*
X149282481Y-77041015D01*
X149143100Y-77134147D01*
X148988228Y-77198297D01*
X148823816Y-77231000D01*
X148656184Y-77231000D01*
X148491772Y-77198297D01*
X148336900Y-77134147D01*
X148197519Y-77041015D01*
X148078985Y-76922481D01*
X147985853Y-76783100D01*
X147921703Y-76628228D01*
X147889000Y-76463816D01*
X147889000Y-76296184D01*
X147921703Y-76131772D01*
X147985853Y-75976900D01*
X148078985Y-75837519D01*
X148197519Y-75718985D01*
X148336900Y-75625853D01*
X148491772Y-75561703D01*
X148656184Y-75529000D01*
X148823816Y-75529000D01*
X148988228Y-75561703D01*
G37*
G36*
X133748228Y-75561703D02*
G01*
X133903100Y-75625853D01*
X134042481Y-75718985D01*
X134161015Y-75837519D01*
X134254147Y-75976900D01*
X134318297Y-76131772D01*
X134351000Y-76296184D01*
X134351000Y-76463816D01*
X134318297Y-76628228D01*
X134254147Y-76783100D01*
X134161015Y-76922481D01*
X134042481Y-77041015D01*
X133903100Y-77134147D01*
X133748228Y-77198297D01*
X133583816Y-77231000D01*
X133416184Y-77231000D01*
X133251772Y-77198297D01*
X133096900Y-77134147D01*
X132957519Y-77041015D01*
X132838985Y-76922481D01*
X132745853Y-76783100D01*
X132681703Y-76628228D01*
X132649000Y-76463816D01*
X132649000Y-76296184D01*
X132681703Y-76131772D01*
X132745853Y-75976900D01*
X132838985Y-75837519D01*
X132957519Y-75718985D01*
X133096900Y-75625853D01*
X133251772Y-75561703D01*
X133416184Y-75529000D01*
X133583816Y-75529000D01*
X133748228Y-75561703D01*
G37*
G36*
X146448228Y-75561703D02*
G01*
X146603100Y-75625853D01*
X146742481Y-75718985D01*
X146861015Y-75837519D01*
X146954147Y-75976900D01*
X147018297Y-76131772D01*
X147051000Y-76296184D01*
X147051000Y-76463816D01*
X147018297Y-76628228D01*
X146954147Y-76783100D01*
X146861015Y-76922481D01*
X146742481Y-77041015D01*
X146603100Y-77134147D01*
X146448228Y-77198297D01*
X146283816Y-77231000D01*
X146116184Y-77231000D01*
X145951772Y-77198297D01*
X145796900Y-77134147D01*
X145657519Y-77041015D01*
X145538985Y-76922481D01*
X145445853Y-76783100D01*
X145381703Y-76628228D01*
X145349000Y-76463816D01*
X145349000Y-76296184D01*
X145381703Y-76131772D01*
X145445853Y-75976900D01*
X145538985Y-75837519D01*
X145657519Y-75718985D01*
X145796900Y-75625853D01*
X145951772Y-75561703D01*
X146116184Y-75529000D01*
X146283816Y-75529000D01*
X146448228Y-75561703D01*
G37*
G36*
X143908228Y-75561703D02*
G01*
X144063100Y-75625853D01*
X144202481Y-75718985D01*
X144321015Y-75837519D01*
X144414147Y-75976900D01*
X144478297Y-76131772D01*
X144511000Y-76296184D01*
X144511000Y-76463816D01*
X144478297Y-76628228D01*
X144414147Y-76783100D01*
X144321015Y-76922481D01*
X144202481Y-77041015D01*
X144063100Y-77134147D01*
X143908228Y-77198297D01*
X143743816Y-77231000D01*
X143576184Y-77231000D01*
X143411772Y-77198297D01*
X143256900Y-77134147D01*
X143117519Y-77041015D01*
X142998985Y-76922481D01*
X142905853Y-76783100D01*
X142841703Y-76628228D01*
X142809000Y-76463816D01*
X142809000Y-76296184D01*
X142841703Y-76131772D01*
X142905853Y-75976900D01*
X142998985Y-75837519D01*
X143117519Y-75718985D01*
X143256900Y-75625853D01*
X143411772Y-75561703D01*
X143576184Y-75529000D01*
X143743816Y-75529000D01*
X143908228Y-75561703D01*
G37*
G36*
X138828228Y-75561703D02*
G01*
X138983100Y-75625853D01*
X139122481Y-75718985D01*
X139241015Y-75837519D01*
X139334147Y-75976900D01*
X139398297Y-76131772D01*
X139431000Y-76296184D01*
X139431000Y-76463816D01*
X139398297Y-76628228D01*
X139334147Y-76783100D01*
X139241015Y-76922481D01*
X139122481Y-77041015D01*
X138983100Y-77134147D01*
X138828228Y-77198297D01*
X138663816Y-77231000D01*
X138496184Y-77231000D01*
X138331772Y-77198297D01*
X138176900Y-77134147D01*
X138037519Y-77041015D01*
X137918985Y-76922481D01*
X137825853Y-76783100D01*
X137761703Y-76628228D01*
X137729000Y-76463816D01*
X137729000Y-76296184D01*
X137761703Y-76131772D01*
X137825853Y-75976900D01*
X137918985Y-75837519D01*
X138037519Y-75718985D01*
X138176900Y-75625853D01*
X138331772Y-75561703D01*
X138496184Y-75529000D01*
X138663816Y-75529000D01*
X138828228Y-75561703D01*
G37*
G36*
X141368228Y-75561703D02*
G01*
X141523100Y-75625853D01*
X141662481Y-75718985D01*
X141781015Y-75837519D01*
X141874147Y-75976900D01*
X141938297Y-76131772D01*
X141971000Y-76296184D01*
X141971000Y-76463816D01*
X141938297Y-76628228D01*
X141874147Y-76783100D01*
X141781015Y-76922481D01*
X141662481Y-77041015D01*
X141523100Y-77134147D01*
X141368228Y-77198297D01*
X141203816Y-77231000D01*
X141036184Y-77231000D01*
X140871772Y-77198297D01*
X140716900Y-77134147D01*
X140577519Y-77041015D01*
X140458985Y-76922481D01*
X140365853Y-76783100D01*
X140301703Y-76628228D01*
X140269000Y-76463816D01*
X140269000Y-76296184D01*
X140301703Y-76131772D01*
X140365853Y-75976900D01*
X140458985Y-75837519D01*
X140577519Y-75718985D01*
X140716900Y-75625853D01*
X140871772Y-75561703D01*
X141036184Y-75529000D01*
X141203816Y-75529000D01*
X141368228Y-75561703D01*
G37*
G36*
X136288228Y-75561703D02*
G01*
X136443100Y-75625853D01*
X136582481Y-75718985D01*
X136701015Y-75837519D01*
X136794147Y-75976900D01*
X136858297Y-76131772D01*
X136891000Y-76296184D01*
X136891000Y-76463816D01*
X136858297Y-76628228D01*
X136794147Y-76783100D01*
X136701015Y-76922481D01*
X136582481Y-77041015D01*
X136443100Y-77134147D01*
X136288228Y-77198297D01*
X136123816Y-77231000D01*
X135956184Y-77231000D01*
X135791772Y-77198297D01*
X135636900Y-77134147D01*
X135497519Y-77041015D01*
X135378985Y-76922481D01*
X135285853Y-76783100D01*
X135221703Y-76628228D01*
X135189000Y-76463816D01*
X135189000Y-76296184D01*
X135221703Y-76131772D01*
X135285853Y-75976900D01*
X135378985Y-75837519D01*
X135497519Y-75718985D01*
X135636900Y-75625853D01*
X135791772Y-75561703D01*
X135956184Y-75529000D01*
X136123816Y-75529000D01*
X136288228Y-75561703D01*
G37*
G36*
X170128228Y-73601703D02*
G01*
X170283100Y-73665853D01*
X170422481Y-73758985D01*
X170541015Y-73877519D01*
X170634147Y-74016900D01*
X170698297Y-74171772D01*
X170731000Y-74336184D01*
X170731000Y-74503816D01*
X170698297Y-74668228D01*
X170634147Y-74823100D01*
X170541015Y-74962481D01*
X170422481Y-75081015D01*
X170283100Y-75174147D01*
X170128228Y-75238297D01*
X169963816Y-75271000D01*
X169796184Y-75271000D01*
X169631772Y-75238297D01*
X169476900Y-75174147D01*
X169337519Y-75081015D01*
X169218985Y-74962481D01*
X169125853Y-74823100D01*
X169061703Y-74668228D01*
X169029000Y-74503816D01*
X169029000Y-74336184D01*
X169061703Y-74171772D01*
X169125853Y-74016900D01*
X169218985Y-73877519D01*
X169337519Y-73758985D01*
X169476900Y-73665853D01*
X169631772Y-73601703D01*
X169796184Y-73569000D01*
X169963816Y-73569000D01*
X170128228Y-73601703D01*
G37*
G36*
X177748228Y-73601703D02*
G01*
X177903100Y-73665853D01*
X178042481Y-73758985D01*
X178161015Y-73877519D01*
X178254147Y-74016900D01*
X178318297Y-74171772D01*
X178351000Y-74336184D01*
X178351000Y-74503816D01*
X178318297Y-74668228D01*
X178254147Y-74823100D01*
X178161015Y-74962481D01*
X178042481Y-75081015D01*
X177903100Y-75174147D01*
X177748228Y-75238297D01*
X177583816Y-75271000D01*
X177416184Y-75271000D01*
X177251772Y-75238297D01*
X177096900Y-75174147D01*
X176957519Y-75081015D01*
X176838985Y-74962481D01*
X176745853Y-74823100D01*
X176681703Y-74668228D01*
X176649000Y-74503816D01*
X176649000Y-74336184D01*
X176681703Y-74171772D01*
X176745853Y-74016900D01*
X176838985Y-73877519D01*
X176957519Y-73758985D01*
X177096900Y-73665853D01*
X177251772Y-73601703D01*
X177416184Y-73569000D01*
X177583816Y-73569000D01*
X177748228Y-73601703D01*
G37*
G36*
X170128228Y-71061703D02*
G01*
X170283100Y-71125853D01*
X170422481Y-71218985D01*
X170541015Y-71337519D01*
X170634147Y-71476900D01*
X170698297Y-71631772D01*
X170731000Y-71796184D01*
X170731000Y-71963816D01*
X170698297Y-72128228D01*
X170634147Y-72283100D01*
X170541015Y-72422481D01*
X170422481Y-72541015D01*
X170283100Y-72634147D01*
X170128228Y-72698297D01*
X169963816Y-72731000D01*
X169796184Y-72731000D01*
X169631772Y-72698297D01*
X169476900Y-72634147D01*
X169337519Y-72541015D01*
X169218985Y-72422481D01*
X169125853Y-72283100D01*
X169061703Y-72128228D01*
X169029000Y-71963816D01*
X169029000Y-71796184D01*
X169061703Y-71631772D01*
X169125853Y-71476900D01*
X169218985Y-71337519D01*
X169337519Y-71218985D01*
X169476900Y-71125853D01*
X169631772Y-71061703D01*
X169796184Y-71029000D01*
X169963816Y-71029000D01*
X170128228Y-71061703D01*
G37*
G36*
X177748228Y-71061703D02*
G01*
X177903100Y-71125853D01*
X178042481Y-71218985D01*
X178161015Y-71337519D01*
X178254147Y-71476900D01*
X178318297Y-71631772D01*
X178351000Y-71796184D01*
X178351000Y-71963816D01*
X178318297Y-72128228D01*
X178254147Y-72283100D01*
X178161015Y-72422481D01*
X178042481Y-72541015D01*
X177903100Y-72634147D01*
X177748228Y-72698297D01*
X177583816Y-72731000D01*
X177416184Y-72731000D01*
X177251772Y-72698297D01*
X177096900Y-72634147D01*
X176957519Y-72541015D01*
X176838985Y-72422481D01*
X176745853Y-72283100D01*
X176681703Y-72128228D01*
X176649000Y-71963816D01*
X176649000Y-71796184D01*
X176681703Y-71631772D01*
X176745853Y-71476900D01*
X176838985Y-71337519D01*
X176957519Y-71218985D01*
X177096900Y-71125853D01*
X177251772Y-71061703D01*
X177416184Y-71029000D01*
X177583816Y-71029000D01*
X177748228Y-71061703D01*
G37*
G36*
X129748228Y-68801703D02*
G01*
X129903100Y-68865853D01*
X130042481Y-68958985D01*
X130161015Y-69077519D01*
X130254147Y-69216900D01*
X130318297Y-69371772D01*
X130351000Y-69536184D01*
X130351000Y-69703816D01*
X130318297Y-69868228D01*
X130254147Y-70023100D01*
X130161015Y-70162481D01*
X130042481Y-70281015D01*
X129903100Y-70374147D01*
X129748228Y-70438297D01*
X129583816Y-70471000D01*
X129416184Y-70471000D01*
X129251772Y-70438297D01*
X129096900Y-70374147D01*
X128957519Y-70281015D01*
X128838985Y-70162481D01*
X128745853Y-70023100D01*
X128681703Y-69868228D01*
X128649000Y-69703816D01*
X128649000Y-69536184D01*
X128681703Y-69371772D01*
X128745853Y-69216900D01*
X128838985Y-69077519D01*
X128957519Y-68958985D01*
X129096900Y-68865853D01*
X129251772Y-68801703D01*
X129416184Y-68769000D01*
X129583816Y-68769000D01*
X129748228Y-68801703D01*
G37*
G36*
X150748228Y-68801703D02*
G01*
X150903100Y-68865853D01*
X151042481Y-68958985D01*
X151161015Y-69077519D01*
X151254147Y-69216900D01*
X151318297Y-69371772D01*
X151351000Y-69536184D01*
X151351000Y-69703816D01*
X151318297Y-69868228D01*
X151254147Y-70023100D01*
X151161015Y-70162481D01*
X151042481Y-70281015D01*
X150903100Y-70374147D01*
X150748228Y-70438297D01*
X150583816Y-70471000D01*
X150416184Y-70471000D01*
X150251772Y-70438297D01*
X150096900Y-70374147D01*
X149957519Y-70281015D01*
X149838985Y-70162481D01*
X149745853Y-70023100D01*
X149681703Y-69868228D01*
X149649000Y-69703816D01*
X149649000Y-69536184D01*
X149681703Y-69371772D01*
X149745853Y-69216900D01*
X149838985Y-69077519D01*
X149957519Y-68958985D01*
X150096900Y-68865853D01*
X150251772Y-68801703D01*
X150416184Y-68769000D01*
X150583816Y-68769000D01*
X150748228Y-68801703D01*
G37*
G36*
X146748228Y-68681703D02*
G01*
X146903100Y-68745853D01*
X147042481Y-68838985D01*
X147161015Y-68957519D01*
X147254147Y-69096900D01*
X147318297Y-69251772D01*
X147351000Y-69416184D01*
X147351000Y-69583816D01*
X147318297Y-69748228D01*
X147254147Y-69903100D01*
X147161015Y-70042481D01*
X147042481Y-70161015D01*
X146903100Y-70254147D01*
X146748228Y-70318297D01*
X146583816Y-70351000D01*
X146416184Y-70351000D01*
X146251772Y-70318297D01*
X146096900Y-70254147D01*
X145957519Y-70161015D01*
X145838985Y-70042481D01*
X145745853Y-69903100D01*
X145681703Y-69748228D01*
X145649000Y-69583816D01*
X145649000Y-69416184D01*
X145681703Y-69251772D01*
X145745853Y-69096900D01*
X145838985Y-68957519D01*
X145957519Y-68838985D01*
X146096900Y-68745853D01*
X146251772Y-68681703D01*
X146416184Y-68649000D01*
X146583816Y-68649000D01*
X146748228Y-68681703D01*
G37*
G36*
X134248228Y-67181703D02*
G01*
X134403100Y-67245853D01*
X134542481Y-67338985D01*
X134661015Y-67457519D01*
X134754147Y-67596900D01*
X134818297Y-67751772D01*
X134851000Y-67916184D01*
X134851000Y-68083816D01*
X134818297Y-68248228D01*
X134754147Y-68403100D01*
X134661015Y-68542481D01*
X134542481Y-68661015D01*
X134403100Y-68754147D01*
X134248228Y-68818297D01*
X134083816Y-68851000D01*
X133916184Y-68851000D01*
X133751772Y-68818297D01*
X133596900Y-68754147D01*
X133457519Y-68661015D01*
X133338985Y-68542481D01*
X133245853Y-68403100D01*
X133181703Y-68248228D01*
X133149000Y-68083816D01*
X133149000Y-67916184D01*
X133181703Y-67751772D01*
X133245853Y-67596900D01*
X133338985Y-67457519D01*
X133457519Y-67338985D01*
X133596900Y-67245853D01*
X133751772Y-67181703D01*
X133916184Y-67149000D01*
X134083816Y-67149000D01*
X134248228Y-67181703D01*
G37*
G36*
X138248228Y-67181703D02*
G01*
X138403100Y-67245853D01*
X138542481Y-67338985D01*
X138661015Y-67457519D01*
X138754147Y-67596900D01*
X138818297Y-67751772D01*
X138851000Y-67916184D01*
X138851000Y-68083816D01*
X138818297Y-68248228D01*
X138754147Y-68403100D01*
X138661015Y-68542481D01*
X138542481Y-68661015D01*
X138403100Y-68754147D01*
X138248228Y-68818297D01*
X138083816Y-68851000D01*
X137916184Y-68851000D01*
X137751772Y-68818297D01*
X137596900Y-68754147D01*
X137457519Y-68661015D01*
X137338985Y-68542481D01*
X137245853Y-68403100D01*
X137181703Y-68248228D01*
X137149000Y-68083816D01*
X137149000Y-67916184D01*
X137181703Y-67751772D01*
X137245853Y-67596900D01*
X137338985Y-67457519D01*
X137457519Y-67338985D01*
X137596900Y-67245853D01*
X137751772Y-67181703D01*
X137916184Y-67149000D01*
X138083816Y-67149000D01*
X138248228Y-67181703D01*
G37*
G36*
X142248228Y-67181703D02*
G01*
X142403100Y-67245853D01*
X142542481Y-67338985D01*
X142661015Y-67457519D01*
X142754147Y-67596900D01*
X142818297Y-67751772D01*
X142851000Y-67916184D01*
X142851000Y-68083816D01*
X142818297Y-68248228D01*
X142754147Y-68403100D01*
X142661015Y-68542481D01*
X142542481Y-68661015D01*
X142403100Y-68754147D01*
X142248228Y-68818297D01*
X142083816Y-68851000D01*
X141916184Y-68851000D01*
X141751772Y-68818297D01*
X141596900Y-68754147D01*
X141457519Y-68661015D01*
X141338985Y-68542481D01*
X141245853Y-68403100D01*
X141181703Y-68248228D01*
X141149000Y-68083816D01*
X141149000Y-67916184D01*
X141181703Y-67751772D01*
X141245853Y-67596900D01*
X141338985Y-67457519D01*
X141457519Y-67338985D01*
X141596900Y-67245853D01*
X141751772Y-67181703D01*
X141916184Y-67149000D01*
X142083816Y-67149000D01*
X142248228Y-67181703D01*
G37*
G36*
X170248228Y-65681703D02*
G01*
X170403100Y-65745853D01*
X170542481Y-65838985D01*
X170661015Y-65957519D01*
X170754147Y-66096900D01*
X170818297Y-66251772D01*
X170851000Y-66416184D01*
X170851000Y-66583816D01*
X170818297Y-66748228D01*
X170754147Y-66903100D01*
X170661015Y-67042481D01*
X170542481Y-67161015D01*
X170403100Y-67254147D01*
X170248228Y-67318297D01*
X170083816Y-67351000D01*
X169916184Y-67351000D01*
X169751772Y-67318297D01*
X169596900Y-67254147D01*
X169457519Y-67161015D01*
X169338985Y-67042481D01*
X169245853Y-66903100D01*
X169181703Y-66748228D01*
X169149000Y-66583816D01*
X169149000Y-66416184D01*
X169181703Y-66251772D01*
X169245853Y-66096900D01*
X169338985Y-65957519D01*
X169457519Y-65838985D01*
X169596900Y-65745853D01*
X169751772Y-65681703D01*
X169916184Y-65649000D01*
X170083816Y-65649000D01*
X170248228Y-65681703D01*
G37*
G36*
X163748228Y-65681703D02*
G01*
X163903100Y-65745853D01*
X164042481Y-65838985D01*
X164161015Y-65957519D01*
X164254147Y-66096900D01*
X164318297Y-66251772D01*
X164351000Y-66416184D01*
X164351000Y-66583816D01*
X164318297Y-66748228D01*
X164254147Y-66903100D01*
X164161015Y-67042481D01*
X164042481Y-67161015D01*
X163903100Y-67254147D01*
X163748228Y-67318297D01*
X163583816Y-67351000D01*
X163416184Y-67351000D01*
X163251772Y-67318297D01*
X163096900Y-67254147D01*
X162957519Y-67161015D01*
X162838985Y-67042481D01*
X162745853Y-66903100D01*
X162681703Y-66748228D01*
X162649000Y-66583816D01*
X162649000Y-66416184D01*
X162681703Y-66251772D01*
X162745853Y-66096900D01*
X162838985Y-65957519D01*
X162957519Y-65838985D01*
X163096900Y-65745853D01*
X163251772Y-65681703D01*
X163416184Y-65649000D01*
X163583816Y-65649000D01*
X163748228Y-65681703D01*
G37*
G36*
X157248228Y-65681703D02*
G01*
X157403100Y-65745853D01*
X157542481Y-65838985D01*
X157661015Y-65957519D01*
X157754147Y-66096900D01*
X157818297Y-66251772D01*
X157851000Y-66416184D01*
X157851000Y-66583816D01*
X157818297Y-66748228D01*
X157754147Y-66903100D01*
X157661015Y-67042481D01*
X157542481Y-67161015D01*
X157403100Y-67254147D01*
X157248228Y-67318297D01*
X157083816Y-67351000D01*
X156916184Y-67351000D01*
X156751772Y-67318297D01*
X156596900Y-67254147D01*
X156457519Y-67161015D01*
X156338985Y-67042481D01*
X156245853Y-66903100D01*
X156181703Y-66748228D01*
X156149000Y-66583816D01*
X156149000Y-66416184D01*
X156181703Y-66251772D01*
X156245853Y-66096900D01*
X156338985Y-65957519D01*
X156457519Y-65838985D01*
X156596900Y-65745853D01*
X156751772Y-65681703D01*
X156916184Y-65649000D01*
X157083816Y-65649000D01*
X157248228Y-65681703D01*
G37*
G36*
X142248228Y-62181703D02*
G01*
X142403100Y-62245853D01*
X142542481Y-62338985D01*
X142661015Y-62457519D01*
X142754147Y-62596900D01*
X142818297Y-62751772D01*
X142851000Y-62916184D01*
X142851000Y-63083816D01*
X142818297Y-63248228D01*
X142754147Y-63403100D01*
X142661015Y-63542481D01*
X142542481Y-63661015D01*
X142403100Y-63754147D01*
X142248228Y-63818297D01*
X142083816Y-63851000D01*
X141916184Y-63851000D01*
X141751772Y-63818297D01*
X141596900Y-63754147D01*
X141457519Y-63661015D01*
X141338985Y-63542481D01*
X141245853Y-63403100D01*
X141181703Y-63248228D01*
X141149000Y-63083816D01*
X141149000Y-62916184D01*
X141181703Y-62751772D01*
X141245853Y-62596900D01*
X141338985Y-62457519D01*
X141457519Y-62338985D01*
X141596900Y-62245853D01*
X141751772Y-62181703D01*
X141916184Y-62149000D01*
X142083816Y-62149000D01*
X142248228Y-62181703D01*
G37*
G36*
X134248228Y-62181703D02*
G01*
X134403100Y-62245853D01*
X134542481Y-62338985D01*
X134661015Y-62457519D01*
X134754147Y-62596900D01*
X134818297Y-62751772D01*
X134851000Y-62916184D01*
X134851000Y-63083816D01*
X134818297Y-63248228D01*
X134754147Y-63403100D01*
X134661015Y-63542481D01*
X134542481Y-63661015D01*
X134403100Y-63754147D01*
X134248228Y-63818297D01*
X134083816Y-63851000D01*
X133916184Y-63851000D01*
X133751772Y-63818297D01*
X133596900Y-63754147D01*
X133457519Y-63661015D01*
X133338985Y-63542481D01*
X133245853Y-63403100D01*
X133181703Y-63248228D01*
X133149000Y-63083816D01*
X133149000Y-62916184D01*
X133181703Y-62751772D01*
X133245853Y-62596900D01*
X133338985Y-62457519D01*
X133457519Y-62338985D01*
X133596900Y-62245853D01*
X133751772Y-62181703D01*
X133916184Y-62149000D01*
X134083816Y-62149000D01*
X134248228Y-62181703D01*
G37*
G36*
X138248228Y-62181703D02*
G01*
X138403100Y-62245853D01*
X138542481Y-62338985D01*
X138661015Y-62457519D01*
X138754147Y-62596900D01*
X138818297Y-62751772D01*
X138851000Y-62916184D01*
X138851000Y-63083816D01*
X138818297Y-63248228D01*
X138754147Y-63403100D01*
X138661015Y-63542481D01*
X138542481Y-63661015D01*
X138403100Y-63754147D01*
X138248228Y-63818297D01*
X138083816Y-63851000D01*
X137916184Y-63851000D01*
X137751772Y-63818297D01*
X137596900Y-63754147D01*
X137457519Y-63661015D01*
X137338985Y-63542481D01*
X137245853Y-63403100D01*
X137181703Y-63248228D01*
X137149000Y-63083816D01*
X137149000Y-62916184D01*
X137181703Y-62751772D01*
X137245853Y-62596900D01*
X137338985Y-62457519D01*
X137457519Y-62338985D01*
X137596900Y-62245853D01*
X137751772Y-62181703D01*
X137916184Y-62149000D01*
X138083816Y-62149000D01*
X138248228Y-62181703D01*
G37*
G36*
X129748228Y-61181703D02*
G01*
X129903100Y-61245853D01*
X130042481Y-61338985D01*
X130161015Y-61457519D01*
X130254147Y-61596900D01*
X130318297Y-61751772D01*
X130351000Y-61916184D01*
X130351000Y-62083816D01*
X130318297Y-62248228D01*
X130254147Y-62403100D01*
X130161015Y-62542481D01*
X130042481Y-62661015D01*
X129903100Y-62754147D01*
X129748228Y-62818297D01*
X129583816Y-62851000D01*
X129416184Y-62851000D01*
X129251772Y-62818297D01*
X129096900Y-62754147D01*
X128957519Y-62661015D01*
X128838985Y-62542481D01*
X128745853Y-62403100D01*
X128681703Y-62248228D01*
X128649000Y-62083816D01*
X128649000Y-61916184D01*
X128681703Y-61751772D01*
X128745853Y-61596900D01*
X128838985Y-61457519D01*
X128957519Y-61338985D01*
X129096900Y-61245853D01*
X129251772Y-61181703D01*
X129416184Y-61149000D01*
X129583816Y-61149000D01*
X129748228Y-61181703D01*
G37*
G36*
X150748228Y-61181703D02*
G01*
X150903100Y-61245853D01*
X151042481Y-61338985D01*
X151161015Y-61457519D01*
X151254147Y-61596900D01*
X151318297Y-61751772D01*
X151351000Y-61916184D01*
X151351000Y-62083816D01*
X151318297Y-62248228D01*
X151254147Y-62403100D01*
X151161015Y-62542481D01*
X151042481Y-62661015D01*
X150903100Y-62754147D01*
X150748228Y-62818297D01*
X150583816Y-62851000D01*
X150416184Y-62851000D01*
X150251772Y-62818297D01*
X150096900Y-62754147D01*
X149957519Y-62661015D01*
X149838985Y-62542481D01*
X149745853Y-62403100D01*
X149681703Y-62248228D01*
X149649000Y-62083816D01*
X149649000Y-61916184D01*
X149681703Y-61751772D01*
X149745853Y-61596900D01*
X149838985Y-61457519D01*
X149957519Y-61338985D01*
X150096900Y-61245853D01*
X150251772Y-61181703D01*
X150416184Y-61149000D01*
X150583816Y-61149000D01*
X150748228Y-61181703D01*
G37*
G36*
X146748228Y-61061703D02*
G01*
X146903100Y-61125853D01*
X147042481Y-61218985D01*
X147161015Y-61337519D01*
X147254147Y-61476900D01*
X147318297Y-61631772D01*
X147351000Y-61796184D01*
X147351000Y-61963816D01*
X147318297Y-62128228D01*
X147254147Y-62283100D01*
X147161015Y-62422481D01*
X147042481Y-62541015D01*
X146903100Y-62634147D01*
X146748228Y-62698297D01*
X146583816Y-62731000D01*
X146416184Y-62731000D01*
X146251772Y-62698297D01*
X146096900Y-62634147D01*
X145957519Y-62541015D01*
X145838985Y-62422481D01*
X145745853Y-62283100D01*
X145681703Y-62128228D01*
X145649000Y-61963816D01*
X145649000Y-61796184D01*
X145681703Y-61631772D01*
X145745853Y-61476900D01*
X145838985Y-61337519D01*
X145957519Y-61218985D01*
X146096900Y-61125853D01*
X146251772Y-61061703D01*
X146416184Y-61029000D01*
X146583816Y-61029000D01*
X146748228Y-61061703D01*
G37*
G36*
X163748228Y-58061703D02*
G01*
X163903100Y-58125853D01*
X164042481Y-58218985D01*
X164161015Y-58337519D01*
X164254147Y-58476900D01*
X164318297Y-58631772D01*
X164351000Y-58796184D01*
X164351000Y-58963816D01*
X164318297Y-59128228D01*
X164254147Y-59283100D01*
X164161015Y-59422481D01*
X164042481Y-59541015D01*
X163903100Y-59634147D01*
X163748228Y-59698297D01*
X163583816Y-59731000D01*
X163416184Y-59731000D01*
X163251772Y-59698297D01*
X163096900Y-59634147D01*
X162957519Y-59541015D01*
X162838985Y-59422481D01*
X162745853Y-59283100D01*
X162681703Y-59128228D01*
X162649000Y-58963816D01*
X162649000Y-58796184D01*
X162681703Y-58631772D01*
X162745853Y-58476900D01*
X162838985Y-58337519D01*
X162957519Y-58218985D01*
X163096900Y-58125853D01*
X163251772Y-58061703D01*
X163416184Y-58029000D01*
X163583816Y-58029000D01*
X163748228Y-58061703D01*
G37*
G36*
X170248228Y-58061703D02*
G01*
X170403100Y-58125853D01*
X170542481Y-58218985D01*
X170661015Y-58337519D01*
X170754147Y-58476900D01*
X170818297Y-58631772D01*
X170851000Y-58796184D01*
X170851000Y-58963816D01*
X170818297Y-59128228D01*
X170754147Y-59283100D01*
X170661015Y-59422481D01*
X170542481Y-59541015D01*
X170403100Y-59634147D01*
X170248228Y-59698297D01*
X170083816Y-59731000D01*
X169916184Y-59731000D01*
X169751772Y-59698297D01*
X169596900Y-59634147D01*
X169457519Y-59541015D01*
X169338985Y-59422481D01*
X169245853Y-59283100D01*
X169181703Y-59128228D01*
X169149000Y-58963816D01*
X169149000Y-58796184D01*
X169181703Y-58631772D01*
X169245853Y-58476900D01*
X169338985Y-58337519D01*
X169457519Y-58218985D01*
X169596900Y-58125853D01*
X169751772Y-58061703D01*
X169916184Y-58029000D01*
X170083816Y-58029000D01*
X170248228Y-58061703D01*
G37*
G36*
X157248228Y-58061703D02*
G01*
X157403100Y-58125853D01*
X157542481Y-58218985D01*
X157661015Y-58337519D01*
X157754147Y-58476900D01*
X157818297Y-58631772D01*
X157851000Y-58796184D01*
X157851000Y-58963816D01*
X157818297Y-59128228D01*
X157754147Y-59283100D01*
X157661015Y-59422481D01*
X157542481Y-59541015D01*
X157403100Y-59634147D01*
X157248228Y-59698297D01*
X157083816Y-59731000D01*
X156916184Y-59731000D01*
X156751772Y-59698297D01*
X156596900Y-59634147D01*
X156457519Y-59541015D01*
X156338985Y-59422481D01*
X156245853Y-59283100D01*
X156181703Y-59128228D01*
X156149000Y-58963816D01*
X156149000Y-58796184D01*
X156181703Y-58631772D01*
X156245853Y-58476900D01*
X156338985Y-58337519D01*
X156457519Y-58218985D01*
X156596900Y-58125853D01*
X156751772Y-58061703D01*
X156916184Y-58029000D01*
X157083816Y-58029000D01*
X157248228Y-58061703D01*
G37*
G36*
X141988228Y-56801703D02*
G01*
X142143100Y-56865853D01*
X142282481Y-56958985D01*
X142401015Y-57077519D01*
X142494147Y-57216900D01*
X142558297Y-57371772D01*
X142591000Y-57536184D01*
X142591000Y-57703816D01*
X142558297Y-57868228D01*
X142494147Y-58023100D01*
X142401015Y-58162481D01*
X142282481Y-58281015D01*
X142143100Y-58374147D01*
X141988228Y-58438297D01*
X141823816Y-58471000D01*
X141656184Y-58471000D01*
X141491772Y-58438297D01*
X141336900Y-58374147D01*
X141197519Y-58281015D01*
X141078985Y-58162481D01*
X140985853Y-58023100D01*
X140921703Y-57868228D01*
X140889000Y-57703816D01*
X140889000Y-57536184D01*
X140921703Y-57371772D01*
X140985853Y-57216900D01*
X141078985Y-57077519D01*
X141197519Y-56958985D01*
X141336900Y-56865853D01*
X141491772Y-56801703D01*
X141656184Y-56769000D01*
X141823816Y-56769000D01*
X141988228Y-56801703D01*
G37*
G36*
X134368228Y-56801703D02*
G01*
X134523100Y-56865853D01*
X134662481Y-56958985D01*
X134781015Y-57077519D01*
X134874147Y-57216900D01*
X134938297Y-57371772D01*
X134971000Y-57536184D01*
X134971000Y-57703816D01*
X134938297Y-57868228D01*
X134874147Y-58023100D01*
X134781015Y-58162481D01*
X134662481Y-58281015D01*
X134523100Y-58374147D01*
X134368228Y-58438297D01*
X134203816Y-58471000D01*
X134036184Y-58471000D01*
X133871772Y-58438297D01*
X133716900Y-58374147D01*
X133577519Y-58281015D01*
X133458985Y-58162481D01*
X133365853Y-58023100D01*
X133301703Y-57868228D01*
X133269000Y-57703816D01*
X133269000Y-57536184D01*
X133301703Y-57371772D01*
X133365853Y-57216900D01*
X133458985Y-57077519D01*
X133577519Y-56958985D01*
X133716900Y-56865853D01*
X133871772Y-56801703D01*
X134036184Y-56769000D01*
X134203816Y-56769000D01*
X134368228Y-56801703D01*
G37*
G36*
X182817021Y-51306640D02*
G01*
X183326769Y-51517785D01*
X183326771Y-51517786D01*
X183785534Y-51824321D01*
X184175679Y-52214466D01*
X184482214Y-52673229D01*
X184482215Y-52673231D01*
X184693360Y-53182979D01*
X184801000Y-53724124D01*
X184801000Y-54275876D01*
X184693360Y-54817021D01*
X184518698Y-55238691D01*
X184482214Y-55326771D01*
X184175679Y-55785534D01*
X183785534Y-56175679D01*
X183326771Y-56482214D01*
X183326770Y-56482215D01*
X183326769Y-56482215D01*
X182817021Y-56693360D01*
X182275876Y-56801000D01*
X181724124Y-56801000D01*
X181182979Y-56693360D01*
X180673231Y-56482215D01*
X180673230Y-56482215D01*
X180673229Y-56482214D01*
X180214466Y-56175679D01*
X179824321Y-55785534D01*
X179517786Y-55326771D01*
X179481302Y-55238691D01*
X179306640Y-54817021D01*
X179199000Y-54275876D01*
X179199000Y-53724124D01*
X179306640Y-53182979D01*
X179517785Y-52673231D01*
X179517786Y-52673229D01*
X179824321Y-52214466D01*
X180214466Y-51824321D01*
X180673229Y-51517786D01*
X180673231Y-51517785D01*
X181182979Y-51306640D01*
X181724124Y-51199000D01*
X182275876Y-51199000D01*
X182817021Y-51306640D01*
G37*
G36*
X124817021Y-51306640D02*
G01*
X125326769Y-51517785D01*
X125326771Y-51517786D01*
X125785534Y-51824321D01*
X126175679Y-52214466D01*
X126482214Y-52673229D01*
X126482215Y-52673231D01*
X126693360Y-53182979D01*
X126801000Y-53724124D01*
X126801000Y-54275876D01*
X126693360Y-54817021D01*
X126518698Y-55238691D01*
X126482214Y-55326771D01*
X126175679Y-55785534D01*
X125785534Y-56175679D01*
X125326771Y-56482214D01*
X125326770Y-56482215D01*
X125326769Y-56482215D01*
X124817021Y-56693360D01*
X124275876Y-56801000D01*
X123724124Y-56801000D01*
X123182979Y-56693360D01*
X122673231Y-56482215D01*
X122673230Y-56482215D01*
X122673229Y-56482214D01*
X122214466Y-56175679D01*
X121824321Y-55785534D01*
X121517786Y-55326771D01*
X121481302Y-55238691D01*
X121306640Y-54817021D01*
X121199000Y-54275876D01*
X121199000Y-53724124D01*
X121306640Y-53182979D01*
X121517785Y-52673231D01*
X121517786Y-52673229D01*
X121824321Y-52214466D01*
X122214466Y-51824321D01*
X122673229Y-51517786D01*
X122673231Y-51517785D01*
X123182979Y-51306640D01*
X123724124Y-51199000D01*
X124275876Y-51199000D01*
X124817021Y-51306640D01*
G37*
G36*
X140451000Y-55451000D02*
G01*
X138549000Y-55451000D01*
X138549000Y-53549000D01*
X140451000Y-53549000D01*
X140451000Y-55451000D01*
G37*
G36*
X173451000Y-55451000D02*
G01*
X171549000Y-55451000D01*
X171549000Y-53549000D01*
X173451000Y-53549000D01*
X173451000Y-55451000D01*
G37*
G36*
X170237395Y-53585546D02*
G01*
X170410466Y-53657234D01*
X170410467Y-53657235D01*
X170566227Y-53761310D01*
X170698690Y-53893773D01*
X170698691Y-53893775D01*
X170802766Y-54049534D01*
X170874454Y-54222605D01*
X170911000Y-54406333D01*
X170911000Y-54593667D01*
X170874454Y-54777395D01*
X170802766Y-54950466D01*
X170802765Y-54950467D01*
X170698690Y-55106227D01*
X170566227Y-55238690D01*
X170487818Y-55291081D01*
X170410466Y-55342766D01*
X170237395Y-55414454D01*
X170053667Y-55451000D01*
X169866333Y-55451000D01*
X169682605Y-55414454D01*
X169509534Y-55342766D01*
X169432182Y-55291081D01*
X169353773Y-55238690D01*
X169221310Y-55106227D01*
X169117235Y-54950467D01*
X169117234Y-54950466D01*
X169045546Y-54777395D01*
X169009000Y-54593667D01*
X169009000Y-54406333D01*
X169045546Y-54222605D01*
X169117234Y-54049534D01*
X169221309Y-53893775D01*
X169221310Y-53893773D01*
X169353773Y-53761310D01*
X169509533Y-53657235D01*
X169509534Y-53657234D01*
X169682605Y-53585546D01*
X169866333Y-53549000D01*
X170053667Y-53549000D01*
X170237395Y-53585546D01*
G37*
G36*
X166951000Y-55451000D02*
G01*
X165049000Y-55451000D01*
X165049000Y-53549000D01*
X166951000Y-53549000D01*
X166951000Y-55451000D01*
G37*
G36*
X163737395Y-53585546D02*
G01*
X163910466Y-53657234D01*
X163910467Y-53657235D01*
X164066227Y-53761310D01*
X164198690Y-53893773D01*
X164198691Y-53893775D01*
X164302766Y-54049534D01*
X164374454Y-54222605D01*
X164411000Y-54406333D01*
X164411000Y-54593667D01*
X164374454Y-54777395D01*
X164302766Y-54950466D01*
X164302765Y-54950467D01*
X164198690Y-55106227D01*
X164066227Y-55238690D01*
X163987818Y-55291081D01*
X163910466Y-55342766D01*
X163737395Y-55414454D01*
X163553667Y-55451000D01*
X163366333Y-55451000D01*
X163182605Y-55414454D01*
X163009534Y-55342766D01*
X162932182Y-55291081D01*
X162853773Y-55238690D01*
X162721310Y-55106227D01*
X162617235Y-54950467D01*
X162617234Y-54950466D01*
X162545546Y-54777395D01*
X162509000Y-54593667D01*
X162509000Y-54406333D01*
X162545546Y-54222605D01*
X162617234Y-54049534D01*
X162721309Y-53893775D01*
X162721310Y-53893773D01*
X162853773Y-53761310D01*
X163009533Y-53657235D01*
X163009534Y-53657234D01*
X163182605Y-53585546D01*
X163366333Y-53549000D01*
X163553667Y-53549000D01*
X163737395Y-53585546D01*
G37*
G36*
X160451000Y-55451000D02*
G01*
X158549000Y-55451000D01*
X158549000Y-53549000D01*
X160451000Y-53549000D01*
X160451000Y-55451000D01*
G37*
G36*
X157237395Y-53585546D02*
G01*
X157410466Y-53657234D01*
X157410467Y-53657235D01*
X157566227Y-53761310D01*
X157698690Y-53893773D01*
X157698691Y-53893775D01*
X157802766Y-54049534D01*
X157874454Y-54222605D01*
X157911000Y-54406333D01*
X157911000Y-54593667D01*
X157874454Y-54777395D01*
X157802766Y-54950466D01*
X157802765Y-54950467D01*
X157698690Y-55106227D01*
X157566227Y-55238690D01*
X157487818Y-55291081D01*
X157410466Y-55342766D01*
X157237395Y-55414454D01*
X157053667Y-55451000D01*
X156866333Y-55451000D01*
X156682605Y-55414454D01*
X156509534Y-55342766D01*
X156432182Y-55291081D01*
X156353773Y-55238690D01*
X156221310Y-55106227D01*
X156117235Y-54950467D01*
X156117234Y-54950466D01*
X156045546Y-54777395D01*
X156009000Y-54593667D01*
X156009000Y-54406333D01*
X156045546Y-54222605D01*
X156117234Y-54049534D01*
X156221309Y-53893775D01*
X156221310Y-53893773D01*
X156353773Y-53761310D01*
X156509533Y-53657235D01*
X156509534Y-53657234D01*
X156682605Y-53585546D01*
X156866333Y-53549000D01*
X157053667Y-53549000D01*
X157237395Y-53585546D01*
G37*
G36*
X137237395Y-53585546D02*
G01*
X137410466Y-53657234D01*
X137410467Y-53657235D01*
X137566227Y-53761310D01*
X137698690Y-53893773D01*
X137698691Y-53893775D01*
X137802766Y-54049534D01*
X137874454Y-54222605D01*
X137911000Y-54406333D01*
X137911000Y-54593667D01*
X137874454Y-54777395D01*
X137802766Y-54950466D01*
X137802765Y-54950467D01*
X137698690Y-55106227D01*
X137566227Y-55238690D01*
X137487818Y-55291081D01*
X137410466Y-55342766D01*
X137237395Y-55414454D01*
X137053667Y-55451000D01*
X136866333Y-55451000D01*
X136682605Y-55414454D01*
X136509534Y-55342766D01*
X136432182Y-55291081D01*
X136353773Y-55238690D01*
X136221310Y-55106227D01*
X136117235Y-54950467D01*
X136117234Y-54950466D01*
X136045546Y-54777395D01*
X136009000Y-54593667D01*
X136009000Y-54406333D01*
X136045546Y-54222605D01*
X136117234Y-54049534D01*
X136221309Y-53893775D01*
X136221310Y-53893773D01*
X136353773Y-53761310D01*
X136509533Y-53657235D01*
X136509534Y-53657234D01*
X136682605Y-53585546D01*
X136866333Y-53549000D01*
X137053667Y-53549000D01*
X137237395Y-53585546D01*
G37*
M02*
