G04 #@! TF.GenerationSoftware,KiCad,Pcbnew,5.1.10-1.fc33*
G04 #@! TF.CreationDate,2021-07-17T23:20:00-05:00*
G04 #@! TF.ProjectId,Nucleo32TNC,4e75636c-656f-4333-9254-4e432e6b6963,C*
G04 #@! TF.SameCoordinates,Original*
G04 #@! TF.FileFunction,Soldermask,Bot*
G04 #@! TF.FilePolarity,Negative*
%FSLAX46Y46*%
G04 Gerber Fmt 4.6, Leading zero omitted, Abs format (unit mm)*
G04 Created by KiCad (PCBNEW 5.1.10-1.fc33) date 2021-07-17 23:20:00*
%MOMM*%
%LPD*%
G01*
G04 APERTURE LIST*
%ADD10C,1.600000*%
%ADD11R,1.500000X1.500000*%
%ADD12C,1.500000*%
%ADD13O,1.600000X1.600000*%
%ADD14R,1.600000X1.600000*%
%ADD15R,1.530000X1.530000*%
%ADD16C,1.530000*%
%ADD17C,1.800000*%
%ADD18R,1.800000X1.800000*%
%ADD19C,2.100000*%
%ADD20C,1.750000*%
%ADD21C,1.650000*%
%ADD22C,1.100000*%
%ADD23R,1.650000X1.650000*%
%ADD24C,5.500000*%
G04 APERTURE END LIST*
D10*
X151000000Y-114500000D03*
X151000000Y-109500000D03*
X151000000Y-100000000D03*
X151000000Y-105000000D03*
X141000000Y-92000000D03*
X141000000Y-87000000D03*
X166500000Y-74500000D03*
X166500000Y-79500000D03*
D11*
X134000000Y-131500000D03*
D12*
X128920000Y-131500000D03*
X131460000Y-131500000D03*
D11*
X142500000Y-131500000D03*
D12*
X137420000Y-131500000D03*
X139960000Y-131500000D03*
D13*
X141000000Y-126620000D03*
D14*
X141000000Y-119000000D03*
D10*
X132250000Y-110000000D03*
X132250000Y-115000000D03*
X145000000Y-115000000D03*
X145000000Y-110000000D03*
D15*
X158130000Y-139715000D03*
D16*
X158630000Y-137175000D03*
X158130000Y-134635000D03*
X158630000Y-132095000D03*
X158130000Y-129555000D03*
X158630000Y-127015000D03*
X158130000Y-124475000D03*
X158630000Y-121935000D03*
X158130000Y-119395000D03*
X158630000Y-116855000D03*
X158130000Y-114315000D03*
X158630000Y-111775000D03*
X158130000Y-109235000D03*
X158630000Y-106695000D03*
X158130000Y-104155000D03*
D15*
X173870000Y-139715000D03*
D16*
X173370000Y-137175000D03*
X173870000Y-134635000D03*
X173370000Y-132095000D03*
X173870000Y-129555000D03*
X173370000Y-127015000D03*
X173870000Y-124475000D03*
X173370000Y-121935000D03*
X173870000Y-119395000D03*
X173370000Y-116855000D03*
X173870000Y-114315000D03*
X173370000Y-111775000D03*
X173870000Y-109235000D03*
X173370000Y-106695000D03*
X173870000Y-104155000D03*
D17*
X156960000Y-54500000D03*
D18*
X159500000Y-54500000D03*
D17*
X163460000Y-54500000D03*
D18*
X166000000Y-54500000D03*
D17*
X169960000Y-54500000D03*
D18*
X172500000Y-54500000D03*
D13*
X134120000Y-57620000D03*
D10*
X141740000Y-57620000D03*
D19*
X153750000Y-143510000D03*
D20*
X152500000Y-146000000D03*
X148000000Y-146000000D03*
D19*
X146740000Y-143510000D03*
D21*
X139600000Y-138000000D03*
D22*
X138000000Y-141100000D03*
X138000000Y-146100000D03*
D21*
X142500000Y-146100000D03*
X136400000Y-138000000D03*
X141600000Y-141100000D03*
D23*
X133200000Y-146100000D03*
D13*
X169880000Y-79500000D03*
X177500000Y-71880000D03*
X169880000Y-76960000D03*
X177500000Y-74420000D03*
X169880000Y-74420000D03*
X177500000Y-76960000D03*
X169880000Y-71880000D03*
D14*
X177500000Y-79500000D03*
D13*
X133500000Y-76380000D03*
X148740000Y-84000000D03*
X136040000Y-76380000D03*
X146200000Y-84000000D03*
X138580000Y-76380000D03*
X143660000Y-84000000D03*
X141120000Y-76380000D03*
X141120000Y-84000000D03*
X143660000Y-76380000D03*
X138580000Y-84000000D03*
X146200000Y-76380000D03*
X136040000Y-84000000D03*
X148740000Y-76380000D03*
D14*
X133500000Y-84000000D03*
D13*
X157000000Y-58880000D03*
D10*
X157000000Y-66500000D03*
D13*
X163500000Y-58880000D03*
D10*
X163500000Y-66500000D03*
D13*
X170000000Y-58880000D03*
D10*
X170000000Y-66500000D03*
D13*
X169880000Y-89500000D03*
D10*
X177500000Y-89500000D03*
D13*
X169880000Y-84500000D03*
D10*
X177500000Y-84500000D03*
D13*
X133500000Y-94620000D03*
D10*
X133500000Y-87000000D03*
D13*
X137500000Y-86880000D03*
D10*
X137500000Y-94500000D03*
D13*
X129500000Y-69620000D03*
D10*
X129500000Y-62000000D03*
D13*
X132000000Y-126620000D03*
D10*
X132000000Y-119000000D03*
D13*
X129500000Y-94620000D03*
D10*
X129500000Y-87000000D03*
D13*
X128000000Y-118880000D03*
D10*
X128000000Y-126500000D03*
D13*
X146500000Y-61880000D03*
D10*
X146500000Y-69500000D03*
D13*
X147500000Y-87880000D03*
D10*
X147500000Y-95500000D03*
D13*
X151500000Y-95620000D03*
D10*
X151500000Y-88000000D03*
D13*
X150500000Y-69620000D03*
D10*
X150500000Y-62000000D03*
D13*
X149000000Y-126620000D03*
D10*
X149000000Y-119000000D03*
D13*
X145000000Y-126620000D03*
D10*
X145000000Y-119000000D03*
D13*
X136000000Y-118880000D03*
D10*
X136000000Y-126500000D03*
D13*
X128000000Y-107620000D03*
D10*
X128000000Y-100000000D03*
D13*
X132000000Y-107620000D03*
D10*
X132000000Y-100000000D03*
D13*
X153000000Y-126620000D03*
D10*
X153000000Y-119000000D03*
D17*
X136960000Y-54500000D03*
D18*
X139500000Y-54500000D03*
D13*
X137000000Y-106880000D03*
D14*
X137000000Y-114500000D03*
D13*
X140500000Y-114620000D03*
D14*
X140500000Y-107000000D03*
D10*
X140000000Y-98000000D03*
X140000000Y-103000000D03*
X134000000Y-63000000D03*
X134000000Y-68000000D03*
X128500000Y-82500000D03*
X128500000Y-77500000D03*
X138000000Y-63000000D03*
X138000000Y-68000000D03*
X136000000Y-98000000D03*
X136000000Y-103000000D03*
X142000000Y-68000000D03*
X142000000Y-63000000D03*
X128000000Y-110000000D03*
X128000000Y-115000000D03*
D24*
X182000000Y-145000000D03*
X182000000Y-54000000D03*
X124000000Y-145000000D03*
X124000000Y-54000000D03*
M02*
