G04 #@! TF.GenerationSoftware,KiCad,Pcbnew,5.1.10-1.fc33*
G04 #@! TF.CreationDate,2021-07-17T23:20:00-05:00*
G04 #@! TF.ProjectId,Nucleo32TNC,4e75636c-656f-4333-9254-4e432e6b6963,C*
G04 #@! TF.SameCoordinates,Original*
G04 #@! TF.FileFunction,Soldermask,Top*
G04 #@! TF.FilePolarity,Negative*
%FSLAX46Y46*%
G04 Gerber Fmt 4.6, Leading zero omitted, Abs format (unit mm)*
G04 Created by KiCad (PCBNEW 5.1.10-1.fc33) date 2021-07-17 23:20:00*
%MOMM*%
%LPD*%
G01*
G04 APERTURE LIST*
%ADD10C,0.200000*%
%ADD11C,0.010000*%
%ADD12C,1.600000*%
%ADD13R,1.500000X1.500000*%
%ADD14C,1.500000*%
%ADD15O,1.600000X1.600000*%
%ADD16R,1.600000X1.600000*%
%ADD17R,1.530000X1.530000*%
%ADD18C,1.530000*%
%ADD19C,1.800000*%
%ADD20R,1.800000X1.800000*%
%ADD21C,2.100000*%
%ADD22C,1.750000*%
%ADD23C,1.650000*%
%ADD24C,1.100000*%
%ADD25R,1.650000X1.650000*%
%ADD26C,5.500000*%
G04 APERTURE END LIST*
D10*
X178464285Y-64714285D02*
X178035714Y-65071428D01*
X178464285Y-65357142D02*
X177464285Y-65357142D01*
X177464285Y-64928571D01*
X177535714Y-64785714D01*
X177678571Y-64714285D01*
X177821428Y-64714285D01*
X177964285Y-64785714D01*
X178035714Y-64928571D01*
X178035714Y-65357142D01*
X176964285Y-65071428D02*
X177035714Y-65428571D01*
X177250000Y-65785714D01*
X177607142Y-66000000D01*
X177964285Y-66071428D01*
X178321428Y-66000000D01*
X178678571Y-65785714D01*
X178892857Y-65428571D01*
X178964285Y-65071428D01*
X178892857Y-64714285D01*
X178678571Y-64357142D01*
X178321428Y-64142857D01*
X177964285Y-64071428D01*
X177607142Y-64142857D01*
X177250000Y-64357142D01*
X177035714Y-64714285D01*
X176964285Y-65071428D01*
X177535714Y-62214285D02*
X177464285Y-62357142D01*
X177464285Y-62642857D01*
X177535714Y-62785714D01*
X177678571Y-62928571D01*
X177821428Y-63000000D01*
X178107142Y-63000000D01*
X178250000Y-62928571D01*
X178392857Y-62785714D01*
X178464285Y-62642857D01*
X178464285Y-62357142D01*
X178392857Y-62214285D01*
X176964285Y-62500000D02*
X177035714Y-62857142D01*
X177250000Y-63214285D01*
X177607142Y-63428571D01*
X177964285Y-63500000D01*
X178321428Y-63428571D01*
X178678571Y-63214285D01*
X178892857Y-62857142D01*
X178964285Y-62500000D01*
X178892857Y-62142857D01*
X178678571Y-61785714D01*
X178321428Y-61571428D01*
X177964285Y-61500000D01*
X177607142Y-61571428D01*
X177250000Y-61785714D01*
X177035714Y-62142857D01*
X176964285Y-62500000D01*
X178464285Y-59571428D02*
X178035714Y-59928571D01*
X178464285Y-60214285D02*
X177464285Y-60214285D01*
X177464285Y-59785714D01*
X177535714Y-59642857D01*
X177678571Y-59571428D01*
X177821428Y-59571428D01*
X177964285Y-59642857D01*
X178035714Y-59785714D01*
X178035714Y-60214285D01*
X176964285Y-59928571D02*
X177035714Y-60285714D01*
X177250000Y-60642857D01*
X177607142Y-60857142D01*
X177964285Y-60928571D01*
X178321428Y-60857142D01*
X178678571Y-60642857D01*
X178892857Y-60285714D01*
X178964285Y-59928571D01*
X178892857Y-59571428D01*
X178678571Y-59214285D01*
X178321428Y-59000000D01*
X177964285Y-58928571D01*
X177607142Y-59000000D01*
X177250000Y-59214285D01*
X177035714Y-59571428D01*
X176964285Y-59928571D01*
D11*
G36*
X156221871Y-79978133D02*
G01*
X156420299Y-79978377D01*
X156583672Y-79978956D01*
X156715631Y-79980011D01*
X156819816Y-79981683D01*
X156899865Y-79984114D01*
X156959420Y-79987444D01*
X157002119Y-79991816D01*
X157031601Y-79997369D01*
X157051508Y-80004246D01*
X157065478Y-80012588D01*
X157074778Y-80020367D01*
X157099069Y-80042328D01*
X157119725Y-80063065D01*
X157137060Y-80086017D01*
X157151388Y-80114628D01*
X157163023Y-80152339D01*
X157172277Y-80202591D01*
X157179464Y-80268828D01*
X157184897Y-80354489D01*
X157188891Y-80463019D01*
X157191758Y-80597857D01*
X157193813Y-80762446D01*
X157195367Y-80960228D01*
X157196736Y-81194645D01*
X157197683Y-81369792D01*
X157204116Y-82549834D01*
X156757334Y-82549834D01*
X156757334Y-80496667D01*
X156207000Y-80496667D01*
X156207000Y-82549834D01*
X155762500Y-82549834D01*
X155762500Y-80496667D01*
X155212167Y-80496667D01*
X155212167Y-82549834D01*
X154788834Y-82549834D01*
X154788834Y-81363449D01*
X154788848Y-81102762D01*
X154789071Y-80880987D01*
X154789771Y-80694705D01*
X154791220Y-80540495D01*
X154793686Y-80414937D01*
X154797439Y-80314611D01*
X154802749Y-80236096D01*
X154809885Y-80175971D01*
X154819117Y-80130817D01*
X154830715Y-80097213D01*
X154844948Y-80071738D01*
X154862087Y-80050973D01*
X154882400Y-80031497D01*
X154894722Y-80020367D01*
X154906569Y-80010759D01*
X154921455Y-80002728D01*
X154943021Y-79996133D01*
X154974906Y-79990832D01*
X155020750Y-79986684D01*
X155084192Y-79983549D01*
X155168872Y-79981284D01*
X155278431Y-79979750D01*
X155416507Y-79978803D01*
X155586740Y-79978305D01*
X155792770Y-79978112D01*
X155984750Y-79978084D01*
X156221871Y-79978133D01*
G37*
X156221871Y-79978133D02*
X156420299Y-79978377D01*
X156583672Y-79978956D01*
X156715631Y-79980011D01*
X156819816Y-79981683D01*
X156899865Y-79984114D01*
X156959420Y-79987444D01*
X157002119Y-79991816D01*
X157031601Y-79997369D01*
X157051508Y-80004246D01*
X157065478Y-80012588D01*
X157074778Y-80020367D01*
X157099069Y-80042328D01*
X157119725Y-80063065D01*
X157137060Y-80086017D01*
X157151388Y-80114628D01*
X157163023Y-80152339D01*
X157172277Y-80202591D01*
X157179464Y-80268828D01*
X157184897Y-80354489D01*
X157188891Y-80463019D01*
X157191758Y-80597857D01*
X157193813Y-80762446D01*
X157195367Y-80960228D01*
X157196736Y-81194645D01*
X157197683Y-81369792D01*
X157204116Y-82549834D01*
X156757334Y-82549834D01*
X156757334Y-80496667D01*
X156207000Y-80496667D01*
X156207000Y-82549834D01*
X155762500Y-82549834D01*
X155762500Y-80496667D01*
X155212167Y-80496667D01*
X155212167Y-82549834D01*
X154788834Y-82549834D01*
X154788834Y-81363449D01*
X154788848Y-81102762D01*
X154789071Y-80880987D01*
X154789771Y-80694705D01*
X154791220Y-80540495D01*
X154793686Y-80414937D01*
X154797439Y-80314611D01*
X154802749Y-80236096D01*
X154809885Y-80175971D01*
X154819117Y-80130817D01*
X154830715Y-80097213D01*
X154844948Y-80071738D01*
X154862087Y-80050973D01*
X154882400Y-80031497D01*
X154894722Y-80020367D01*
X154906569Y-80010759D01*
X154921455Y-80002728D01*
X154943021Y-79996133D01*
X154974906Y-79990832D01*
X155020750Y-79986684D01*
X155084192Y-79983549D01*
X155168872Y-79981284D01*
X155278431Y-79979750D01*
X155416507Y-79978803D01*
X155586740Y-79978305D01*
X155792770Y-79978112D01*
X155984750Y-79978084D01*
X156221871Y-79978133D01*
D12*
X151000000Y-114500000D03*
X151000000Y-109500000D03*
X151000000Y-100000000D03*
X151000000Y-105000000D03*
X141000000Y-92000000D03*
X141000000Y-87000000D03*
X166500000Y-74500000D03*
X166500000Y-79500000D03*
D13*
X134000000Y-131500000D03*
D14*
X128920000Y-131500000D03*
X131460000Y-131500000D03*
D13*
X142500000Y-131500000D03*
D14*
X137420000Y-131500000D03*
X139960000Y-131500000D03*
D15*
X141000000Y-126620000D03*
D16*
X141000000Y-119000000D03*
D12*
X132250000Y-110000000D03*
X132250000Y-115000000D03*
X145000000Y-115000000D03*
X145000000Y-110000000D03*
D17*
X158130000Y-139715000D03*
D18*
X158630000Y-137175000D03*
X158130000Y-134635000D03*
X158630000Y-132095000D03*
X158130000Y-129555000D03*
X158630000Y-127015000D03*
X158130000Y-124475000D03*
X158630000Y-121935000D03*
X158130000Y-119395000D03*
X158630000Y-116855000D03*
X158130000Y-114315000D03*
X158630000Y-111775000D03*
X158130000Y-109235000D03*
X158630000Y-106695000D03*
X158130000Y-104155000D03*
D17*
X173870000Y-139715000D03*
D18*
X173370000Y-137175000D03*
X173870000Y-134635000D03*
X173370000Y-132095000D03*
X173870000Y-129555000D03*
X173370000Y-127015000D03*
X173870000Y-124475000D03*
X173370000Y-121935000D03*
X173870000Y-119395000D03*
X173370000Y-116855000D03*
X173870000Y-114315000D03*
X173370000Y-111775000D03*
X173870000Y-109235000D03*
X173370000Y-106695000D03*
X173870000Y-104155000D03*
D19*
X156960000Y-54500000D03*
D20*
X159500000Y-54500000D03*
D19*
X163460000Y-54500000D03*
D20*
X166000000Y-54500000D03*
D19*
X169960000Y-54500000D03*
D20*
X172500000Y-54500000D03*
D15*
X134120000Y-57620000D03*
D12*
X141740000Y-57620000D03*
D21*
X153750000Y-143510000D03*
D22*
X152500000Y-146000000D03*
X148000000Y-146000000D03*
D21*
X146740000Y-143510000D03*
D23*
X139600000Y-138000000D03*
D24*
X138000000Y-141100000D03*
X138000000Y-146100000D03*
D23*
X142500000Y-146100000D03*
X136400000Y-138000000D03*
X141600000Y-141100000D03*
D25*
X133200000Y-146100000D03*
D15*
X169880000Y-79500000D03*
X177500000Y-71880000D03*
X169880000Y-76960000D03*
X177500000Y-74420000D03*
X169880000Y-74420000D03*
X177500000Y-76960000D03*
X169880000Y-71880000D03*
D16*
X177500000Y-79500000D03*
D15*
X133500000Y-76380000D03*
X148740000Y-84000000D03*
X136040000Y-76380000D03*
X146200000Y-84000000D03*
X138580000Y-76380000D03*
X143660000Y-84000000D03*
X141120000Y-76380000D03*
X141120000Y-84000000D03*
X143660000Y-76380000D03*
X138580000Y-84000000D03*
X146200000Y-76380000D03*
X136040000Y-84000000D03*
X148740000Y-76380000D03*
D16*
X133500000Y-84000000D03*
D15*
X157000000Y-58880000D03*
D12*
X157000000Y-66500000D03*
D15*
X163500000Y-58880000D03*
D12*
X163500000Y-66500000D03*
D15*
X170000000Y-58880000D03*
D12*
X170000000Y-66500000D03*
D15*
X169880000Y-89500000D03*
D12*
X177500000Y-89500000D03*
D15*
X169880000Y-84500000D03*
D12*
X177500000Y-84500000D03*
D15*
X133500000Y-94620000D03*
D12*
X133500000Y-87000000D03*
D15*
X137500000Y-86880000D03*
D12*
X137500000Y-94500000D03*
D15*
X129500000Y-69620000D03*
D12*
X129500000Y-62000000D03*
D15*
X132000000Y-126620000D03*
D12*
X132000000Y-119000000D03*
D15*
X129500000Y-94620000D03*
D12*
X129500000Y-87000000D03*
D15*
X128000000Y-118880000D03*
D12*
X128000000Y-126500000D03*
D15*
X146500000Y-61880000D03*
D12*
X146500000Y-69500000D03*
D15*
X147500000Y-87880000D03*
D12*
X147500000Y-95500000D03*
D15*
X151500000Y-95620000D03*
D12*
X151500000Y-88000000D03*
D15*
X150500000Y-69620000D03*
D12*
X150500000Y-62000000D03*
D15*
X149000000Y-126620000D03*
D12*
X149000000Y-119000000D03*
D15*
X145000000Y-126620000D03*
D12*
X145000000Y-119000000D03*
D15*
X136000000Y-118880000D03*
D12*
X136000000Y-126500000D03*
D15*
X128000000Y-107620000D03*
D12*
X128000000Y-100000000D03*
D15*
X132000000Y-107620000D03*
D12*
X132000000Y-100000000D03*
D15*
X153000000Y-126620000D03*
D12*
X153000000Y-119000000D03*
D19*
X136960000Y-54500000D03*
D20*
X139500000Y-54500000D03*
D15*
X137000000Y-106880000D03*
D16*
X137000000Y-114500000D03*
D15*
X140500000Y-114620000D03*
D16*
X140500000Y-107000000D03*
D12*
X140000000Y-98000000D03*
X140000000Y-103000000D03*
X134000000Y-63000000D03*
X134000000Y-68000000D03*
X128500000Y-82500000D03*
X128500000Y-77500000D03*
X138000000Y-63000000D03*
X138000000Y-68000000D03*
X136000000Y-98000000D03*
X136000000Y-103000000D03*
X142000000Y-68000000D03*
X142000000Y-63000000D03*
X128000000Y-110000000D03*
X128000000Y-115000000D03*
D26*
X182000000Y-145000000D03*
X182000000Y-54000000D03*
X124000000Y-145000000D03*
X124000000Y-54000000D03*
M02*
