G04 #@! TF.GenerationSoftware,KiCad,Pcbnew,5.1.5-1.fc31*
G04 #@! TF.CreationDate,2020-05-07T20:15:09-05:00*
G04 #@! TF.ProjectId,Nucleo32TNC,4e75636c-656f-4333-9254-4e432e6b6963,B*
G04 #@! TF.SameCoordinates,Original*
G04 #@! TF.FileFunction,Legend,Top*
G04 #@! TF.FilePolarity,Positive*
%FSLAX46Y46*%
G04 Gerber Fmt 4.6, Leading zero omitted, Abs format (unit mm)*
G04 Created by KiCad (PCBNEW 5.1.5-1.fc31) date 2020-05-07 20:15:09*
%MOMM*%
%LPD*%
G04 APERTURE LIST*
%ADD10C,0.150000*%
%ADD11C,0.300000*%
%ADD12C,0.010000*%
%ADD13C,0.200000*%
%ADD14C,0.127000*%
%ADD15C,0.120000*%
%ADD16C,0.400000*%
%ADD17C,0.015000*%
%ADD18C,0.102000*%
%ADD19C,0.110000*%
%ADD20C,0.100000*%
G04 APERTURE END LIST*
D10*
X185230952Y-130383333D02*
X183564285Y-130383333D01*
X183802380Y-130383333D02*
X183683333Y-130288095D01*
X183564285Y-130097619D01*
X183564285Y-129811904D01*
X183683333Y-129621428D01*
X183921428Y-129526190D01*
X185230952Y-129526190D01*
X183921428Y-129526190D02*
X183683333Y-129430952D01*
X183564285Y-129240476D01*
X183564285Y-128954761D01*
X183683333Y-128764285D01*
X183921428Y-128669047D01*
X185230952Y-128669047D01*
X185230952Y-127430952D02*
X185111904Y-127621428D01*
X184992857Y-127716666D01*
X184754761Y-127811904D01*
X184040476Y-127811904D01*
X183802380Y-127716666D01*
X183683333Y-127621428D01*
X183564285Y-127430952D01*
X183564285Y-127145238D01*
X183683333Y-126954761D01*
X183802380Y-126859523D01*
X184040476Y-126764285D01*
X184754761Y-126764285D01*
X184992857Y-126859523D01*
X185111904Y-126954761D01*
X185230952Y-127145238D01*
X185230952Y-127430952D01*
X185230952Y-125907142D02*
X182730952Y-125907142D01*
X183683333Y-125907142D02*
X183564285Y-125716666D01*
X183564285Y-125335714D01*
X183683333Y-125145238D01*
X183802380Y-125050000D01*
X184040476Y-124954761D01*
X184754761Y-124954761D01*
X184992857Y-125050000D01*
X185111904Y-125145238D01*
X185230952Y-125335714D01*
X185230952Y-125716666D01*
X185111904Y-125907142D01*
X185230952Y-124097619D02*
X183564285Y-124097619D01*
X182730952Y-124097619D02*
X182850000Y-124192857D01*
X182969047Y-124097619D01*
X182850000Y-124002380D01*
X182730952Y-124097619D01*
X182969047Y-124097619D01*
X185230952Y-122859523D02*
X185111904Y-123050000D01*
X184873809Y-123145238D01*
X182730952Y-123145238D01*
X185230952Y-122097619D02*
X183564285Y-122097619D01*
X182730952Y-122097619D02*
X182850000Y-122192857D01*
X182969047Y-122097619D01*
X182850000Y-122002380D01*
X182730952Y-122097619D01*
X182969047Y-122097619D01*
X183564285Y-121145238D02*
X185230952Y-121145238D01*
X183802380Y-121145238D02*
X183683333Y-121050000D01*
X183564285Y-120859523D01*
X183564285Y-120573809D01*
X183683333Y-120383333D01*
X183921428Y-120288095D01*
X185230952Y-120288095D01*
X185230952Y-119335714D02*
X182730952Y-119335714D01*
X184278571Y-119145238D02*
X185230952Y-118573809D01*
X183564285Y-118573809D02*
X184516666Y-119335714D01*
X185230952Y-116859523D02*
X182730952Y-116859523D01*
X185111904Y-116859523D02*
X185230952Y-117050000D01*
X185230952Y-117430952D01*
X185111904Y-117621428D01*
X184992857Y-117716666D01*
X184754761Y-117811904D01*
X184040476Y-117811904D01*
X183802380Y-117716666D01*
X183683333Y-117621428D01*
X183564285Y-117430952D01*
X183564285Y-117050000D01*
X183683333Y-116859523D01*
X184992857Y-115907142D02*
X185111904Y-115811904D01*
X185230952Y-115907142D01*
X185111904Y-116002380D01*
X184992857Y-115907142D01*
X185230952Y-115907142D01*
X185111904Y-114097619D02*
X185230952Y-114288095D01*
X185230952Y-114669047D01*
X185111904Y-114859523D01*
X184992857Y-114954761D01*
X184754761Y-115050000D01*
X184040476Y-115050000D01*
X183802380Y-114954761D01*
X183683333Y-114859523D01*
X183564285Y-114669047D01*
X183564285Y-114288095D01*
X183683333Y-114097619D01*
X185230952Y-112954761D02*
X185111904Y-113145238D01*
X184992857Y-113240476D01*
X184754761Y-113335714D01*
X184040476Y-113335714D01*
X183802380Y-113240476D01*
X183683333Y-113145238D01*
X183564285Y-112954761D01*
X183564285Y-112669047D01*
X183683333Y-112478571D01*
X183802380Y-112383333D01*
X184040476Y-112288095D01*
X184754761Y-112288095D01*
X184992857Y-112383333D01*
X185111904Y-112478571D01*
X185230952Y-112669047D01*
X185230952Y-112954761D01*
X185230952Y-111430952D02*
X183564285Y-111430952D01*
X183802380Y-111430952D02*
X183683333Y-111335714D01*
X183564285Y-111145238D01*
X183564285Y-110859523D01*
X183683333Y-110669047D01*
X183921428Y-110573809D01*
X185230952Y-110573809D01*
X183921428Y-110573809D02*
X183683333Y-110478571D01*
X183564285Y-110288095D01*
X183564285Y-110002380D01*
X183683333Y-109811904D01*
X183921428Y-109716666D01*
X185230952Y-109716666D01*
X178119047Y-99452380D02*
X177785714Y-98976190D01*
X177547619Y-99452380D02*
X177547619Y-98452380D01*
X177928571Y-98452380D01*
X178023809Y-98500000D01*
X178071428Y-98547619D01*
X178119047Y-98642857D01*
X178119047Y-98785714D01*
X178071428Y-98880952D01*
X178023809Y-98928571D01*
X177928571Y-98976190D01*
X177547619Y-98976190D01*
X178928571Y-99404761D02*
X178833333Y-99452380D01*
X178642857Y-99452380D01*
X178547619Y-99404761D01*
X178500000Y-99309523D01*
X178500000Y-98928571D01*
X178547619Y-98833333D01*
X178642857Y-98785714D01*
X178833333Y-98785714D01*
X178928571Y-98833333D01*
X178976190Y-98928571D01*
X178976190Y-99023809D01*
X178500000Y-99119047D01*
X179309523Y-98785714D02*
X179547619Y-99452380D01*
X179785714Y-98785714D01*
X181261904Y-98928571D02*
X181404761Y-98976190D01*
X181452380Y-99023809D01*
X181500000Y-99119047D01*
X181500000Y-99261904D01*
X181452380Y-99357142D01*
X181404761Y-99404761D01*
X181309523Y-99452380D01*
X180928571Y-99452380D01*
X180928571Y-98452380D01*
X181261904Y-98452380D01*
X181357142Y-98500000D01*
X181404761Y-98547619D01*
X181452380Y-98642857D01*
X181452380Y-98738095D01*
X181404761Y-98833333D01*
X181357142Y-98880952D01*
X181261904Y-98928571D01*
X180928571Y-98928571D01*
D11*
X181809523Y-130357142D02*
X177809523Y-130357142D01*
X181809523Y-128071428D01*
X177809523Y-128071428D01*
X179142857Y-124452380D02*
X181809523Y-124452380D01*
X179142857Y-126166666D02*
X181238095Y-126166666D01*
X181619047Y-125976190D01*
X181809523Y-125595238D01*
X181809523Y-125023809D01*
X181619047Y-124642857D01*
X181428571Y-124452380D01*
X181619047Y-120833333D02*
X181809523Y-121214285D01*
X181809523Y-121976190D01*
X181619047Y-122357142D01*
X181428571Y-122547619D01*
X181047619Y-122738095D01*
X179904761Y-122738095D01*
X179523809Y-122547619D01*
X179333333Y-122357142D01*
X179142857Y-121976190D01*
X179142857Y-121214285D01*
X179333333Y-120833333D01*
X181809523Y-118547619D02*
X181619047Y-118928571D01*
X181238095Y-119119047D01*
X177809523Y-119119047D01*
X181619047Y-115500000D02*
X181809523Y-115880952D01*
X181809523Y-116642857D01*
X181619047Y-117023809D01*
X181238095Y-117214285D01*
X179714285Y-117214285D01*
X179333333Y-117023809D01*
X179142857Y-116642857D01*
X179142857Y-115880952D01*
X179333333Y-115500000D01*
X179714285Y-115309523D01*
X180095238Y-115309523D01*
X180476190Y-117214285D01*
X181809523Y-113023809D02*
X181619047Y-113404761D01*
X181428571Y-113595238D01*
X181047619Y-113785714D01*
X179904761Y-113785714D01*
X179523809Y-113595238D01*
X179333333Y-113404761D01*
X179142857Y-113023809D01*
X179142857Y-112452380D01*
X179333333Y-112071428D01*
X179523809Y-111880952D01*
X179904761Y-111690476D01*
X181047619Y-111690476D01*
X181428571Y-111880952D01*
X181619047Y-112071428D01*
X181809523Y-112452380D01*
X181809523Y-113023809D01*
X177809523Y-110547619D02*
X177809523Y-108261904D01*
X181809523Y-109404761D02*
X177809523Y-109404761D01*
X181809523Y-106928571D02*
X177809523Y-106928571D01*
X181809523Y-104642857D01*
X177809523Y-104642857D01*
X181428571Y-100452380D02*
X181619047Y-100642857D01*
X181809523Y-101214285D01*
X181809523Y-101595238D01*
X181619047Y-102166666D01*
X181238095Y-102547619D01*
X180857142Y-102738095D01*
X180095238Y-102928571D01*
X179523809Y-102928571D01*
X178761904Y-102738095D01*
X178380952Y-102547619D01*
X178000000Y-102166666D01*
X177809523Y-101595238D01*
X177809523Y-101214285D01*
X178000000Y-100642857D01*
X178190476Y-100452380D01*
D12*
G36*
X158205647Y-71685669D02*
G01*
X158693042Y-71713230D01*
X159179713Y-71781866D01*
X159662689Y-71890380D01*
X160138997Y-72037571D01*
X160605667Y-72222243D01*
X161059727Y-72443196D01*
X161498203Y-72699232D01*
X161918126Y-72989152D01*
X162316522Y-73311760D01*
X162381907Y-73369778D01*
X162737096Y-73716165D01*
X163064402Y-74090217D01*
X163362336Y-74488707D01*
X163629406Y-74908405D01*
X163864122Y-75346084D01*
X164064993Y-75798514D01*
X164230529Y-76262467D01*
X164359238Y-76734714D01*
X164449631Y-77212028D01*
X164500216Y-77691179D01*
X164510868Y-77980909D01*
X164514917Y-78375567D01*
X164449173Y-78457159D01*
X164350314Y-78550669D01*
X164236598Y-78607581D01*
X164113750Y-78625773D01*
X164025219Y-78614292D01*
X163924128Y-78571021D01*
X163833322Y-78498853D01*
X163764495Y-78408923D01*
X163734638Y-78337667D01*
X163728547Y-78298858D01*
X163720989Y-78226393D01*
X163712722Y-78128893D01*
X163704506Y-78014977D01*
X163700141Y-77946084D01*
X163689724Y-77802364D01*
X163675509Y-77646807D01*
X163659200Y-77496192D01*
X163642503Y-77367296D01*
X163638840Y-77342834D01*
X163544346Y-76866993D01*
X163411444Y-76406222D01*
X163241901Y-75962280D01*
X163037484Y-75536923D01*
X162799959Y-75131907D01*
X162531093Y-74748991D01*
X162232653Y-74389931D01*
X161906405Y-74056485D01*
X161554117Y-73750408D01*
X161177556Y-73473460D01*
X160778487Y-73227396D01*
X160358678Y-73013974D01*
X159919895Y-72834950D01*
X159463905Y-72692083D01*
X158992476Y-72587129D01*
X158830302Y-72560589D01*
X158699159Y-72543254D01*
X158543835Y-72526121D01*
X158382451Y-72511011D01*
X158233129Y-72499747D01*
X158212616Y-72498485D01*
X158061504Y-72487909D01*
X157945461Y-72474894D01*
X157857223Y-72457086D01*
X157789524Y-72432132D01*
X157735100Y-72397676D01*
X157686687Y-72351366D01*
X157659372Y-72319227D01*
X157618604Y-72258521D01*
X157596519Y-72192854D01*
X157586994Y-72115521D01*
X157595096Y-71979278D01*
X157640229Y-71863051D01*
X157721960Y-71767793D01*
X157756600Y-71741321D01*
X157844211Y-71680750D01*
X158205647Y-71685669D01*
G37*
X158205647Y-71685669D02*
X158693042Y-71713230D01*
X159179713Y-71781866D01*
X159662689Y-71890380D01*
X160138997Y-72037571D01*
X160605667Y-72222243D01*
X161059727Y-72443196D01*
X161498203Y-72699232D01*
X161918126Y-72989152D01*
X162316522Y-73311760D01*
X162381907Y-73369778D01*
X162737096Y-73716165D01*
X163064402Y-74090217D01*
X163362336Y-74488707D01*
X163629406Y-74908405D01*
X163864122Y-75346084D01*
X164064993Y-75798514D01*
X164230529Y-76262467D01*
X164359238Y-76734714D01*
X164449631Y-77212028D01*
X164500216Y-77691179D01*
X164510868Y-77980909D01*
X164514917Y-78375567D01*
X164449173Y-78457159D01*
X164350314Y-78550669D01*
X164236598Y-78607581D01*
X164113750Y-78625773D01*
X164025219Y-78614292D01*
X163924128Y-78571021D01*
X163833322Y-78498853D01*
X163764495Y-78408923D01*
X163734638Y-78337667D01*
X163728547Y-78298858D01*
X163720989Y-78226393D01*
X163712722Y-78128893D01*
X163704506Y-78014977D01*
X163700141Y-77946084D01*
X163689724Y-77802364D01*
X163675509Y-77646807D01*
X163659200Y-77496192D01*
X163642503Y-77367296D01*
X163638840Y-77342834D01*
X163544346Y-76866993D01*
X163411444Y-76406222D01*
X163241901Y-75962280D01*
X163037484Y-75536923D01*
X162799959Y-75131907D01*
X162531093Y-74748991D01*
X162232653Y-74389931D01*
X161906405Y-74056485D01*
X161554117Y-73750408D01*
X161177556Y-73473460D01*
X160778487Y-73227396D01*
X160358678Y-73013974D01*
X159919895Y-72834950D01*
X159463905Y-72692083D01*
X158992476Y-72587129D01*
X158830302Y-72560589D01*
X158699159Y-72543254D01*
X158543835Y-72526121D01*
X158382451Y-72511011D01*
X158233129Y-72499747D01*
X158212616Y-72498485D01*
X158061504Y-72487909D01*
X157945461Y-72474894D01*
X157857223Y-72457086D01*
X157789524Y-72432132D01*
X157735100Y-72397676D01*
X157686687Y-72351366D01*
X157659372Y-72319227D01*
X157618604Y-72258521D01*
X157596519Y-72192854D01*
X157586994Y-72115521D01*
X157595096Y-71979278D01*
X157640229Y-71863051D01*
X157721960Y-71767793D01*
X157756600Y-71741321D01*
X157844211Y-71680750D01*
X158205647Y-71685669D01*
G36*
X158225956Y-73726599D02*
G01*
X158402938Y-73738621D01*
X158592751Y-73760448D01*
X158789801Y-73791779D01*
X158988494Y-73832317D01*
X159075084Y-73853014D01*
X159493783Y-73979209D01*
X159893426Y-74142638D01*
X160272303Y-74341918D01*
X160628704Y-74575666D01*
X160960919Y-74842501D01*
X161267237Y-75141040D01*
X161545948Y-75469899D01*
X161795343Y-75827697D01*
X162013710Y-76213051D01*
X162027062Y-76239566D01*
X162161550Y-76543569D01*
X162275820Y-76873012D01*
X162367011Y-77216316D01*
X162432263Y-77561899D01*
X162468715Y-77898181D01*
X162475154Y-78053606D01*
X162476264Y-78166104D01*
X162474163Y-78246620D01*
X162467588Y-78305460D01*
X162455273Y-78352931D01*
X162435954Y-78399338D01*
X162431599Y-78408447D01*
X162364110Y-78502037D01*
X162268908Y-78572235D01*
X162156199Y-78614468D01*
X162036190Y-78624166D01*
X161972053Y-78614292D01*
X161868570Y-78569200D01*
X161776726Y-78492280D01*
X161730461Y-78431236D01*
X161710926Y-78392853D01*
X161695279Y-78343692D01*
X161682078Y-78276140D01*
X161669882Y-78182586D01*
X161657249Y-78055415D01*
X161655386Y-78034740D01*
X161639818Y-77868881D01*
X161625127Y-77734800D01*
X161609689Y-77622016D01*
X161591880Y-77520047D01*
X161570076Y-77418414D01*
X161542653Y-77306633D01*
X161542448Y-77305833D01*
X161426867Y-76937605D01*
X161274222Y-76586826D01*
X161086959Y-76255824D01*
X160867527Y-75946925D01*
X160618372Y-75662455D01*
X160341943Y-75404740D01*
X160040687Y-75176107D01*
X159717051Y-74978883D01*
X159373483Y-74815393D01*
X159012431Y-74687964D01*
X158709136Y-74612837D01*
X158597553Y-74593309D01*
X158462096Y-74574097D01*
X158321176Y-74557614D01*
X158211720Y-74547618D01*
X158064710Y-74535170D01*
X157952813Y-74521919D01*
X157868822Y-74505946D01*
X157805531Y-74485335D01*
X157755733Y-74458168D01*
X157712221Y-74422528D01*
X157701202Y-74411791D01*
X157627425Y-74313142D01*
X157590836Y-74199516D01*
X157589226Y-74069682D01*
X157618702Y-73948275D01*
X157682015Y-73849230D01*
X157758193Y-73782542D01*
X157827922Y-73752353D01*
X157932854Y-73733166D01*
X158067396Y-73724681D01*
X158225956Y-73726599D01*
G37*
X158225956Y-73726599D02*
X158402938Y-73738621D01*
X158592751Y-73760448D01*
X158789801Y-73791779D01*
X158988494Y-73832317D01*
X159075084Y-73853014D01*
X159493783Y-73979209D01*
X159893426Y-74142638D01*
X160272303Y-74341918D01*
X160628704Y-74575666D01*
X160960919Y-74842501D01*
X161267237Y-75141040D01*
X161545948Y-75469899D01*
X161795343Y-75827697D01*
X162013710Y-76213051D01*
X162027062Y-76239566D01*
X162161550Y-76543569D01*
X162275820Y-76873012D01*
X162367011Y-77216316D01*
X162432263Y-77561899D01*
X162468715Y-77898181D01*
X162475154Y-78053606D01*
X162476264Y-78166104D01*
X162474163Y-78246620D01*
X162467588Y-78305460D01*
X162455273Y-78352931D01*
X162435954Y-78399338D01*
X162431599Y-78408447D01*
X162364110Y-78502037D01*
X162268908Y-78572235D01*
X162156199Y-78614468D01*
X162036190Y-78624166D01*
X161972053Y-78614292D01*
X161868570Y-78569200D01*
X161776726Y-78492280D01*
X161730461Y-78431236D01*
X161710926Y-78392853D01*
X161695279Y-78343692D01*
X161682078Y-78276140D01*
X161669882Y-78182586D01*
X161657249Y-78055415D01*
X161655386Y-78034740D01*
X161639818Y-77868881D01*
X161625127Y-77734800D01*
X161609689Y-77622016D01*
X161591880Y-77520047D01*
X161570076Y-77418414D01*
X161542653Y-77306633D01*
X161542448Y-77305833D01*
X161426867Y-76937605D01*
X161274222Y-76586826D01*
X161086959Y-76255824D01*
X160867527Y-75946925D01*
X160618372Y-75662455D01*
X160341943Y-75404740D01*
X160040687Y-75176107D01*
X159717051Y-74978883D01*
X159373483Y-74815393D01*
X159012431Y-74687964D01*
X158709136Y-74612837D01*
X158597553Y-74593309D01*
X158462096Y-74574097D01*
X158321176Y-74557614D01*
X158211720Y-74547618D01*
X158064710Y-74535170D01*
X157952813Y-74521919D01*
X157868822Y-74505946D01*
X157805531Y-74485335D01*
X157755733Y-74458168D01*
X157712221Y-74422528D01*
X157701202Y-74411791D01*
X157627425Y-74313142D01*
X157590836Y-74199516D01*
X157589226Y-74069682D01*
X157618702Y-73948275D01*
X157682015Y-73849230D01*
X157758193Y-73782542D01*
X157827922Y-73752353D01*
X157932854Y-73733166D01*
X158067396Y-73724681D01*
X158225956Y-73726599D01*
G36*
X158144979Y-75776671D02*
G01*
X158186084Y-75779604D01*
X158502095Y-75824581D01*
X158805115Y-75909528D01*
X159093249Y-76033565D01*
X159364606Y-76195811D01*
X159617292Y-76395384D01*
X159721898Y-76494621D01*
X159937208Y-76738287D01*
X160114012Y-76999524D01*
X160252443Y-77278605D01*
X160352634Y-77575803D01*
X160414716Y-77891391D01*
X160420076Y-77934480D01*
X160433837Y-78110852D01*
X160429539Y-78252951D01*
X160406791Y-78364973D01*
X160372826Y-78439400D01*
X160295099Y-78527256D01*
X160192161Y-78589395D01*
X160075524Y-78621169D01*
X159956696Y-78617929D01*
X159939915Y-78614264D01*
X159840434Y-78580020D01*
X159762583Y-78528486D01*
X159703039Y-78454468D01*
X159658480Y-78352776D01*
X159625583Y-78218219D01*
X159606682Y-78093535D01*
X159589926Y-77979302D01*
X159569179Y-77866410D01*
X159547342Y-77769441D01*
X159531077Y-77713250D01*
X159425491Y-77469386D01*
X159287136Y-77250154D01*
X159119106Y-77058036D01*
X158924498Y-76895513D01*
X158706405Y-76765065D01*
X158467923Y-76669175D01*
X158212146Y-76610323D01*
X158144394Y-76601526D01*
X158050613Y-76590630D01*
X157965814Y-76579736D01*
X157903981Y-76570676D01*
X157889750Y-76568160D01*
X157778851Y-76527271D01*
X157690725Y-76456993D01*
X157627494Y-76364894D01*
X157591282Y-76258541D01*
X157584212Y-76145501D01*
X157608408Y-76033341D01*
X157665994Y-75929629D01*
X157699810Y-75891243D01*
X157763006Y-75836803D01*
X157830423Y-75800122D01*
X157910759Y-75779205D01*
X158012711Y-75772053D01*
X158144979Y-75776671D01*
G37*
X158144979Y-75776671D02*
X158186084Y-75779604D01*
X158502095Y-75824581D01*
X158805115Y-75909528D01*
X159093249Y-76033565D01*
X159364606Y-76195811D01*
X159617292Y-76395384D01*
X159721898Y-76494621D01*
X159937208Y-76738287D01*
X160114012Y-76999524D01*
X160252443Y-77278605D01*
X160352634Y-77575803D01*
X160414716Y-77891391D01*
X160420076Y-77934480D01*
X160433837Y-78110852D01*
X160429539Y-78252951D01*
X160406791Y-78364973D01*
X160372826Y-78439400D01*
X160295099Y-78527256D01*
X160192161Y-78589395D01*
X160075524Y-78621169D01*
X159956696Y-78617929D01*
X159939915Y-78614264D01*
X159840434Y-78580020D01*
X159762583Y-78528486D01*
X159703039Y-78454468D01*
X159658480Y-78352776D01*
X159625583Y-78218219D01*
X159606682Y-78093535D01*
X159589926Y-77979302D01*
X159569179Y-77866410D01*
X159547342Y-77769441D01*
X159531077Y-77713250D01*
X159425491Y-77469386D01*
X159287136Y-77250154D01*
X159119106Y-77058036D01*
X158924498Y-76895513D01*
X158706405Y-76765065D01*
X158467923Y-76669175D01*
X158212146Y-76610323D01*
X158144394Y-76601526D01*
X158050613Y-76590630D01*
X157965814Y-76579736D01*
X157903981Y-76570676D01*
X157889750Y-76568160D01*
X157778851Y-76527271D01*
X157690725Y-76456993D01*
X157627494Y-76364894D01*
X157591282Y-76258541D01*
X157584212Y-76145501D01*
X157608408Y-76033341D01*
X157665994Y-75929629D01*
X157699810Y-75891243D01*
X157763006Y-75836803D01*
X157830423Y-75800122D01*
X157910759Y-75779205D01*
X158012711Y-75772053D01*
X158144979Y-75776671D01*
G36*
X157329566Y-77937021D02*
G01*
X157422770Y-77978817D01*
X157491089Y-78040670D01*
X157501669Y-78056759D01*
X157520656Y-78099199D01*
X157547550Y-78172430D01*
X157578887Y-78266467D01*
X157611206Y-78371322D01*
X157613765Y-78380000D01*
X157649540Y-78498089D01*
X157680336Y-78583725D01*
X157712268Y-78645308D01*
X157751450Y-78691238D01*
X157803997Y-78729918D01*
X157876022Y-78769747D01*
X157910041Y-78787067D01*
X158076866Y-78889732D01*
X158209432Y-79011063D01*
X158305645Y-79148590D01*
X158363410Y-79299840D01*
X158369760Y-79329367D01*
X158374182Y-79376113D01*
X158377584Y-79462296D01*
X158380014Y-79585034D01*
X158381519Y-79741443D01*
X158382144Y-79928643D01*
X158381938Y-80143749D01*
X158380946Y-80383878D01*
X158379217Y-80646150D01*
X158376796Y-80927680D01*
X158373731Y-81225586D01*
X158370069Y-81536986D01*
X158365856Y-81858996D01*
X158361139Y-82188735D01*
X158355966Y-82523319D01*
X158350383Y-82859866D01*
X158344437Y-83195493D01*
X158338175Y-83527318D01*
X158331645Y-83852458D01*
X158324891Y-84168031D01*
X158317963Y-84471153D01*
X158310906Y-84758942D01*
X158303768Y-85028515D01*
X158296595Y-85276990D01*
X158289435Y-85501484D01*
X158282334Y-85699115D01*
X158275339Y-85867000D01*
X158268497Y-86002256D01*
X158261855Y-86102000D01*
X158259054Y-86133431D01*
X158227381Y-86365727D01*
X158180549Y-86561384D01*
X158115333Y-86723513D01*
X158028509Y-86855221D01*
X157916851Y-86959620D01*
X157777134Y-87039818D01*
X157606132Y-87098925D01*
X157400621Y-87140051D01*
X157190477Y-87163687D01*
X157109607Y-87168357D01*
X156992220Y-87172317D01*
X156844123Y-87175570D01*
X156671126Y-87178119D01*
X156479038Y-87179965D01*
X156273668Y-87181111D01*
X156060825Y-87181559D01*
X155846318Y-87181313D01*
X155635956Y-87180375D01*
X155435547Y-87178747D01*
X155250902Y-87176432D01*
X155087829Y-87173432D01*
X154952137Y-87169750D01*
X154849636Y-87165388D01*
X154808968Y-87162655D01*
X154564698Y-87131965D01*
X154356721Y-87082742D01*
X154182716Y-87013808D01*
X154040361Y-86923981D01*
X153927336Y-86812083D01*
X153841320Y-86676933D01*
X153837255Y-86668654D01*
X153797280Y-86567169D01*
X153758932Y-86435200D01*
X153725055Y-86284580D01*
X153698496Y-86127142D01*
X153689213Y-86052917D01*
X153683355Y-85978170D01*
X153677655Y-85864365D01*
X153672144Y-85714777D01*
X153666854Y-85532681D01*
X153661818Y-85321352D01*
X153657066Y-85084066D01*
X153652631Y-84824096D01*
X153648544Y-84544720D01*
X153644838Y-84249211D01*
X153641543Y-83940844D01*
X153638691Y-83622896D01*
X153636315Y-83298640D01*
X153634445Y-82971352D01*
X153633115Y-82644306D01*
X153632354Y-82320779D01*
X153632196Y-82004046D01*
X153632672Y-81697380D01*
X153633814Y-81404058D01*
X153635652Y-81127354D01*
X153638220Y-80870543D01*
X153638653Y-80835334D01*
X153651316Y-79829917D01*
X154337983Y-79829917D01*
X154352871Y-81152834D01*
X154356028Y-81425254D01*
X154358978Y-81658560D01*
X154361840Y-81855969D01*
X154364731Y-82020700D01*
X154367767Y-82155970D01*
X154371065Y-82264997D01*
X154374743Y-82351000D01*
X154378918Y-82417195D01*
X154383706Y-82466800D01*
X154389224Y-82503034D01*
X154395590Y-82529115D01*
X154402921Y-82548260D01*
X154403672Y-82549834D01*
X154459499Y-82619894D01*
X154554811Y-82680695D01*
X154690042Y-82732382D01*
X154865628Y-82775104D01*
X155082002Y-82809007D01*
X155212167Y-82823334D01*
X155310792Y-82830059D01*
X155442056Y-82834823D01*
X155599187Y-82837725D01*
X155775411Y-82838865D01*
X155963955Y-82838345D01*
X156158049Y-82836263D01*
X156350918Y-82832720D01*
X156535790Y-82827817D01*
X156705893Y-82821654D01*
X156854454Y-82814330D01*
X156974701Y-82805947D01*
X157059861Y-82796604D01*
X157064250Y-82795929D01*
X157165030Y-82779015D01*
X157259784Y-82761324D01*
X157334311Y-82745585D01*
X157360584Y-82739014D01*
X157452144Y-82705699D01*
X157537294Y-82661028D01*
X157604976Y-82611932D01*
X157644137Y-82565343D01*
X157646601Y-82559713D01*
X157651422Y-82526616D01*
X157656065Y-82456023D01*
X157660492Y-82352335D01*
X157664665Y-82219953D01*
X157668546Y-82063279D01*
X157672098Y-81886716D01*
X157675283Y-81694663D01*
X157678062Y-81491524D01*
X157680399Y-81281699D01*
X157682255Y-81069590D01*
X157683593Y-80859599D01*
X157684374Y-80656127D01*
X157684561Y-80463576D01*
X157684116Y-80286348D01*
X157683001Y-80128844D01*
X157681179Y-79995466D01*
X157678611Y-79890615D01*
X157675260Y-79818692D01*
X157671088Y-79784101D01*
X157670462Y-79782535D01*
X157629152Y-79736152D01*
X157558189Y-79686143D01*
X157469000Y-79639110D01*
X157373011Y-79601652D01*
X157341374Y-79592408D01*
X157194151Y-79561279D01*
X157011752Y-79535290D01*
X156801033Y-79514543D01*
X156568851Y-79499141D01*
X156322062Y-79489187D01*
X156067522Y-79484782D01*
X155812089Y-79486031D01*
X155562617Y-79493034D01*
X155325964Y-79505895D01*
X155108987Y-79524717D01*
X154918541Y-79549602D01*
X154882527Y-79555613D01*
X154721862Y-79592184D01*
X154582196Y-79641014D01*
X154470567Y-79699102D01*
X154394011Y-79763444D01*
X154393190Y-79764413D01*
X154337983Y-79829917D01*
X153651316Y-79829917D01*
X153657982Y-79300750D01*
X153709180Y-79194917D01*
X153792949Y-79064030D01*
X153911134Y-78940504D01*
X154055818Y-78831641D01*
X154175838Y-78764549D01*
X154288095Y-78715240D01*
X154407961Y-78673224D01*
X154539530Y-78637979D01*
X154686893Y-78608981D01*
X154854145Y-78585706D01*
X155045379Y-78567633D01*
X155264688Y-78554237D01*
X155516165Y-78544996D01*
X155803904Y-78539387D01*
X155949437Y-78537883D01*
X156125433Y-78536296D01*
X156287586Y-78534474D01*
X156431144Y-78532498D01*
X156551357Y-78530448D01*
X156643476Y-78528407D01*
X156702750Y-78526454D01*
X156724426Y-78524675D01*
X156733097Y-78502877D01*
X156751859Y-78449507D01*
X156777710Y-78373250D01*
X156800058Y-78305917D01*
X156840254Y-78188270D01*
X156873925Y-78103779D01*
X156905745Y-78044777D01*
X156940390Y-78003595D01*
X156982534Y-77972565D01*
X157013724Y-77955448D01*
X157113734Y-77922988D01*
X157222784Y-77917628D01*
X157329566Y-77937021D01*
G37*
X157329566Y-77937021D02*
X157422770Y-77978817D01*
X157491089Y-78040670D01*
X157501669Y-78056759D01*
X157520656Y-78099199D01*
X157547550Y-78172430D01*
X157578887Y-78266467D01*
X157611206Y-78371322D01*
X157613765Y-78380000D01*
X157649540Y-78498089D01*
X157680336Y-78583725D01*
X157712268Y-78645308D01*
X157751450Y-78691238D01*
X157803997Y-78729918D01*
X157876022Y-78769747D01*
X157910041Y-78787067D01*
X158076866Y-78889732D01*
X158209432Y-79011063D01*
X158305645Y-79148590D01*
X158363410Y-79299840D01*
X158369760Y-79329367D01*
X158374182Y-79376113D01*
X158377584Y-79462296D01*
X158380014Y-79585034D01*
X158381519Y-79741443D01*
X158382144Y-79928643D01*
X158381938Y-80143749D01*
X158380946Y-80383878D01*
X158379217Y-80646150D01*
X158376796Y-80927680D01*
X158373731Y-81225586D01*
X158370069Y-81536986D01*
X158365856Y-81858996D01*
X158361139Y-82188735D01*
X158355966Y-82523319D01*
X158350383Y-82859866D01*
X158344437Y-83195493D01*
X158338175Y-83527318D01*
X158331645Y-83852458D01*
X158324891Y-84168031D01*
X158317963Y-84471153D01*
X158310906Y-84758942D01*
X158303768Y-85028515D01*
X158296595Y-85276990D01*
X158289435Y-85501484D01*
X158282334Y-85699115D01*
X158275339Y-85867000D01*
X158268497Y-86002256D01*
X158261855Y-86102000D01*
X158259054Y-86133431D01*
X158227381Y-86365727D01*
X158180549Y-86561384D01*
X158115333Y-86723513D01*
X158028509Y-86855221D01*
X157916851Y-86959620D01*
X157777134Y-87039818D01*
X157606132Y-87098925D01*
X157400621Y-87140051D01*
X157190477Y-87163687D01*
X157109607Y-87168357D01*
X156992220Y-87172317D01*
X156844123Y-87175570D01*
X156671126Y-87178119D01*
X156479038Y-87179965D01*
X156273668Y-87181111D01*
X156060825Y-87181559D01*
X155846318Y-87181313D01*
X155635956Y-87180375D01*
X155435547Y-87178747D01*
X155250902Y-87176432D01*
X155087829Y-87173432D01*
X154952137Y-87169750D01*
X154849636Y-87165388D01*
X154808968Y-87162655D01*
X154564698Y-87131965D01*
X154356721Y-87082742D01*
X154182716Y-87013808D01*
X154040361Y-86923981D01*
X153927336Y-86812083D01*
X153841320Y-86676933D01*
X153837255Y-86668654D01*
X153797280Y-86567169D01*
X153758932Y-86435200D01*
X153725055Y-86284580D01*
X153698496Y-86127142D01*
X153689213Y-86052917D01*
X153683355Y-85978170D01*
X153677655Y-85864365D01*
X153672144Y-85714777D01*
X153666854Y-85532681D01*
X153661818Y-85321352D01*
X153657066Y-85084066D01*
X153652631Y-84824096D01*
X153648544Y-84544720D01*
X153644838Y-84249211D01*
X153641543Y-83940844D01*
X153638691Y-83622896D01*
X153636315Y-83298640D01*
X153634445Y-82971352D01*
X153633115Y-82644306D01*
X153632354Y-82320779D01*
X153632196Y-82004046D01*
X153632672Y-81697380D01*
X153633814Y-81404058D01*
X153635652Y-81127354D01*
X153638220Y-80870543D01*
X153638653Y-80835334D01*
X153651316Y-79829917D01*
X154337983Y-79829917D01*
X154352871Y-81152834D01*
X154356028Y-81425254D01*
X154358978Y-81658560D01*
X154361840Y-81855969D01*
X154364731Y-82020700D01*
X154367767Y-82155970D01*
X154371065Y-82264997D01*
X154374743Y-82351000D01*
X154378918Y-82417195D01*
X154383706Y-82466800D01*
X154389224Y-82503034D01*
X154395590Y-82529115D01*
X154402921Y-82548260D01*
X154403672Y-82549834D01*
X154459499Y-82619894D01*
X154554811Y-82680695D01*
X154690042Y-82732382D01*
X154865628Y-82775104D01*
X155082002Y-82809007D01*
X155212167Y-82823334D01*
X155310792Y-82830059D01*
X155442056Y-82834823D01*
X155599187Y-82837725D01*
X155775411Y-82838865D01*
X155963955Y-82838345D01*
X156158049Y-82836263D01*
X156350918Y-82832720D01*
X156535790Y-82827817D01*
X156705893Y-82821654D01*
X156854454Y-82814330D01*
X156974701Y-82805947D01*
X157059861Y-82796604D01*
X157064250Y-82795929D01*
X157165030Y-82779015D01*
X157259784Y-82761324D01*
X157334311Y-82745585D01*
X157360584Y-82739014D01*
X157452144Y-82705699D01*
X157537294Y-82661028D01*
X157604976Y-82611932D01*
X157644137Y-82565343D01*
X157646601Y-82559713D01*
X157651422Y-82526616D01*
X157656065Y-82456023D01*
X157660492Y-82352335D01*
X157664665Y-82219953D01*
X157668546Y-82063279D01*
X157672098Y-81886716D01*
X157675283Y-81694663D01*
X157678062Y-81491524D01*
X157680399Y-81281699D01*
X157682255Y-81069590D01*
X157683593Y-80859599D01*
X157684374Y-80656127D01*
X157684561Y-80463576D01*
X157684116Y-80286348D01*
X157683001Y-80128844D01*
X157681179Y-79995466D01*
X157678611Y-79890615D01*
X157675260Y-79818692D01*
X157671088Y-79784101D01*
X157670462Y-79782535D01*
X157629152Y-79736152D01*
X157558189Y-79686143D01*
X157469000Y-79639110D01*
X157373011Y-79601652D01*
X157341374Y-79592408D01*
X157194151Y-79561279D01*
X157011752Y-79535290D01*
X156801033Y-79514543D01*
X156568851Y-79499141D01*
X156322062Y-79489187D01*
X156067522Y-79484782D01*
X155812089Y-79486031D01*
X155562617Y-79493034D01*
X155325964Y-79505895D01*
X155108987Y-79524717D01*
X154918541Y-79549602D01*
X154882527Y-79555613D01*
X154721862Y-79592184D01*
X154582196Y-79641014D01*
X154470567Y-79699102D01*
X154394011Y-79763444D01*
X154393190Y-79764413D01*
X154337983Y-79829917D01*
X153651316Y-79829917D01*
X153657982Y-79300750D01*
X153709180Y-79194917D01*
X153792949Y-79064030D01*
X153911134Y-78940504D01*
X154055818Y-78831641D01*
X154175838Y-78764549D01*
X154288095Y-78715240D01*
X154407961Y-78673224D01*
X154539530Y-78637979D01*
X154686893Y-78608981D01*
X154854145Y-78585706D01*
X155045379Y-78567633D01*
X155264688Y-78554237D01*
X155516165Y-78544996D01*
X155803904Y-78539387D01*
X155949437Y-78537883D01*
X156125433Y-78536296D01*
X156287586Y-78534474D01*
X156431144Y-78532498D01*
X156551357Y-78530448D01*
X156643476Y-78528407D01*
X156702750Y-78526454D01*
X156724426Y-78524675D01*
X156733097Y-78502877D01*
X156751859Y-78449507D01*
X156777710Y-78373250D01*
X156800058Y-78305917D01*
X156840254Y-78188270D01*
X156873925Y-78103779D01*
X156905745Y-78044777D01*
X156940390Y-78003595D01*
X156982534Y-77972565D01*
X157013724Y-77955448D01*
X157113734Y-77922988D01*
X157222784Y-77917628D01*
X157329566Y-77937021D01*
D13*
X176100000Y-140000000D02*
G75*
G03X176100000Y-140000000I-100000J0D01*
G01*
D14*
X156730000Y-98355000D02*
X175270000Y-98355000D01*
X156730000Y-148645000D02*
X156730000Y-98355000D01*
X175270000Y-98355000D02*
X175270000Y-148645000D01*
X175270000Y-148645000D02*
X156730000Y-148645000D01*
D15*
X156960000Y-53420000D02*
X156960000Y-53420000D01*
X156960000Y-50750000D02*
X156960000Y-53420000D01*
X156960000Y-50750000D02*
X156960000Y-50750000D01*
X156960000Y-53420000D02*
X156960000Y-50750000D01*
X159500000Y-53420000D02*
X159500000Y-53420000D01*
X159500000Y-50750000D02*
X159500000Y-53420000D01*
X159500000Y-50750000D02*
X159500000Y-50750000D01*
X159500000Y-53420000D02*
X159500000Y-50750000D01*
X156670000Y-50750000D02*
X156270000Y-50750000D01*
X156670000Y-49630000D02*
X156670000Y-50750000D01*
X156270000Y-49630000D02*
X156670000Y-49630000D01*
X156270000Y-50750000D02*
X156270000Y-49630000D01*
X159790000Y-50750000D02*
X156670000Y-50750000D01*
X156670000Y-50750000D02*
X156670000Y-46890000D01*
X159790000Y-50750000D02*
X159790000Y-46890000D01*
X156670000Y-46890000D02*
G75*
G02X159790000Y-46890000I1560000J0D01*
G01*
X163460000Y-53420000D02*
X163460000Y-53420000D01*
X163460000Y-50750000D02*
X163460000Y-53420000D01*
X163460000Y-50750000D02*
X163460000Y-50750000D01*
X163460000Y-53420000D02*
X163460000Y-50750000D01*
X166000000Y-53420000D02*
X166000000Y-53420000D01*
X166000000Y-50750000D02*
X166000000Y-53420000D01*
X166000000Y-50750000D02*
X166000000Y-50750000D01*
X166000000Y-53420000D02*
X166000000Y-50750000D01*
X163170000Y-50750000D02*
X162770000Y-50750000D01*
X163170000Y-49630000D02*
X163170000Y-50750000D01*
X162770000Y-49630000D02*
X163170000Y-49630000D01*
X162770000Y-50750000D02*
X162770000Y-49630000D01*
X166290000Y-50750000D02*
X163170000Y-50750000D01*
X163170000Y-50750000D02*
X163170000Y-46890000D01*
X166290000Y-50750000D02*
X166290000Y-46890000D01*
X163170000Y-46890000D02*
G75*
G02X166290000Y-46890000I1560000J0D01*
G01*
X169960000Y-53420000D02*
X169960000Y-53420000D01*
X169960000Y-50750000D02*
X169960000Y-53420000D01*
X169960000Y-50750000D02*
X169960000Y-50750000D01*
X169960000Y-53420000D02*
X169960000Y-50750000D01*
X172500000Y-53420000D02*
X172500000Y-53420000D01*
X172500000Y-50750000D02*
X172500000Y-53420000D01*
X172500000Y-50750000D02*
X172500000Y-50750000D01*
X172500000Y-53420000D02*
X172500000Y-50750000D01*
X169670000Y-50750000D02*
X169270000Y-50750000D01*
X169670000Y-49630000D02*
X169670000Y-50750000D01*
X169270000Y-49630000D02*
X169670000Y-49630000D01*
X169270000Y-50750000D02*
X169270000Y-49630000D01*
X172790000Y-50750000D02*
X169670000Y-50750000D01*
X169670000Y-50750000D02*
X169670000Y-46890000D01*
X172790000Y-50750000D02*
X172790000Y-46890000D01*
X169670000Y-46890000D02*
G75*
G02X172790000Y-46890000I1560000J0D01*
G01*
X134660000Y-56250000D02*
X134660000Y-56580000D01*
X141200000Y-56250000D02*
X134660000Y-56250000D01*
X141200000Y-56580000D02*
X141200000Y-56250000D01*
X134660000Y-58990000D02*
X134660000Y-58660000D01*
X141200000Y-58990000D02*
X134660000Y-58990000D01*
X141200000Y-58660000D02*
X141200000Y-58990000D01*
X151925000Y-99380000D02*
X152370000Y-99380000D01*
X149630000Y-99380000D02*
X150075000Y-99380000D01*
X151925000Y-105620000D02*
X152370000Y-105620000D01*
X149630000Y-105620000D02*
X150075000Y-105620000D01*
X152370000Y-105620000D02*
X152370000Y-99380000D01*
X149630000Y-105620000D02*
X149630000Y-99380000D01*
X152370000Y-108880000D02*
X152370000Y-115120000D01*
X149630000Y-108880000D02*
X149630000Y-115120000D01*
X152370000Y-108880000D02*
X151925000Y-108880000D01*
X150075000Y-108880000D02*
X149630000Y-108880000D01*
X152370000Y-115120000D02*
X151925000Y-115120000D01*
X150075000Y-115120000D02*
X149630000Y-115120000D01*
X153590000Y-145030000D02*
X153590000Y-144800000D01*
X154110000Y-148700000D02*
X146390000Y-148700000D01*
X146390000Y-148700000D02*
X146390000Y-144800000D01*
X154110000Y-141690000D02*
X153590000Y-141690000D01*
X154110000Y-148700000D02*
X154110000Y-144800000D01*
X146910000Y-145030000D02*
X146910000Y-144800000D01*
X153590000Y-142200000D02*
X153590000Y-141690000D01*
X154110000Y-142200000D02*
X154110000Y-141690000D01*
X147450000Y-145030000D02*
X146910000Y-145030000D01*
X146910000Y-142200000D02*
X146910000Y-141690000D01*
X146910000Y-141690000D02*
X146390000Y-141690000D01*
X146390000Y-142200000D02*
X146390000Y-141690000D01*
X153590000Y-145030000D02*
X153050000Y-145030000D01*
X151950000Y-145030000D02*
X148550000Y-145030000D01*
D12*
G36*
X177242348Y-135896090D02*
G01*
X177242778Y-135817546D01*
X177243942Y-135760702D01*
X177246207Y-135721895D01*
X177249940Y-135697462D01*
X177255506Y-135683738D01*
X177263273Y-135677060D01*
X177273605Y-135673764D01*
X177274943Y-135673444D01*
X177299079Y-135668438D01*
X177346701Y-135659171D01*
X177412741Y-135646608D01*
X177492128Y-135631713D01*
X177579796Y-135615449D01*
X177582875Y-135614881D01*
X177668789Y-135598590D01*
X177744696Y-135583348D01*
X177806045Y-135570139D01*
X177848282Y-135559946D01*
X177866855Y-135553752D01*
X177867184Y-135553457D01*
X177876253Y-135535212D01*
X177891367Y-135497595D01*
X177909262Y-135448729D01*
X177909358Y-135448457D01*
X177932493Y-135386907D01*
X177961965Y-135314343D01*
X177991597Y-135245943D01*
X177993062Y-135242706D01*
X178043626Y-135131298D01*
X177875160Y-134884601D01*
X177823803Y-134808923D01*
X177777889Y-134740369D01*
X177740030Y-134682912D01*
X177712837Y-134640524D01*
X177698921Y-134617175D01*
X177697889Y-134614958D01*
X177702484Y-134597990D01*
X177724655Y-134566299D01*
X177765447Y-134518648D01*
X177825905Y-134453802D01*
X177890227Y-134387603D01*
X177953612Y-134323786D01*
X178011451Y-134266671D01*
X178060175Y-134219695D01*
X178096210Y-134186297D01*
X178115984Y-134169915D01*
X178117002Y-134169306D01*
X178130572Y-134167495D01*
X178152733Y-134174317D01*
X178186478Y-134191460D01*
X178234800Y-134220607D01*
X178300692Y-134263445D01*
X178385517Y-134320552D01*
X178460177Y-134371234D01*
X178527140Y-134416539D01*
X178582516Y-134453850D01*
X178622420Y-134480548D01*
X178642962Y-134494015D01*
X178644356Y-134494863D01*
X178664038Y-134493219D01*
X178702293Y-134480755D01*
X178751889Y-134459952D01*
X178767728Y-134452538D01*
X178838290Y-134420186D01*
X178918353Y-134385672D01*
X178987629Y-134357635D01*
X179039045Y-134337432D01*
X179078119Y-134321385D01*
X179098541Y-134312112D01*
X179100114Y-134310959D01*
X179102721Y-134293904D01*
X179109863Y-134253702D01*
X179120523Y-134195698D01*
X179133685Y-134125237D01*
X179148333Y-134047665D01*
X179163449Y-133968328D01*
X179178018Y-133892569D01*
X179191022Y-133825736D01*
X179201445Y-133773172D01*
X179208270Y-133740224D01*
X179210199Y-133732143D01*
X179214962Y-133723795D01*
X179225718Y-133717494D01*
X179246098Y-133712955D01*
X179279734Y-133709896D01*
X179330255Y-133708033D01*
X179401292Y-133707082D01*
X179496476Y-133706760D01*
X179535492Y-133706743D01*
X179852799Y-133706743D01*
X179867839Y-133782943D01*
X179875995Y-133825337D01*
X179887899Y-133888600D01*
X179902116Y-133965038D01*
X179917210Y-134046957D01*
X179921355Y-134069600D01*
X179936053Y-134145194D01*
X179950505Y-134211047D01*
X179963375Y-134261634D01*
X179973322Y-134291426D01*
X179976287Y-134296388D01*
X179997283Y-134308574D01*
X180037967Y-134326047D01*
X180090322Y-134345423D01*
X180101600Y-134349266D01*
X180171523Y-134374661D01*
X180250418Y-134406183D01*
X180321266Y-134437031D01*
X180321595Y-134437183D01*
X180432733Y-134488553D01*
X180681253Y-134319601D01*
X180929772Y-134150648D01*
X181147058Y-134367571D01*
X181211726Y-134433181D01*
X181268733Y-134493021D01*
X181315033Y-134543733D01*
X181347584Y-134581954D01*
X181363343Y-134604325D01*
X181364343Y-134607534D01*
X181356469Y-134626374D01*
X181334578Y-134664820D01*
X181301267Y-134718670D01*
X181259131Y-134783724D01*
X181211943Y-134854060D01*
X181163810Y-134925445D01*
X181121928Y-134989092D01*
X181088871Y-135040959D01*
X181067218Y-135077005D01*
X181059543Y-135093133D01*
X181066037Y-135112811D01*
X181083150Y-135150125D01*
X181107326Y-135197379D01*
X181110013Y-135202388D01*
X181141927Y-135266023D01*
X181157579Y-135309659D01*
X181157745Y-135336798D01*
X181143204Y-135350943D01*
X181143000Y-135351025D01*
X181125779Y-135358095D01*
X181084899Y-135374958D01*
X181023525Y-135400305D01*
X180944819Y-135432829D01*
X180851947Y-135471222D01*
X180748072Y-135514178D01*
X180647502Y-135555778D01*
X180536516Y-135601496D01*
X180433703Y-135643474D01*
X180342215Y-135680452D01*
X180265201Y-135711173D01*
X180205815Y-135734378D01*
X180167209Y-135748810D01*
X180152800Y-135753257D01*
X180136272Y-135742104D01*
X180109930Y-135712931D01*
X180080887Y-135674029D01*
X179989039Y-135563243D01*
X179883759Y-135476649D01*
X179767266Y-135415284D01*
X179641776Y-135380185D01*
X179509507Y-135372392D01*
X179448457Y-135378057D01*
X179321795Y-135408922D01*
X179209941Y-135462080D01*
X179114001Y-135534233D01*
X179035076Y-135622083D01*
X178974270Y-135722335D01*
X178932687Y-135831690D01*
X178911428Y-135946853D01*
X178911599Y-136064525D01*
X178934301Y-136181410D01*
X178980638Y-136294211D01*
X179051713Y-136399631D01*
X179091911Y-136443632D01*
X179195129Y-136528021D01*
X179307925Y-136586778D01*
X179427010Y-136620296D01*
X179549095Y-136628965D01*
X179670893Y-136613177D01*
X179789116Y-136573322D01*
X179900475Y-136509793D01*
X180001684Y-136422979D01*
X180080887Y-136325971D01*
X180111162Y-136285563D01*
X180137219Y-136257018D01*
X180152825Y-136246743D01*
X180169843Y-136252123D01*
X180210500Y-136267425D01*
X180271642Y-136291388D01*
X180350119Y-136322756D01*
X180442780Y-136360268D01*
X180546472Y-136402667D01*
X180647526Y-136444337D01*
X180758607Y-136490310D01*
X180861541Y-136532893D01*
X180953165Y-136570779D01*
X181030316Y-136602660D01*
X181089831Y-136627229D01*
X181128544Y-136643180D01*
X181143000Y-136649090D01*
X181157685Y-136663052D01*
X181157642Y-136690060D01*
X181142099Y-136733587D01*
X181110284Y-136797110D01*
X181110013Y-136797612D01*
X181085323Y-136845440D01*
X181067338Y-136884103D01*
X181059614Y-136905905D01*
X181059543Y-136906867D01*
X181067378Y-136923279D01*
X181089165Y-136959513D01*
X181122328Y-137011526D01*
X181164291Y-137075275D01*
X181211943Y-137145940D01*
X181260191Y-137217884D01*
X181302151Y-137282726D01*
X181335227Y-137336265D01*
X181356821Y-137374303D01*
X181364343Y-137392467D01*
X181354457Y-137409192D01*
X181326826Y-137442820D01*
X181284495Y-137489990D01*
X181230505Y-137547342D01*
X181167899Y-137611516D01*
X181146983Y-137632503D01*
X180929623Y-137849501D01*
X180687220Y-137684332D01*
X180612781Y-137634136D01*
X180545972Y-137590081D01*
X180490665Y-137554638D01*
X180450729Y-137530281D01*
X180430036Y-137519478D01*
X180428563Y-137519162D01*
X180409058Y-137524857D01*
X180369822Y-137540174D01*
X180317430Y-137562463D01*
X180282355Y-137578107D01*
X180215201Y-137607359D01*
X180147358Y-137634906D01*
X180090034Y-137656263D01*
X180072572Y-137662065D01*
X180025938Y-137678548D01*
X179989905Y-137694660D01*
X179976287Y-137703510D01*
X179967952Y-137723040D01*
X179956137Y-137765666D01*
X179942181Y-137825855D01*
X179927422Y-137898078D01*
X179921355Y-137930400D01*
X179906273Y-138012478D01*
X179891669Y-138091205D01*
X179878980Y-138158891D01*
X179869642Y-138207840D01*
X179867839Y-138217057D01*
X179852799Y-138293257D01*
X179535492Y-138293257D01*
X179431154Y-138293086D01*
X179352213Y-138292384D01*
X179295038Y-138290866D01*
X179255999Y-138288251D01*
X179231465Y-138284254D01*
X179217805Y-138278591D01*
X179211389Y-138270980D01*
X179210199Y-138267857D01*
X179205980Y-138249022D01*
X179197562Y-138207412D01*
X179185961Y-138148370D01*
X179172195Y-138077243D01*
X179157280Y-137999375D01*
X179142232Y-137920113D01*
X179128069Y-137844802D01*
X179115806Y-137778787D01*
X179106461Y-137727413D01*
X179101050Y-137696025D01*
X179100114Y-137689041D01*
X179087596Y-137682715D01*
X179054246Y-137668710D01*
X179006377Y-137649645D01*
X178987629Y-137642366D01*
X178915195Y-137613004D01*
X178835170Y-137578429D01*
X178767728Y-137547463D01*
X178716159Y-137524677D01*
X178673785Y-137509518D01*
X178647834Y-137504458D01*
X178644356Y-137505264D01*
X178627936Y-137515959D01*
X178591417Y-137540380D01*
X178538687Y-137575905D01*
X178473635Y-137619913D01*
X178400151Y-137669783D01*
X178385645Y-137679644D01*
X178299704Y-137737508D01*
X178234261Y-137780044D01*
X178186304Y-137808946D01*
X178152820Y-137825910D01*
X178130795Y-137832633D01*
X178117217Y-137830810D01*
X178117131Y-137830764D01*
X178099297Y-137816414D01*
X178064817Y-137784677D01*
X178017268Y-137738990D01*
X177960222Y-137682796D01*
X177897255Y-137619532D01*
X177890227Y-137612398D01*
X177813020Y-137532670D01*
X177756330Y-137471143D01*
X177719110Y-137426579D01*
X177700315Y-137397743D01*
X177697889Y-137385042D01*
X177708471Y-137366506D01*
X177732916Y-137328039D01*
X177768612Y-137273614D01*
X177812947Y-137207202D01*
X177863311Y-137132775D01*
X177875160Y-137115399D01*
X178043626Y-136868703D01*
X177993062Y-136757294D01*
X177963595Y-136689543D01*
X177933959Y-136616817D01*
X177910330Y-136554297D01*
X177909358Y-136551543D01*
X177891457Y-136502640D01*
X177876320Y-136464943D01*
X177867210Y-136446575D01*
X177867184Y-136446544D01*
X177850717Y-136440715D01*
X177810219Y-136430808D01*
X177750242Y-136417805D01*
X177675340Y-136402691D01*
X177590064Y-136386448D01*
X177582875Y-136385119D01*
X177495014Y-136368825D01*
X177415260Y-136353867D01*
X177348681Y-136341209D01*
X177300347Y-136331814D01*
X177275325Y-136326646D01*
X177274943Y-136326556D01*
X177264299Y-136323411D01*
X177256262Y-136317296D01*
X177250467Y-136304547D01*
X177246547Y-136281500D01*
X177244135Y-136244491D01*
X177242865Y-136189856D01*
X177242371Y-136113933D01*
X177242286Y-136013056D01*
X177242286Y-136000000D01*
X177242348Y-135896090D01*
G37*
X177242348Y-135896090D02*
X177242778Y-135817546D01*
X177243942Y-135760702D01*
X177246207Y-135721895D01*
X177249940Y-135697462D01*
X177255506Y-135683738D01*
X177263273Y-135677060D01*
X177273605Y-135673764D01*
X177274943Y-135673444D01*
X177299079Y-135668438D01*
X177346701Y-135659171D01*
X177412741Y-135646608D01*
X177492128Y-135631713D01*
X177579796Y-135615449D01*
X177582875Y-135614881D01*
X177668789Y-135598590D01*
X177744696Y-135583348D01*
X177806045Y-135570139D01*
X177848282Y-135559946D01*
X177866855Y-135553752D01*
X177867184Y-135553457D01*
X177876253Y-135535212D01*
X177891367Y-135497595D01*
X177909262Y-135448729D01*
X177909358Y-135448457D01*
X177932493Y-135386907D01*
X177961965Y-135314343D01*
X177991597Y-135245943D01*
X177993062Y-135242706D01*
X178043626Y-135131298D01*
X177875160Y-134884601D01*
X177823803Y-134808923D01*
X177777889Y-134740369D01*
X177740030Y-134682912D01*
X177712837Y-134640524D01*
X177698921Y-134617175D01*
X177697889Y-134614958D01*
X177702484Y-134597990D01*
X177724655Y-134566299D01*
X177765447Y-134518648D01*
X177825905Y-134453802D01*
X177890227Y-134387603D01*
X177953612Y-134323786D01*
X178011451Y-134266671D01*
X178060175Y-134219695D01*
X178096210Y-134186297D01*
X178115984Y-134169915D01*
X178117002Y-134169306D01*
X178130572Y-134167495D01*
X178152733Y-134174317D01*
X178186478Y-134191460D01*
X178234800Y-134220607D01*
X178300692Y-134263445D01*
X178385517Y-134320552D01*
X178460177Y-134371234D01*
X178527140Y-134416539D01*
X178582516Y-134453850D01*
X178622420Y-134480548D01*
X178642962Y-134494015D01*
X178644356Y-134494863D01*
X178664038Y-134493219D01*
X178702293Y-134480755D01*
X178751889Y-134459952D01*
X178767728Y-134452538D01*
X178838290Y-134420186D01*
X178918353Y-134385672D01*
X178987629Y-134357635D01*
X179039045Y-134337432D01*
X179078119Y-134321385D01*
X179098541Y-134312112D01*
X179100114Y-134310959D01*
X179102721Y-134293904D01*
X179109863Y-134253702D01*
X179120523Y-134195698D01*
X179133685Y-134125237D01*
X179148333Y-134047665D01*
X179163449Y-133968328D01*
X179178018Y-133892569D01*
X179191022Y-133825736D01*
X179201445Y-133773172D01*
X179208270Y-133740224D01*
X179210199Y-133732143D01*
X179214962Y-133723795D01*
X179225718Y-133717494D01*
X179246098Y-133712955D01*
X179279734Y-133709896D01*
X179330255Y-133708033D01*
X179401292Y-133707082D01*
X179496476Y-133706760D01*
X179535492Y-133706743D01*
X179852799Y-133706743D01*
X179867839Y-133782943D01*
X179875995Y-133825337D01*
X179887899Y-133888600D01*
X179902116Y-133965038D01*
X179917210Y-134046957D01*
X179921355Y-134069600D01*
X179936053Y-134145194D01*
X179950505Y-134211047D01*
X179963375Y-134261634D01*
X179973322Y-134291426D01*
X179976287Y-134296388D01*
X179997283Y-134308574D01*
X180037967Y-134326047D01*
X180090322Y-134345423D01*
X180101600Y-134349266D01*
X180171523Y-134374661D01*
X180250418Y-134406183D01*
X180321266Y-134437031D01*
X180321595Y-134437183D01*
X180432733Y-134488553D01*
X180681253Y-134319601D01*
X180929772Y-134150648D01*
X181147058Y-134367571D01*
X181211726Y-134433181D01*
X181268733Y-134493021D01*
X181315033Y-134543733D01*
X181347584Y-134581954D01*
X181363343Y-134604325D01*
X181364343Y-134607534D01*
X181356469Y-134626374D01*
X181334578Y-134664820D01*
X181301267Y-134718670D01*
X181259131Y-134783724D01*
X181211943Y-134854060D01*
X181163810Y-134925445D01*
X181121928Y-134989092D01*
X181088871Y-135040959D01*
X181067218Y-135077005D01*
X181059543Y-135093133D01*
X181066037Y-135112811D01*
X181083150Y-135150125D01*
X181107326Y-135197379D01*
X181110013Y-135202388D01*
X181141927Y-135266023D01*
X181157579Y-135309659D01*
X181157745Y-135336798D01*
X181143204Y-135350943D01*
X181143000Y-135351025D01*
X181125779Y-135358095D01*
X181084899Y-135374958D01*
X181023525Y-135400305D01*
X180944819Y-135432829D01*
X180851947Y-135471222D01*
X180748072Y-135514178D01*
X180647502Y-135555778D01*
X180536516Y-135601496D01*
X180433703Y-135643474D01*
X180342215Y-135680452D01*
X180265201Y-135711173D01*
X180205815Y-135734378D01*
X180167209Y-135748810D01*
X180152800Y-135753257D01*
X180136272Y-135742104D01*
X180109930Y-135712931D01*
X180080887Y-135674029D01*
X179989039Y-135563243D01*
X179883759Y-135476649D01*
X179767266Y-135415284D01*
X179641776Y-135380185D01*
X179509507Y-135372392D01*
X179448457Y-135378057D01*
X179321795Y-135408922D01*
X179209941Y-135462080D01*
X179114001Y-135534233D01*
X179035076Y-135622083D01*
X178974270Y-135722335D01*
X178932687Y-135831690D01*
X178911428Y-135946853D01*
X178911599Y-136064525D01*
X178934301Y-136181410D01*
X178980638Y-136294211D01*
X179051713Y-136399631D01*
X179091911Y-136443632D01*
X179195129Y-136528021D01*
X179307925Y-136586778D01*
X179427010Y-136620296D01*
X179549095Y-136628965D01*
X179670893Y-136613177D01*
X179789116Y-136573322D01*
X179900475Y-136509793D01*
X180001684Y-136422979D01*
X180080887Y-136325971D01*
X180111162Y-136285563D01*
X180137219Y-136257018D01*
X180152825Y-136246743D01*
X180169843Y-136252123D01*
X180210500Y-136267425D01*
X180271642Y-136291388D01*
X180350119Y-136322756D01*
X180442780Y-136360268D01*
X180546472Y-136402667D01*
X180647526Y-136444337D01*
X180758607Y-136490310D01*
X180861541Y-136532893D01*
X180953165Y-136570779D01*
X181030316Y-136602660D01*
X181089831Y-136627229D01*
X181128544Y-136643180D01*
X181143000Y-136649090D01*
X181157685Y-136663052D01*
X181157642Y-136690060D01*
X181142099Y-136733587D01*
X181110284Y-136797110D01*
X181110013Y-136797612D01*
X181085323Y-136845440D01*
X181067338Y-136884103D01*
X181059614Y-136905905D01*
X181059543Y-136906867D01*
X181067378Y-136923279D01*
X181089165Y-136959513D01*
X181122328Y-137011526D01*
X181164291Y-137075275D01*
X181211943Y-137145940D01*
X181260191Y-137217884D01*
X181302151Y-137282726D01*
X181335227Y-137336265D01*
X181356821Y-137374303D01*
X181364343Y-137392467D01*
X181354457Y-137409192D01*
X181326826Y-137442820D01*
X181284495Y-137489990D01*
X181230505Y-137547342D01*
X181167899Y-137611516D01*
X181146983Y-137632503D01*
X180929623Y-137849501D01*
X180687220Y-137684332D01*
X180612781Y-137634136D01*
X180545972Y-137590081D01*
X180490665Y-137554638D01*
X180450729Y-137530281D01*
X180430036Y-137519478D01*
X180428563Y-137519162D01*
X180409058Y-137524857D01*
X180369822Y-137540174D01*
X180317430Y-137562463D01*
X180282355Y-137578107D01*
X180215201Y-137607359D01*
X180147358Y-137634906D01*
X180090034Y-137656263D01*
X180072572Y-137662065D01*
X180025938Y-137678548D01*
X179989905Y-137694660D01*
X179976287Y-137703510D01*
X179967952Y-137723040D01*
X179956137Y-137765666D01*
X179942181Y-137825855D01*
X179927422Y-137898078D01*
X179921355Y-137930400D01*
X179906273Y-138012478D01*
X179891669Y-138091205D01*
X179878980Y-138158891D01*
X179869642Y-138207840D01*
X179867839Y-138217057D01*
X179852799Y-138293257D01*
X179535492Y-138293257D01*
X179431154Y-138293086D01*
X179352213Y-138292384D01*
X179295038Y-138290866D01*
X179255999Y-138288251D01*
X179231465Y-138284254D01*
X179217805Y-138278591D01*
X179211389Y-138270980D01*
X179210199Y-138267857D01*
X179205980Y-138249022D01*
X179197562Y-138207412D01*
X179185961Y-138148370D01*
X179172195Y-138077243D01*
X179157280Y-137999375D01*
X179142232Y-137920113D01*
X179128069Y-137844802D01*
X179115806Y-137778787D01*
X179106461Y-137727413D01*
X179101050Y-137696025D01*
X179100114Y-137689041D01*
X179087596Y-137682715D01*
X179054246Y-137668710D01*
X179006377Y-137649645D01*
X178987629Y-137642366D01*
X178915195Y-137613004D01*
X178835170Y-137578429D01*
X178767728Y-137547463D01*
X178716159Y-137524677D01*
X178673785Y-137509518D01*
X178647834Y-137504458D01*
X178644356Y-137505264D01*
X178627936Y-137515959D01*
X178591417Y-137540380D01*
X178538687Y-137575905D01*
X178473635Y-137619913D01*
X178400151Y-137669783D01*
X178385645Y-137679644D01*
X178299704Y-137737508D01*
X178234261Y-137780044D01*
X178186304Y-137808946D01*
X178152820Y-137825910D01*
X178130795Y-137832633D01*
X178117217Y-137830810D01*
X178117131Y-137830764D01*
X178099297Y-137816414D01*
X178064817Y-137784677D01*
X178017268Y-137738990D01*
X177960222Y-137682796D01*
X177897255Y-137619532D01*
X177890227Y-137612398D01*
X177813020Y-137532670D01*
X177756330Y-137471143D01*
X177719110Y-137426579D01*
X177700315Y-137397743D01*
X177697889Y-137385042D01*
X177708471Y-137366506D01*
X177732916Y-137328039D01*
X177768612Y-137273614D01*
X177812947Y-137207202D01*
X177863311Y-137132775D01*
X177875160Y-137115399D01*
X178043626Y-136868703D01*
X177993062Y-136757294D01*
X177963595Y-136689543D01*
X177933959Y-136616817D01*
X177910330Y-136554297D01*
X177909358Y-136551543D01*
X177891457Y-136502640D01*
X177876320Y-136464943D01*
X177867210Y-136446575D01*
X177867184Y-136446544D01*
X177850717Y-136440715D01*
X177810219Y-136430808D01*
X177750242Y-136417805D01*
X177675340Y-136402691D01*
X177590064Y-136386448D01*
X177582875Y-136385119D01*
X177495014Y-136368825D01*
X177415260Y-136353867D01*
X177348681Y-136341209D01*
X177300347Y-136331814D01*
X177275325Y-136326646D01*
X177274943Y-136326556D01*
X177264299Y-136323411D01*
X177256262Y-136317296D01*
X177250467Y-136304547D01*
X177246547Y-136281500D01*
X177244135Y-136244491D01*
X177242865Y-136189856D01*
X177242371Y-136113933D01*
X177242286Y-136013056D01*
X177242286Y-136000000D01*
X177242348Y-135896090D01*
G36*
X181966966Y-132846405D02*
G01*
X182004497Y-132788979D01*
X182038096Y-132761281D01*
X182099064Y-132739338D01*
X182147308Y-132737595D01*
X182211816Y-132741543D01*
X182276934Y-132890314D01*
X182310202Y-132962651D01*
X182336964Y-133009916D01*
X182360144Y-133034493D01*
X182382667Y-133038763D01*
X182407455Y-133025111D01*
X182423886Y-133010057D01*
X182450235Y-132966254D01*
X182452081Y-132918611D01*
X182431546Y-132874855D01*
X182390752Y-132842711D01*
X182376347Y-132836962D01*
X182331356Y-132809424D01*
X182312182Y-132777742D01*
X182295779Y-132734286D01*
X182357966Y-132734286D01*
X182400283Y-132738128D01*
X182435969Y-132753177D01*
X182476943Y-132784720D01*
X182482267Y-132789408D01*
X182518720Y-132824494D01*
X182538283Y-132854653D01*
X182547283Y-132892385D01*
X182550230Y-132923665D01*
X182550965Y-132979615D01*
X182541660Y-133019445D01*
X182527846Y-133044292D01*
X182497467Y-133083344D01*
X182464613Y-133110375D01*
X182423294Y-133127483D01*
X182367521Y-133136762D01*
X182291305Y-133140307D01*
X182252622Y-133140590D01*
X182206247Y-133139628D01*
X182206247Y-133051993D01*
X182231126Y-133050977D01*
X182235200Y-133048444D01*
X182229665Y-133031726D01*
X182215017Y-132995751D01*
X182194190Y-132947669D01*
X182189714Y-132937614D01*
X182158814Y-132876848D01*
X182131657Y-132843368D01*
X182106220Y-132836010D01*
X182080481Y-132853609D01*
X182069109Y-132868144D01*
X182046364Y-132920590D01*
X182050122Y-132969678D01*
X182077884Y-133010773D01*
X182127152Y-133039242D01*
X182166257Y-133048369D01*
X182206247Y-133051993D01*
X182206247Y-133139628D01*
X182162249Y-133138715D01*
X182095384Y-133131804D01*
X182046695Y-133118116D01*
X182010849Y-133095904D01*
X181982513Y-133063426D01*
X181973355Y-133049267D01*
X181949507Y-132984947D01*
X181948006Y-132914527D01*
X181966966Y-132846405D01*
G37*
X181966966Y-132846405D02*
X182004497Y-132788979D01*
X182038096Y-132761281D01*
X182099064Y-132739338D01*
X182147308Y-132737595D01*
X182211816Y-132741543D01*
X182276934Y-132890314D01*
X182310202Y-132962651D01*
X182336964Y-133009916D01*
X182360144Y-133034493D01*
X182382667Y-133038763D01*
X182407455Y-133025111D01*
X182423886Y-133010057D01*
X182450235Y-132966254D01*
X182452081Y-132918611D01*
X182431546Y-132874855D01*
X182390752Y-132842711D01*
X182376347Y-132836962D01*
X182331356Y-132809424D01*
X182312182Y-132777742D01*
X182295779Y-132734286D01*
X182357966Y-132734286D01*
X182400283Y-132738128D01*
X182435969Y-132753177D01*
X182476943Y-132784720D01*
X182482267Y-132789408D01*
X182518720Y-132824494D01*
X182538283Y-132854653D01*
X182547283Y-132892385D01*
X182550230Y-132923665D01*
X182550965Y-132979615D01*
X182541660Y-133019445D01*
X182527846Y-133044292D01*
X182497467Y-133083344D01*
X182464613Y-133110375D01*
X182423294Y-133127483D01*
X182367521Y-133136762D01*
X182291305Y-133140307D01*
X182252622Y-133140590D01*
X182206247Y-133139628D01*
X182206247Y-133051993D01*
X182231126Y-133050977D01*
X182235200Y-133048444D01*
X182229665Y-133031726D01*
X182215017Y-132995751D01*
X182194190Y-132947669D01*
X182189714Y-132937614D01*
X182158814Y-132876848D01*
X182131657Y-132843368D01*
X182106220Y-132836010D01*
X182080481Y-132853609D01*
X182069109Y-132868144D01*
X182046364Y-132920590D01*
X182050122Y-132969678D01*
X182077884Y-133010773D01*
X182127152Y-133039242D01*
X182166257Y-133048369D01*
X182206247Y-133051993D01*
X182206247Y-133139628D01*
X182162249Y-133138715D01*
X182095384Y-133131804D01*
X182046695Y-133118116D01*
X182010849Y-133095904D01*
X181982513Y-133063426D01*
X181973355Y-133049267D01*
X181949507Y-132984947D01*
X181948006Y-132914527D01*
X181966966Y-132846405D01*
G36*
X181958752Y-133347400D02*
G01*
X181966334Y-133330052D01*
X181999128Y-133288644D01*
X182046547Y-133253235D01*
X182097151Y-133231336D01*
X182122098Y-133227771D01*
X182156927Y-133239721D01*
X182175357Y-133265933D01*
X182186516Y-133294036D01*
X182188572Y-133306905D01*
X182173649Y-133313171D01*
X182141175Y-133325544D01*
X182126502Y-133330972D01*
X182075744Y-133361410D01*
X182050427Y-133405480D01*
X182051206Y-133461990D01*
X182052203Y-133466175D01*
X182066507Y-133496345D01*
X182094393Y-133518524D01*
X182139287Y-133533673D01*
X182204615Y-133542750D01*
X182293804Y-133546714D01*
X182341261Y-133547086D01*
X182416071Y-133547270D01*
X182467069Y-133548478D01*
X182499471Y-133551691D01*
X182518495Y-133557891D01*
X182529356Y-133568060D01*
X182537272Y-133583181D01*
X182537670Y-133584054D01*
X182549981Y-133613172D01*
X182554514Y-133627597D01*
X182540809Y-133629814D01*
X182502925Y-133631711D01*
X182445715Y-133633153D01*
X182374027Y-133634002D01*
X182321565Y-133634171D01*
X182220047Y-133633308D01*
X182143032Y-133629930D01*
X182086023Y-133622858D01*
X182044526Y-133610912D01*
X182014043Y-133592910D01*
X181990080Y-133567673D01*
X181973355Y-133542753D01*
X181951097Y-133482829D01*
X181946076Y-133413089D01*
X181958752Y-133347400D01*
G37*
X181958752Y-133347400D02*
X181966334Y-133330052D01*
X181999128Y-133288644D01*
X182046547Y-133253235D01*
X182097151Y-133231336D01*
X182122098Y-133227771D01*
X182156927Y-133239721D01*
X182175357Y-133265933D01*
X182186516Y-133294036D01*
X182188572Y-133306905D01*
X182173649Y-133313171D01*
X182141175Y-133325544D01*
X182126502Y-133330972D01*
X182075744Y-133361410D01*
X182050427Y-133405480D01*
X182051206Y-133461990D01*
X182052203Y-133466175D01*
X182066507Y-133496345D01*
X182094393Y-133518524D01*
X182139287Y-133533673D01*
X182204615Y-133542750D01*
X182293804Y-133546714D01*
X182341261Y-133547086D01*
X182416071Y-133547270D01*
X182467069Y-133548478D01*
X182499471Y-133551691D01*
X182518495Y-133557891D01*
X182529356Y-133568060D01*
X182537272Y-133583181D01*
X182537670Y-133584054D01*
X182549981Y-133613172D01*
X182554514Y-133627597D01*
X182540809Y-133629814D01*
X182502925Y-133631711D01*
X182445715Y-133633153D01*
X182374027Y-133634002D01*
X182321565Y-133634171D01*
X182220047Y-133633308D01*
X182143032Y-133629930D01*
X182086023Y-133622858D01*
X182044526Y-133610912D01*
X182014043Y-133592910D01*
X181990080Y-133567673D01*
X181973355Y-133542753D01*
X181951097Y-133482829D01*
X181946076Y-133413089D01*
X181958752Y-133347400D01*
G36*
X181956335Y-133855124D02*
G01*
X181975344Y-133813333D01*
X181998378Y-133780531D01*
X182024133Y-133756497D01*
X182057358Y-133739903D01*
X182102800Y-133729423D01*
X182165207Y-133723729D01*
X182249327Y-133721493D01*
X182304721Y-133721257D01*
X182520826Y-133721257D01*
X182537670Y-133758226D01*
X182549981Y-133787344D01*
X182554514Y-133801769D01*
X182541025Y-133804528D01*
X182504653Y-133806718D01*
X182451542Y-133808058D01*
X182409372Y-133808343D01*
X182348447Y-133809566D01*
X182300115Y-133812864D01*
X182270518Y-133817679D01*
X182264229Y-133821504D01*
X182270652Y-133847217D01*
X182287125Y-133887582D01*
X182309458Y-133934321D01*
X182333457Y-133979155D01*
X182354930Y-134013807D01*
X182369685Y-134029998D01*
X182369845Y-134030062D01*
X182397152Y-134028670D01*
X182423219Y-134016182D01*
X182444392Y-133994257D01*
X182451474Y-133962257D01*
X182450649Y-133934908D01*
X182450042Y-133896174D01*
X182459116Y-133875842D01*
X182483092Y-133863631D01*
X182487613Y-133862091D01*
X182521806Y-133856797D01*
X182542568Y-133870953D01*
X182552462Y-133907852D01*
X182554292Y-133947711D01*
X182540727Y-134019438D01*
X182521355Y-134056568D01*
X182475845Y-134102424D01*
X182419983Y-134126744D01*
X182360957Y-134128927D01*
X182305953Y-134108371D01*
X182271486Y-134077451D01*
X182252189Y-134046580D01*
X182227759Y-133998058D01*
X182202985Y-133941515D01*
X182199199Y-133932090D01*
X182171791Y-133869981D01*
X182147634Y-133834178D01*
X182123619Y-133822663D01*
X182096635Y-133833420D01*
X182075543Y-133851886D01*
X182049572Y-133895531D01*
X182047624Y-133943554D01*
X182067637Y-133987594D01*
X182107551Y-134019291D01*
X182117848Y-134023451D01*
X182155724Y-134047673D01*
X182183842Y-134083035D01*
X182206917Y-134127657D01*
X182141485Y-134127657D01*
X182101506Y-134125031D01*
X182069997Y-134113770D01*
X182036378Y-134088801D01*
X182010484Y-134064831D01*
X181973817Y-134027559D01*
X181954121Y-133998599D01*
X181946220Y-133967495D01*
X181944914Y-133932287D01*
X181956335Y-133855124D01*
G37*
X181956335Y-133855124D02*
X181975344Y-133813333D01*
X181998378Y-133780531D01*
X182024133Y-133756497D01*
X182057358Y-133739903D01*
X182102800Y-133729423D01*
X182165207Y-133723729D01*
X182249327Y-133721493D01*
X182304721Y-133721257D01*
X182520826Y-133721257D01*
X182537670Y-133758226D01*
X182549981Y-133787344D01*
X182554514Y-133801769D01*
X182541025Y-133804528D01*
X182504653Y-133806718D01*
X182451542Y-133808058D01*
X182409372Y-133808343D01*
X182348447Y-133809566D01*
X182300115Y-133812864D01*
X182270518Y-133817679D01*
X182264229Y-133821504D01*
X182270652Y-133847217D01*
X182287125Y-133887582D01*
X182309458Y-133934321D01*
X182333457Y-133979155D01*
X182354930Y-134013807D01*
X182369685Y-134029998D01*
X182369845Y-134030062D01*
X182397152Y-134028670D01*
X182423219Y-134016182D01*
X182444392Y-133994257D01*
X182451474Y-133962257D01*
X182450649Y-133934908D01*
X182450042Y-133896174D01*
X182459116Y-133875842D01*
X182483092Y-133863631D01*
X182487613Y-133862091D01*
X182521806Y-133856797D01*
X182542568Y-133870953D01*
X182552462Y-133907852D01*
X182554292Y-133947711D01*
X182540727Y-134019438D01*
X182521355Y-134056568D01*
X182475845Y-134102424D01*
X182419983Y-134126744D01*
X182360957Y-134128927D01*
X182305953Y-134108371D01*
X182271486Y-134077451D01*
X182252189Y-134046580D01*
X182227759Y-133998058D01*
X182202985Y-133941515D01*
X182199199Y-133932090D01*
X182171791Y-133869981D01*
X182147634Y-133834178D01*
X182123619Y-133822663D01*
X182096635Y-133833420D01*
X182075543Y-133851886D01*
X182049572Y-133895531D01*
X182047624Y-133943554D01*
X182067637Y-133987594D01*
X182107551Y-134019291D01*
X182117848Y-134023451D01*
X182155724Y-134047673D01*
X182183842Y-134083035D01*
X182206917Y-134127657D01*
X182141485Y-134127657D01*
X182101506Y-134125031D01*
X182069997Y-134113770D01*
X182036378Y-134088801D01*
X182010484Y-134064831D01*
X181973817Y-134027559D01*
X181954121Y-133998599D01*
X181946220Y-133967495D01*
X181944914Y-133932287D01*
X181956335Y-133855124D01*
G36*
X181958663Y-134220167D02*
G01*
X181996850Y-134217952D01*
X182054886Y-134216216D01*
X182128180Y-134215101D01*
X182205055Y-134214743D01*
X182465196Y-134214743D01*
X182511127Y-134260674D01*
X182539429Y-134292325D01*
X182550893Y-134320110D01*
X182550168Y-134358085D01*
X182548321Y-134373160D01*
X182542948Y-134420274D01*
X182539869Y-134459244D01*
X182539585Y-134468743D01*
X182541445Y-134500767D01*
X182546114Y-134546568D01*
X182548321Y-134564326D01*
X182551735Y-134607943D01*
X182544320Y-134637255D01*
X182521427Y-134666320D01*
X182511127Y-134676812D01*
X182465196Y-134722743D01*
X181978602Y-134722743D01*
X181961758Y-134685774D01*
X181949282Y-134653941D01*
X181944914Y-134635317D01*
X181958718Y-134630542D01*
X181997286Y-134626079D01*
X182056356Y-134622225D01*
X182131663Y-134619278D01*
X182195286Y-134617857D01*
X182445657Y-134613886D01*
X182450556Y-134579241D01*
X182447131Y-134547732D01*
X182436041Y-134532292D01*
X182415308Y-134527977D01*
X182371145Y-134524292D01*
X182309146Y-134521531D01*
X182234909Y-134519988D01*
X182196706Y-134519765D01*
X181976783Y-134519543D01*
X181960849Y-134473834D01*
X181950015Y-134441482D01*
X181944962Y-134423885D01*
X181944914Y-134423377D01*
X181958648Y-134421612D01*
X181996730Y-134419671D01*
X182054482Y-134417718D01*
X182127227Y-134415916D01*
X182195286Y-134414657D01*
X182445657Y-134410686D01*
X182445657Y-134323600D01*
X182217240Y-134319604D01*
X181988822Y-134315608D01*
X181966868Y-134273153D01*
X181951793Y-134241808D01*
X181944951Y-134223256D01*
X181944914Y-134222721D01*
X181958663Y-134220167D01*
G37*
X181958663Y-134220167D02*
X181996850Y-134217952D01*
X182054886Y-134216216D01*
X182128180Y-134215101D01*
X182205055Y-134214743D01*
X182465196Y-134214743D01*
X182511127Y-134260674D01*
X182539429Y-134292325D01*
X182550893Y-134320110D01*
X182550168Y-134358085D01*
X182548321Y-134373160D01*
X182542948Y-134420274D01*
X182539869Y-134459244D01*
X182539585Y-134468743D01*
X182541445Y-134500767D01*
X182546114Y-134546568D01*
X182548321Y-134564326D01*
X182551735Y-134607943D01*
X182544320Y-134637255D01*
X182521427Y-134666320D01*
X182511127Y-134676812D01*
X182465196Y-134722743D01*
X181978602Y-134722743D01*
X181961758Y-134685774D01*
X181949282Y-134653941D01*
X181944914Y-134635317D01*
X181958718Y-134630542D01*
X181997286Y-134626079D01*
X182056356Y-134622225D01*
X182131663Y-134619278D01*
X182195286Y-134617857D01*
X182445657Y-134613886D01*
X182450556Y-134579241D01*
X182447131Y-134547732D01*
X182436041Y-134532292D01*
X182415308Y-134527977D01*
X182371145Y-134524292D01*
X182309146Y-134521531D01*
X182234909Y-134519988D01*
X182196706Y-134519765D01*
X181976783Y-134519543D01*
X181960849Y-134473834D01*
X181950015Y-134441482D01*
X181944962Y-134423885D01*
X181944914Y-134423377D01*
X181958648Y-134421612D01*
X181996730Y-134419671D01*
X182054482Y-134417718D01*
X182127227Y-134415916D01*
X182195286Y-134414657D01*
X182445657Y-134410686D01*
X182445657Y-134323600D01*
X182217240Y-134319604D01*
X181988822Y-134315608D01*
X181966868Y-134273153D01*
X181951793Y-134241808D01*
X181944951Y-134223256D01*
X181944914Y-134222721D01*
X181958663Y-134220167D01*
G36*
X182065358Y-134809883D02*
G01*
X182173837Y-134810067D01*
X182257287Y-134810781D01*
X182319704Y-134812325D01*
X182365085Y-134814999D01*
X182397429Y-134819106D01*
X182420733Y-134824945D01*
X182438995Y-134832818D01*
X182449418Y-134838779D01*
X182505945Y-134888145D01*
X182541377Y-134950736D01*
X182554090Y-135019987D01*
X182542463Y-135089332D01*
X182521568Y-135130625D01*
X182485422Y-135173975D01*
X182441276Y-135203519D01*
X182383462Y-135221345D01*
X182306313Y-135229537D01*
X182249714Y-135230698D01*
X182245647Y-135230542D01*
X182245647Y-135129143D01*
X182310550Y-135128524D01*
X182353514Y-135125686D01*
X182381622Y-135119160D01*
X182401953Y-135107477D01*
X182417288Y-135093517D01*
X182446890Y-135046635D01*
X182449419Y-134996299D01*
X182424705Y-134948724D01*
X182421356Y-134945021D01*
X182403935Y-134929217D01*
X182383209Y-134919307D01*
X182352362Y-134913942D01*
X182304577Y-134911772D01*
X182251748Y-134911429D01*
X182185381Y-134912173D01*
X182141106Y-134915252D01*
X182112009Y-134921939D01*
X182091173Y-134933504D01*
X182080107Y-134942987D01*
X182052198Y-134987040D01*
X182048843Y-135037776D01*
X182070159Y-135086204D01*
X182078073Y-135095550D01*
X182095647Y-135111460D01*
X182116587Y-135121390D01*
X182147782Y-135126722D01*
X182196122Y-135128837D01*
X182245647Y-135129143D01*
X182245647Y-135230542D01*
X182158568Y-135227190D01*
X182090086Y-135215274D01*
X182038600Y-135192865D01*
X181998443Y-135157876D01*
X181977861Y-135130625D01*
X181955625Y-135081093D01*
X181945304Y-135023684D01*
X181948067Y-134970318D01*
X181959212Y-134940457D01*
X181962383Y-134928739D01*
X181950557Y-134920963D01*
X181918866Y-134915535D01*
X181870593Y-134911429D01*
X181816829Y-134906933D01*
X181784482Y-134900687D01*
X181765985Y-134889324D01*
X181753770Y-134869472D01*
X181748362Y-134857000D01*
X181728601Y-134809829D01*
X182065358Y-134809883D01*
G37*
X182065358Y-134809883D02*
X182173837Y-134810067D01*
X182257287Y-134810781D01*
X182319704Y-134812325D01*
X182365085Y-134814999D01*
X182397429Y-134819106D01*
X182420733Y-134824945D01*
X182438995Y-134832818D01*
X182449418Y-134838779D01*
X182505945Y-134888145D01*
X182541377Y-134950736D01*
X182554090Y-135019987D01*
X182542463Y-135089332D01*
X182521568Y-135130625D01*
X182485422Y-135173975D01*
X182441276Y-135203519D01*
X182383462Y-135221345D01*
X182306313Y-135229537D01*
X182249714Y-135230698D01*
X182245647Y-135230542D01*
X182245647Y-135129143D01*
X182310550Y-135128524D01*
X182353514Y-135125686D01*
X182381622Y-135119160D01*
X182401953Y-135107477D01*
X182417288Y-135093517D01*
X182446890Y-135046635D01*
X182449419Y-134996299D01*
X182424705Y-134948724D01*
X182421356Y-134945021D01*
X182403935Y-134929217D01*
X182383209Y-134919307D01*
X182352362Y-134913942D01*
X182304577Y-134911772D01*
X182251748Y-134911429D01*
X182185381Y-134912173D01*
X182141106Y-134915252D01*
X182112009Y-134921939D01*
X182091173Y-134933504D01*
X182080107Y-134942987D01*
X182052198Y-134987040D01*
X182048843Y-135037776D01*
X182070159Y-135086204D01*
X182078073Y-135095550D01*
X182095647Y-135111460D01*
X182116587Y-135121390D01*
X182147782Y-135126722D01*
X182196122Y-135128837D01*
X182245647Y-135129143D01*
X182245647Y-135230542D01*
X182158568Y-135227190D01*
X182090086Y-135215274D01*
X182038600Y-135192865D01*
X181998443Y-135157876D01*
X181977861Y-135130625D01*
X181955625Y-135081093D01*
X181945304Y-135023684D01*
X181948067Y-134970318D01*
X181959212Y-134940457D01*
X181962383Y-134928739D01*
X181950557Y-134920963D01*
X181918866Y-134915535D01*
X181870593Y-134911429D01*
X181816829Y-134906933D01*
X181784482Y-134900687D01*
X181765985Y-134889324D01*
X181753770Y-134869472D01*
X181748362Y-134857000D01*
X181728601Y-134809829D01*
X182065358Y-134809883D01*
G36*
X181949755Y-135470074D02*
G01*
X181974084Y-135404142D01*
X182017117Y-135350727D01*
X182047409Y-135329836D01*
X182102994Y-135307061D01*
X182143186Y-135307534D01*
X182170217Y-135331438D01*
X182174813Y-135340283D01*
X182189144Y-135378470D01*
X182185472Y-135397972D01*
X182161407Y-135404578D01*
X182148114Y-135404914D01*
X182099210Y-135417008D01*
X182064999Y-135448529D01*
X182048476Y-135492341D01*
X182052634Y-135541305D01*
X182074227Y-135581106D01*
X182086544Y-135594550D01*
X182101487Y-135604079D01*
X182124075Y-135610515D01*
X182159328Y-135614683D01*
X182212266Y-135617403D01*
X182287907Y-135619498D01*
X182311857Y-135620040D01*
X182393790Y-135622019D01*
X182451455Y-135624269D01*
X182489608Y-135627643D01*
X182513004Y-135632994D01*
X182526398Y-135641176D01*
X182534545Y-135653041D01*
X182538144Y-135660638D01*
X182550452Y-135692898D01*
X182554514Y-135711889D01*
X182540948Y-135718164D01*
X182499934Y-135721994D01*
X182430999Y-135723400D01*
X182333669Y-135722402D01*
X182318657Y-135722092D01*
X182229859Y-135719899D01*
X182165019Y-135717307D01*
X182119067Y-135713618D01*
X182086935Y-135708136D01*
X182063553Y-135700165D01*
X182043852Y-135689007D01*
X182035410Y-135683170D01*
X181998057Y-135649704D01*
X181969003Y-135612273D01*
X181966467Y-135607691D01*
X181946443Y-135540574D01*
X181949755Y-135470074D01*
G37*
X181949755Y-135470074D02*
X181974084Y-135404142D01*
X182017117Y-135350727D01*
X182047409Y-135329836D01*
X182102994Y-135307061D01*
X182143186Y-135307534D01*
X182170217Y-135331438D01*
X182174813Y-135340283D01*
X182189144Y-135378470D01*
X182185472Y-135397972D01*
X182161407Y-135404578D01*
X182148114Y-135404914D01*
X182099210Y-135417008D01*
X182064999Y-135448529D01*
X182048476Y-135492341D01*
X182052634Y-135541305D01*
X182074227Y-135581106D01*
X182086544Y-135594550D01*
X182101487Y-135604079D01*
X182124075Y-135610515D01*
X182159328Y-135614683D01*
X182212266Y-135617403D01*
X182287907Y-135619498D01*
X182311857Y-135620040D01*
X182393790Y-135622019D01*
X182451455Y-135624269D01*
X182489608Y-135627643D01*
X182513004Y-135632994D01*
X182526398Y-135641176D01*
X182534545Y-135653041D01*
X182538144Y-135660638D01*
X182550452Y-135692898D01*
X182554514Y-135711889D01*
X182540948Y-135718164D01*
X182499934Y-135721994D01*
X182430999Y-135723400D01*
X182333669Y-135722402D01*
X182318657Y-135722092D01*
X182229859Y-135719899D01*
X182165019Y-135717307D01*
X182119067Y-135713618D01*
X182086935Y-135708136D01*
X182063553Y-135700165D01*
X182043852Y-135689007D01*
X182035410Y-135683170D01*
X181998057Y-135649704D01*
X181969003Y-135612273D01*
X181966467Y-135607691D01*
X181946443Y-135540574D01*
X181949755Y-135470074D01*
G36*
X181950968Y-135960256D02*
G01*
X181972087Y-135903384D01*
X181972493Y-135902733D01*
X181998380Y-135867560D01*
X182028633Y-135841593D01*
X182068058Y-135823330D01*
X182121462Y-135811268D01*
X182193651Y-135803904D01*
X182289432Y-135799736D01*
X182303078Y-135799371D01*
X182508842Y-135794124D01*
X182531678Y-135838284D01*
X182547110Y-135870237D01*
X182554423Y-135889530D01*
X182554514Y-135890422D01*
X182541022Y-135893761D01*
X182504626Y-135896413D01*
X182451452Y-135898044D01*
X182408393Y-135898400D01*
X182338641Y-135898408D01*
X182294837Y-135901597D01*
X182273944Y-135912712D01*
X182272925Y-135936499D01*
X182288741Y-135977704D01*
X182317815Y-136039914D01*
X182341963Y-136085659D01*
X182362913Y-136109187D01*
X182385747Y-136116104D01*
X182386877Y-136116114D01*
X182426212Y-136104701D01*
X182447462Y-136070908D01*
X182450539Y-136019191D01*
X182450006Y-135981939D01*
X182460735Y-135962297D01*
X182486505Y-135950048D01*
X182519337Y-135942998D01*
X182537966Y-135953158D01*
X182540632Y-135956983D01*
X182551340Y-135992999D01*
X182552856Y-136043434D01*
X182545759Y-136095374D01*
X182532788Y-136132178D01*
X182489585Y-136183062D01*
X182429446Y-136211986D01*
X182382462Y-136217714D01*
X182340082Y-136213343D01*
X182305488Y-136197525D01*
X182274763Y-136166203D01*
X182243990Y-136115322D01*
X182209252Y-136040824D01*
X182207288Y-136036286D01*
X182176287Y-135969179D01*
X182150862Y-135927768D01*
X182128014Y-135910019D01*
X182104745Y-135913893D01*
X182078056Y-135937357D01*
X182071914Y-135944373D01*
X182048100Y-135991370D01*
X182049103Y-136040067D01*
X182072451Y-136082478D01*
X182115675Y-136110616D01*
X182124160Y-136113231D01*
X182165308Y-136138692D01*
X182185128Y-136170999D01*
X182204770Y-136217714D01*
X182153950Y-136217714D01*
X182080082Y-136203504D01*
X182012327Y-136161325D01*
X181989661Y-136139376D01*
X181960569Y-136089483D01*
X181947400Y-136026033D01*
X181950968Y-135960256D01*
G37*
X181950968Y-135960256D02*
X181972087Y-135903384D01*
X181972493Y-135902733D01*
X181998380Y-135867560D01*
X182028633Y-135841593D01*
X182068058Y-135823330D01*
X182121462Y-135811268D01*
X182193651Y-135803904D01*
X182289432Y-135799736D01*
X182303078Y-135799371D01*
X182508842Y-135794124D01*
X182531678Y-135838284D01*
X182547110Y-135870237D01*
X182554423Y-135889530D01*
X182554514Y-135890422D01*
X182541022Y-135893761D01*
X182504626Y-135896413D01*
X182451452Y-135898044D01*
X182408393Y-135898400D01*
X182338641Y-135898408D01*
X182294837Y-135901597D01*
X182273944Y-135912712D01*
X182272925Y-135936499D01*
X182288741Y-135977704D01*
X182317815Y-136039914D01*
X182341963Y-136085659D01*
X182362913Y-136109187D01*
X182385747Y-136116104D01*
X182386877Y-136116114D01*
X182426212Y-136104701D01*
X182447462Y-136070908D01*
X182450539Y-136019191D01*
X182450006Y-135981939D01*
X182460735Y-135962297D01*
X182486505Y-135950048D01*
X182519337Y-135942998D01*
X182537966Y-135953158D01*
X182540632Y-135956983D01*
X182551340Y-135992999D01*
X182552856Y-136043434D01*
X182545759Y-136095374D01*
X182532788Y-136132178D01*
X182489585Y-136183062D01*
X182429446Y-136211986D01*
X182382462Y-136217714D01*
X182340082Y-136213343D01*
X182305488Y-136197525D01*
X182274763Y-136166203D01*
X182243990Y-136115322D01*
X182209252Y-136040824D01*
X182207288Y-136036286D01*
X182176287Y-135969179D01*
X182150862Y-135927768D01*
X182128014Y-135910019D01*
X182104745Y-135913893D01*
X182078056Y-135937357D01*
X182071914Y-135944373D01*
X182048100Y-135991370D01*
X182049103Y-136040067D01*
X182072451Y-136082478D01*
X182115675Y-136110616D01*
X182124160Y-136113231D01*
X182165308Y-136138692D01*
X182185128Y-136170999D01*
X182204770Y-136217714D01*
X182153950Y-136217714D01*
X182080082Y-136203504D01*
X182012327Y-136161325D01*
X181989661Y-136139376D01*
X181960569Y-136089483D01*
X181947400Y-136026033D01*
X181950968Y-135960256D01*
G36*
X181851289Y-136624114D02*
G01*
X181910613Y-136619861D01*
X181945572Y-136614975D01*
X181960820Y-136608205D01*
X181961015Y-136598298D01*
X181959195Y-136595086D01*
X181946015Y-136552356D01*
X181946785Y-136496773D01*
X181960333Y-136440263D01*
X181977861Y-136404918D01*
X182005861Y-136368679D01*
X182037549Y-136342187D01*
X182077813Y-136324001D01*
X182131543Y-136312678D01*
X182203626Y-136306778D01*
X182298951Y-136304857D01*
X182317237Y-136304823D01*
X182522646Y-136304800D01*
X182538580Y-136350509D01*
X182549420Y-136382973D01*
X182554468Y-136400785D01*
X182554514Y-136401309D01*
X182540828Y-136403063D01*
X182503076Y-136404556D01*
X182446224Y-136405674D01*
X182375234Y-136406303D01*
X182332073Y-136406400D01*
X182246973Y-136406602D01*
X182185981Y-136407642D01*
X182144177Y-136410169D01*
X182116642Y-136414836D01*
X182098456Y-136422293D01*
X182084698Y-136433189D01*
X182078073Y-136439993D01*
X182051375Y-136486728D01*
X182049375Y-136537728D01*
X182071955Y-136583999D01*
X182080107Y-136592556D01*
X182095436Y-136605107D01*
X182113618Y-136613812D01*
X182139909Y-136619369D01*
X182179562Y-136622474D01*
X182237832Y-136623824D01*
X182318173Y-136624114D01*
X182522646Y-136624114D01*
X182538580Y-136669823D01*
X182549420Y-136702287D01*
X182554468Y-136720099D01*
X182554514Y-136720623D01*
X182540623Y-136721963D01*
X182501439Y-136723172D01*
X182440700Y-136724199D01*
X182362141Y-136724998D01*
X182269498Y-136725519D01*
X182166509Y-136725714D01*
X181769342Y-136725714D01*
X181749444Y-136678543D01*
X181729547Y-136631371D01*
X181851289Y-136624114D01*
G37*
X181851289Y-136624114D02*
X181910613Y-136619861D01*
X181945572Y-136614975D01*
X181960820Y-136608205D01*
X181961015Y-136598298D01*
X181959195Y-136595086D01*
X181946015Y-136552356D01*
X181946785Y-136496773D01*
X181960333Y-136440263D01*
X181977861Y-136404918D01*
X182005861Y-136368679D01*
X182037549Y-136342187D01*
X182077813Y-136324001D01*
X182131543Y-136312678D01*
X182203626Y-136306778D01*
X182298951Y-136304857D01*
X182317237Y-136304823D01*
X182522646Y-136304800D01*
X182538580Y-136350509D01*
X182549420Y-136382973D01*
X182554468Y-136400785D01*
X182554514Y-136401309D01*
X182540828Y-136403063D01*
X182503076Y-136404556D01*
X182446224Y-136405674D01*
X182375234Y-136406303D01*
X182332073Y-136406400D01*
X182246973Y-136406602D01*
X182185981Y-136407642D01*
X182144177Y-136410169D01*
X182116642Y-136414836D01*
X182098456Y-136422293D01*
X182084698Y-136433189D01*
X182078073Y-136439993D01*
X182051375Y-136486728D01*
X182049375Y-136537728D01*
X182071955Y-136583999D01*
X182080107Y-136592556D01*
X182095436Y-136605107D01*
X182113618Y-136613812D01*
X182139909Y-136619369D01*
X182179562Y-136622474D01*
X182237832Y-136623824D01*
X182318173Y-136624114D01*
X182522646Y-136624114D01*
X182538580Y-136669823D01*
X182549420Y-136702287D01*
X182554468Y-136720099D01*
X182554514Y-136720623D01*
X182540623Y-136721963D01*
X182501439Y-136723172D01*
X182440700Y-136724199D01*
X182362141Y-136724998D01*
X182269498Y-136725519D01*
X182166509Y-136725714D01*
X181769342Y-136725714D01*
X181749444Y-136678543D01*
X181729547Y-136631371D01*
X181851289Y-136624114D01*
G36*
X181931239Y-137831697D02*
G01*
X181969735Y-137774473D01*
X182025335Y-137730251D01*
X182096086Y-137703833D01*
X182148162Y-137698490D01*
X182169893Y-137699097D01*
X182186531Y-137704178D01*
X182201437Y-137718145D01*
X182217973Y-137745411D01*
X182239498Y-137790388D01*
X182269374Y-137857489D01*
X182269524Y-137857829D01*
X182297813Y-137919593D01*
X182322933Y-137970241D01*
X182342179Y-138004596D01*
X182352848Y-138017482D01*
X182352934Y-138017486D01*
X182376166Y-138006128D01*
X182401774Y-137979569D01*
X182420221Y-137949077D01*
X182423886Y-137933630D01*
X182411212Y-137891485D01*
X182379471Y-137855192D01*
X182344572Y-137837483D01*
X182318845Y-137820448D01*
X182289546Y-137787078D01*
X182264235Y-137747851D01*
X182250471Y-137713244D01*
X182249714Y-137706007D01*
X182262160Y-137697861D01*
X182293972Y-137697370D01*
X182336866Y-137703357D01*
X182382558Y-137714643D01*
X182422761Y-137730050D01*
X182424322Y-137730829D01*
X182489062Y-137777196D01*
X182533097Y-137837289D01*
X182554711Y-137905535D01*
X182552185Y-137976362D01*
X182523804Y-138044196D01*
X182521808Y-138047212D01*
X182473448Y-138100573D01*
X182410352Y-138135660D01*
X182327387Y-138155078D01*
X182304078Y-138157684D01*
X182194055Y-138162299D01*
X182142748Y-138156767D01*
X182142748Y-138017486D01*
X182174753Y-138015676D01*
X182184093Y-138005778D01*
X182177105Y-137981102D01*
X182160587Y-137942205D01*
X182139881Y-137898725D01*
X182139333Y-137897644D01*
X182119949Y-137860791D01*
X182107013Y-137846000D01*
X182093451Y-137849647D01*
X182075632Y-137865005D01*
X182049845Y-137904077D01*
X182047950Y-137946154D01*
X182066717Y-137983897D01*
X182102915Y-138009966D01*
X182142748Y-138017486D01*
X182142748Y-138156767D01*
X182106027Y-138152806D01*
X182036212Y-138128450D01*
X181987302Y-138094544D01*
X181937878Y-138033347D01*
X181913359Y-137965937D01*
X181911797Y-137897120D01*
X181931239Y-137831697D01*
G37*
X181931239Y-137831697D02*
X181969735Y-137774473D01*
X182025335Y-137730251D01*
X182096086Y-137703833D01*
X182148162Y-137698490D01*
X182169893Y-137699097D01*
X182186531Y-137704178D01*
X182201437Y-137718145D01*
X182217973Y-137745411D01*
X182239498Y-137790388D01*
X182269374Y-137857489D01*
X182269524Y-137857829D01*
X182297813Y-137919593D01*
X182322933Y-137970241D01*
X182342179Y-138004596D01*
X182352848Y-138017482D01*
X182352934Y-138017486D01*
X182376166Y-138006128D01*
X182401774Y-137979569D01*
X182420221Y-137949077D01*
X182423886Y-137933630D01*
X182411212Y-137891485D01*
X182379471Y-137855192D01*
X182344572Y-137837483D01*
X182318845Y-137820448D01*
X182289546Y-137787078D01*
X182264235Y-137747851D01*
X182250471Y-137713244D01*
X182249714Y-137706007D01*
X182262160Y-137697861D01*
X182293972Y-137697370D01*
X182336866Y-137703357D01*
X182382558Y-137714643D01*
X182422761Y-137730050D01*
X182424322Y-137730829D01*
X182489062Y-137777196D01*
X182533097Y-137837289D01*
X182554711Y-137905535D01*
X182552185Y-137976362D01*
X182523804Y-138044196D01*
X182521808Y-138047212D01*
X182473448Y-138100573D01*
X182410352Y-138135660D01*
X182327387Y-138155078D01*
X182304078Y-138157684D01*
X182194055Y-138162299D01*
X182142748Y-138156767D01*
X182142748Y-138017486D01*
X182174753Y-138015676D01*
X182184093Y-138005778D01*
X182177105Y-137981102D01*
X182160587Y-137942205D01*
X182139881Y-137898725D01*
X182139333Y-137897644D01*
X182119949Y-137860791D01*
X182107013Y-137846000D01*
X182093451Y-137849647D01*
X182075632Y-137865005D01*
X182049845Y-137904077D01*
X182047950Y-137946154D01*
X182066717Y-137983897D01*
X182102915Y-138009966D01*
X182142748Y-138017486D01*
X182142748Y-138156767D01*
X182106027Y-138152806D01*
X182036212Y-138128450D01*
X181987302Y-138094544D01*
X181937878Y-138033347D01*
X181913359Y-137965937D01*
X181911797Y-137897120D01*
X181931239Y-137831697D01*
G36*
X181921962Y-138958885D02*
G01*
X181957733Y-138890855D01*
X182015301Y-138840649D01*
X182052312Y-138822815D01*
X182107882Y-138808937D01*
X182178096Y-138801833D01*
X182254727Y-138801160D01*
X182329552Y-138806573D01*
X182394342Y-138817730D01*
X182440873Y-138834286D01*
X182448887Y-138839374D01*
X182508707Y-138899645D01*
X182544535Y-138971231D01*
X182555020Y-139048908D01*
X182538810Y-139127452D01*
X182529092Y-139149311D01*
X182499143Y-139191878D01*
X182459433Y-139229237D01*
X182454397Y-139232768D01*
X182430124Y-139247119D01*
X182404178Y-139256606D01*
X182370022Y-139262210D01*
X182321119Y-139264914D01*
X182250935Y-139265701D01*
X182235200Y-139265714D01*
X182230192Y-139265678D01*
X182230192Y-139120571D01*
X182296430Y-139119727D01*
X182340386Y-139116404D01*
X182368779Y-139109417D01*
X182388325Y-139097584D01*
X182394857Y-139091543D01*
X182419680Y-139056814D01*
X182418548Y-139023097D01*
X182397016Y-138989005D01*
X182374029Y-138968671D01*
X182340478Y-138956629D01*
X182287569Y-138949866D01*
X182281399Y-138949402D01*
X182185513Y-138948248D01*
X182114299Y-138960312D01*
X182068194Y-138985430D01*
X182047635Y-139023440D01*
X182046514Y-139037008D01*
X182052152Y-139072636D01*
X182071686Y-139097006D01*
X182109042Y-139111907D01*
X182168150Y-139119125D01*
X182230192Y-139120571D01*
X182230192Y-139265678D01*
X182160413Y-139265174D01*
X182108159Y-139262904D01*
X182071949Y-139257932D01*
X182045299Y-139249287D01*
X182021722Y-139235995D01*
X182017338Y-139233057D01*
X181958249Y-139183687D01*
X181923947Y-139129891D01*
X181910331Y-139064398D01*
X181909665Y-139042158D01*
X181921962Y-138958885D01*
G37*
X181921962Y-138958885D02*
X181957733Y-138890855D01*
X182015301Y-138840649D01*
X182052312Y-138822815D01*
X182107882Y-138808937D01*
X182178096Y-138801833D01*
X182254727Y-138801160D01*
X182329552Y-138806573D01*
X182394342Y-138817730D01*
X182440873Y-138834286D01*
X182448887Y-138839374D01*
X182508707Y-138899645D01*
X182544535Y-138971231D01*
X182555020Y-139048908D01*
X182538810Y-139127452D01*
X182529092Y-139149311D01*
X182499143Y-139191878D01*
X182459433Y-139229237D01*
X182454397Y-139232768D01*
X182430124Y-139247119D01*
X182404178Y-139256606D01*
X182370022Y-139262210D01*
X182321119Y-139264914D01*
X182250935Y-139265701D01*
X182235200Y-139265714D01*
X182230192Y-139265678D01*
X182230192Y-139120571D01*
X182296430Y-139119727D01*
X182340386Y-139116404D01*
X182368779Y-139109417D01*
X182388325Y-139097584D01*
X182394857Y-139091543D01*
X182419680Y-139056814D01*
X182418548Y-139023097D01*
X182397016Y-138989005D01*
X182374029Y-138968671D01*
X182340478Y-138956629D01*
X182287569Y-138949866D01*
X182281399Y-138949402D01*
X182185513Y-138948248D01*
X182114299Y-138960312D01*
X182068194Y-138985430D01*
X182047635Y-139023440D01*
X182046514Y-139037008D01*
X182052152Y-139072636D01*
X182071686Y-139097006D01*
X182109042Y-139111907D01*
X182168150Y-139119125D01*
X182230192Y-139120571D01*
X182230192Y-139265678D01*
X182160413Y-139265174D01*
X182108159Y-139262904D01*
X182071949Y-139257932D01*
X182045299Y-139249287D01*
X182021722Y-139235995D01*
X182017338Y-139233057D01*
X181958249Y-139183687D01*
X181923947Y-139129891D01*
X181910331Y-139064398D01*
X181909665Y-139042158D01*
X181921962Y-138958885D01*
G36*
X181927780Y-137283907D02*
G01*
X181954723Y-137237328D01*
X181981466Y-137204943D01*
X182009484Y-137181258D01*
X182043748Y-137164941D01*
X182089227Y-137154661D01*
X182150892Y-137149086D01*
X182233711Y-137146884D01*
X182293246Y-137146629D01*
X182512391Y-137146629D01*
X182540044Y-137208314D01*
X182567697Y-137270000D01*
X182327670Y-137277257D01*
X182238028Y-137280256D01*
X182172962Y-137283402D01*
X182128026Y-137287299D01*
X182098770Y-137292553D01*
X182080748Y-137299769D01*
X182069511Y-137309550D01*
X182067079Y-137312688D01*
X182048083Y-137360239D01*
X182055600Y-137408303D01*
X182075543Y-137436914D01*
X182089675Y-137448553D01*
X182108220Y-137456609D01*
X182136334Y-137461729D01*
X182179173Y-137464559D01*
X182241895Y-137465744D01*
X182307261Y-137465943D01*
X182389268Y-137465982D01*
X182447316Y-137467386D01*
X182486465Y-137472086D01*
X182511780Y-137482013D01*
X182528323Y-137499097D01*
X182541156Y-137525268D01*
X182554491Y-137560225D01*
X182569007Y-137598404D01*
X182311389Y-137593859D01*
X182218519Y-137592029D01*
X182149889Y-137589888D01*
X182100711Y-137586819D01*
X182066198Y-137582206D01*
X182041562Y-137575432D01*
X182022016Y-137565881D01*
X182004770Y-137554366D01*
X181949680Y-137498810D01*
X181917822Y-137431020D01*
X181910191Y-137357287D01*
X181927780Y-137283907D01*
G37*
X181927780Y-137283907D02*
X181954723Y-137237328D01*
X181981466Y-137204943D01*
X182009484Y-137181258D01*
X182043748Y-137164941D01*
X182089227Y-137154661D01*
X182150892Y-137149086D01*
X182233711Y-137146884D01*
X182293246Y-137146629D01*
X182512391Y-137146629D01*
X182540044Y-137208314D01*
X182567697Y-137270000D01*
X182327670Y-137277257D01*
X182238028Y-137280256D01*
X182172962Y-137283402D01*
X182128026Y-137287299D01*
X182098770Y-137292553D01*
X182080748Y-137299769D01*
X182069511Y-137309550D01*
X182067079Y-137312688D01*
X182048083Y-137360239D01*
X182055600Y-137408303D01*
X182075543Y-137436914D01*
X182089675Y-137448553D01*
X182108220Y-137456609D01*
X182136334Y-137461729D01*
X182179173Y-137464559D01*
X182241895Y-137465744D01*
X182307261Y-137465943D01*
X182389268Y-137465982D01*
X182447316Y-137467386D01*
X182486465Y-137472086D01*
X182511780Y-137482013D01*
X182528323Y-137499097D01*
X182541156Y-137525268D01*
X182554491Y-137560225D01*
X182569007Y-137598404D01*
X182311389Y-137593859D01*
X182218519Y-137592029D01*
X182149889Y-137589888D01*
X182100711Y-137586819D01*
X182066198Y-137582206D01*
X182041562Y-137575432D01*
X182022016Y-137565881D01*
X182004770Y-137554366D01*
X181949680Y-137498810D01*
X181917822Y-137431020D01*
X181910191Y-137357287D01*
X181927780Y-137283907D01*
G36*
X181919918Y-138400256D02*
G01*
X181947568Y-138344799D01*
X181998480Y-138295852D01*
X182017338Y-138282371D01*
X182042015Y-138267686D01*
X182068816Y-138258158D01*
X182104587Y-138252707D01*
X182156169Y-138250253D01*
X182224267Y-138249714D01*
X182317588Y-138252148D01*
X182387657Y-138260606D01*
X182439931Y-138276826D01*
X182479869Y-138302546D01*
X182512929Y-138339503D01*
X182514886Y-138342218D01*
X182534908Y-138378640D01*
X182544815Y-138422498D01*
X182547257Y-138478276D01*
X182547257Y-138568952D01*
X182635283Y-138568990D01*
X182684308Y-138569834D01*
X182713065Y-138574976D01*
X182730311Y-138588413D01*
X182744808Y-138614142D01*
X182747769Y-138620321D01*
X182761648Y-138649236D01*
X182770414Y-138671624D01*
X182771171Y-138688271D01*
X182761023Y-138699964D01*
X182737073Y-138707490D01*
X182696426Y-138711634D01*
X182636186Y-138713185D01*
X182553455Y-138712929D01*
X182445339Y-138711651D01*
X182413000Y-138711252D01*
X182301524Y-138709815D01*
X182228603Y-138708528D01*
X182228603Y-138569029D01*
X182290499Y-138568245D01*
X182330997Y-138564760D01*
X182357708Y-138556876D01*
X182378244Y-138542895D01*
X182388260Y-138533403D01*
X182417567Y-138494596D01*
X182419952Y-138460237D01*
X182395750Y-138424784D01*
X182394857Y-138423886D01*
X182376153Y-138409461D01*
X182350732Y-138400687D01*
X182311584Y-138396261D01*
X182251697Y-138394882D01*
X182238430Y-138394857D01*
X182155901Y-138398188D01*
X182098691Y-138409031D01*
X182063766Y-138428660D01*
X182048094Y-138458350D01*
X182046514Y-138475509D01*
X182053926Y-138516234D01*
X182078330Y-138544168D01*
X182122980Y-138560983D01*
X182191130Y-138568350D01*
X182228603Y-138569029D01*
X182228603Y-138708528D01*
X182215245Y-138708292D01*
X182150333Y-138706323D01*
X182102958Y-138703550D01*
X182069290Y-138699612D01*
X182045498Y-138694151D01*
X182027753Y-138686808D01*
X182012224Y-138677223D01*
X182006381Y-138673113D01*
X181951185Y-138618595D01*
X181919890Y-138549664D01*
X181911165Y-138469928D01*
X181919918Y-138400256D01*
G37*
X181919918Y-138400256D02*
X181947568Y-138344799D01*
X181998480Y-138295852D01*
X182017338Y-138282371D01*
X182042015Y-138267686D01*
X182068816Y-138258158D01*
X182104587Y-138252707D01*
X182156169Y-138250253D01*
X182224267Y-138249714D01*
X182317588Y-138252148D01*
X182387657Y-138260606D01*
X182439931Y-138276826D01*
X182479869Y-138302546D01*
X182512929Y-138339503D01*
X182514886Y-138342218D01*
X182534908Y-138378640D01*
X182544815Y-138422498D01*
X182547257Y-138478276D01*
X182547257Y-138568952D01*
X182635283Y-138568990D01*
X182684308Y-138569834D01*
X182713065Y-138574976D01*
X182730311Y-138588413D01*
X182744808Y-138614142D01*
X182747769Y-138620321D01*
X182761648Y-138649236D01*
X182770414Y-138671624D01*
X182771171Y-138688271D01*
X182761023Y-138699964D01*
X182737073Y-138707490D01*
X182696426Y-138711634D01*
X182636186Y-138713185D01*
X182553455Y-138712929D01*
X182445339Y-138711651D01*
X182413000Y-138711252D01*
X182301524Y-138709815D01*
X182228603Y-138708528D01*
X182228603Y-138569029D01*
X182290499Y-138568245D01*
X182330997Y-138564760D01*
X182357708Y-138556876D01*
X182378244Y-138542895D01*
X182388260Y-138533403D01*
X182417567Y-138494596D01*
X182419952Y-138460237D01*
X182395750Y-138424784D01*
X182394857Y-138423886D01*
X182376153Y-138409461D01*
X182350732Y-138400687D01*
X182311584Y-138396261D01*
X182251697Y-138394882D01*
X182238430Y-138394857D01*
X182155901Y-138398188D01*
X182098691Y-138409031D01*
X182063766Y-138428660D01*
X182048094Y-138458350D01*
X182046514Y-138475509D01*
X182053926Y-138516234D01*
X182078330Y-138544168D01*
X182122980Y-138560983D01*
X182191130Y-138568350D01*
X182228603Y-138569029D01*
X182228603Y-138708528D01*
X182215245Y-138708292D01*
X182150333Y-138706323D01*
X182102958Y-138703550D01*
X182069290Y-138699612D01*
X182045498Y-138694151D01*
X182027753Y-138686808D01*
X182012224Y-138677223D01*
X182006381Y-138673113D01*
X181951185Y-138618595D01*
X181919890Y-138549664D01*
X181911165Y-138469928D01*
X181919918Y-138400256D01*
D16*
X132700000Y-147500000D02*
G75*
G03X132700000Y-147500000I-200000J0D01*
G01*
D14*
X142300000Y-142000000D02*
X142300000Y-145050000D01*
X142300000Y-138000000D02*
X142300000Y-140100000D01*
X141000000Y-138000000D02*
X142300000Y-138000000D01*
X133300000Y-138000000D02*
X135300000Y-138000000D01*
X133300000Y-145100000D02*
X133300000Y-138000000D01*
X135000000Y-152000000D02*
X135000000Y-149000000D01*
X141000000Y-152000000D02*
X135000000Y-152000000D01*
X141000000Y-149000000D02*
X141000000Y-152000000D01*
X142300000Y-149000000D02*
X142300000Y-147250000D01*
X141000000Y-149000000D02*
X142300000Y-149000000D01*
X140250000Y-149000000D02*
X141000000Y-149000000D01*
X140250000Y-147700000D02*
X140250000Y-149000000D01*
X135750000Y-147700000D02*
X140250000Y-147700000D01*
X135750000Y-149000000D02*
X135750000Y-147700000D01*
X135000000Y-149000000D02*
X135750000Y-149000000D01*
X133300000Y-149000000D02*
X135000000Y-149000000D01*
X133300000Y-147100000D02*
X133300000Y-149000000D01*
D15*
X168550000Y-80890000D02*
X178830000Y-80890000D01*
X168550000Y-70490000D02*
X168550000Y-80890000D01*
X178830000Y-70490000D02*
X168550000Y-70490000D01*
X178830000Y-80890000D02*
X178830000Y-70490000D01*
X171040000Y-80830000D02*
X172690000Y-80830000D01*
X171040000Y-70550000D02*
X171040000Y-80830000D01*
X176340000Y-70550000D02*
X171040000Y-70550000D01*
X176340000Y-80830000D02*
X176340000Y-70550000D01*
X174690000Y-80830000D02*
X176340000Y-80830000D01*
X172690000Y-80830000D02*
G75*
G02X174690000Y-80830000I1000000J0D01*
G01*
X132110000Y-75050000D02*
X132110000Y-85330000D01*
X150130000Y-75050000D02*
X132110000Y-75050000D01*
X150130000Y-85330000D02*
X150130000Y-75050000D01*
X132110000Y-85330000D02*
X150130000Y-85330000D01*
X132170000Y-77540000D02*
X132170000Y-79190000D01*
X150070000Y-77540000D02*
X132170000Y-77540000D01*
X150070000Y-82840000D02*
X150070000Y-77540000D01*
X132170000Y-82840000D02*
X150070000Y-82840000D01*
X132170000Y-81190000D02*
X132170000Y-82840000D01*
X132170000Y-79190000D02*
G75*
G02X132170000Y-81190000I0J-1000000D01*
G01*
X158370000Y-59420000D02*
X158040000Y-59420000D01*
X158370000Y-65960000D02*
X158370000Y-59420000D01*
X158040000Y-65960000D02*
X158370000Y-65960000D01*
X155630000Y-59420000D02*
X155960000Y-59420000D01*
X155630000Y-65960000D02*
X155630000Y-59420000D01*
X155960000Y-65960000D02*
X155630000Y-65960000D01*
X164870000Y-59420000D02*
X164540000Y-59420000D01*
X164870000Y-65960000D02*
X164870000Y-59420000D01*
X164540000Y-65960000D02*
X164870000Y-65960000D01*
X162130000Y-59420000D02*
X162460000Y-59420000D01*
X162130000Y-65960000D02*
X162130000Y-59420000D01*
X162460000Y-65960000D02*
X162130000Y-65960000D01*
X171370000Y-59420000D02*
X171040000Y-59420000D01*
X171370000Y-65960000D02*
X171370000Y-59420000D01*
X171040000Y-65960000D02*
X171370000Y-65960000D01*
X168630000Y-59420000D02*
X168960000Y-59420000D01*
X168630000Y-65960000D02*
X168630000Y-59420000D01*
X168960000Y-65960000D02*
X168630000Y-65960000D01*
X170420000Y-88130000D02*
X170420000Y-88460000D01*
X176960000Y-88130000D02*
X170420000Y-88130000D01*
X176960000Y-88460000D02*
X176960000Y-88130000D01*
X170420000Y-90870000D02*
X170420000Y-90540000D01*
X176960000Y-90870000D02*
X170420000Y-90870000D01*
X176960000Y-90540000D02*
X176960000Y-90870000D01*
X170420000Y-83130000D02*
X170420000Y-83460000D01*
X176960000Y-83130000D02*
X170420000Y-83130000D01*
X176960000Y-83460000D02*
X176960000Y-83130000D01*
X170420000Y-85870000D02*
X170420000Y-85540000D01*
X176960000Y-85870000D02*
X170420000Y-85870000D01*
X176960000Y-85540000D02*
X176960000Y-85870000D01*
X132130000Y-94080000D02*
X132460000Y-94080000D01*
X132130000Y-87540000D02*
X132130000Y-94080000D01*
X132460000Y-87540000D02*
X132130000Y-87540000D01*
X134870000Y-94080000D02*
X134540000Y-94080000D01*
X134870000Y-87540000D02*
X134870000Y-94080000D01*
X134540000Y-87540000D02*
X134870000Y-87540000D01*
X138870000Y-87420000D02*
X138540000Y-87420000D01*
X138870000Y-93960000D02*
X138870000Y-87420000D01*
X138540000Y-93960000D02*
X138870000Y-93960000D01*
X136130000Y-87420000D02*
X136460000Y-87420000D01*
X136130000Y-93960000D02*
X136130000Y-87420000D01*
X136460000Y-93960000D02*
X136130000Y-93960000D01*
X128130000Y-69080000D02*
X128460000Y-69080000D01*
X128130000Y-62540000D02*
X128130000Y-69080000D01*
X128460000Y-62540000D02*
X128130000Y-62540000D01*
X130870000Y-69080000D02*
X130540000Y-69080000D01*
X130870000Y-62540000D02*
X130870000Y-69080000D01*
X130540000Y-62540000D02*
X130870000Y-62540000D01*
X133130000Y-126080000D02*
X133460000Y-126080000D01*
X133130000Y-119540000D02*
X133130000Y-126080000D01*
X133460000Y-119540000D02*
X133130000Y-119540000D01*
X135870000Y-126080000D02*
X135540000Y-126080000D01*
X135870000Y-119540000D02*
X135870000Y-126080000D01*
X135540000Y-119540000D02*
X135870000Y-119540000D01*
X128130000Y-94080000D02*
X128460000Y-94080000D01*
X128130000Y-87540000D02*
X128130000Y-94080000D01*
X128460000Y-87540000D02*
X128130000Y-87540000D01*
X130870000Y-94080000D02*
X130540000Y-94080000D01*
X130870000Y-87540000D02*
X130870000Y-94080000D01*
X130540000Y-87540000D02*
X130870000Y-87540000D01*
X132370000Y-119420000D02*
X132040000Y-119420000D01*
X132370000Y-125960000D02*
X132370000Y-119420000D01*
X132040000Y-125960000D02*
X132370000Y-125960000D01*
X129630000Y-119420000D02*
X129960000Y-119420000D01*
X129630000Y-125960000D02*
X129630000Y-119420000D01*
X129960000Y-125960000D02*
X129630000Y-125960000D01*
X147870000Y-62420000D02*
X147540000Y-62420000D01*
X147870000Y-68960000D02*
X147870000Y-62420000D01*
X147540000Y-68960000D02*
X147870000Y-68960000D01*
X145130000Y-62420000D02*
X145460000Y-62420000D01*
X145130000Y-68960000D02*
X145130000Y-62420000D01*
X145460000Y-68960000D02*
X145130000Y-68960000D01*
X148870000Y-88420000D02*
X148540000Y-88420000D01*
X148870000Y-94960000D02*
X148870000Y-88420000D01*
X148540000Y-94960000D02*
X148870000Y-94960000D01*
X146130000Y-88420000D02*
X146460000Y-88420000D01*
X146130000Y-94960000D02*
X146130000Y-88420000D01*
X146460000Y-94960000D02*
X146130000Y-94960000D01*
X150130000Y-95080000D02*
X150460000Y-95080000D01*
X150130000Y-88540000D02*
X150130000Y-95080000D01*
X150460000Y-88540000D02*
X150130000Y-88540000D01*
X152870000Y-95080000D02*
X152540000Y-95080000D01*
X152870000Y-88540000D02*
X152870000Y-95080000D01*
X152540000Y-88540000D02*
X152870000Y-88540000D01*
X149130000Y-69080000D02*
X149460000Y-69080000D01*
X149130000Y-62540000D02*
X149130000Y-69080000D01*
X149460000Y-62540000D02*
X149130000Y-62540000D01*
X151870000Y-69080000D02*
X151540000Y-69080000D01*
X151870000Y-62540000D02*
X151870000Y-69080000D01*
X151540000Y-62540000D02*
X151870000Y-62540000D01*
X142130000Y-126080000D02*
X142460000Y-126080000D01*
X142130000Y-119540000D02*
X142130000Y-126080000D01*
X142460000Y-119540000D02*
X142130000Y-119540000D01*
X144870000Y-126080000D02*
X144540000Y-126080000D01*
X144870000Y-119540000D02*
X144870000Y-126080000D01*
X144540000Y-119540000D02*
X144870000Y-119540000D01*
X140870000Y-119420000D02*
X140540000Y-119420000D01*
X140870000Y-125960000D02*
X140870000Y-119420000D01*
X140540000Y-125960000D02*
X140870000Y-125960000D01*
X138130000Y-119420000D02*
X138460000Y-119420000D01*
X138130000Y-125960000D02*
X138130000Y-119420000D01*
X138460000Y-125960000D02*
X138130000Y-125960000D01*
X128870000Y-119420000D02*
X128540000Y-119420000D01*
X128870000Y-125960000D02*
X128870000Y-119420000D01*
X128540000Y-125960000D02*
X128870000Y-125960000D01*
X126130000Y-119420000D02*
X126460000Y-119420000D01*
X126130000Y-125960000D02*
X126130000Y-119420000D01*
X126460000Y-125960000D02*
X126130000Y-125960000D01*
X126630000Y-107080000D02*
X126960000Y-107080000D01*
X126630000Y-100540000D02*
X126630000Y-107080000D01*
X126960000Y-100540000D02*
X126630000Y-100540000D01*
X129370000Y-107080000D02*
X129040000Y-107080000D01*
X129370000Y-100540000D02*
X129370000Y-107080000D01*
X129040000Y-100540000D02*
X129370000Y-100540000D01*
X130630000Y-107080000D02*
X130960000Y-107080000D01*
X130630000Y-100540000D02*
X130630000Y-107080000D01*
X130960000Y-100540000D02*
X130630000Y-100540000D01*
X133370000Y-107080000D02*
X133040000Y-107080000D01*
X133370000Y-100540000D02*
X133370000Y-107080000D01*
X133040000Y-100540000D02*
X133370000Y-100540000D01*
X147130000Y-126080000D02*
X147460000Y-126080000D01*
X147130000Y-119540000D02*
X147130000Y-126080000D01*
X147460000Y-119540000D02*
X147130000Y-119540000D01*
X149870000Y-126080000D02*
X149540000Y-126080000D01*
X149870000Y-119540000D02*
X149870000Y-126080000D01*
X149540000Y-119540000D02*
X149870000Y-119540000D01*
X130891522Y-129661522D02*
G75*
G03X132730000Y-134100000I1838478J-1838478D01*
G01*
X134568478Y-129661522D02*
G75*
G02X132730000Y-134100000I-1838478J-1838478D01*
G01*
X134530000Y-129650000D02*
X130930000Y-129650000D01*
X139391522Y-129661522D02*
G75*
G03X141230000Y-134100000I1838478J-1838478D01*
G01*
X143068478Y-129661522D02*
G75*
G02X141230000Y-134100000I-1838478J-1838478D01*
G01*
X143030000Y-129650000D02*
X139430000Y-129650000D01*
X136960000Y-53420000D02*
X136960000Y-53420000D01*
X136960000Y-50750000D02*
X136960000Y-53420000D01*
X136960000Y-50750000D02*
X136960000Y-50750000D01*
X136960000Y-53420000D02*
X136960000Y-50750000D01*
X139500000Y-53420000D02*
X139500000Y-53420000D01*
X139500000Y-50750000D02*
X139500000Y-53420000D01*
X139500000Y-50750000D02*
X139500000Y-50750000D01*
X139500000Y-53420000D02*
X139500000Y-50750000D01*
X136670000Y-50750000D02*
X136270000Y-50750000D01*
X136670000Y-49630000D02*
X136670000Y-50750000D01*
X136270000Y-49630000D02*
X136670000Y-49630000D01*
X136270000Y-50750000D02*
X136270000Y-49630000D01*
X139790000Y-50750000D02*
X136670000Y-50750000D01*
X136670000Y-50750000D02*
X136670000Y-46890000D01*
X139790000Y-50750000D02*
X139790000Y-46890000D01*
X136670000Y-46890000D02*
G75*
G02X139790000Y-46890000I1560000J0D01*
G01*
X135880000Y-112210000D02*
X138120000Y-112210000D01*
X135880000Y-111970000D02*
X138120000Y-111970000D01*
X135880000Y-112090000D02*
X138120000Y-112090000D01*
X137000000Y-107920000D02*
X137000000Y-108570000D01*
X137000000Y-113460000D02*
X137000000Y-112810000D01*
X135880000Y-108570000D02*
X135880000Y-112810000D01*
X138120000Y-108570000D02*
X135880000Y-108570000D01*
X138120000Y-112810000D02*
X138120000Y-108570000D01*
X135880000Y-112810000D02*
X138120000Y-112810000D01*
X141620000Y-109290000D02*
X139380000Y-109290000D01*
X141620000Y-109530000D02*
X139380000Y-109530000D01*
X141620000Y-109410000D02*
X139380000Y-109410000D01*
X140500000Y-113580000D02*
X140500000Y-112930000D01*
X140500000Y-108040000D02*
X140500000Y-108690000D01*
X141620000Y-112930000D02*
X141620000Y-108690000D01*
X139380000Y-112930000D02*
X141620000Y-112930000D01*
X139380000Y-108690000D02*
X139380000Y-112930000D01*
X141620000Y-108690000D02*
X139380000Y-108690000D01*
X140075000Y-90070000D02*
X139830000Y-90070000D01*
X142170000Y-90070000D02*
X141925000Y-90070000D01*
X140075000Y-86430000D02*
X139830000Y-86430000D01*
X142170000Y-86430000D02*
X141925000Y-86430000D01*
X139830000Y-86430000D02*
X139830000Y-90070000D01*
X142170000Y-86430000D02*
X142170000Y-90070000D01*
X167425000Y-76430000D02*
X167670000Y-76430000D01*
X165330000Y-76430000D02*
X165575000Y-76430000D01*
X167425000Y-80070000D02*
X167670000Y-80070000D01*
X165330000Y-80070000D02*
X165575000Y-80070000D01*
X167670000Y-80070000D02*
X167670000Y-76430000D01*
X165330000Y-80070000D02*
X165330000Y-76430000D01*
X140925000Y-97380000D02*
X141370000Y-97380000D01*
X138630000Y-97380000D02*
X139075000Y-97380000D01*
X140925000Y-103620000D02*
X141370000Y-103620000D01*
X138630000Y-103620000D02*
X139075000Y-103620000D01*
X141370000Y-103620000D02*
X141370000Y-97380000D01*
X138630000Y-103620000D02*
X138630000Y-97380000D01*
X134925000Y-62380000D02*
X135370000Y-62380000D01*
X132630000Y-62380000D02*
X133075000Y-62380000D01*
X134925000Y-68620000D02*
X135370000Y-68620000D01*
X132630000Y-68620000D02*
X133075000Y-68620000D01*
X135370000Y-68620000D02*
X135370000Y-62380000D01*
X132630000Y-68620000D02*
X132630000Y-62380000D01*
X127575000Y-83120000D02*
X127130000Y-83120000D01*
X129870000Y-83120000D02*
X129425000Y-83120000D01*
X127575000Y-76880000D02*
X127130000Y-76880000D01*
X129870000Y-76880000D02*
X129425000Y-76880000D01*
X127130000Y-76880000D02*
X127130000Y-83120000D01*
X129870000Y-76880000D02*
X129870000Y-83120000D01*
X138925000Y-62380000D02*
X139370000Y-62380000D01*
X136630000Y-62380000D02*
X137075000Y-62380000D01*
X138925000Y-68620000D02*
X139370000Y-68620000D01*
X136630000Y-68620000D02*
X137075000Y-68620000D01*
X139370000Y-68620000D02*
X139370000Y-62380000D01*
X136630000Y-68620000D02*
X136630000Y-62380000D01*
X136925000Y-97380000D02*
X137370000Y-97380000D01*
X134630000Y-97380000D02*
X135075000Y-97380000D01*
X136925000Y-103620000D02*
X137370000Y-103620000D01*
X134630000Y-103620000D02*
X135075000Y-103620000D01*
X137370000Y-103620000D02*
X137370000Y-97380000D01*
X134630000Y-103620000D02*
X134630000Y-97380000D01*
X141075000Y-68620000D02*
X140630000Y-68620000D01*
X143370000Y-68620000D02*
X142925000Y-68620000D01*
X141075000Y-62380000D02*
X140630000Y-62380000D01*
X143370000Y-62380000D02*
X142925000Y-62380000D01*
X140630000Y-62380000D02*
X140630000Y-68620000D01*
X143370000Y-62380000D02*
X143370000Y-68620000D01*
X128925000Y-109380000D02*
X129370000Y-109380000D01*
X126630000Y-109380000D02*
X127075000Y-109380000D01*
X128925000Y-115620000D02*
X129370000Y-115620000D01*
X126630000Y-115620000D02*
X127075000Y-115620000D01*
X129370000Y-115620000D02*
X129370000Y-109380000D01*
X126630000Y-115620000D02*
X126630000Y-109380000D01*
X132925000Y-109380000D02*
X133370000Y-109380000D01*
X130630000Y-109380000D02*
X131075000Y-109380000D01*
X132925000Y-115620000D02*
X133370000Y-115620000D01*
X130630000Y-115620000D02*
X131075000Y-115620000D01*
X133370000Y-115620000D02*
X133370000Y-109380000D01*
X130630000Y-115620000D02*
X130630000Y-109380000D01*
X144075000Y-115120000D02*
X143630000Y-115120000D01*
X146370000Y-115120000D02*
X145925000Y-115120000D01*
X144075000Y-108880000D02*
X143630000Y-108880000D01*
X146370000Y-108880000D02*
X145925000Y-108880000D01*
X143630000Y-108880000D02*
X143630000Y-115120000D01*
X146370000Y-108880000D02*
X146370000Y-115120000D01*
D17*
X157935714Y-99666666D02*
X158411904Y-99666666D01*
X157840476Y-99952380D02*
X158173809Y-98952380D01*
X158507142Y-99952380D01*
X159364285Y-99952380D02*
X158792857Y-99952380D01*
X159078571Y-99952380D02*
X159078571Y-98952380D01*
X158983333Y-99095238D01*
X158888095Y-99190476D01*
X158792857Y-99238095D01*
D10*
X157491904Y-52452380D02*
X157491904Y-51452380D01*
X157730000Y-51452380D01*
X157872857Y-51500000D01*
X157968095Y-51595238D01*
X158015714Y-51690476D01*
X158063333Y-51880952D01*
X158063333Y-52023809D01*
X158015714Y-52214285D01*
X157968095Y-52309523D01*
X157872857Y-52404761D01*
X157730000Y-52452380D01*
X157491904Y-52452380D01*
X158920476Y-51452380D02*
X158730000Y-51452380D01*
X158634761Y-51500000D01*
X158587142Y-51547619D01*
X158491904Y-51690476D01*
X158444285Y-51880952D01*
X158444285Y-52261904D01*
X158491904Y-52357142D01*
X158539523Y-52404761D01*
X158634761Y-52452380D01*
X158825238Y-52452380D01*
X158920476Y-52404761D01*
X158968095Y-52357142D01*
X159015714Y-52261904D01*
X159015714Y-52023809D01*
X158968095Y-51928571D01*
X158920476Y-51880952D01*
X158825238Y-51833333D01*
X158634761Y-51833333D01*
X158539523Y-51880952D01*
X158491904Y-51928571D01*
X158444285Y-52023809D01*
X157104761Y-56566666D02*
X157580952Y-56566666D01*
X157009523Y-56852380D02*
X157342857Y-55852380D01*
X157676190Y-56852380D01*
X158438095Y-56185714D02*
X158438095Y-56852380D01*
X158009523Y-56185714D02*
X158009523Y-56709523D01*
X158057142Y-56804761D01*
X158152380Y-56852380D01*
X158295238Y-56852380D01*
X158390476Y-56804761D01*
X158438095Y-56757142D01*
X158819047Y-56852380D02*
X159342857Y-56185714D01*
X158819047Y-56185714D02*
X159342857Y-56852380D01*
X163991904Y-52452380D02*
X163991904Y-51452380D01*
X164230000Y-51452380D01*
X164372857Y-51500000D01*
X164468095Y-51595238D01*
X164515714Y-51690476D01*
X164563333Y-51880952D01*
X164563333Y-52023809D01*
X164515714Y-52214285D01*
X164468095Y-52309523D01*
X164372857Y-52404761D01*
X164230000Y-52452380D01*
X163991904Y-52452380D01*
X165420476Y-51785714D02*
X165420476Y-52452380D01*
X165182380Y-51404761D02*
X164944285Y-52119047D01*
X165563333Y-52119047D01*
X163968095Y-55852380D02*
X164539523Y-55852380D01*
X164253809Y-56852380D02*
X164253809Y-55852380D01*
X164777619Y-55852380D02*
X165444285Y-56852380D01*
X165444285Y-55852380D02*
X164777619Y-56852380D01*
X170491904Y-52452380D02*
X170491904Y-51452380D01*
X170730000Y-51452380D01*
X170872857Y-51500000D01*
X170968095Y-51595238D01*
X171015714Y-51690476D01*
X171063333Y-51880952D01*
X171063333Y-52023809D01*
X171015714Y-52214285D01*
X170968095Y-52309523D01*
X170872857Y-52404761D01*
X170730000Y-52452380D01*
X170491904Y-52452380D01*
X171396666Y-51452380D02*
X172015714Y-51452380D01*
X171682380Y-51833333D01*
X171825238Y-51833333D01*
X171920476Y-51880952D01*
X171968095Y-51928571D01*
X172015714Y-52023809D01*
X172015714Y-52261904D01*
X171968095Y-52357142D01*
X171920476Y-52404761D01*
X171825238Y-52452380D01*
X171539523Y-52452380D01*
X171444285Y-52404761D01*
X171396666Y-52357142D01*
X169938095Y-56952380D02*
X169938095Y-55952380D01*
X170176190Y-55952380D01*
X170319047Y-56000000D01*
X170414285Y-56095238D01*
X170461904Y-56190476D01*
X170509523Y-56380952D01*
X170509523Y-56523809D01*
X170461904Y-56714285D01*
X170414285Y-56809523D01*
X170319047Y-56904761D01*
X170176190Y-56952380D01*
X169938095Y-56952380D01*
X171509523Y-56857142D02*
X171461904Y-56904761D01*
X171319047Y-56952380D01*
X171223809Y-56952380D01*
X171080952Y-56904761D01*
X170985714Y-56809523D01*
X170938095Y-56714285D01*
X170890476Y-56523809D01*
X170890476Y-56380952D01*
X170938095Y-56190476D01*
X170985714Y-56095238D01*
X171080952Y-56000000D01*
X171223809Y-55952380D01*
X171319047Y-55952380D01*
X171461904Y-56000000D01*
X171509523Y-56047619D01*
X171938095Y-56952380D02*
X171938095Y-55952380D01*
X172176190Y-55952380D01*
X172319047Y-56000000D01*
X172414285Y-56095238D01*
X172461904Y-56190476D01*
X172509523Y-56380952D01*
X172509523Y-56523809D01*
X172461904Y-56714285D01*
X172414285Y-56809523D01*
X172319047Y-56904761D01*
X172176190Y-56952380D01*
X171938095Y-56952380D01*
X137287142Y-60442380D02*
X136953809Y-59966190D01*
X136715714Y-60442380D02*
X136715714Y-59442380D01*
X137096666Y-59442380D01*
X137191904Y-59490000D01*
X137239523Y-59537619D01*
X137287142Y-59632857D01*
X137287142Y-59775714D01*
X137239523Y-59870952D01*
X137191904Y-59918571D01*
X137096666Y-59966190D01*
X136715714Y-59966190D01*
X137668095Y-59537619D02*
X137715714Y-59490000D01*
X137810952Y-59442380D01*
X138049047Y-59442380D01*
X138144285Y-59490000D01*
X138191904Y-59537619D01*
X138239523Y-59632857D01*
X138239523Y-59728095D01*
X138191904Y-59870952D01*
X137620476Y-60442380D01*
X138239523Y-60442380D01*
X139191904Y-60442380D02*
X138620476Y-60442380D01*
X138906190Y-60442380D02*
X138906190Y-59442380D01*
X138810952Y-59585238D01*
X138715714Y-59680476D01*
X138620476Y-59728095D01*
X136810952Y-58072380D02*
X136477619Y-57596190D01*
X136239523Y-58072380D02*
X136239523Y-57072380D01*
X136620476Y-57072380D01*
X136715714Y-57120000D01*
X136763333Y-57167619D01*
X136810952Y-57262857D01*
X136810952Y-57405714D01*
X136763333Y-57500952D01*
X136715714Y-57548571D01*
X136620476Y-57596190D01*
X136239523Y-57596190D01*
X137668095Y-57405714D02*
X137668095Y-58072380D01*
X137430000Y-57024761D02*
X137191904Y-57739047D01*
X137810952Y-57739047D01*
X138096666Y-57072380D02*
X138763333Y-57072380D01*
X138334761Y-58072380D01*
X139334761Y-57072380D02*
X139430000Y-57072380D01*
X139525238Y-57120000D01*
X139572857Y-57167619D01*
X139620476Y-57262857D01*
X139668095Y-57453333D01*
X139668095Y-57691428D01*
X139620476Y-57881904D01*
X139572857Y-57977142D01*
X139525238Y-58024761D01*
X139430000Y-58072380D01*
X139334761Y-58072380D01*
X139239523Y-58024761D01*
X139191904Y-57977142D01*
X139144285Y-57881904D01*
X139096666Y-57691428D01*
X139096666Y-57453333D01*
X139144285Y-57262857D01*
X139191904Y-57167619D01*
X139239523Y-57120000D01*
X139334761Y-57072380D01*
X150357142Y-107357142D02*
X150309523Y-107404761D01*
X150166666Y-107452380D01*
X150071428Y-107452380D01*
X149928571Y-107404761D01*
X149833333Y-107309523D01*
X149785714Y-107214285D01*
X149738095Y-107023809D01*
X149738095Y-106880952D01*
X149785714Y-106690476D01*
X149833333Y-106595238D01*
X149928571Y-106500000D01*
X150071428Y-106452380D01*
X150166666Y-106452380D01*
X150309523Y-106500000D01*
X150357142Y-106547619D01*
X151309523Y-107452380D02*
X150738095Y-107452380D01*
X151023809Y-107452380D02*
X151023809Y-106452380D01*
X150928571Y-106595238D01*
X150833333Y-106690476D01*
X150738095Y-106738095D01*
X151690476Y-106547619D02*
X151738095Y-106500000D01*
X151833333Y-106452380D01*
X152071428Y-106452380D01*
X152166666Y-106500000D01*
X152214285Y-106547619D01*
X152261904Y-106642857D01*
X152261904Y-106738095D01*
X152214285Y-106880952D01*
X151642857Y-107452380D01*
X152261904Y-107452380D01*
D18*
X151307619Y-102904761D02*
X151307619Y-103293333D01*
X151307619Y-103099047D02*
X150627619Y-103099047D01*
X150724761Y-103163809D01*
X150789523Y-103228571D01*
X150821904Y-103293333D01*
X150854285Y-102321904D02*
X151307619Y-102321904D01*
X150854285Y-102613333D02*
X151210476Y-102613333D01*
X151275238Y-102580952D01*
X151307619Y-102516190D01*
X151307619Y-102419047D01*
X151275238Y-102354285D01*
X151242857Y-102321904D01*
X150951428Y-101771428D02*
X150951428Y-101998095D01*
X151307619Y-101998095D02*
X150627619Y-101998095D01*
X150627619Y-101674285D01*
D10*
X150357142Y-116857142D02*
X150309523Y-116904761D01*
X150166666Y-116952380D01*
X150071428Y-116952380D01*
X149928571Y-116904761D01*
X149833333Y-116809523D01*
X149785714Y-116714285D01*
X149738095Y-116523809D01*
X149738095Y-116380952D01*
X149785714Y-116190476D01*
X149833333Y-116095238D01*
X149928571Y-116000000D01*
X150071428Y-115952380D01*
X150166666Y-115952380D01*
X150309523Y-116000000D01*
X150357142Y-116047619D01*
X151309523Y-116952380D02*
X150738095Y-116952380D01*
X151023809Y-116952380D02*
X151023809Y-115952380D01*
X150928571Y-116095238D01*
X150833333Y-116190476D01*
X150738095Y-116238095D01*
X151642857Y-115952380D02*
X152261904Y-115952380D01*
X151928571Y-116333333D01*
X152071428Y-116333333D01*
X152166666Y-116380952D01*
X152214285Y-116428571D01*
X152261904Y-116523809D01*
X152261904Y-116761904D01*
X152214285Y-116857142D01*
X152166666Y-116904761D01*
X152071428Y-116952380D01*
X151785714Y-116952380D01*
X151690476Y-116904761D01*
X151642857Y-116857142D01*
D18*
X151307619Y-112728571D02*
X151307619Y-113117142D01*
X151307619Y-112922857D02*
X150627619Y-112922857D01*
X150724761Y-112987619D01*
X150789523Y-113052380D01*
X150821904Y-113117142D01*
X150627619Y-112307619D02*
X150627619Y-112242857D01*
X150660000Y-112178095D01*
X150692380Y-112145714D01*
X150757142Y-112113333D01*
X150886666Y-112080952D01*
X151048571Y-112080952D01*
X151178095Y-112113333D01*
X151242857Y-112145714D01*
X151275238Y-112178095D01*
X151307619Y-112242857D01*
X151307619Y-112307619D01*
X151275238Y-112372380D01*
X151242857Y-112404761D01*
X151178095Y-112437142D01*
X151048571Y-112469523D01*
X150886666Y-112469523D01*
X150757142Y-112437142D01*
X150692380Y-112404761D01*
X150660000Y-112372380D01*
X150627619Y-112307619D01*
X150854285Y-111498095D02*
X151307619Y-111498095D01*
X150854285Y-111789523D02*
X151210476Y-111789523D01*
X151275238Y-111757142D01*
X151307619Y-111692380D01*
X151307619Y-111595238D01*
X151275238Y-111530476D01*
X151242857Y-111498095D01*
X150951428Y-110947619D02*
X150951428Y-111174285D01*
X151307619Y-111174285D02*
X150627619Y-111174285D01*
X150627619Y-110850476D01*
D10*
X148916666Y-144724761D02*
X149059523Y-144772380D01*
X149297619Y-144772380D01*
X149392857Y-144724761D01*
X149440476Y-144677142D01*
X149488095Y-144581904D01*
X149488095Y-144486666D01*
X149440476Y-144391428D01*
X149392857Y-144343809D01*
X149297619Y-144296190D01*
X149107142Y-144248571D01*
X149011904Y-144200952D01*
X148964285Y-144153333D01*
X148916666Y-144058095D01*
X148916666Y-143962857D01*
X148964285Y-143867619D01*
X149011904Y-143820000D01*
X149107142Y-143772380D01*
X149345238Y-143772380D01*
X149488095Y-143820000D01*
X149821428Y-143772380D02*
X150059523Y-144772380D01*
X150250000Y-144058095D01*
X150440476Y-144772380D01*
X150678571Y-143772380D01*
X151583333Y-144772380D02*
X151011904Y-144772380D01*
X151297619Y-144772380D02*
X151297619Y-143772380D01*
X151202380Y-143915238D01*
X151107142Y-144010476D01*
X151011904Y-144058095D01*
D17*
X130923175Y-146640070D02*
X131266477Y-146640070D01*
X131335138Y-146662957D01*
X131380911Y-146708731D01*
X131403798Y-146777391D01*
X131403798Y-146823165D01*
X131403798Y-146159447D02*
X131403798Y-146434089D01*
X131403798Y-146296768D02*
X130923175Y-146296768D01*
X130991836Y-146342542D01*
X131037609Y-146388315D01*
X131060496Y-146434089D01*
D10*
X172928095Y-81282380D02*
X172928095Y-82091904D01*
X172975714Y-82187142D01*
X173023333Y-82234761D01*
X173118571Y-82282380D01*
X173309047Y-82282380D01*
X173404285Y-82234761D01*
X173451904Y-82187142D01*
X173499523Y-82091904D01*
X173499523Y-81282380D01*
X173928095Y-81377619D02*
X173975714Y-81330000D01*
X174070952Y-81282380D01*
X174309047Y-81282380D01*
X174404285Y-81330000D01*
X174451904Y-81377619D01*
X174499523Y-81472857D01*
X174499523Y-81568095D01*
X174451904Y-81710952D01*
X173880476Y-82282380D01*
X174499523Y-82282380D01*
X130622380Y-80951904D02*
X131431904Y-80951904D01*
X131527142Y-80904285D01*
X131574761Y-80856666D01*
X131622380Y-80761428D01*
X131622380Y-80570952D01*
X131574761Y-80475714D01*
X131527142Y-80428095D01*
X131431904Y-80380476D01*
X130622380Y-80380476D01*
X131622380Y-79380476D02*
X131622380Y-79951904D01*
X131622380Y-79666190D02*
X130622380Y-79666190D01*
X130765238Y-79761428D01*
X130860476Y-79856666D01*
X130908095Y-79951904D01*
X156357142Y-68952380D02*
X156023809Y-68476190D01*
X155785714Y-68952380D02*
X155785714Y-67952380D01*
X156166666Y-67952380D01*
X156261904Y-68000000D01*
X156309523Y-68047619D01*
X156357142Y-68142857D01*
X156357142Y-68285714D01*
X156309523Y-68380952D01*
X156261904Y-68428571D01*
X156166666Y-68476190D01*
X155785714Y-68476190D01*
X156738095Y-68047619D02*
X156785714Y-68000000D01*
X156880952Y-67952380D01*
X157119047Y-67952380D01*
X157214285Y-68000000D01*
X157261904Y-68047619D01*
X157309523Y-68142857D01*
X157309523Y-68238095D01*
X157261904Y-68380952D01*
X156690476Y-68952380D01*
X157309523Y-68952380D01*
X157690476Y-68047619D02*
X157738095Y-68000000D01*
X157833333Y-67952380D01*
X158071428Y-67952380D01*
X158166666Y-68000000D01*
X158214285Y-68047619D01*
X158261904Y-68142857D01*
X158261904Y-68238095D01*
X158214285Y-68380952D01*
X157642857Y-68952380D01*
X158261904Y-68952380D01*
X157452380Y-63809047D02*
X156976190Y-64142380D01*
X157452380Y-64380476D02*
X156452380Y-64380476D01*
X156452380Y-63999523D01*
X156500000Y-63904285D01*
X156547619Y-63856666D01*
X156642857Y-63809047D01*
X156785714Y-63809047D01*
X156880952Y-63856666D01*
X156928571Y-63904285D01*
X156976190Y-63999523D01*
X156976190Y-64380476D01*
X156785714Y-62951904D02*
X157452380Y-62951904D01*
X156404761Y-63190000D02*
X157119047Y-63428095D01*
X157119047Y-62809047D01*
X156452380Y-62523333D02*
X156452380Y-61856666D01*
X157452380Y-62285238D01*
X156452380Y-61285238D02*
X156452380Y-61190000D01*
X156500000Y-61094761D01*
X156547619Y-61047142D01*
X156642857Y-60999523D01*
X156833333Y-60951904D01*
X157071428Y-60951904D01*
X157261904Y-60999523D01*
X157357142Y-61047142D01*
X157404761Y-61094761D01*
X157452380Y-61190000D01*
X157452380Y-61285238D01*
X157404761Y-61380476D01*
X157357142Y-61428095D01*
X157261904Y-61475714D01*
X157071428Y-61523333D01*
X156833333Y-61523333D01*
X156642857Y-61475714D01*
X156547619Y-61428095D01*
X156500000Y-61380476D01*
X156452380Y-61285238D01*
X162857142Y-68952380D02*
X162523809Y-68476190D01*
X162285714Y-68952380D02*
X162285714Y-67952380D01*
X162666666Y-67952380D01*
X162761904Y-68000000D01*
X162809523Y-68047619D01*
X162857142Y-68142857D01*
X162857142Y-68285714D01*
X162809523Y-68380952D01*
X162761904Y-68428571D01*
X162666666Y-68476190D01*
X162285714Y-68476190D01*
X163238095Y-68047619D02*
X163285714Y-68000000D01*
X163380952Y-67952380D01*
X163619047Y-67952380D01*
X163714285Y-68000000D01*
X163761904Y-68047619D01*
X163809523Y-68142857D01*
X163809523Y-68238095D01*
X163761904Y-68380952D01*
X163190476Y-68952380D01*
X163809523Y-68952380D01*
X164428571Y-67952380D02*
X164523809Y-67952380D01*
X164619047Y-68000000D01*
X164666666Y-68047619D01*
X164714285Y-68142857D01*
X164761904Y-68333333D01*
X164761904Y-68571428D01*
X164714285Y-68761904D01*
X164666666Y-68857142D01*
X164619047Y-68904761D01*
X164523809Y-68952380D01*
X164428571Y-68952380D01*
X164333333Y-68904761D01*
X164285714Y-68857142D01*
X164238095Y-68761904D01*
X164190476Y-68571428D01*
X164190476Y-68333333D01*
X164238095Y-68142857D01*
X164285714Y-68047619D01*
X164333333Y-68000000D01*
X164428571Y-67952380D01*
X163952380Y-63809047D02*
X163476190Y-64142380D01*
X163952380Y-64380476D02*
X162952380Y-64380476D01*
X162952380Y-63999523D01*
X163000000Y-63904285D01*
X163047619Y-63856666D01*
X163142857Y-63809047D01*
X163285714Y-63809047D01*
X163380952Y-63856666D01*
X163428571Y-63904285D01*
X163476190Y-63999523D01*
X163476190Y-64380476D01*
X163285714Y-62951904D02*
X163952380Y-62951904D01*
X162904761Y-63190000D02*
X163619047Y-63428095D01*
X163619047Y-62809047D01*
X162952380Y-62523333D02*
X162952380Y-61856666D01*
X163952380Y-62285238D01*
X162952380Y-61285238D02*
X162952380Y-61190000D01*
X163000000Y-61094761D01*
X163047619Y-61047142D01*
X163142857Y-60999523D01*
X163333333Y-60951904D01*
X163571428Y-60951904D01*
X163761904Y-60999523D01*
X163857142Y-61047142D01*
X163904761Y-61094761D01*
X163952380Y-61190000D01*
X163952380Y-61285238D01*
X163904761Y-61380476D01*
X163857142Y-61428095D01*
X163761904Y-61475714D01*
X163571428Y-61523333D01*
X163333333Y-61523333D01*
X163142857Y-61475714D01*
X163047619Y-61428095D01*
X163000000Y-61380476D01*
X162952380Y-61285238D01*
X169357142Y-68952380D02*
X169023809Y-68476190D01*
X168785714Y-68952380D02*
X168785714Y-67952380D01*
X169166666Y-67952380D01*
X169261904Y-68000000D01*
X169309523Y-68047619D01*
X169357142Y-68142857D01*
X169357142Y-68285714D01*
X169309523Y-68380952D01*
X169261904Y-68428571D01*
X169166666Y-68476190D01*
X168785714Y-68476190D01*
X170309523Y-68952380D02*
X169738095Y-68952380D01*
X170023809Y-68952380D02*
X170023809Y-67952380D01*
X169928571Y-68095238D01*
X169833333Y-68190476D01*
X169738095Y-68238095D01*
X170785714Y-68952380D02*
X170976190Y-68952380D01*
X171071428Y-68904761D01*
X171119047Y-68857142D01*
X171214285Y-68714285D01*
X171261904Y-68523809D01*
X171261904Y-68142857D01*
X171214285Y-68047619D01*
X171166666Y-68000000D01*
X171071428Y-67952380D01*
X170880952Y-67952380D01*
X170785714Y-68000000D01*
X170738095Y-68047619D01*
X170690476Y-68142857D01*
X170690476Y-68380952D01*
X170738095Y-68476190D01*
X170785714Y-68523809D01*
X170880952Y-68571428D01*
X171071428Y-68571428D01*
X171166666Y-68523809D01*
X171214285Y-68476190D01*
X171261904Y-68380952D01*
X170452380Y-63809047D02*
X169976190Y-64142380D01*
X170452380Y-64380476D02*
X169452380Y-64380476D01*
X169452380Y-63999523D01*
X169500000Y-63904285D01*
X169547619Y-63856666D01*
X169642857Y-63809047D01*
X169785714Y-63809047D01*
X169880952Y-63856666D01*
X169928571Y-63904285D01*
X169976190Y-63999523D01*
X169976190Y-64380476D01*
X169785714Y-62951904D02*
X170452380Y-62951904D01*
X169404761Y-63190000D02*
X170119047Y-63428095D01*
X170119047Y-62809047D01*
X169452380Y-62523333D02*
X169452380Y-61856666D01*
X170452380Y-62285238D01*
X169452380Y-61285238D02*
X169452380Y-61190000D01*
X169500000Y-61094761D01*
X169547619Y-61047142D01*
X169642857Y-60999523D01*
X169833333Y-60951904D01*
X170071428Y-60951904D01*
X170261904Y-60999523D01*
X170357142Y-61047142D01*
X170404761Y-61094761D01*
X170452380Y-61190000D01*
X170452380Y-61285238D01*
X170404761Y-61380476D01*
X170357142Y-61428095D01*
X170261904Y-61475714D01*
X170071428Y-61523333D01*
X169833333Y-61523333D01*
X169642857Y-61475714D01*
X169547619Y-61428095D01*
X169500000Y-61380476D01*
X169452380Y-61285238D01*
X173047142Y-92322380D02*
X172713809Y-91846190D01*
X172475714Y-92322380D02*
X172475714Y-91322380D01*
X172856666Y-91322380D01*
X172951904Y-91370000D01*
X172999523Y-91417619D01*
X173047142Y-91512857D01*
X173047142Y-91655714D01*
X172999523Y-91750952D01*
X172951904Y-91798571D01*
X172856666Y-91846190D01*
X172475714Y-91846190D01*
X173999523Y-92322380D02*
X173428095Y-92322380D01*
X173713809Y-92322380D02*
X173713809Y-91322380D01*
X173618571Y-91465238D01*
X173523333Y-91560476D01*
X173428095Y-91608095D01*
X174570952Y-91750952D02*
X174475714Y-91703333D01*
X174428095Y-91655714D01*
X174380476Y-91560476D01*
X174380476Y-91512857D01*
X174428095Y-91417619D01*
X174475714Y-91370000D01*
X174570952Y-91322380D01*
X174761428Y-91322380D01*
X174856666Y-91370000D01*
X174904285Y-91417619D01*
X174951904Y-91512857D01*
X174951904Y-91560476D01*
X174904285Y-91655714D01*
X174856666Y-91703333D01*
X174761428Y-91750952D01*
X174570952Y-91750952D01*
X174475714Y-91798571D01*
X174428095Y-91846190D01*
X174380476Y-91941428D01*
X174380476Y-92131904D01*
X174428095Y-92227142D01*
X174475714Y-92274761D01*
X174570952Y-92322380D01*
X174761428Y-92322380D01*
X174856666Y-92274761D01*
X174904285Y-92227142D01*
X174951904Y-92131904D01*
X174951904Y-91941428D01*
X174904285Y-91846190D01*
X174856666Y-91798571D01*
X174761428Y-91750952D01*
X172428095Y-89047619D02*
X172475714Y-89000000D01*
X172570952Y-88952380D01*
X172809047Y-88952380D01*
X172904285Y-89000000D01*
X172951904Y-89047619D01*
X172999523Y-89142857D01*
X172999523Y-89238095D01*
X172951904Y-89380952D01*
X172380476Y-89952380D01*
X172999523Y-89952380D01*
X173428095Y-89952380D02*
X173428095Y-88952380D01*
X173999523Y-89952380D02*
X173570952Y-89380952D01*
X173999523Y-88952380D02*
X173428095Y-89523809D01*
X174380476Y-89047619D02*
X174428095Y-89000000D01*
X174523333Y-88952380D01*
X174761428Y-88952380D01*
X174856666Y-89000000D01*
X174904285Y-89047619D01*
X174951904Y-89142857D01*
X174951904Y-89238095D01*
X174904285Y-89380952D01*
X174332857Y-89952380D01*
X174951904Y-89952380D01*
X173047142Y-87322380D02*
X172713809Y-86846190D01*
X172475714Y-87322380D02*
X172475714Y-86322380D01*
X172856666Y-86322380D01*
X172951904Y-86370000D01*
X172999523Y-86417619D01*
X173047142Y-86512857D01*
X173047142Y-86655714D01*
X172999523Y-86750952D01*
X172951904Y-86798571D01*
X172856666Y-86846190D01*
X172475714Y-86846190D01*
X173999523Y-87322380D02*
X173428095Y-87322380D01*
X173713809Y-87322380D02*
X173713809Y-86322380D01*
X173618571Y-86465238D01*
X173523333Y-86560476D01*
X173428095Y-86608095D01*
X174332857Y-86322380D02*
X174999523Y-86322380D01*
X174570952Y-87322380D01*
X172428095Y-84047619D02*
X172475714Y-84000000D01*
X172570952Y-83952380D01*
X172809047Y-83952380D01*
X172904285Y-84000000D01*
X172951904Y-84047619D01*
X172999523Y-84142857D01*
X172999523Y-84238095D01*
X172951904Y-84380952D01*
X172380476Y-84952380D01*
X172999523Y-84952380D01*
X173428095Y-84952380D02*
X173428095Y-83952380D01*
X173999523Y-84952380D02*
X173570952Y-84380952D01*
X173999523Y-83952380D02*
X173428095Y-84523809D01*
X174380476Y-84047619D02*
X174428095Y-84000000D01*
X174523333Y-83952380D01*
X174761428Y-83952380D01*
X174856666Y-84000000D01*
X174904285Y-84047619D01*
X174951904Y-84142857D01*
X174951904Y-84238095D01*
X174904285Y-84380952D01*
X174332857Y-84952380D01*
X174951904Y-84952380D01*
X132857142Y-96952380D02*
X132523809Y-96476190D01*
X132285714Y-96952380D02*
X132285714Y-95952380D01*
X132666666Y-95952380D01*
X132761904Y-96000000D01*
X132809523Y-96047619D01*
X132857142Y-96142857D01*
X132857142Y-96285714D01*
X132809523Y-96380952D01*
X132761904Y-96428571D01*
X132666666Y-96476190D01*
X132285714Y-96476190D01*
X133809523Y-96952380D02*
X133238095Y-96952380D01*
X133523809Y-96952380D02*
X133523809Y-95952380D01*
X133428571Y-96095238D01*
X133333333Y-96190476D01*
X133238095Y-96238095D01*
X134666666Y-95952380D02*
X134476190Y-95952380D01*
X134380952Y-96000000D01*
X134333333Y-96047619D01*
X134238095Y-96190476D01*
X134190476Y-96380952D01*
X134190476Y-96761904D01*
X134238095Y-96857142D01*
X134285714Y-96904761D01*
X134380952Y-96952380D01*
X134571428Y-96952380D01*
X134666666Y-96904761D01*
X134714285Y-96857142D01*
X134761904Y-96761904D01*
X134761904Y-96523809D01*
X134714285Y-96428571D01*
X134666666Y-96380952D01*
X134571428Y-96333333D01*
X134380952Y-96333333D01*
X134285714Y-96380952D01*
X134238095Y-96428571D01*
X134190476Y-96523809D01*
X132952380Y-92119523D02*
X132952380Y-91500476D01*
X133333333Y-91833809D01*
X133333333Y-91690952D01*
X133380952Y-91595714D01*
X133428571Y-91548095D01*
X133523809Y-91500476D01*
X133761904Y-91500476D01*
X133857142Y-91548095D01*
X133904761Y-91595714D01*
X133952380Y-91690952D01*
X133952380Y-91976666D01*
X133904761Y-92071904D01*
X133857142Y-92119523D01*
X132952380Y-90881428D02*
X132952380Y-90786190D01*
X133000000Y-90690952D01*
X133047619Y-90643333D01*
X133142857Y-90595714D01*
X133333333Y-90548095D01*
X133571428Y-90548095D01*
X133761904Y-90595714D01*
X133857142Y-90643333D01*
X133904761Y-90690952D01*
X133952380Y-90786190D01*
X133952380Y-90881428D01*
X133904761Y-90976666D01*
X133857142Y-91024285D01*
X133761904Y-91071904D01*
X133571428Y-91119523D01*
X133333333Y-91119523D01*
X133142857Y-91071904D01*
X133047619Y-91024285D01*
X133000000Y-90976666D01*
X132952380Y-90881428D01*
X133952380Y-90119523D02*
X132952380Y-90119523D01*
X133952380Y-89548095D02*
X133380952Y-89976666D01*
X132952380Y-89548095D02*
X133523809Y-90119523D01*
X136857142Y-96952380D02*
X136523809Y-96476190D01*
X136285714Y-96952380D02*
X136285714Y-95952380D01*
X136666666Y-95952380D01*
X136761904Y-96000000D01*
X136809523Y-96047619D01*
X136857142Y-96142857D01*
X136857142Y-96285714D01*
X136809523Y-96380952D01*
X136761904Y-96428571D01*
X136666666Y-96476190D01*
X136285714Y-96476190D01*
X137809523Y-96952380D02*
X137238095Y-96952380D01*
X137523809Y-96952380D02*
X137523809Y-95952380D01*
X137428571Y-96095238D01*
X137333333Y-96190476D01*
X137238095Y-96238095D01*
X138714285Y-95952380D02*
X138238095Y-95952380D01*
X138190476Y-96428571D01*
X138238095Y-96380952D01*
X138333333Y-96333333D01*
X138571428Y-96333333D01*
X138666666Y-96380952D01*
X138714285Y-96428571D01*
X138761904Y-96523809D01*
X138761904Y-96761904D01*
X138714285Y-96857142D01*
X138666666Y-96904761D01*
X138571428Y-96952380D01*
X138333333Y-96952380D01*
X138238095Y-96904761D01*
X138190476Y-96857142D01*
X137952380Y-91380476D02*
X137952380Y-91951904D01*
X137952380Y-91666190D02*
X136952380Y-91666190D01*
X137095238Y-91761428D01*
X137190476Y-91856666D01*
X137238095Y-91951904D01*
X136952380Y-90523333D02*
X136952380Y-90713809D01*
X137000000Y-90809047D01*
X137047619Y-90856666D01*
X137190476Y-90951904D01*
X137380952Y-90999523D01*
X137761904Y-90999523D01*
X137857142Y-90951904D01*
X137904761Y-90904285D01*
X137952380Y-90809047D01*
X137952380Y-90618571D01*
X137904761Y-90523333D01*
X137857142Y-90475714D01*
X137761904Y-90428095D01*
X137523809Y-90428095D01*
X137428571Y-90475714D01*
X137380952Y-90523333D01*
X137333333Y-90618571D01*
X137333333Y-90809047D01*
X137380952Y-90904285D01*
X137428571Y-90951904D01*
X137523809Y-90999523D01*
X137952380Y-89999523D02*
X136952380Y-89999523D01*
X137952380Y-89428095D02*
X137380952Y-89856666D01*
X136952380Y-89428095D02*
X137523809Y-89999523D01*
X128857142Y-71952380D02*
X128523809Y-71476190D01*
X128285714Y-71952380D02*
X128285714Y-70952380D01*
X128666666Y-70952380D01*
X128761904Y-71000000D01*
X128809523Y-71047619D01*
X128857142Y-71142857D01*
X128857142Y-71285714D01*
X128809523Y-71380952D01*
X128761904Y-71428571D01*
X128666666Y-71476190D01*
X128285714Y-71476190D01*
X129809523Y-71952380D02*
X129238095Y-71952380D01*
X129523809Y-71952380D02*
X129523809Y-70952380D01*
X129428571Y-71095238D01*
X129333333Y-71190476D01*
X129238095Y-71238095D01*
X130666666Y-71285714D02*
X130666666Y-71952380D01*
X130428571Y-70904761D02*
X130190476Y-71619047D01*
X130809523Y-71619047D01*
X128952380Y-66524285D02*
X128952380Y-67000476D01*
X129428571Y-67048095D01*
X129380952Y-67000476D01*
X129333333Y-66905238D01*
X129333333Y-66667142D01*
X129380952Y-66571904D01*
X129428571Y-66524285D01*
X129523809Y-66476666D01*
X129761904Y-66476666D01*
X129857142Y-66524285D01*
X129904761Y-66571904D01*
X129952380Y-66667142D01*
X129952380Y-66905238D01*
X129904761Y-67000476D01*
X129857142Y-67048095D01*
X129952380Y-65524285D02*
X129952380Y-66095714D01*
X129952380Y-65810000D02*
X128952380Y-65810000D01*
X129095238Y-65905238D01*
X129190476Y-66000476D01*
X129238095Y-66095714D01*
X128952380Y-64905238D02*
X128952380Y-64810000D01*
X129000000Y-64714761D01*
X129047619Y-64667142D01*
X129142857Y-64619523D01*
X129333333Y-64571904D01*
X129571428Y-64571904D01*
X129761904Y-64619523D01*
X129857142Y-64667142D01*
X129904761Y-64714761D01*
X129952380Y-64810000D01*
X129952380Y-64905238D01*
X129904761Y-65000476D01*
X129857142Y-65048095D01*
X129761904Y-65095714D01*
X129571428Y-65143333D01*
X129333333Y-65143333D01*
X129142857Y-65095714D01*
X129047619Y-65048095D01*
X129000000Y-65000476D01*
X128952380Y-64905238D01*
X133857142Y-128952380D02*
X133523809Y-128476190D01*
X133285714Y-128952380D02*
X133285714Y-127952380D01*
X133666666Y-127952380D01*
X133761904Y-128000000D01*
X133809523Y-128047619D01*
X133857142Y-128142857D01*
X133857142Y-128285714D01*
X133809523Y-128380952D01*
X133761904Y-128428571D01*
X133666666Y-128476190D01*
X133285714Y-128476190D01*
X134809523Y-128952380D02*
X134238095Y-128952380D01*
X134523809Y-128952380D02*
X134523809Y-127952380D01*
X134428571Y-128095238D01*
X134333333Y-128190476D01*
X134238095Y-128238095D01*
X135142857Y-127952380D02*
X135761904Y-127952380D01*
X135428571Y-128333333D01*
X135571428Y-128333333D01*
X135666666Y-128380952D01*
X135714285Y-128428571D01*
X135761904Y-128523809D01*
X135761904Y-128761904D01*
X135714285Y-128857142D01*
X135666666Y-128904761D01*
X135571428Y-128952380D01*
X135285714Y-128952380D01*
X135190476Y-128904761D01*
X135142857Y-128857142D01*
X134047619Y-124048095D02*
X134000000Y-124000476D01*
X133952380Y-123905238D01*
X133952380Y-123667142D01*
X134000000Y-123571904D01*
X134047619Y-123524285D01*
X134142857Y-123476666D01*
X134238095Y-123476666D01*
X134380952Y-123524285D01*
X134952380Y-124095714D01*
X134952380Y-123476666D01*
X134047619Y-123095714D02*
X134000000Y-123048095D01*
X133952380Y-122952857D01*
X133952380Y-122714761D01*
X134000000Y-122619523D01*
X134047619Y-122571904D01*
X134142857Y-122524285D01*
X134238095Y-122524285D01*
X134380952Y-122571904D01*
X134952380Y-123143333D01*
X134952380Y-122524285D01*
X133952380Y-121905238D02*
X133952380Y-121810000D01*
X134000000Y-121714761D01*
X134047619Y-121667142D01*
X134142857Y-121619523D01*
X134333333Y-121571904D01*
X134571428Y-121571904D01*
X134761904Y-121619523D01*
X134857142Y-121667142D01*
X134904761Y-121714761D01*
X134952380Y-121810000D01*
X134952380Y-121905238D01*
X134904761Y-122000476D01*
X134857142Y-122048095D01*
X134761904Y-122095714D01*
X134571428Y-122143333D01*
X134333333Y-122143333D01*
X134142857Y-122095714D01*
X134047619Y-122048095D01*
X134000000Y-122000476D01*
X133952380Y-121905238D01*
X128857142Y-96952380D02*
X128523809Y-96476190D01*
X128285714Y-96952380D02*
X128285714Y-95952380D01*
X128666666Y-95952380D01*
X128761904Y-96000000D01*
X128809523Y-96047619D01*
X128857142Y-96142857D01*
X128857142Y-96285714D01*
X128809523Y-96380952D01*
X128761904Y-96428571D01*
X128666666Y-96476190D01*
X128285714Y-96476190D01*
X129809523Y-96952380D02*
X129238095Y-96952380D01*
X129523809Y-96952380D02*
X129523809Y-95952380D01*
X129428571Y-96095238D01*
X129333333Y-96190476D01*
X129238095Y-96238095D01*
X130190476Y-96047619D02*
X130238095Y-96000000D01*
X130333333Y-95952380D01*
X130571428Y-95952380D01*
X130666666Y-96000000D01*
X130714285Y-96047619D01*
X130761904Y-96142857D01*
X130761904Y-96238095D01*
X130714285Y-96380952D01*
X130142857Y-96952380D01*
X130761904Y-96952380D01*
X128952380Y-91499270D02*
X128952380Y-91975461D01*
X129428571Y-92082604D01*
X129380952Y-92029032D01*
X129333333Y-91927842D01*
X129333333Y-91689747D01*
X129380952Y-91600461D01*
X129428571Y-91558794D01*
X129523809Y-91523080D01*
X129761904Y-91552842D01*
X129857142Y-91612366D01*
X129904761Y-91665937D01*
X129952380Y-91767127D01*
X129952380Y-92005223D01*
X129904761Y-92094508D01*
X129857142Y-92136175D01*
X129952380Y-90624270D02*
X129952380Y-91195699D01*
X129952380Y-90909985D02*
X128952380Y-90784985D01*
X129095238Y-90898080D01*
X129190476Y-91005223D01*
X129238095Y-91106413D01*
X128952380Y-89880223D02*
X128952380Y-89784985D01*
X129000000Y-89695699D01*
X129047619Y-89654032D01*
X129142857Y-89618318D01*
X129333333Y-89594508D01*
X129571428Y-89624270D01*
X129761904Y-89695699D01*
X129857142Y-89755223D01*
X129904761Y-89808794D01*
X129952380Y-89909985D01*
X129952380Y-90005223D01*
X129904761Y-90094508D01*
X129857142Y-90136175D01*
X129761904Y-90171889D01*
X129571428Y-90195699D01*
X129333333Y-90165937D01*
X129142857Y-90094508D01*
X129047619Y-90034985D01*
X129000000Y-89981413D01*
X128952380Y-89880223D01*
X130357142Y-128952380D02*
X130023809Y-128476190D01*
X129785714Y-128952380D02*
X129785714Y-127952380D01*
X130166666Y-127952380D01*
X130261904Y-128000000D01*
X130309523Y-128047619D01*
X130357142Y-128142857D01*
X130357142Y-128285714D01*
X130309523Y-128380952D01*
X130261904Y-128428571D01*
X130166666Y-128476190D01*
X129785714Y-128476190D01*
X131309523Y-128952380D02*
X130738095Y-128952380D01*
X131023809Y-128952380D02*
X131023809Y-127952380D01*
X130928571Y-128095238D01*
X130833333Y-128190476D01*
X130738095Y-128238095D01*
X132261904Y-128952380D02*
X131690476Y-128952380D01*
X131976190Y-128952380D02*
X131976190Y-127952380D01*
X131880952Y-128095238D01*
X131785714Y-128190476D01*
X131690476Y-128238095D01*
X131452380Y-123856666D02*
X131452380Y-124428095D01*
X131452380Y-124142380D02*
X130452380Y-124142380D01*
X130595238Y-124237619D01*
X130690476Y-124332857D01*
X130738095Y-124428095D01*
X130452380Y-123237619D02*
X130452380Y-123142380D01*
X130500000Y-123047142D01*
X130547619Y-122999523D01*
X130642857Y-122951904D01*
X130833333Y-122904285D01*
X131071428Y-122904285D01*
X131261904Y-122951904D01*
X131357142Y-122999523D01*
X131404761Y-123047142D01*
X131452380Y-123142380D01*
X131452380Y-123237619D01*
X131404761Y-123332857D01*
X131357142Y-123380476D01*
X131261904Y-123428095D01*
X131071428Y-123475714D01*
X130833333Y-123475714D01*
X130642857Y-123428095D01*
X130547619Y-123380476D01*
X130500000Y-123332857D01*
X130452380Y-123237619D01*
X130452380Y-122285238D02*
X130452380Y-122190000D01*
X130500000Y-122094761D01*
X130547619Y-122047142D01*
X130642857Y-121999523D01*
X130833333Y-121951904D01*
X131071428Y-121951904D01*
X131261904Y-121999523D01*
X131357142Y-122047142D01*
X131404761Y-122094761D01*
X131452380Y-122190000D01*
X131452380Y-122285238D01*
X131404761Y-122380476D01*
X131357142Y-122428095D01*
X131261904Y-122475714D01*
X131071428Y-122523333D01*
X130833333Y-122523333D01*
X130642857Y-122475714D01*
X130547619Y-122428095D01*
X130500000Y-122380476D01*
X130452380Y-122285238D01*
X131452380Y-121523333D02*
X130452380Y-121523333D01*
X131452380Y-120951904D02*
X130880952Y-121380476D01*
X130452380Y-120951904D02*
X131023809Y-121523333D01*
X145857142Y-71952380D02*
X145523809Y-71476190D01*
X145285714Y-71952380D02*
X145285714Y-70952380D01*
X145666666Y-70952380D01*
X145761904Y-71000000D01*
X145809523Y-71047619D01*
X145857142Y-71142857D01*
X145857142Y-71285714D01*
X145809523Y-71380952D01*
X145761904Y-71428571D01*
X145666666Y-71476190D01*
X145285714Y-71476190D01*
X146809523Y-71952380D02*
X146238095Y-71952380D01*
X146523809Y-71952380D02*
X146523809Y-70952380D01*
X146428571Y-71095238D01*
X146333333Y-71190476D01*
X146238095Y-71238095D01*
X147428571Y-70952380D02*
X147523809Y-70952380D01*
X147619047Y-71000000D01*
X147666666Y-71047619D01*
X147714285Y-71142857D01*
X147761904Y-71333333D01*
X147761904Y-71571428D01*
X147714285Y-71761904D01*
X147666666Y-71857142D01*
X147619047Y-71904761D01*
X147523809Y-71952380D01*
X147428571Y-71952380D01*
X147333333Y-71904761D01*
X147285714Y-71857142D01*
X147238095Y-71761904D01*
X147190476Y-71571428D01*
X147190476Y-71333333D01*
X147238095Y-71142857D01*
X147285714Y-71047619D01*
X147333333Y-71000000D01*
X147428571Y-70952380D01*
X146952380Y-66380476D02*
X146952380Y-66951904D01*
X146952380Y-66666190D02*
X145952380Y-66666190D01*
X146095238Y-66761428D01*
X146190476Y-66856666D01*
X146238095Y-66951904D01*
X145952380Y-65523333D02*
X145952380Y-65713809D01*
X146000000Y-65809047D01*
X146047619Y-65856666D01*
X146190476Y-65951904D01*
X146380952Y-65999523D01*
X146761904Y-65999523D01*
X146857142Y-65951904D01*
X146904761Y-65904285D01*
X146952380Y-65809047D01*
X146952380Y-65618571D01*
X146904761Y-65523333D01*
X146857142Y-65475714D01*
X146761904Y-65428095D01*
X146523809Y-65428095D01*
X146428571Y-65475714D01*
X146380952Y-65523333D01*
X146333333Y-65618571D01*
X146333333Y-65809047D01*
X146380952Y-65904285D01*
X146428571Y-65951904D01*
X146523809Y-65999523D01*
X146952380Y-64999523D02*
X145952380Y-64999523D01*
X146952380Y-64428095D02*
X146380952Y-64856666D01*
X145952380Y-64428095D02*
X146523809Y-64999523D01*
X147333333Y-97952380D02*
X147000000Y-97476190D01*
X146761904Y-97952380D02*
X146761904Y-96952380D01*
X147142857Y-96952380D01*
X147238095Y-97000000D01*
X147285714Y-97047619D01*
X147333333Y-97142857D01*
X147333333Y-97285714D01*
X147285714Y-97380952D01*
X147238095Y-97428571D01*
X147142857Y-97476190D01*
X146761904Y-97476190D01*
X147809523Y-97952380D02*
X148000000Y-97952380D01*
X148095238Y-97904761D01*
X148142857Y-97857142D01*
X148238095Y-97714285D01*
X148285714Y-97523809D01*
X148285714Y-97142857D01*
X148238095Y-97047619D01*
X148190476Y-97000000D01*
X148095238Y-96952380D01*
X147904761Y-96952380D01*
X147809523Y-97000000D01*
X147761904Y-97047619D01*
X147714285Y-97142857D01*
X147714285Y-97380952D01*
X147761904Y-97476190D01*
X147809523Y-97523809D01*
X147904761Y-97571428D01*
X148095238Y-97571428D01*
X148190476Y-97523809D01*
X148238095Y-97476190D01*
X148285714Y-97380952D01*
X147952380Y-92856666D02*
X147952380Y-93428095D01*
X147952380Y-93142380D02*
X146952380Y-93142380D01*
X147095238Y-93237619D01*
X147190476Y-93332857D01*
X147238095Y-93428095D01*
X146952380Y-92237619D02*
X146952380Y-92142380D01*
X147000000Y-92047142D01*
X147047619Y-91999523D01*
X147142857Y-91951904D01*
X147333333Y-91904285D01*
X147571428Y-91904285D01*
X147761904Y-91951904D01*
X147857142Y-91999523D01*
X147904761Y-92047142D01*
X147952380Y-92142380D01*
X147952380Y-92237619D01*
X147904761Y-92332857D01*
X147857142Y-92380476D01*
X147761904Y-92428095D01*
X147571428Y-92475714D01*
X147333333Y-92475714D01*
X147142857Y-92428095D01*
X147047619Y-92380476D01*
X147000000Y-92332857D01*
X146952380Y-92237619D01*
X146952380Y-91285238D02*
X146952380Y-91190000D01*
X147000000Y-91094761D01*
X147047619Y-91047142D01*
X147142857Y-90999523D01*
X147333333Y-90951904D01*
X147571428Y-90951904D01*
X147761904Y-90999523D01*
X147857142Y-91047142D01*
X147904761Y-91094761D01*
X147952380Y-91190000D01*
X147952380Y-91285238D01*
X147904761Y-91380476D01*
X147857142Y-91428095D01*
X147761904Y-91475714D01*
X147571428Y-91523333D01*
X147333333Y-91523333D01*
X147142857Y-91475714D01*
X147047619Y-91428095D01*
X147000000Y-91380476D01*
X146952380Y-91285238D01*
X147952380Y-90523333D02*
X146952380Y-90523333D01*
X147952380Y-89951904D02*
X147380952Y-90380476D01*
X146952380Y-89951904D02*
X147523809Y-90523333D01*
X151333333Y-97952380D02*
X151000000Y-97476190D01*
X150761904Y-97952380D02*
X150761904Y-96952380D01*
X151142857Y-96952380D01*
X151238095Y-97000000D01*
X151285714Y-97047619D01*
X151333333Y-97142857D01*
X151333333Y-97285714D01*
X151285714Y-97380952D01*
X151238095Y-97428571D01*
X151142857Y-97476190D01*
X150761904Y-97476190D01*
X151904761Y-97380952D02*
X151809523Y-97333333D01*
X151761904Y-97285714D01*
X151714285Y-97190476D01*
X151714285Y-97142857D01*
X151761904Y-97047619D01*
X151809523Y-97000000D01*
X151904761Y-96952380D01*
X152095238Y-96952380D01*
X152190476Y-97000000D01*
X152238095Y-97047619D01*
X152285714Y-97142857D01*
X152285714Y-97190476D01*
X152238095Y-97285714D01*
X152190476Y-97333333D01*
X152095238Y-97380952D01*
X151904761Y-97380952D01*
X151809523Y-97428571D01*
X151761904Y-97476190D01*
X151714285Y-97571428D01*
X151714285Y-97761904D01*
X151761904Y-97857142D01*
X151809523Y-97904761D01*
X151904761Y-97952380D01*
X152095238Y-97952380D01*
X152190476Y-97904761D01*
X152238095Y-97857142D01*
X152285714Y-97761904D01*
X152285714Y-97571428D01*
X152238095Y-97476190D01*
X152190476Y-97428571D01*
X152095238Y-97380952D01*
X150952380Y-92595714D02*
X150952380Y-92786190D01*
X151000000Y-92881428D01*
X151047619Y-92929047D01*
X151190476Y-93024285D01*
X151380952Y-93071904D01*
X151761904Y-93071904D01*
X151857142Y-93024285D01*
X151904761Y-92976666D01*
X151952380Y-92881428D01*
X151952380Y-92690952D01*
X151904761Y-92595714D01*
X151857142Y-92548095D01*
X151761904Y-92500476D01*
X151523809Y-92500476D01*
X151428571Y-92548095D01*
X151380952Y-92595714D01*
X151333333Y-92690952D01*
X151333333Y-92881428D01*
X151380952Y-92976666D01*
X151428571Y-93024285D01*
X151523809Y-93071904D01*
X151952380Y-92071904D02*
X150952380Y-92071904D01*
X151952380Y-91500476D02*
X151380952Y-91929047D01*
X150952380Y-91500476D02*
X151523809Y-92071904D01*
X151380952Y-90929047D02*
X151333333Y-91024285D01*
X151285714Y-91071904D01*
X151190476Y-91119523D01*
X151142857Y-91119523D01*
X151047619Y-91071904D01*
X151000000Y-91024285D01*
X150952380Y-90929047D01*
X150952380Y-90738571D01*
X151000000Y-90643333D01*
X151047619Y-90595714D01*
X151142857Y-90548095D01*
X151190476Y-90548095D01*
X151285714Y-90595714D01*
X151333333Y-90643333D01*
X151380952Y-90738571D01*
X151380952Y-90929047D01*
X151428571Y-91024285D01*
X151476190Y-91071904D01*
X151571428Y-91119523D01*
X151761904Y-91119523D01*
X151857142Y-91071904D01*
X151904761Y-91024285D01*
X151952380Y-90929047D01*
X151952380Y-90738571D01*
X151904761Y-90643333D01*
X151857142Y-90595714D01*
X151761904Y-90548095D01*
X151571428Y-90548095D01*
X151476190Y-90595714D01*
X151428571Y-90643333D01*
X151380952Y-90738571D01*
X150333333Y-71952380D02*
X150000000Y-71476190D01*
X149761904Y-71952380D02*
X149761904Y-70952380D01*
X150142857Y-70952380D01*
X150238095Y-71000000D01*
X150285714Y-71047619D01*
X150333333Y-71142857D01*
X150333333Y-71285714D01*
X150285714Y-71380952D01*
X150238095Y-71428571D01*
X150142857Y-71476190D01*
X149761904Y-71476190D01*
X150666666Y-70952380D02*
X151333333Y-70952380D01*
X150904761Y-71952380D01*
X149952380Y-67119523D02*
X149952380Y-66500476D01*
X150333333Y-66833809D01*
X150333333Y-66690952D01*
X150380952Y-66595714D01*
X150428571Y-66548095D01*
X150523809Y-66500476D01*
X150761904Y-66500476D01*
X150857142Y-66548095D01*
X150904761Y-66595714D01*
X150952380Y-66690952D01*
X150952380Y-66976666D01*
X150904761Y-67071904D01*
X150857142Y-67119523D01*
X149952380Y-65881428D02*
X149952380Y-65786190D01*
X150000000Y-65690952D01*
X150047619Y-65643333D01*
X150142857Y-65595714D01*
X150333333Y-65548095D01*
X150571428Y-65548095D01*
X150761904Y-65595714D01*
X150857142Y-65643333D01*
X150904761Y-65690952D01*
X150952380Y-65786190D01*
X150952380Y-65881428D01*
X150904761Y-65976666D01*
X150857142Y-66024285D01*
X150761904Y-66071904D01*
X150571428Y-66119523D01*
X150333333Y-66119523D01*
X150142857Y-66071904D01*
X150047619Y-66024285D01*
X150000000Y-65976666D01*
X149952380Y-65881428D01*
X150952380Y-65119523D02*
X149952380Y-65119523D01*
X150952380Y-64548095D02*
X150380952Y-64976666D01*
X149952380Y-64548095D02*
X150523809Y-65119523D01*
X143333333Y-128952380D02*
X143000000Y-128476190D01*
X142761904Y-128952380D02*
X142761904Y-127952380D01*
X143142857Y-127952380D01*
X143238095Y-128000000D01*
X143285714Y-128047619D01*
X143333333Y-128142857D01*
X143333333Y-128285714D01*
X143285714Y-128380952D01*
X143238095Y-128428571D01*
X143142857Y-128476190D01*
X142761904Y-128476190D01*
X144190476Y-127952380D02*
X144000000Y-127952380D01*
X143904761Y-128000000D01*
X143857142Y-128047619D01*
X143761904Y-128190476D01*
X143714285Y-128380952D01*
X143714285Y-128761904D01*
X143761904Y-128857142D01*
X143809523Y-128904761D01*
X143904761Y-128952380D01*
X144095238Y-128952380D01*
X144190476Y-128904761D01*
X144238095Y-128857142D01*
X144285714Y-128761904D01*
X144285714Y-128523809D01*
X144238095Y-128428571D01*
X144190476Y-128380952D01*
X144095238Y-128333333D01*
X143904761Y-128333333D01*
X143809523Y-128380952D01*
X143761904Y-128428571D01*
X143714285Y-128523809D01*
X143047619Y-124048095D02*
X143000000Y-124000476D01*
X142952380Y-123905238D01*
X142952380Y-123667142D01*
X143000000Y-123571904D01*
X143047619Y-123524285D01*
X143142857Y-123476666D01*
X143238095Y-123476666D01*
X143380952Y-123524285D01*
X143952380Y-124095714D01*
X143952380Y-123476666D01*
X143047619Y-123095714D02*
X143000000Y-123048095D01*
X142952380Y-122952857D01*
X142952380Y-122714761D01*
X143000000Y-122619523D01*
X143047619Y-122571904D01*
X143142857Y-122524285D01*
X143238095Y-122524285D01*
X143380952Y-122571904D01*
X143952380Y-123143333D01*
X143952380Y-122524285D01*
X142952380Y-121905238D02*
X142952380Y-121810000D01*
X143000000Y-121714761D01*
X143047619Y-121667142D01*
X143142857Y-121619523D01*
X143333333Y-121571904D01*
X143571428Y-121571904D01*
X143761904Y-121619523D01*
X143857142Y-121667142D01*
X143904761Y-121714761D01*
X143952380Y-121810000D01*
X143952380Y-121905238D01*
X143904761Y-122000476D01*
X143857142Y-122048095D01*
X143761904Y-122095714D01*
X143571428Y-122143333D01*
X143333333Y-122143333D01*
X143142857Y-122095714D01*
X143047619Y-122048095D01*
X143000000Y-122000476D01*
X142952380Y-121905238D01*
X139333333Y-128952380D02*
X139000000Y-128476190D01*
X138761904Y-128952380D02*
X138761904Y-127952380D01*
X139142857Y-127952380D01*
X139238095Y-128000000D01*
X139285714Y-128047619D01*
X139333333Y-128142857D01*
X139333333Y-128285714D01*
X139285714Y-128380952D01*
X139238095Y-128428571D01*
X139142857Y-128476190D01*
X138761904Y-128476190D01*
X140238095Y-127952380D02*
X139761904Y-127952380D01*
X139714285Y-128428571D01*
X139761904Y-128380952D01*
X139857142Y-128333333D01*
X140095238Y-128333333D01*
X140190476Y-128380952D01*
X140238095Y-128428571D01*
X140285714Y-128523809D01*
X140285714Y-128761904D01*
X140238095Y-128857142D01*
X140190476Y-128904761D01*
X140095238Y-128952380D01*
X139857142Y-128952380D01*
X139761904Y-128904761D01*
X139714285Y-128857142D01*
X139952380Y-123856666D02*
X139952380Y-124428095D01*
X139952380Y-124142380D02*
X138952380Y-124142380D01*
X139095238Y-124237619D01*
X139190476Y-124332857D01*
X139238095Y-124428095D01*
X138952380Y-123237619D02*
X138952380Y-123142380D01*
X139000000Y-123047142D01*
X139047619Y-122999523D01*
X139142857Y-122951904D01*
X139333333Y-122904285D01*
X139571428Y-122904285D01*
X139761904Y-122951904D01*
X139857142Y-122999523D01*
X139904761Y-123047142D01*
X139952380Y-123142380D01*
X139952380Y-123237619D01*
X139904761Y-123332857D01*
X139857142Y-123380476D01*
X139761904Y-123428095D01*
X139571428Y-123475714D01*
X139333333Y-123475714D01*
X139142857Y-123428095D01*
X139047619Y-123380476D01*
X139000000Y-123332857D01*
X138952380Y-123237619D01*
X138952380Y-122285238D02*
X138952380Y-122190000D01*
X139000000Y-122094761D01*
X139047619Y-122047142D01*
X139142857Y-121999523D01*
X139333333Y-121951904D01*
X139571428Y-121951904D01*
X139761904Y-121999523D01*
X139857142Y-122047142D01*
X139904761Y-122094761D01*
X139952380Y-122190000D01*
X139952380Y-122285238D01*
X139904761Y-122380476D01*
X139857142Y-122428095D01*
X139761904Y-122475714D01*
X139571428Y-122523333D01*
X139333333Y-122523333D01*
X139142857Y-122475714D01*
X139047619Y-122428095D01*
X139000000Y-122380476D01*
X138952380Y-122285238D01*
X139952380Y-121523333D02*
X138952380Y-121523333D01*
X139952380Y-120951904D02*
X139380952Y-121380476D01*
X138952380Y-120951904D02*
X139523809Y-121523333D01*
X127333333Y-128952380D02*
X127000000Y-128476190D01*
X126761904Y-128952380D02*
X126761904Y-127952380D01*
X127142857Y-127952380D01*
X127238095Y-128000000D01*
X127285714Y-128047619D01*
X127333333Y-128142857D01*
X127333333Y-128285714D01*
X127285714Y-128380952D01*
X127238095Y-128428571D01*
X127142857Y-128476190D01*
X126761904Y-128476190D01*
X128190476Y-128285714D02*
X128190476Y-128952380D01*
X127952380Y-127904761D02*
X127714285Y-128619047D01*
X128333333Y-128619047D01*
X127047619Y-123951904D02*
X127000000Y-123904285D01*
X126952380Y-123809047D01*
X126952380Y-123570952D01*
X127000000Y-123475714D01*
X127047619Y-123428095D01*
X127142857Y-123380476D01*
X127238095Y-123380476D01*
X127380952Y-123428095D01*
X127952380Y-123999523D01*
X127952380Y-123380476D01*
X127952380Y-122951904D02*
X126952380Y-122951904D01*
X127952380Y-122380476D02*
X127380952Y-122809047D01*
X126952380Y-122380476D02*
X127523809Y-122951904D01*
X127047619Y-121999523D02*
X127000000Y-121951904D01*
X126952380Y-121856666D01*
X126952380Y-121618571D01*
X127000000Y-121523333D01*
X127047619Y-121475714D01*
X127142857Y-121428095D01*
X127238095Y-121428095D01*
X127380952Y-121475714D01*
X127952380Y-122047142D01*
X127952380Y-121428095D01*
X127833333Y-98952380D02*
X127500000Y-98476190D01*
X127261904Y-98952380D02*
X127261904Y-97952380D01*
X127642857Y-97952380D01*
X127738095Y-98000000D01*
X127785714Y-98047619D01*
X127833333Y-98142857D01*
X127833333Y-98285714D01*
X127785714Y-98380952D01*
X127738095Y-98428571D01*
X127642857Y-98476190D01*
X127261904Y-98476190D01*
X128166666Y-97952380D02*
X128785714Y-97952380D01*
X128452380Y-98333333D01*
X128595238Y-98333333D01*
X128690476Y-98380952D01*
X128738095Y-98428571D01*
X128785714Y-98523809D01*
X128785714Y-98761904D01*
X128738095Y-98857142D01*
X128690476Y-98904761D01*
X128595238Y-98952380D01*
X128309523Y-98952380D01*
X128214285Y-98904761D01*
X128166666Y-98857142D01*
X128452380Y-104929047D02*
X127976190Y-105262380D01*
X128452380Y-105500476D02*
X127452380Y-105500476D01*
X127452380Y-105119523D01*
X127500000Y-105024285D01*
X127547619Y-104976666D01*
X127642857Y-104929047D01*
X127785714Y-104929047D01*
X127880952Y-104976666D01*
X127928571Y-105024285D01*
X127976190Y-105119523D01*
X127976190Y-105500476D01*
X127785714Y-104071904D02*
X128452380Y-104071904D01*
X127404761Y-104310000D02*
X128119047Y-104548095D01*
X128119047Y-103929047D01*
X127452380Y-103643333D02*
X127452380Y-102976666D01*
X128452380Y-103405238D01*
X127452380Y-102405238D02*
X127452380Y-102310000D01*
X127500000Y-102214761D01*
X127547619Y-102167142D01*
X127642857Y-102119523D01*
X127833333Y-102071904D01*
X128071428Y-102071904D01*
X128261904Y-102119523D01*
X128357142Y-102167142D01*
X128404761Y-102214761D01*
X128452380Y-102310000D01*
X128452380Y-102405238D01*
X128404761Y-102500476D01*
X128357142Y-102548095D01*
X128261904Y-102595714D01*
X128071428Y-102643333D01*
X127833333Y-102643333D01*
X127642857Y-102595714D01*
X127547619Y-102548095D01*
X127500000Y-102500476D01*
X127452380Y-102405238D01*
X131833333Y-98952380D02*
X131500000Y-98476190D01*
X131261904Y-98952380D02*
X131261904Y-97952380D01*
X131642857Y-97952380D01*
X131738095Y-98000000D01*
X131785714Y-98047619D01*
X131833333Y-98142857D01*
X131833333Y-98285714D01*
X131785714Y-98380952D01*
X131738095Y-98428571D01*
X131642857Y-98476190D01*
X131261904Y-98476190D01*
X132214285Y-98047619D02*
X132261904Y-98000000D01*
X132357142Y-97952380D01*
X132595238Y-97952380D01*
X132690476Y-98000000D01*
X132738095Y-98047619D01*
X132785714Y-98142857D01*
X132785714Y-98238095D01*
X132738095Y-98380952D01*
X132166666Y-98952380D01*
X132785714Y-98952380D01*
X132452380Y-104929047D02*
X131976190Y-105262380D01*
X132452380Y-105500476D02*
X131452380Y-105500476D01*
X131452380Y-105119523D01*
X131500000Y-105024285D01*
X131547619Y-104976666D01*
X131642857Y-104929047D01*
X131785714Y-104929047D01*
X131880952Y-104976666D01*
X131928571Y-105024285D01*
X131976190Y-105119523D01*
X131976190Y-105500476D01*
X131785714Y-104071904D02*
X132452380Y-104071904D01*
X131404761Y-104310000D02*
X132119047Y-104548095D01*
X132119047Y-103929047D01*
X131452380Y-103643333D02*
X131452380Y-102976666D01*
X132452380Y-103405238D01*
X131452380Y-102405238D02*
X131452380Y-102310000D01*
X131500000Y-102214761D01*
X131547619Y-102167142D01*
X131642857Y-102119523D01*
X131833333Y-102071904D01*
X132071428Y-102071904D01*
X132261904Y-102119523D01*
X132357142Y-102167142D01*
X132404761Y-102214761D01*
X132452380Y-102310000D01*
X132452380Y-102405238D01*
X132404761Y-102500476D01*
X132357142Y-102548095D01*
X132261904Y-102595714D01*
X132071428Y-102643333D01*
X131833333Y-102643333D01*
X131642857Y-102595714D01*
X131547619Y-102548095D01*
X131500000Y-102500476D01*
X131452380Y-102405238D01*
X148333333Y-128952380D02*
X148000000Y-128476190D01*
X147761904Y-128952380D02*
X147761904Y-127952380D01*
X148142857Y-127952380D01*
X148238095Y-128000000D01*
X148285714Y-128047619D01*
X148333333Y-128142857D01*
X148333333Y-128285714D01*
X148285714Y-128380952D01*
X148238095Y-128428571D01*
X148142857Y-128476190D01*
X147761904Y-128476190D01*
X149285714Y-128952380D02*
X148714285Y-128952380D01*
X149000000Y-128952380D02*
X149000000Y-127952380D01*
X148904761Y-128095238D01*
X148809523Y-128190476D01*
X148714285Y-128238095D01*
X148952380Y-123500476D02*
X148952380Y-124071904D01*
X148952380Y-123786190D02*
X147952380Y-123786190D01*
X148095238Y-123881428D01*
X148190476Y-123976666D01*
X148238095Y-124071904D01*
X147952380Y-122881428D02*
X147952380Y-122786190D01*
X148000000Y-122690952D01*
X148047619Y-122643333D01*
X148142857Y-122595714D01*
X148333333Y-122548095D01*
X148571428Y-122548095D01*
X148761904Y-122595714D01*
X148857142Y-122643333D01*
X148904761Y-122690952D01*
X148952380Y-122786190D01*
X148952380Y-122881428D01*
X148904761Y-122976666D01*
X148857142Y-123024285D01*
X148761904Y-123071904D01*
X148571428Y-123119523D01*
X148333333Y-123119523D01*
X148142857Y-123071904D01*
X148047619Y-123024285D01*
X148000000Y-122976666D01*
X147952380Y-122881428D01*
X148952380Y-122119523D02*
X147952380Y-122119523D01*
X148952380Y-121548095D02*
X148380952Y-121976666D01*
X147952380Y-121548095D02*
X148523809Y-122119523D01*
X132634761Y-135607619D02*
X132539523Y-135560000D01*
X132444285Y-135464761D01*
X132301428Y-135321904D01*
X132206190Y-135274285D01*
X132110952Y-135274285D01*
X132158571Y-135512380D02*
X132063333Y-135464761D01*
X131968095Y-135369523D01*
X131920476Y-135179047D01*
X131920476Y-134845714D01*
X131968095Y-134655238D01*
X132063333Y-134560000D01*
X132158571Y-134512380D01*
X132349047Y-134512380D01*
X132444285Y-134560000D01*
X132539523Y-134655238D01*
X132587142Y-134845714D01*
X132587142Y-135179047D01*
X132539523Y-135369523D01*
X132444285Y-135464761D01*
X132349047Y-135512380D01*
X132158571Y-135512380D01*
X132968095Y-134607619D02*
X133015714Y-134560000D01*
X133110952Y-134512380D01*
X133349047Y-134512380D01*
X133444285Y-134560000D01*
X133491904Y-134607619D01*
X133539523Y-134702857D01*
X133539523Y-134798095D01*
X133491904Y-134940952D01*
X132920476Y-135512380D01*
X133539523Y-135512380D01*
X141134761Y-135607619D02*
X141039523Y-135560000D01*
X140944285Y-135464761D01*
X140801428Y-135321904D01*
X140706190Y-135274285D01*
X140610952Y-135274285D01*
X140658571Y-135512380D02*
X140563333Y-135464761D01*
X140468095Y-135369523D01*
X140420476Y-135179047D01*
X140420476Y-134845714D01*
X140468095Y-134655238D01*
X140563333Y-134560000D01*
X140658571Y-134512380D01*
X140849047Y-134512380D01*
X140944285Y-134560000D01*
X141039523Y-134655238D01*
X141087142Y-134845714D01*
X141087142Y-135179047D01*
X141039523Y-135369523D01*
X140944285Y-135464761D01*
X140849047Y-135512380D01*
X140658571Y-135512380D01*
X142039523Y-135512380D02*
X141468095Y-135512380D01*
X141753809Y-135512380D02*
X141753809Y-134512380D01*
X141658571Y-134655238D01*
X141563333Y-134750476D01*
X141468095Y-134798095D01*
X141761904Y-54952380D02*
X141761904Y-53952380D01*
X142000000Y-53952380D01*
X142142857Y-54000000D01*
X142238095Y-54095238D01*
X142285714Y-54190476D01*
X142333333Y-54380952D01*
X142333333Y-54523809D01*
X142285714Y-54714285D01*
X142238095Y-54809523D01*
X142142857Y-54904761D01*
X142000000Y-54952380D01*
X141761904Y-54952380D01*
X143238095Y-53952380D02*
X142761904Y-53952380D01*
X142714285Y-54428571D01*
X142761904Y-54380952D01*
X142857142Y-54333333D01*
X143095238Y-54333333D01*
X143190476Y-54380952D01*
X143238095Y-54428571D01*
X143285714Y-54523809D01*
X143285714Y-54761904D01*
X143238095Y-54857142D01*
X143190476Y-54904761D01*
X143095238Y-54952380D01*
X142857142Y-54952380D01*
X142761904Y-54904761D01*
X142714285Y-54857142D01*
X136261904Y-116952380D02*
X136261904Y-115952380D01*
X136500000Y-115952380D01*
X136642857Y-116000000D01*
X136738095Y-116095238D01*
X136785714Y-116190476D01*
X136833333Y-116380952D01*
X136833333Y-116523809D01*
X136785714Y-116714285D01*
X136738095Y-116809523D01*
X136642857Y-116904761D01*
X136500000Y-116952380D01*
X136261904Y-116952380D01*
X137214285Y-116047619D02*
X137261904Y-116000000D01*
X137357142Y-115952380D01*
X137595238Y-115952380D01*
X137690476Y-116000000D01*
X137738095Y-116047619D01*
X137785714Y-116142857D01*
X137785714Y-116238095D01*
X137738095Y-116380952D01*
X137166666Y-116952380D01*
X137785714Y-116952380D01*
X135652380Y-114761904D02*
X134652380Y-114761904D01*
X135652380Y-114190476D02*
X135080952Y-114619047D01*
X134652380Y-114190476D02*
X135223809Y-114761904D01*
X139761904Y-116952380D02*
X139761904Y-115952380D01*
X140000000Y-115952380D01*
X140142857Y-116000000D01*
X140238095Y-116095238D01*
X140285714Y-116190476D01*
X140333333Y-116380952D01*
X140333333Y-116523809D01*
X140285714Y-116714285D01*
X140238095Y-116809523D01*
X140142857Y-116904761D01*
X140000000Y-116952380D01*
X139761904Y-116952380D01*
X141285714Y-116952380D02*
X140714285Y-116952380D01*
X141000000Y-116952380D02*
X141000000Y-115952380D01*
X140904761Y-116095238D01*
X140809523Y-116190476D01*
X140714285Y-116238095D01*
X142752380Y-107261904D02*
X141752380Y-107261904D01*
X142752380Y-106690476D02*
X142180952Y-107119047D01*
X141752380Y-106690476D02*
X142323809Y-107261904D01*
X140357142Y-91857142D02*
X140309523Y-91904761D01*
X140166666Y-91952380D01*
X140071428Y-91952380D01*
X139928571Y-91904761D01*
X139833333Y-91809523D01*
X139785714Y-91714285D01*
X139738095Y-91523809D01*
X139738095Y-91380952D01*
X139785714Y-91190476D01*
X139833333Y-91095238D01*
X139928571Y-91000000D01*
X140071428Y-90952380D01*
X140166666Y-90952380D01*
X140309523Y-91000000D01*
X140357142Y-91047619D01*
X141309523Y-91952380D02*
X140738095Y-91952380D01*
X141023809Y-91952380D02*
X141023809Y-90952380D01*
X140928571Y-91095238D01*
X140833333Y-91190476D01*
X140738095Y-91238095D01*
X142261904Y-91952380D02*
X141690476Y-91952380D01*
X141976190Y-91952380D02*
X141976190Y-90952380D01*
X141880952Y-91095238D01*
X141785714Y-91190476D01*
X141690476Y-91238095D01*
X165857142Y-81857142D02*
X165809523Y-81904761D01*
X165666666Y-81952380D01*
X165571428Y-81952380D01*
X165428571Y-81904761D01*
X165333333Y-81809523D01*
X165285714Y-81714285D01*
X165238095Y-81523809D01*
X165238095Y-81380952D01*
X165285714Y-81190476D01*
X165333333Y-81095238D01*
X165428571Y-81000000D01*
X165571428Y-80952380D01*
X165666666Y-80952380D01*
X165809523Y-81000000D01*
X165857142Y-81047619D01*
X166809523Y-81952380D02*
X166238095Y-81952380D01*
X166523809Y-81952380D02*
X166523809Y-80952380D01*
X166428571Y-81095238D01*
X166333333Y-81190476D01*
X166238095Y-81238095D01*
X167428571Y-80952380D02*
X167523809Y-80952380D01*
X167619047Y-81000000D01*
X167666666Y-81047619D01*
X167714285Y-81142857D01*
X167761904Y-81333333D01*
X167761904Y-81571428D01*
X167714285Y-81761904D01*
X167666666Y-81857142D01*
X167619047Y-81904761D01*
X167523809Y-81952380D01*
X167428571Y-81952380D01*
X167333333Y-81904761D01*
X167285714Y-81857142D01*
X167238095Y-81761904D01*
X167190476Y-81571428D01*
X167190476Y-81333333D01*
X167238095Y-81142857D01*
X167285714Y-81047619D01*
X167333333Y-81000000D01*
X167428571Y-80952380D01*
X139833333Y-105357142D02*
X139785714Y-105404761D01*
X139642857Y-105452380D01*
X139547619Y-105452380D01*
X139404761Y-105404761D01*
X139309523Y-105309523D01*
X139261904Y-105214285D01*
X139214285Y-105023809D01*
X139214285Y-104880952D01*
X139261904Y-104690476D01*
X139309523Y-104595238D01*
X139404761Y-104500000D01*
X139547619Y-104452380D01*
X139642857Y-104452380D01*
X139785714Y-104500000D01*
X139833333Y-104547619D01*
X140309523Y-105452380D02*
X140500000Y-105452380D01*
X140595238Y-105404761D01*
X140642857Y-105357142D01*
X140738095Y-105214285D01*
X140785714Y-105023809D01*
X140785714Y-104642857D01*
X140738095Y-104547619D01*
X140690476Y-104500000D01*
X140595238Y-104452380D01*
X140404761Y-104452380D01*
X140309523Y-104500000D01*
X140261904Y-104547619D01*
X140214285Y-104642857D01*
X140214285Y-104880952D01*
X140261904Y-104976190D01*
X140309523Y-105023809D01*
X140404761Y-105071428D01*
X140595238Y-105071428D01*
X140690476Y-105023809D01*
X140738095Y-104976190D01*
X140785714Y-104880952D01*
D19*
X139854285Y-101617142D02*
X140307619Y-101617142D01*
X139595238Y-101779047D02*
X140080952Y-101940952D01*
X140080952Y-101520000D01*
X139627619Y-101325714D02*
X139627619Y-100872380D01*
X140307619Y-101163809D01*
X139627619Y-100483809D02*
X139627619Y-100419047D01*
X139660000Y-100354285D01*
X139692380Y-100321904D01*
X139757142Y-100289523D01*
X139886666Y-100257142D01*
X140048571Y-100257142D01*
X140178095Y-100289523D01*
X140242857Y-100321904D01*
X140275238Y-100354285D01*
X140307619Y-100419047D01*
X140307619Y-100483809D01*
X140275238Y-100548571D01*
X140242857Y-100580952D01*
X140178095Y-100613333D01*
X140048571Y-100645714D01*
X139886666Y-100645714D01*
X139757142Y-100613333D01*
X139692380Y-100580952D01*
X139660000Y-100548571D01*
X139627619Y-100483809D01*
X139854285Y-99965714D02*
X140534285Y-99965714D01*
X139886666Y-99965714D02*
X139854285Y-99900952D01*
X139854285Y-99771428D01*
X139886666Y-99706666D01*
X139919047Y-99674285D01*
X139983809Y-99641904D01*
X140178095Y-99641904D01*
X140242857Y-99674285D01*
X140275238Y-99706666D01*
X140307619Y-99771428D01*
X140307619Y-99900952D01*
X140275238Y-99965714D01*
X139951428Y-99123809D02*
X139951428Y-99350476D01*
X140307619Y-99350476D02*
X139627619Y-99350476D01*
X139627619Y-99026666D01*
D10*
X133833333Y-70357142D02*
X133785714Y-70404761D01*
X133642857Y-70452380D01*
X133547619Y-70452380D01*
X133404761Y-70404761D01*
X133309523Y-70309523D01*
X133261904Y-70214285D01*
X133214285Y-70023809D01*
X133214285Y-69880952D01*
X133261904Y-69690476D01*
X133309523Y-69595238D01*
X133404761Y-69500000D01*
X133547619Y-69452380D01*
X133642857Y-69452380D01*
X133785714Y-69500000D01*
X133833333Y-69547619D01*
X134404761Y-69880952D02*
X134309523Y-69833333D01*
X134261904Y-69785714D01*
X134214285Y-69690476D01*
X134214285Y-69642857D01*
X134261904Y-69547619D01*
X134309523Y-69500000D01*
X134404761Y-69452380D01*
X134595238Y-69452380D01*
X134690476Y-69500000D01*
X134738095Y-69547619D01*
X134785714Y-69642857D01*
X134785714Y-69690476D01*
X134738095Y-69785714D01*
X134690476Y-69833333D01*
X134595238Y-69880952D01*
X134404761Y-69880952D01*
X134309523Y-69928571D01*
X134261904Y-69976190D01*
X134214285Y-70071428D01*
X134214285Y-70261904D01*
X134261904Y-70357142D01*
X134309523Y-70404761D01*
X134404761Y-70452380D01*
X134595238Y-70452380D01*
X134690476Y-70404761D01*
X134738095Y-70357142D01*
X134785714Y-70261904D01*
X134785714Y-70071428D01*
X134738095Y-69976190D01*
X134690476Y-69928571D01*
X134595238Y-69880952D01*
D20*
X133589285Y-66767857D02*
X133589285Y-66303571D01*
X133875000Y-66553571D01*
X133875000Y-66446428D01*
X133910714Y-66375000D01*
X133946428Y-66339285D01*
X134017857Y-66303571D01*
X134196428Y-66303571D01*
X134267857Y-66339285D01*
X134303571Y-66375000D01*
X134339285Y-66446428D01*
X134339285Y-66660714D01*
X134303571Y-66732142D01*
X134267857Y-66767857D01*
X133589285Y-66053571D02*
X133589285Y-65589285D01*
X133875000Y-65839285D01*
X133875000Y-65732142D01*
X133910714Y-65660714D01*
X133946428Y-65625000D01*
X134017857Y-65589285D01*
X134196428Y-65589285D01*
X134267857Y-65625000D01*
X134303571Y-65660714D01*
X134339285Y-65732142D01*
X134339285Y-65946428D01*
X134303571Y-66017857D01*
X134267857Y-66053571D01*
X133839285Y-65267857D02*
X134339285Y-65267857D01*
X133910714Y-65267857D02*
X133875000Y-65232142D01*
X133839285Y-65160714D01*
X133839285Y-65053571D01*
X133875000Y-64982142D01*
X133946428Y-64946428D01*
X134339285Y-64946428D01*
X133946428Y-64339285D02*
X133946428Y-64589285D01*
X134339285Y-64589285D02*
X133589285Y-64589285D01*
X133589285Y-64232142D01*
D10*
X128333333Y-84857142D02*
X128285714Y-84904761D01*
X128142857Y-84952380D01*
X128047619Y-84952380D01*
X127904761Y-84904761D01*
X127809523Y-84809523D01*
X127761904Y-84714285D01*
X127714285Y-84523809D01*
X127714285Y-84380952D01*
X127761904Y-84190476D01*
X127809523Y-84095238D01*
X127904761Y-84000000D01*
X128047619Y-83952380D01*
X128142857Y-83952380D01*
X128285714Y-84000000D01*
X128333333Y-84047619D01*
X128666666Y-83952380D02*
X129333333Y-83952380D01*
X128904761Y-84952380D01*
D19*
X128807619Y-80404761D02*
X128807619Y-80793333D01*
X128807619Y-80599047D02*
X128127619Y-80599047D01*
X128224761Y-80663809D01*
X128289523Y-80728571D01*
X128321904Y-80793333D01*
X128354285Y-80113333D02*
X128807619Y-80113333D01*
X128419047Y-80113333D02*
X128386666Y-80080952D01*
X128354285Y-80016190D01*
X128354285Y-79919047D01*
X128386666Y-79854285D01*
X128451428Y-79821904D01*
X128807619Y-79821904D01*
X128451428Y-79271428D02*
X128451428Y-79498095D01*
X128807619Y-79498095D02*
X128127619Y-79498095D01*
X128127619Y-79174285D01*
D10*
X137833333Y-70357142D02*
X137785714Y-70404761D01*
X137642857Y-70452380D01*
X137547619Y-70452380D01*
X137404761Y-70404761D01*
X137309523Y-70309523D01*
X137261904Y-70214285D01*
X137214285Y-70023809D01*
X137214285Y-69880952D01*
X137261904Y-69690476D01*
X137309523Y-69595238D01*
X137404761Y-69500000D01*
X137547619Y-69452380D01*
X137642857Y-69452380D01*
X137785714Y-69500000D01*
X137833333Y-69547619D01*
X138690476Y-69452380D02*
X138500000Y-69452380D01*
X138404761Y-69500000D01*
X138357142Y-69547619D01*
X138261904Y-69690476D01*
X138214285Y-69880952D01*
X138214285Y-70261904D01*
X138261904Y-70357142D01*
X138309523Y-70404761D01*
X138404761Y-70452380D01*
X138595238Y-70452380D01*
X138690476Y-70404761D01*
X138738095Y-70357142D01*
X138785714Y-70261904D01*
X138785714Y-70023809D01*
X138738095Y-69928571D01*
X138690476Y-69880952D01*
X138595238Y-69833333D01*
X138404761Y-69833333D01*
X138309523Y-69880952D01*
X138261904Y-69928571D01*
X138214285Y-70023809D01*
D19*
X138339285Y-65946428D02*
X138339285Y-66375000D01*
X138339285Y-66160714D02*
X137589285Y-66160714D01*
X137696428Y-66232142D01*
X137767857Y-66303571D01*
X137803571Y-66375000D01*
X137839285Y-65625000D02*
X138339285Y-65625000D01*
X137910714Y-65625000D02*
X137875000Y-65589285D01*
X137839285Y-65517857D01*
X137839285Y-65410714D01*
X137875000Y-65339285D01*
X137946428Y-65303571D01*
X138339285Y-65303571D01*
X137946428Y-64696428D02*
X137946428Y-64946428D01*
X138339285Y-64946428D02*
X137589285Y-64946428D01*
X137589285Y-64589285D01*
D10*
X135833333Y-105357142D02*
X135785714Y-105404761D01*
X135642857Y-105452380D01*
X135547619Y-105452380D01*
X135404761Y-105404761D01*
X135309523Y-105309523D01*
X135261904Y-105214285D01*
X135214285Y-105023809D01*
X135214285Y-104880952D01*
X135261904Y-104690476D01*
X135309523Y-104595238D01*
X135404761Y-104500000D01*
X135547619Y-104452380D01*
X135642857Y-104452380D01*
X135785714Y-104500000D01*
X135833333Y-104547619D01*
X136738095Y-104452380D02*
X136261904Y-104452380D01*
X136214285Y-104928571D01*
X136261904Y-104880952D01*
X136357142Y-104833333D01*
X136595238Y-104833333D01*
X136690476Y-104880952D01*
X136738095Y-104928571D01*
X136785714Y-105023809D01*
X136785714Y-105261904D01*
X136738095Y-105357142D01*
X136690476Y-105404761D01*
X136595238Y-105452380D01*
X136357142Y-105452380D01*
X136261904Y-105404761D01*
X136214285Y-105357142D01*
D20*
X135627619Y-101649523D02*
X135627619Y-101228571D01*
X135886666Y-101455238D01*
X135886666Y-101358095D01*
X135919047Y-101293333D01*
X135951428Y-101260952D01*
X136016190Y-101228571D01*
X136178095Y-101228571D01*
X136242857Y-101260952D01*
X136275238Y-101293333D01*
X136307619Y-101358095D01*
X136307619Y-101552380D01*
X136275238Y-101617142D01*
X136242857Y-101649523D01*
X135627619Y-101001904D02*
X135627619Y-100580952D01*
X135886666Y-100807619D01*
X135886666Y-100710476D01*
X135919047Y-100645714D01*
X135951428Y-100613333D01*
X136016190Y-100580952D01*
X136178095Y-100580952D01*
X136242857Y-100613333D01*
X136275238Y-100645714D01*
X136307619Y-100710476D01*
X136307619Y-100904761D01*
X136275238Y-100969523D01*
X136242857Y-101001904D01*
X135854285Y-100289523D02*
X136307619Y-100289523D01*
X135919047Y-100289523D02*
X135886666Y-100257142D01*
X135854285Y-100192380D01*
X135854285Y-100095238D01*
X135886666Y-100030476D01*
X135951428Y-99998095D01*
X136307619Y-99998095D01*
X135951428Y-99447619D02*
X135951428Y-99674285D01*
X136307619Y-99674285D02*
X135627619Y-99674285D01*
X135627619Y-99350476D01*
D10*
X141833333Y-70357142D02*
X141785714Y-70404761D01*
X141642857Y-70452380D01*
X141547619Y-70452380D01*
X141404761Y-70404761D01*
X141309523Y-70309523D01*
X141261904Y-70214285D01*
X141214285Y-70023809D01*
X141214285Y-69880952D01*
X141261904Y-69690476D01*
X141309523Y-69595238D01*
X141404761Y-69500000D01*
X141547619Y-69452380D01*
X141642857Y-69452380D01*
X141785714Y-69500000D01*
X141833333Y-69547619D01*
X142690476Y-69785714D02*
X142690476Y-70452380D01*
X142452380Y-69404761D02*
X142214285Y-70119047D01*
X142833333Y-70119047D01*
D20*
X141839285Y-66732142D02*
X142339285Y-66732142D01*
X141553571Y-66910714D02*
X142089285Y-67089285D01*
X142089285Y-66625000D01*
X141589285Y-66410714D02*
X141589285Y-65910714D01*
X142339285Y-66232142D01*
X141589285Y-65482142D02*
X141589285Y-65410714D01*
X141625000Y-65339285D01*
X141660714Y-65303571D01*
X141732142Y-65267857D01*
X141875000Y-65232142D01*
X142053571Y-65232142D01*
X142196428Y-65267857D01*
X142267857Y-65303571D01*
X142303571Y-65339285D01*
X142339285Y-65410714D01*
X142339285Y-65482142D01*
X142303571Y-65553571D01*
X142267857Y-65589285D01*
X142196428Y-65625000D01*
X142053571Y-65660714D01*
X141875000Y-65660714D01*
X141732142Y-65625000D01*
X141660714Y-65589285D01*
X141625000Y-65553571D01*
X141589285Y-65482142D01*
X141839285Y-64910714D02*
X142589285Y-64910714D01*
X141875000Y-64910714D02*
X141839285Y-64839285D01*
X141839285Y-64696428D01*
X141875000Y-64625000D01*
X141910714Y-64589285D01*
X141982142Y-64553571D01*
X142196428Y-64553571D01*
X142267857Y-64589285D01*
X142303571Y-64625000D01*
X142339285Y-64696428D01*
X142339285Y-64839285D01*
X142303571Y-64910714D01*
X141946428Y-63982142D02*
X141946428Y-64232142D01*
X142339285Y-64232142D02*
X141589285Y-64232142D01*
X141589285Y-63875000D01*
D10*
X127833333Y-116857142D02*
X127785714Y-116904761D01*
X127642857Y-116952380D01*
X127547619Y-116952380D01*
X127404761Y-116904761D01*
X127309523Y-116809523D01*
X127261904Y-116714285D01*
X127214285Y-116523809D01*
X127214285Y-116380952D01*
X127261904Y-116190476D01*
X127309523Y-116095238D01*
X127404761Y-116000000D01*
X127547619Y-115952380D01*
X127642857Y-115952380D01*
X127785714Y-116000000D01*
X127833333Y-116047619D01*
X128166666Y-115952380D02*
X128785714Y-115952380D01*
X128452380Y-116333333D01*
X128595238Y-116333333D01*
X128690476Y-116380952D01*
X128738095Y-116428571D01*
X128785714Y-116523809D01*
X128785714Y-116761904D01*
X128738095Y-116857142D01*
X128690476Y-116904761D01*
X128595238Y-116952380D01*
X128309523Y-116952380D01*
X128214285Y-116904761D01*
X128166666Y-116857142D01*
D19*
X128307619Y-113228571D02*
X128307619Y-113617142D01*
X128307619Y-113422857D02*
X127627619Y-113422857D01*
X127724761Y-113487619D01*
X127789523Y-113552380D01*
X127821904Y-113617142D01*
X127627619Y-112807619D02*
X127627619Y-112742857D01*
X127660000Y-112678095D01*
X127692380Y-112645714D01*
X127757142Y-112613333D01*
X127886666Y-112580952D01*
X128048571Y-112580952D01*
X128178095Y-112613333D01*
X128242857Y-112645714D01*
X128275238Y-112678095D01*
X128307619Y-112742857D01*
X128307619Y-112807619D01*
X128275238Y-112872380D01*
X128242857Y-112904761D01*
X128178095Y-112937142D01*
X128048571Y-112969523D01*
X127886666Y-112969523D01*
X127757142Y-112937142D01*
X127692380Y-112904761D01*
X127660000Y-112872380D01*
X127627619Y-112807619D01*
X127854285Y-112289523D02*
X128307619Y-112289523D01*
X127919047Y-112289523D02*
X127886666Y-112257142D01*
X127854285Y-112192380D01*
X127854285Y-112095238D01*
X127886666Y-112030476D01*
X127951428Y-111998095D01*
X128307619Y-111998095D01*
X127951428Y-111447619D02*
X127951428Y-111674285D01*
X128307619Y-111674285D02*
X127627619Y-111674285D01*
X127627619Y-111350476D01*
D10*
X131833333Y-116857142D02*
X131785714Y-116904761D01*
X131642857Y-116952380D01*
X131547619Y-116952380D01*
X131404761Y-116904761D01*
X131309523Y-116809523D01*
X131261904Y-116714285D01*
X131214285Y-116523809D01*
X131214285Y-116380952D01*
X131261904Y-116190476D01*
X131309523Y-116095238D01*
X131404761Y-116000000D01*
X131547619Y-115952380D01*
X131642857Y-115952380D01*
X131785714Y-116000000D01*
X131833333Y-116047619D01*
X132214285Y-116047619D02*
X132261904Y-116000000D01*
X132357142Y-115952380D01*
X132595238Y-115952380D01*
X132690476Y-116000000D01*
X132738095Y-116047619D01*
X132785714Y-116142857D01*
X132785714Y-116238095D01*
X132738095Y-116380952D01*
X132166666Y-116952380D01*
X132785714Y-116952380D01*
D19*
X131692380Y-113779047D02*
X131660000Y-113746666D01*
X131627619Y-113681904D01*
X131627619Y-113520000D01*
X131660000Y-113455238D01*
X131692380Y-113422857D01*
X131757142Y-113390476D01*
X131821904Y-113390476D01*
X131919047Y-113422857D01*
X132307619Y-113811428D01*
X132307619Y-113390476D01*
X132242857Y-113099047D02*
X132275238Y-113066666D01*
X132307619Y-113099047D01*
X132275238Y-113131428D01*
X132242857Y-113099047D01*
X132307619Y-113099047D01*
X131692380Y-112807619D02*
X131660000Y-112775238D01*
X131627619Y-112710476D01*
X131627619Y-112548571D01*
X131660000Y-112483809D01*
X131692380Y-112451428D01*
X131757142Y-112419047D01*
X131821904Y-112419047D01*
X131919047Y-112451428D01*
X132307619Y-112840000D01*
X132307619Y-112419047D01*
X131854285Y-111836190D02*
X132307619Y-111836190D01*
X131854285Y-112127619D02*
X132210476Y-112127619D01*
X132275238Y-112095238D01*
X132307619Y-112030476D01*
X132307619Y-111933333D01*
X132275238Y-111868571D01*
X132242857Y-111836190D01*
X131951428Y-111285714D02*
X131951428Y-111512380D01*
X132307619Y-111512380D02*
X131627619Y-111512380D01*
X131627619Y-111188571D01*
D10*
X144833333Y-116857142D02*
X144785714Y-116904761D01*
X144642857Y-116952380D01*
X144547619Y-116952380D01*
X144404761Y-116904761D01*
X144309523Y-116809523D01*
X144261904Y-116714285D01*
X144214285Y-116523809D01*
X144214285Y-116380952D01*
X144261904Y-116190476D01*
X144309523Y-116095238D01*
X144404761Y-116000000D01*
X144547619Y-115952380D01*
X144642857Y-115952380D01*
X144785714Y-116000000D01*
X144833333Y-116047619D01*
X145785714Y-116952380D02*
X145214285Y-116952380D01*
X145500000Y-116952380D02*
X145500000Y-115952380D01*
X145404761Y-116095238D01*
X145309523Y-116190476D01*
X145214285Y-116238095D01*
D20*
X145307619Y-112404761D02*
X145307619Y-112793333D01*
X145307619Y-112599047D02*
X144627619Y-112599047D01*
X144724761Y-112663809D01*
X144789523Y-112728571D01*
X144821904Y-112793333D01*
X144854285Y-111821904D02*
X145307619Y-111821904D01*
X144854285Y-112113333D02*
X145210476Y-112113333D01*
X145275238Y-112080952D01*
X145307619Y-112016190D01*
X145307619Y-111919047D01*
X145275238Y-111854285D01*
X145242857Y-111821904D01*
X144951428Y-111271428D02*
X144951428Y-111498095D01*
X145307619Y-111498095D02*
X144627619Y-111498095D01*
X144627619Y-111174285D01*
M02*
