G04 #@! TF.GenerationSoftware,KiCad,Pcbnew,5.1.5-1.fc31*
G04 #@! TF.CreationDate,2020-05-07T20:15:09-05:00*
G04 #@! TF.ProjectId,Nucleo32TNC,4e75636c-656f-4333-9254-4e432e6b6963,B*
G04 #@! TF.SameCoordinates,Original*
G04 #@! TF.FileFunction,Profile,NP*
%FSLAX46Y46*%
G04 Gerber Fmt 4.6, Leading zero omitted, Abs format (unit mm)*
G04 Created by KiCad (PCBNEW 5.1.5-1.fc31) date 2020-05-07 20:15:09*
%MOMM*%
%LPD*%
G04 APERTURE LIST*
%ADD10C,0.050000*%
%ADD11C,0.000100*%
G04 APERTURE END LIST*
D10*
X126000000Y-50000000D02*
X122500000Y-50000000D01*
X180000000Y-50000000D02*
X183500000Y-50000000D01*
X180000000Y-149000000D02*
X183500000Y-149000000D01*
X122500000Y-149000000D02*
X126000000Y-149000000D01*
X146850000Y-149000000D02*
X156500000Y-149000000D01*
X156500000Y-149000000D02*
X180000000Y-149000000D01*
X129650000Y-149000000D02*
X126000000Y-149000000D01*
X171000000Y-50000000D02*
X180000000Y-50000000D01*
X120000000Y-122500000D02*
X120000000Y-146500000D01*
X186000000Y-122500000D02*
X186000000Y-146500000D01*
X122500000Y-149000000D02*
G75*
G02X120000000Y-146500000I0J2500000D01*
G01*
X186000000Y-122500000D02*
X186000000Y-52500000D01*
X126000000Y-50000000D02*
X171000000Y-50000000D01*
X120000000Y-122500000D02*
X120000000Y-52500000D01*
X186000000Y-146500000D02*
G75*
G02X183500000Y-149000000I-2500000J0D01*
G01*
X183500000Y-50000000D02*
G75*
G02X186000000Y-52500000I0J-2500000D01*
G01*
X120000000Y-52500000D02*
G75*
G02X122500000Y-50000000I2500000J0D01*
G01*
D11*
X140250000Y-149000000D02*
X146850000Y-149000000D01*
X140250000Y-147700000D02*
X140250000Y-149000000D01*
X135750000Y-147700000D02*
X140250000Y-147700000D01*
X135750000Y-149000000D02*
X135750000Y-147700000D01*
X129650000Y-149000000D02*
X135750000Y-149000000D01*
M02*
