M48
; DRILL file {KiCad 5.1.5-1.fc31} date Tue 05 May 2020 09:48:24 PM CDT
; FORMAT={-:-/ absolute / inch / decimal}
; #@! TF.CreationDate,2020-05-05T21:48:24-05:00
; #@! TF.GenerationSoftware,Kicad,Pcbnew,5.1.5-1.fc31
FMAT,2
INCH
T1C0.0157
T2C0.0295
T3C0.0315
T4C0.0354
T5C0.0390
T6C0.0402
T7C0.0433
T8C0.0512
T9C0.1260
T10C0.0433
%
G90
G05
T1
X5.8661Y-3.8583
X6.2795Y-3.2677
X6.4085Y-3.7598
T2
X5.1756Y-5.1772
X5.2256Y-5.1772
X5.2756Y-5.1772
X5.5102Y-5.1772
X5.5602Y-5.1772
X5.6102Y-5.1772
T3
X5.2559Y-3.4252
X5.2559Y-3.7252
X5.0984Y-2.4409
X5.0984Y-2.7409
X5.4921Y-4.6803
X5.4921Y-4.9803
X6.5551Y-3.0315
X6.5551Y-3.1299
X5.1575Y-4.6803
X5.1575Y-4.9803
X5.3543Y-3.8583
X5.3543Y-4.0551
X5.2756Y-2.4803
X5.2756Y-2.6772
X5.2803Y-2.2685
X5.5803Y-2.2685
X5.9252Y-2.4409
X5.9252Y-2.7409
X5.9646Y-3.4646
X5.9646Y-3.7646
X5.5906Y-2.4803
X5.5906Y-2.6772
X6.437Y-2.3181
X6.437Y-2.6181
X5.0394Y-3.937
X5.0394Y-4.237
X6.6882Y-3.5236
X6.9882Y-3.5236
X5.7677Y-2.4362
X5.7677Y-2.7362
X5.0984Y-3.4252
X5.0984Y-3.7252
X5.2953Y-4.685
X5.2953Y-4.985
X5.4134Y-3.4205
X5.4134Y-3.7205
X5.0591Y-3.0512
X5.0591Y-3.248
X5.5118Y-3.8583
X5.5118Y-4.0551
X6.1811Y-2.3181
X6.1811Y-2.6181
X5.5512Y-3.4252
X5.5512Y-3.5236
X5.3937Y-4.2079
X5.3937Y-4.5079
X5.8465Y-4.685
X5.8465Y-4.985
X5.2559Y-3.0071
X5.2559Y-3.3071
X5.3559Y-3.0071
X5.3559Y-3.3071
X5.4559Y-3.0071
X5.4559Y-3.3071
X5.5559Y-3.0071
X5.5559Y-3.3071
X5.6559Y-3.0071
X5.6559Y-3.3071
X5.7559Y-3.0071
X5.7559Y-3.3071
X5.8559Y-3.0071
X5.8559Y-3.3071
X5.8071Y-3.4598
X5.8071Y-3.7598
X6.6929Y-2.3181
X6.6929Y-2.6181
X5.9449Y-3.937
X5.9449Y-4.1339
X5.1969Y-3.937
X5.1969Y-4.237
X5.5315Y-4.2126
X5.5315Y-4.5126
X5.6496Y-4.685
X5.6496Y-4.985
X5.4331Y-2.4803
X5.4331Y-2.6772
X5.0394Y-4.3307
X5.0394Y-4.5276
X5.0197Y-4.6803
X5.0197Y-4.9803
X6.6882Y-3.3268
X6.9882Y-3.3268
X5.7087Y-4.311
X5.7087Y-4.5079
X6.6882Y-2.8299
X6.6882Y-2.9299
X6.6882Y-3.0299
X6.6882Y-3.1299
X6.9882Y-2.8299
X6.9882Y-2.9299
X6.9882Y-3.0299
X6.9882Y-3.1299
X5.1969Y-4.3307
X5.1969Y-4.5276
X5.9449Y-4.311
X5.9449Y-4.5079
T4
X6.4354Y-2.1457
X6.5354Y-2.1457
X6.6913Y-2.1457
X6.7913Y-2.1457
X6.1795Y-2.1457
X6.2795Y-2.1457
X5.3921Y-2.1457
X5.4921Y-2.1457
T5
X5.8268Y-5.748
X6.0039Y-5.748
T6
X6.2256Y-4.1006
X6.2256Y-4.3006
X6.2256Y-4.5006
X6.2256Y-4.7006
X6.2256Y-4.9006
X6.2256Y-5.1006
X6.2256Y-5.3006
X6.2256Y-5.5006
X6.2453Y-4.2006
X6.2453Y-4.4006
X6.2453Y-4.6006
X6.2453Y-4.8006
X6.2453Y-5.0006
X6.2453Y-5.2006
X6.2453Y-5.4006
X6.8256Y-4.2006
X6.8256Y-4.4006
X6.8256Y-4.6006
X6.8256Y-4.8006
X6.8256Y-5.0006
X6.8256Y-5.2006
X6.8256Y-5.4006
X6.8453Y-4.1006
X6.8453Y-4.3006
X6.8453Y-4.5006
X6.8453Y-4.7006
X6.8453Y-4.9006
X6.8453Y-5.1006
X6.8453Y-5.3006
X6.8453Y-5.5006
T7
X5.2441Y-5.752
X5.3701Y-5.4331
X5.4961Y-5.4331
X5.5748Y-5.5551
X5.6102Y-5.752
T8
X5.7772Y-5.65
X6.0531Y-5.65
T9
X7.1654Y-2.126
X7.1654Y-5.7087
X4.8819Y-5.7087
X4.8819Y-2.126
T10
X5.4331Y-5.5551
X5.4331Y-5.752
T0
M30
