G04 #@! TF.GenerationSoftware,KiCad,Pcbnew,5.1.5-1.fc31*
G04 #@! TF.CreationDate,2020-05-07T20:15:09-05:00*
G04 #@! TF.ProjectId,Nucleo32TNC,4e75636c-656f-4333-9254-4e432e6b6963,B*
G04 #@! TF.SameCoordinates,Original*
G04 #@! TF.FileFunction,Other,Fab,Top*
%FSLAX46Y46*%
G04 Gerber Fmt 4.6, Leading zero omitted, Abs format (unit mm)*
G04 Created by KiCad (PCBNEW 5.1.5-1.fc31) date 2020-05-07 20:15:09*
%MOMM*%
%LPD*%
G04 APERTURE LIST*
%ADD10C,0.150000*%
%ADD11C,0.200000*%
%ADD12C,0.127000*%
%ADD13C,0.100000*%
%ADD14C,0.015000*%
%ADD15C,0.120000*%
%ADD16C,0.102000*%
G04 APERTURE END LIST*
D10*
X177404761Y-157952380D02*
X177404761Y-156952380D01*
X177785714Y-156952380D01*
X177880952Y-157000000D01*
X177928571Y-157047619D01*
X177976190Y-157142857D01*
X177976190Y-157285714D01*
X177928571Y-157380952D01*
X177880952Y-157428571D01*
X177785714Y-157476190D01*
X177404761Y-157476190D01*
X178547619Y-157952380D02*
X178452380Y-157904761D01*
X178404761Y-157809523D01*
X178404761Y-156952380D01*
X179309523Y-157904761D02*
X179214285Y-157952380D01*
X179023809Y-157952380D01*
X178928571Y-157904761D01*
X178880952Y-157809523D01*
X178880952Y-157428571D01*
X178928571Y-157333333D01*
X179023809Y-157285714D01*
X179214285Y-157285714D01*
X179309523Y-157333333D01*
X179357142Y-157428571D01*
X179357142Y-157523809D01*
X178880952Y-157619047D01*
X180214285Y-157952380D02*
X180214285Y-157428571D01*
X180166666Y-157333333D01*
X180071428Y-157285714D01*
X179880952Y-157285714D01*
X179785714Y-157333333D01*
X180214285Y-157904761D02*
X180119047Y-157952380D01*
X179880952Y-157952380D01*
X179785714Y-157904761D01*
X179738095Y-157809523D01*
X179738095Y-157714285D01*
X179785714Y-157619047D01*
X179880952Y-157571428D01*
X180119047Y-157571428D01*
X180214285Y-157523809D01*
X180642857Y-157904761D02*
X180738095Y-157952380D01*
X180928571Y-157952380D01*
X181023809Y-157904761D01*
X181071428Y-157809523D01*
X181071428Y-157761904D01*
X181023809Y-157666666D01*
X180928571Y-157619047D01*
X180785714Y-157619047D01*
X180690476Y-157571428D01*
X180642857Y-157476190D01*
X180642857Y-157428571D01*
X180690476Y-157333333D01*
X180785714Y-157285714D01*
X180928571Y-157285714D01*
X181023809Y-157333333D01*
X181880952Y-157904761D02*
X181785714Y-157952380D01*
X181595238Y-157952380D01*
X181500000Y-157904761D01*
X181452380Y-157809523D01*
X181452380Y-157428571D01*
X181500000Y-157333333D01*
X181595238Y-157285714D01*
X181785714Y-157285714D01*
X181880952Y-157333333D01*
X181928571Y-157428571D01*
X181928571Y-157523809D01*
X181452380Y-157619047D01*
X183119047Y-157285714D02*
X183119047Y-158285714D01*
X183119047Y-157333333D02*
X183214285Y-157285714D01*
X183404761Y-157285714D01*
X183500000Y-157333333D01*
X183547619Y-157380952D01*
X183595238Y-157476190D01*
X183595238Y-157761904D01*
X183547619Y-157857142D01*
X183500000Y-157904761D01*
X183404761Y-157952380D01*
X183214285Y-157952380D01*
X183119047Y-157904761D01*
X184166666Y-157952380D02*
X184071428Y-157904761D01*
X184023809Y-157809523D01*
X184023809Y-156952380D01*
X184976190Y-157952380D02*
X184976190Y-157428571D01*
X184928571Y-157333333D01*
X184833333Y-157285714D01*
X184642857Y-157285714D01*
X184547619Y-157333333D01*
X184976190Y-157904761D02*
X184880952Y-157952380D01*
X184642857Y-157952380D01*
X184547619Y-157904761D01*
X184500000Y-157809523D01*
X184500000Y-157714285D01*
X184547619Y-157619047D01*
X184642857Y-157571428D01*
X184880952Y-157571428D01*
X184976190Y-157523809D01*
X185880952Y-157904761D02*
X185785714Y-157952380D01*
X185595238Y-157952380D01*
X185500000Y-157904761D01*
X185452380Y-157857142D01*
X185404761Y-157761904D01*
X185404761Y-157476190D01*
X185452380Y-157380952D01*
X185500000Y-157333333D01*
X185595238Y-157285714D01*
X185785714Y-157285714D01*
X185880952Y-157333333D01*
X186690476Y-157904761D02*
X186595238Y-157952380D01*
X186404761Y-157952380D01*
X186309523Y-157904761D01*
X186261904Y-157809523D01*
X186261904Y-157428571D01*
X186309523Y-157333333D01*
X186404761Y-157285714D01*
X186595238Y-157285714D01*
X186690476Y-157333333D01*
X186738095Y-157428571D01*
X186738095Y-157523809D01*
X186261904Y-157619047D01*
X187928571Y-157952380D02*
X187928571Y-156952380D01*
X188309523Y-156952380D01*
X188404761Y-157000000D01*
X188452380Y-157047619D01*
X188500000Y-157142857D01*
X188500000Y-157285714D01*
X188452380Y-157380952D01*
X188404761Y-157428571D01*
X188309523Y-157476190D01*
X187928571Y-157476190D01*
X188928571Y-157952380D02*
X188928571Y-157285714D01*
X188928571Y-157476190D02*
X188976190Y-157380952D01*
X189023809Y-157333333D01*
X189119047Y-157285714D01*
X189214285Y-157285714D01*
X189690476Y-157952380D02*
X189595238Y-157904761D01*
X189547619Y-157857142D01*
X189500000Y-157761904D01*
X189500000Y-157476190D01*
X189547619Y-157380952D01*
X189595238Y-157333333D01*
X189690476Y-157285714D01*
X189833333Y-157285714D01*
X189928571Y-157333333D01*
X189976190Y-157380952D01*
X190023809Y-157476190D01*
X190023809Y-157761904D01*
X189976190Y-157857142D01*
X189928571Y-157904761D01*
X189833333Y-157952380D01*
X189690476Y-157952380D01*
X190880952Y-157952380D02*
X190880952Y-156952380D01*
X190880952Y-157904761D02*
X190785714Y-157952380D01*
X190595238Y-157952380D01*
X190500000Y-157904761D01*
X190452380Y-157857142D01*
X190404761Y-157761904D01*
X190404761Y-157476190D01*
X190452380Y-157380952D01*
X190500000Y-157333333D01*
X190595238Y-157285714D01*
X190785714Y-157285714D01*
X190880952Y-157333333D01*
X191785714Y-157285714D02*
X191785714Y-157952380D01*
X191357142Y-157285714D02*
X191357142Y-157809523D01*
X191404761Y-157904761D01*
X191500000Y-157952380D01*
X191642857Y-157952380D01*
X191738095Y-157904761D01*
X191785714Y-157857142D01*
X192690476Y-157904761D02*
X192595238Y-157952380D01*
X192404761Y-157952380D01*
X192309523Y-157904761D01*
X192261904Y-157857142D01*
X192214285Y-157761904D01*
X192214285Y-157476190D01*
X192261904Y-157380952D01*
X192309523Y-157333333D01*
X192404761Y-157285714D01*
X192595238Y-157285714D01*
X192690476Y-157333333D01*
X192976190Y-157285714D02*
X193357142Y-157285714D01*
X193119047Y-156952380D02*
X193119047Y-157809523D01*
X193166666Y-157904761D01*
X193261904Y-157952380D01*
X193357142Y-157952380D01*
X193690476Y-157952380D02*
X193690476Y-157285714D01*
X193690476Y-156952380D02*
X193642857Y-157000000D01*
X193690476Y-157047619D01*
X193738095Y-157000000D01*
X193690476Y-156952380D01*
X193690476Y-157047619D01*
X194309523Y-157952380D02*
X194214285Y-157904761D01*
X194166666Y-157857142D01*
X194119047Y-157761904D01*
X194119047Y-157476190D01*
X194166666Y-157380952D01*
X194214285Y-157333333D01*
X194309523Y-157285714D01*
X194452380Y-157285714D01*
X194547619Y-157333333D01*
X194595238Y-157380952D01*
X194642857Y-157476190D01*
X194642857Y-157761904D01*
X194595238Y-157857142D01*
X194547619Y-157904761D01*
X194452380Y-157952380D01*
X194309523Y-157952380D01*
X195071428Y-157285714D02*
X195071428Y-157952380D01*
X195071428Y-157380952D02*
X195119047Y-157333333D01*
X195214285Y-157285714D01*
X195357142Y-157285714D01*
X195452380Y-157333333D01*
X195500000Y-157428571D01*
X195500000Y-157952380D01*
X197309523Y-157857142D02*
X197261904Y-157904761D01*
X197119047Y-157952380D01*
X197023809Y-157952380D01*
X196880952Y-157904761D01*
X196785714Y-157809523D01*
X196738095Y-157714285D01*
X196690476Y-157523809D01*
X196690476Y-157380952D01*
X196738095Y-157190476D01*
X196785714Y-157095238D01*
X196880952Y-157000000D01*
X197023809Y-156952380D01*
X197119047Y-156952380D01*
X197261904Y-157000000D01*
X197309523Y-157047619D01*
X197880952Y-157952380D02*
X197785714Y-157904761D01*
X197738095Y-157857142D01*
X197690476Y-157761904D01*
X197690476Y-157476190D01*
X197738095Y-157380952D01*
X197785714Y-157333333D01*
X197880952Y-157285714D01*
X198023809Y-157285714D01*
X198119047Y-157333333D01*
X198166666Y-157380952D01*
X198214285Y-157476190D01*
X198214285Y-157761904D01*
X198166666Y-157857142D01*
X198119047Y-157904761D01*
X198023809Y-157952380D01*
X197880952Y-157952380D01*
X199071428Y-157952380D02*
X199071428Y-156952380D01*
X199071428Y-157904761D02*
X198976190Y-157952380D01*
X198785714Y-157952380D01*
X198690476Y-157904761D01*
X198642857Y-157857142D01*
X198595238Y-157761904D01*
X198595238Y-157476190D01*
X198642857Y-157380952D01*
X198690476Y-157333333D01*
X198785714Y-157285714D01*
X198976190Y-157285714D01*
X199071428Y-157333333D01*
X199928571Y-157904761D02*
X199833333Y-157952380D01*
X199642857Y-157952380D01*
X199547619Y-157904761D01*
X199499999Y-157809523D01*
X199499999Y-157428571D01*
X199547619Y-157333333D01*
X199642857Y-157285714D01*
X199833333Y-157285714D01*
X199928571Y-157333333D01*
X199976190Y-157428571D01*
X199976190Y-157523809D01*
X199499999Y-157619047D01*
X201166666Y-157952380D02*
X201166666Y-156952380D01*
X201595238Y-157952380D02*
X201595238Y-157428571D01*
X201547619Y-157333333D01*
X201452380Y-157285714D01*
X201309523Y-157285714D01*
X201214285Y-157333333D01*
X201166666Y-157380952D01*
X202452380Y-157904761D02*
X202357142Y-157952380D01*
X202166666Y-157952380D01*
X202071428Y-157904761D01*
X202023809Y-157809523D01*
X202023809Y-157428571D01*
X202071428Y-157333333D01*
X202166666Y-157285714D01*
X202357142Y-157285714D01*
X202452380Y-157333333D01*
X202499999Y-157428571D01*
X202499999Y-157523809D01*
X202023809Y-157619047D01*
X202928571Y-157952380D02*
X202928571Y-157285714D01*
X202928571Y-157476190D02*
X202976190Y-157380952D01*
X203023809Y-157333333D01*
X203119047Y-157285714D01*
X203214285Y-157285714D01*
X203928571Y-157904761D02*
X203833333Y-157952380D01*
X203642857Y-157952380D01*
X203547619Y-157904761D01*
X203499999Y-157809523D01*
X203499999Y-157428571D01*
X203547619Y-157333333D01*
X203642857Y-157285714D01*
X203833333Y-157285714D01*
X203928571Y-157333333D01*
X203976190Y-157428571D01*
X203976190Y-157523809D01*
X203499999Y-157619047D01*
X205309523Y-157952380D02*
X205214285Y-157904761D01*
X205166666Y-157857142D01*
X205119047Y-157761904D01*
X205119047Y-157476190D01*
X205166666Y-157380952D01*
X205214285Y-157333333D01*
X205309523Y-157285714D01*
X205452380Y-157285714D01*
X205547619Y-157333333D01*
X205595238Y-157380952D01*
X205642857Y-157476190D01*
X205642857Y-157761904D01*
X205595238Y-157857142D01*
X205547619Y-157904761D01*
X205452380Y-157952380D01*
X205309523Y-157952380D01*
X206071428Y-157285714D02*
X206071428Y-157952380D01*
X206071428Y-157380952D02*
X206119047Y-157333333D01*
X206214285Y-157285714D01*
X206357142Y-157285714D01*
X206452380Y-157333333D01*
X206499999Y-157428571D01*
X206499999Y-157952380D01*
X207595238Y-157285714D02*
X207976190Y-157285714D01*
X207738095Y-157952380D02*
X207738095Y-157095238D01*
X207785714Y-157000000D01*
X207880952Y-156952380D01*
X207976190Y-156952380D01*
X208309523Y-157952380D02*
X208309523Y-157285714D01*
X208309523Y-157476190D02*
X208357142Y-157380952D01*
X208404761Y-157333333D01*
X208499999Y-157285714D01*
X208595238Y-157285714D01*
X209071428Y-157952380D02*
X208976190Y-157904761D01*
X208928571Y-157857142D01*
X208880952Y-157761904D01*
X208880952Y-157476190D01*
X208928571Y-157380952D01*
X208976190Y-157333333D01*
X209071428Y-157285714D01*
X209214285Y-157285714D01*
X209309523Y-157333333D01*
X209357142Y-157380952D01*
X209404761Y-157476190D01*
X209404761Y-157761904D01*
X209357142Y-157857142D01*
X209309523Y-157904761D01*
X209214285Y-157952380D01*
X209071428Y-157952380D01*
X209833333Y-157285714D02*
X209833333Y-157952380D01*
X209833333Y-157380952D02*
X209880952Y-157333333D01*
X209976190Y-157285714D01*
X210119047Y-157285714D01*
X210214285Y-157333333D01*
X210261904Y-157428571D01*
X210261904Y-157952380D01*
X210595238Y-157285714D02*
X210976190Y-157285714D01*
X210738095Y-156952380D02*
X210738095Y-157809523D01*
X210785714Y-157904761D01*
X210880952Y-157952380D01*
X210976190Y-157952380D01*
X212023809Y-157904761D02*
X212119047Y-157952380D01*
X212309523Y-157952380D01*
X212404761Y-157904761D01*
X212452380Y-157809523D01*
X212452380Y-157761904D01*
X212404761Y-157666666D01*
X212309523Y-157619047D01*
X212166666Y-157619047D01*
X212071428Y-157571428D01*
X212023809Y-157476190D01*
X212023809Y-157428571D01*
X212071428Y-157333333D01*
X212166666Y-157285714D01*
X212309523Y-157285714D01*
X212404761Y-157333333D01*
X212880952Y-157952380D02*
X212880952Y-157285714D01*
X212880952Y-156952380D02*
X212833333Y-157000000D01*
X212880952Y-157047619D01*
X212928571Y-157000000D01*
X212880952Y-156952380D01*
X212880952Y-157047619D01*
X213499999Y-157952380D02*
X213404761Y-157904761D01*
X213357142Y-157809523D01*
X213357142Y-156952380D01*
X213880952Y-157952380D02*
X213880952Y-156952380D01*
X213976190Y-157571428D02*
X214261904Y-157952380D01*
X214261904Y-157285714D02*
X213880952Y-157666666D01*
X214642857Y-157904761D02*
X214738095Y-157952380D01*
X214928571Y-157952380D01*
X215023809Y-157904761D01*
X215071428Y-157809523D01*
X215071428Y-157761904D01*
X215023809Y-157666666D01*
X214928571Y-157619047D01*
X214785714Y-157619047D01*
X214690476Y-157571428D01*
X214642857Y-157476190D01*
X214642857Y-157428571D01*
X214690476Y-157333333D01*
X214785714Y-157285714D01*
X214928571Y-157285714D01*
X215023809Y-157333333D01*
X215928571Y-157904761D02*
X215833333Y-157952380D01*
X215642857Y-157952380D01*
X215547619Y-157904761D01*
X215499999Y-157857142D01*
X215452380Y-157761904D01*
X215452380Y-157476190D01*
X215499999Y-157380952D01*
X215547619Y-157333333D01*
X215642857Y-157285714D01*
X215833333Y-157285714D01*
X215928571Y-157333333D01*
X216357142Y-157952380D02*
X216357142Y-157285714D01*
X216357142Y-157476190D02*
X216404761Y-157380952D01*
X216452380Y-157333333D01*
X216547619Y-157285714D01*
X216642857Y-157285714D01*
X217357142Y-157904761D02*
X217261904Y-157952380D01*
X217071428Y-157952380D01*
X216976190Y-157904761D01*
X216928571Y-157809523D01*
X216928571Y-157428571D01*
X216976190Y-157333333D01*
X217071428Y-157285714D01*
X217261904Y-157285714D01*
X217357142Y-157333333D01*
X217404761Y-157428571D01*
X217404761Y-157523809D01*
X216928571Y-157619047D01*
X218214285Y-157904761D02*
X218119047Y-157952380D01*
X217928571Y-157952380D01*
X217833333Y-157904761D01*
X217785714Y-157809523D01*
X217785714Y-157428571D01*
X217833333Y-157333333D01*
X217928571Y-157285714D01*
X218119047Y-157285714D01*
X218214285Y-157333333D01*
X218261904Y-157428571D01*
X218261904Y-157523809D01*
X217785714Y-157619047D01*
X218690476Y-157285714D02*
X218690476Y-157952380D01*
X218690476Y-157380952D02*
X218738095Y-157333333D01*
X218833333Y-157285714D01*
X218976190Y-157285714D01*
X219071428Y-157333333D01*
X219119047Y-157428571D01*
X219119047Y-157952380D01*
X219595238Y-157857142D02*
X219642857Y-157904761D01*
X219595238Y-157952380D01*
X219547619Y-157904761D01*
X219595238Y-157857142D01*
X219595238Y-157952380D01*
X168250000Y-148000000D02*
X191750000Y-156500000D01*
X168150581Y-147250000D02*
G75*
G03X168150581Y-147250000I-2150581J0D01*
G01*
D11*
X176100000Y-140000000D02*
G75*
G03X176100000Y-140000000I-100000J0D01*
G01*
D12*
X175270000Y-98355000D02*
X175270000Y-148645000D01*
X156730000Y-98355000D02*
X175270000Y-98355000D01*
X156730000Y-148645000D02*
X156730000Y-98355000D01*
X175270000Y-148645000D02*
X156730000Y-148645000D01*
D13*
X156960000Y-54500000D02*
X156960000Y-54500000D01*
X156960000Y-50690000D02*
X156960000Y-54500000D01*
X156960000Y-50690000D02*
X156960000Y-50690000D01*
X156960000Y-54500000D02*
X156960000Y-50690000D01*
X159500000Y-54500000D02*
X159500000Y-54500000D01*
X159500000Y-50690000D02*
X159500000Y-54500000D01*
X159500000Y-50690000D02*
X159500000Y-50690000D01*
X159500000Y-54500000D02*
X159500000Y-50690000D01*
X156730000Y-50690000D02*
X156330000Y-50690000D01*
X156730000Y-49690000D02*
X156730000Y-50690000D01*
X156330000Y-49690000D02*
X156730000Y-49690000D01*
X156330000Y-50690000D02*
X156330000Y-49690000D01*
X159730000Y-50690000D02*
X156730000Y-50690000D01*
X156730000Y-50690000D02*
X156730000Y-46890000D01*
X159730000Y-50690000D02*
X159730000Y-46890000D01*
X156730000Y-46890000D02*
G75*
G02X159730000Y-46890000I1500000J0D01*
G01*
X163460000Y-54500000D02*
X163460000Y-54500000D01*
X163460000Y-50690000D02*
X163460000Y-54500000D01*
X163460000Y-50690000D02*
X163460000Y-50690000D01*
X163460000Y-54500000D02*
X163460000Y-50690000D01*
X166000000Y-54500000D02*
X166000000Y-54500000D01*
X166000000Y-50690000D02*
X166000000Y-54500000D01*
X166000000Y-50690000D02*
X166000000Y-50690000D01*
X166000000Y-54500000D02*
X166000000Y-50690000D01*
X163230000Y-50690000D02*
X162830000Y-50690000D01*
X163230000Y-49690000D02*
X163230000Y-50690000D01*
X162830000Y-49690000D02*
X163230000Y-49690000D01*
X162830000Y-50690000D02*
X162830000Y-49690000D01*
X166230000Y-50690000D02*
X163230000Y-50690000D01*
X163230000Y-50690000D02*
X163230000Y-46890000D01*
X166230000Y-50690000D02*
X166230000Y-46890000D01*
X163230000Y-46890000D02*
G75*
G02X166230000Y-46890000I1500000J0D01*
G01*
X169960000Y-54500000D02*
X169960000Y-54500000D01*
X169960000Y-50690000D02*
X169960000Y-54500000D01*
X169960000Y-50690000D02*
X169960000Y-50690000D01*
X169960000Y-54500000D02*
X169960000Y-50690000D01*
X172500000Y-54500000D02*
X172500000Y-54500000D01*
X172500000Y-50690000D02*
X172500000Y-54500000D01*
X172500000Y-50690000D02*
X172500000Y-50690000D01*
X172500000Y-54500000D02*
X172500000Y-50690000D01*
X169730000Y-50690000D02*
X169330000Y-50690000D01*
X169730000Y-49690000D02*
X169730000Y-50690000D01*
X169330000Y-49690000D02*
X169730000Y-49690000D01*
X169330000Y-50690000D02*
X169330000Y-49690000D01*
X172730000Y-50690000D02*
X169730000Y-50690000D01*
X169730000Y-50690000D02*
X169730000Y-46890000D01*
X172730000Y-50690000D02*
X172730000Y-46890000D01*
X169730000Y-46890000D02*
G75*
G02X172730000Y-46890000I1500000J0D01*
G01*
X134120000Y-57620000D02*
X134780000Y-57620000D01*
X141740000Y-57620000D02*
X141080000Y-57620000D01*
X134780000Y-58870000D02*
X141080000Y-58870000D01*
X134780000Y-56370000D02*
X134780000Y-58870000D01*
X141080000Y-56370000D02*
X134780000Y-56370000D01*
X141080000Y-58870000D02*
X141080000Y-56370000D01*
X149750000Y-99500000D02*
X149750000Y-105500000D01*
X152250000Y-99500000D02*
X149750000Y-99500000D01*
X152250000Y-105500000D02*
X152250000Y-99500000D01*
X149750000Y-105500000D02*
X152250000Y-105500000D01*
X152250000Y-109000000D02*
X149750000Y-109000000D01*
X149750000Y-109000000D02*
X149750000Y-115000000D01*
X149750000Y-115000000D02*
X152250000Y-115000000D01*
X152250000Y-115000000D02*
X152250000Y-109000000D01*
X152000000Y-151850000D02*
X152000000Y-148590000D01*
X148500000Y-151850000D02*
X148500000Y-148590000D01*
X152000000Y-151850000D02*
X148500000Y-151850000D01*
X146800000Y-141800000D02*
X146800000Y-145140000D01*
X154000000Y-141800000D02*
X153700000Y-141800000D01*
X153700000Y-145140000D02*
X146800000Y-145140000D01*
X146500000Y-141800000D02*
X146500000Y-148590000D01*
X154000000Y-148590000D02*
X146500000Y-148590000D01*
X154000000Y-141800000D02*
X154000000Y-148590000D01*
X146800000Y-141800000D02*
X146500000Y-141800000D01*
X153700000Y-141800000D02*
X153700000Y-145140000D01*
D12*
X141000000Y-152000000D02*
X141000000Y-149000000D01*
X135000000Y-152000000D02*
X141000000Y-152000000D01*
X135000000Y-149000000D02*
X135000000Y-152000000D01*
X142300000Y-149000000D02*
X142300000Y-138000000D01*
X141000000Y-149000000D02*
X142300000Y-149000000D01*
X140250000Y-149000000D02*
X141000000Y-149000000D01*
X140250000Y-147700000D02*
X140250000Y-149000000D01*
X135750000Y-147700000D02*
X140250000Y-147700000D01*
X135750000Y-149000000D02*
X135750000Y-147700000D01*
X135000000Y-149000000D02*
X135750000Y-149000000D01*
X133300000Y-149000000D02*
X135000000Y-149000000D01*
X133300000Y-138000000D02*
X142300000Y-138000000D01*
X133300000Y-149000000D02*
X133300000Y-138000000D01*
D13*
X168610000Y-80830000D02*
X178770000Y-80830000D01*
X168610000Y-70550000D02*
X168610000Y-80830000D01*
X178770000Y-70550000D02*
X168610000Y-70550000D01*
X178770000Y-80830000D02*
X178770000Y-70550000D01*
X176865000Y-79770000D02*
X175865000Y-80770000D01*
X176865000Y-70610000D02*
X176865000Y-79770000D01*
X170515000Y-70610000D02*
X176865000Y-70610000D01*
X170515000Y-80770000D02*
X170515000Y-70610000D01*
X175865000Y-80770000D02*
X170515000Y-80770000D01*
X132170000Y-75110000D02*
X132170000Y-85270000D01*
X150070000Y-75110000D02*
X132170000Y-75110000D01*
X150070000Y-85270000D02*
X150070000Y-75110000D01*
X132170000Y-85270000D02*
X150070000Y-85270000D01*
X133230000Y-83365000D02*
X132230000Y-82365000D01*
X150010000Y-83365000D02*
X133230000Y-83365000D01*
X150010000Y-77015000D02*
X150010000Y-83365000D01*
X132230000Y-77015000D02*
X150010000Y-77015000D01*
X132230000Y-82365000D02*
X132230000Y-77015000D01*
X157000000Y-58880000D02*
X157000000Y-59540000D01*
X157000000Y-66500000D02*
X157000000Y-65840000D01*
X155750000Y-59540000D02*
X155750000Y-65840000D01*
X158250000Y-59540000D02*
X155750000Y-59540000D01*
X158250000Y-65840000D02*
X158250000Y-59540000D01*
X155750000Y-65840000D02*
X158250000Y-65840000D01*
X163500000Y-58880000D02*
X163500000Y-59540000D01*
X163500000Y-66500000D02*
X163500000Y-65840000D01*
X162250000Y-59540000D02*
X162250000Y-65840000D01*
X164750000Y-59540000D02*
X162250000Y-59540000D01*
X164750000Y-65840000D02*
X164750000Y-59540000D01*
X162250000Y-65840000D02*
X164750000Y-65840000D01*
X170000000Y-58880000D02*
X170000000Y-59540000D01*
X170000000Y-66500000D02*
X170000000Y-65840000D01*
X168750000Y-59540000D02*
X168750000Y-65840000D01*
X171250000Y-59540000D02*
X168750000Y-59540000D01*
X171250000Y-65840000D02*
X171250000Y-59540000D01*
X168750000Y-65840000D02*
X171250000Y-65840000D01*
X169880000Y-89500000D02*
X170540000Y-89500000D01*
X177500000Y-89500000D02*
X176840000Y-89500000D01*
X170540000Y-90750000D02*
X176840000Y-90750000D01*
X170540000Y-88250000D02*
X170540000Y-90750000D01*
X176840000Y-88250000D02*
X170540000Y-88250000D01*
X176840000Y-90750000D02*
X176840000Y-88250000D01*
X169880000Y-84500000D02*
X170540000Y-84500000D01*
X177500000Y-84500000D02*
X176840000Y-84500000D01*
X170540000Y-85750000D02*
X176840000Y-85750000D01*
X170540000Y-83250000D02*
X170540000Y-85750000D01*
X176840000Y-83250000D02*
X170540000Y-83250000D01*
X176840000Y-85750000D02*
X176840000Y-83250000D01*
X133500000Y-94620000D02*
X133500000Y-93960000D01*
X133500000Y-87000000D02*
X133500000Y-87660000D01*
X134750000Y-93960000D02*
X134750000Y-87660000D01*
X132250000Y-93960000D02*
X134750000Y-93960000D01*
X132250000Y-87660000D02*
X132250000Y-93960000D01*
X134750000Y-87660000D02*
X132250000Y-87660000D01*
X137500000Y-86880000D02*
X137500000Y-87540000D01*
X137500000Y-94500000D02*
X137500000Y-93840000D01*
X136250000Y-87540000D02*
X136250000Y-93840000D01*
X138750000Y-87540000D02*
X136250000Y-87540000D01*
X138750000Y-93840000D02*
X138750000Y-87540000D01*
X136250000Y-93840000D02*
X138750000Y-93840000D01*
X129500000Y-69620000D02*
X129500000Y-68960000D01*
X129500000Y-62000000D02*
X129500000Y-62660000D01*
X130750000Y-68960000D02*
X130750000Y-62660000D01*
X128250000Y-68960000D02*
X130750000Y-68960000D01*
X128250000Y-62660000D02*
X128250000Y-68960000D01*
X130750000Y-62660000D02*
X128250000Y-62660000D01*
X134500000Y-126620000D02*
X134500000Y-125960000D01*
X134500000Y-119000000D02*
X134500000Y-119660000D01*
X135750000Y-125960000D02*
X135750000Y-119660000D01*
X133250000Y-125960000D02*
X135750000Y-125960000D01*
X133250000Y-119660000D02*
X133250000Y-125960000D01*
X135750000Y-119660000D02*
X133250000Y-119660000D01*
X129500000Y-94620000D02*
X129500000Y-93960000D01*
X129500000Y-87000000D02*
X129500000Y-87660000D01*
X130750000Y-93960000D02*
X130750000Y-87660000D01*
X128250000Y-93960000D02*
X130750000Y-93960000D01*
X128250000Y-87660000D02*
X128250000Y-93960000D01*
X130750000Y-87660000D02*
X128250000Y-87660000D01*
X131000000Y-118880000D02*
X131000000Y-119540000D01*
X131000000Y-126500000D02*
X131000000Y-125840000D01*
X129750000Y-119540000D02*
X129750000Y-125840000D01*
X132250000Y-119540000D02*
X129750000Y-119540000D01*
X132250000Y-125840000D02*
X132250000Y-119540000D01*
X129750000Y-125840000D02*
X132250000Y-125840000D01*
X146500000Y-61880000D02*
X146500000Y-62540000D01*
X146500000Y-69500000D02*
X146500000Y-68840000D01*
X145250000Y-62540000D02*
X145250000Y-68840000D01*
X147750000Y-62540000D02*
X145250000Y-62540000D01*
X147750000Y-68840000D02*
X147750000Y-62540000D01*
X145250000Y-68840000D02*
X147750000Y-68840000D01*
X147500000Y-87880000D02*
X147500000Y-88540000D01*
X147500000Y-95500000D02*
X147500000Y-94840000D01*
X146250000Y-88540000D02*
X146250000Y-94840000D01*
X148750000Y-88540000D02*
X146250000Y-88540000D01*
X148750000Y-94840000D02*
X148750000Y-88540000D01*
X146250000Y-94840000D02*
X148750000Y-94840000D01*
X151500000Y-95620000D02*
X151500000Y-94960000D01*
X151500000Y-88000000D02*
X151500000Y-88660000D01*
X152750000Y-94960000D02*
X152750000Y-88660000D01*
X150250000Y-94960000D02*
X152750000Y-94960000D01*
X150250000Y-88660000D02*
X150250000Y-94960000D01*
X152750000Y-88660000D02*
X150250000Y-88660000D01*
X150500000Y-69620000D02*
X150500000Y-68960000D01*
X150500000Y-62000000D02*
X150500000Y-62660000D01*
X151750000Y-68960000D02*
X151750000Y-62660000D01*
X149250000Y-68960000D02*
X151750000Y-68960000D01*
X149250000Y-62660000D02*
X149250000Y-68960000D01*
X151750000Y-62660000D02*
X149250000Y-62660000D01*
X143500000Y-126620000D02*
X143500000Y-125960000D01*
X143500000Y-119000000D02*
X143500000Y-119660000D01*
X144750000Y-125960000D02*
X144750000Y-119660000D01*
X142250000Y-125960000D02*
X144750000Y-125960000D01*
X142250000Y-119660000D02*
X142250000Y-125960000D01*
X144750000Y-119660000D02*
X142250000Y-119660000D01*
X139500000Y-118880000D02*
X139500000Y-119540000D01*
X139500000Y-126500000D02*
X139500000Y-125840000D01*
X138250000Y-119540000D02*
X138250000Y-125840000D01*
X140750000Y-119540000D02*
X138250000Y-119540000D01*
X140750000Y-125840000D02*
X140750000Y-119540000D01*
X138250000Y-125840000D02*
X140750000Y-125840000D01*
X127500000Y-118880000D02*
X127500000Y-119540000D01*
X127500000Y-126500000D02*
X127500000Y-125840000D01*
X126250000Y-119540000D02*
X126250000Y-125840000D01*
X128750000Y-119540000D02*
X126250000Y-119540000D01*
X128750000Y-125840000D02*
X128750000Y-119540000D01*
X126250000Y-125840000D02*
X128750000Y-125840000D01*
X128000000Y-107620000D02*
X128000000Y-106960000D01*
X128000000Y-100000000D02*
X128000000Y-100660000D01*
X129250000Y-106960000D02*
X129250000Y-100660000D01*
X126750000Y-106960000D02*
X129250000Y-106960000D01*
X126750000Y-100660000D02*
X126750000Y-106960000D01*
X129250000Y-100660000D02*
X126750000Y-100660000D01*
X132000000Y-107620000D02*
X132000000Y-106960000D01*
X132000000Y-100000000D02*
X132000000Y-100660000D01*
X133250000Y-106960000D02*
X133250000Y-100660000D01*
X130750000Y-106960000D02*
X133250000Y-106960000D01*
X130750000Y-100660000D02*
X130750000Y-106960000D01*
X133250000Y-100660000D02*
X130750000Y-100660000D01*
X148500000Y-126620000D02*
X148500000Y-125960000D01*
X148500000Y-119000000D02*
X148500000Y-119660000D01*
X149750000Y-125960000D02*
X149750000Y-119660000D01*
X147250000Y-125960000D02*
X149750000Y-125960000D01*
X147250000Y-119660000D02*
X147250000Y-125960000D01*
X149750000Y-119660000D02*
X147250000Y-119660000D01*
X134483625Y-129746375D02*
G75*
G02X132730000Y-133980000I-1753625J-1753625D01*
G01*
X130976375Y-129746375D02*
G75*
G03X132730000Y-133980000I1753625J-1753625D01*
G01*
X134500000Y-129750000D02*
X131000000Y-129750000D01*
X142983625Y-129746375D02*
G75*
G02X141230000Y-133980000I-1753625J-1753625D01*
G01*
X139476375Y-129746375D02*
G75*
G03X141230000Y-133980000I1753625J-1753625D01*
G01*
X143000000Y-129750000D02*
X139500000Y-129750000D01*
X136960000Y-54500000D02*
X136960000Y-54500000D01*
X136960000Y-50690000D02*
X136960000Y-54500000D01*
X136960000Y-50690000D02*
X136960000Y-50690000D01*
X136960000Y-54500000D02*
X136960000Y-50690000D01*
X139500000Y-54500000D02*
X139500000Y-54500000D01*
X139500000Y-50690000D02*
X139500000Y-54500000D01*
X139500000Y-50690000D02*
X139500000Y-50690000D01*
X139500000Y-54500000D02*
X139500000Y-50690000D01*
X136730000Y-50690000D02*
X136330000Y-50690000D01*
X136730000Y-49690000D02*
X136730000Y-50690000D01*
X136330000Y-49690000D02*
X136730000Y-49690000D01*
X136330000Y-50690000D02*
X136330000Y-49690000D01*
X139730000Y-50690000D02*
X136730000Y-50690000D01*
X136730000Y-50690000D02*
X136730000Y-46890000D01*
X139730000Y-50690000D02*
X139730000Y-46890000D01*
X136730000Y-46890000D02*
G75*
G02X139730000Y-46890000I1500000J0D01*
G01*
X136000000Y-112190000D02*
X138000000Y-112190000D01*
X136000000Y-111990000D02*
X138000000Y-111990000D01*
X136000000Y-112090000D02*
X138000000Y-112090000D01*
X137000000Y-106880000D02*
X137000000Y-108690000D01*
X137000000Y-114500000D02*
X137000000Y-112690000D01*
X136000000Y-108690000D02*
X136000000Y-112690000D01*
X138000000Y-108690000D02*
X136000000Y-108690000D01*
X138000000Y-112690000D02*
X138000000Y-108690000D01*
X136000000Y-112690000D02*
X138000000Y-112690000D01*
X141500000Y-109310000D02*
X139500000Y-109310000D01*
X141500000Y-109510000D02*
X139500000Y-109510000D01*
X141500000Y-109410000D02*
X139500000Y-109410000D01*
X140500000Y-114620000D02*
X140500000Y-112810000D01*
X140500000Y-107000000D02*
X140500000Y-108810000D01*
X141500000Y-112810000D02*
X141500000Y-108810000D01*
X139500000Y-112810000D02*
X141500000Y-112810000D01*
X139500000Y-108810000D02*
X139500000Y-112810000D01*
X141500000Y-108810000D02*
X139500000Y-108810000D01*
X142050000Y-89950000D02*
X142050000Y-86550000D01*
X139950000Y-89950000D02*
X142050000Y-89950000D01*
X139950000Y-86550000D02*
X139950000Y-89950000D01*
X142050000Y-86550000D02*
X139950000Y-86550000D01*
X165450000Y-76550000D02*
X165450000Y-79950000D01*
X167550000Y-76550000D02*
X165450000Y-76550000D01*
X167550000Y-79950000D02*
X167550000Y-76550000D01*
X165450000Y-79950000D02*
X167550000Y-79950000D01*
X138750000Y-97500000D02*
X138750000Y-103500000D01*
X141250000Y-97500000D02*
X138750000Y-97500000D01*
X141250000Y-103500000D02*
X141250000Y-97500000D01*
X138750000Y-103500000D02*
X141250000Y-103500000D01*
X132750000Y-62500000D02*
X132750000Y-68500000D01*
X135250000Y-62500000D02*
X132750000Y-62500000D01*
X135250000Y-68500000D02*
X135250000Y-62500000D01*
X132750000Y-68500000D02*
X135250000Y-68500000D01*
X129750000Y-83000000D02*
X129750000Y-77000000D01*
X127250000Y-83000000D02*
X129750000Y-83000000D01*
X127250000Y-77000000D02*
X127250000Y-83000000D01*
X129750000Y-77000000D02*
X127250000Y-77000000D01*
X136750000Y-62500000D02*
X136750000Y-68500000D01*
X139250000Y-62500000D02*
X136750000Y-62500000D01*
X139250000Y-68500000D02*
X139250000Y-62500000D01*
X136750000Y-68500000D02*
X139250000Y-68500000D01*
X134750000Y-97500000D02*
X134750000Y-103500000D01*
X137250000Y-97500000D02*
X134750000Y-97500000D01*
X137250000Y-103500000D02*
X137250000Y-97500000D01*
X134750000Y-103500000D02*
X137250000Y-103500000D01*
X143250000Y-68500000D02*
X143250000Y-62500000D01*
X140750000Y-68500000D02*
X143250000Y-68500000D01*
X140750000Y-62500000D02*
X140750000Y-68500000D01*
X143250000Y-62500000D02*
X140750000Y-62500000D01*
X126750000Y-109500000D02*
X126750000Y-115500000D01*
X129250000Y-109500000D02*
X126750000Y-109500000D01*
X129250000Y-115500000D02*
X129250000Y-109500000D01*
X126750000Y-115500000D02*
X129250000Y-115500000D01*
X130750000Y-109500000D02*
X130750000Y-115500000D01*
X133250000Y-109500000D02*
X130750000Y-109500000D01*
X133250000Y-115500000D02*
X133250000Y-109500000D01*
X130750000Y-115500000D02*
X133250000Y-115500000D01*
X146250000Y-115000000D02*
X146250000Y-109000000D01*
X143750000Y-115000000D02*
X146250000Y-115000000D01*
X143750000Y-109000000D02*
X143750000Y-115000000D01*
X146250000Y-109000000D02*
X143750000Y-109000000D01*
D14*
X156047142Y-97917380D02*
X156047142Y-96917380D01*
X156618571Y-97917380D01*
X156618571Y-96917380D01*
X157094761Y-96917380D02*
X157094761Y-97726904D01*
X157142380Y-97822142D01*
X157190000Y-97869761D01*
X157285238Y-97917380D01*
X157475714Y-97917380D01*
X157570952Y-97869761D01*
X157618571Y-97822142D01*
X157666190Y-97726904D01*
X157666190Y-96917380D01*
X158713809Y-97822142D02*
X158666190Y-97869761D01*
X158523333Y-97917380D01*
X158428095Y-97917380D01*
X158285238Y-97869761D01*
X158190000Y-97774523D01*
X158142380Y-97679285D01*
X158094761Y-97488809D01*
X158094761Y-97345952D01*
X158142380Y-97155476D01*
X158190000Y-97060238D01*
X158285238Y-96965000D01*
X158428095Y-96917380D01*
X158523333Y-96917380D01*
X158666190Y-96965000D01*
X158713809Y-97012619D01*
X159618571Y-97917380D02*
X159142380Y-97917380D01*
X159142380Y-96917380D01*
X159951904Y-97393571D02*
X160285238Y-97393571D01*
X160428095Y-97917380D02*
X159951904Y-97917380D01*
X159951904Y-96917380D01*
X160428095Y-96917380D01*
X161047142Y-96917380D02*
X161237619Y-96917380D01*
X161332857Y-96965000D01*
X161428095Y-97060238D01*
X161475714Y-97250714D01*
X161475714Y-97584047D01*
X161428095Y-97774523D01*
X161332857Y-97869761D01*
X161237619Y-97917380D01*
X161047142Y-97917380D01*
X160951904Y-97869761D01*
X160856666Y-97774523D01*
X160809047Y-97584047D01*
X160809047Y-97250714D01*
X160856666Y-97060238D01*
X160951904Y-96965000D01*
X161047142Y-96917380D01*
X161904285Y-97536428D02*
X162666190Y-97536428D01*
X163618571Y-97917380D02*
X163142380Y-97917380D01*
X163142380Y-96917380D01*
X164380476Y-97250714D02*
X164380476Y-97917380D01*
X164142380Y-96869761D02*
X163904285Y-97584047D01*
X164523333Y-97584047D01*
X164809047Y-96917380D02*
X165428095Y-96917380D01*
X165094761Y-97298333D01*
X165237619Y-97298333D01*
X165332857Y-97345952D01*
X165380476Y-97393571D01*
X165428095Y-97488809D01*
X165428095Y-97726904D01*
X165380476Y-97822142D01*
X165332857Y-97869761D01*
X165237619Y-97917380D01*
X164951904Y-97917380D01*
X164856666Y-97869761D01*
X164809047Y-97822142D01*
X165809047Y-97012619D02*
X165856666Y-96965000D01*
X165951904Y-96917380D01*
X166190000Y-96917380D01*
X166285238Y-96965000D01*
X166332857Y-97012619D01*
X166380476Y-97107857D01*
X166380476Y-97203095D01*
X166332857Y-97345952D01*
X165761428Y-97917380D01*
X166380476Y-97917380D01*
X166809047Y-97917380D02*
X166809047Y-96917380D01*
X167380476Y-97917380D02*
X166951904Y-97345952D01*
X167380476Y-96917380D02*
X166809047Y-97488809D01*
X168380476Y-97822142D02*
X168332857Y-97869761D01*
X168190000Y-97917380D01*
X168094761Y-97917380D01*
X167951904Y-97869761D01*
X167856666Y-97774523D01*
X167809047Y-97679285D01*
X167761428Y-97488809D01*
X167761428Y-97345952D01*
X167809047Y-97155476D01*
X167856666Y-97060238D01*
X167951904Y-96965000D01*
X168094761Y-96917380D01*
X168190000Y-96917380D01*
X168332857Y-96965000D01*
X168380476Y-97012619D01*
D10*
X147202380Y-141014881D02*
X147345238Y-141062500D01*
X147583333Y-141062500D01*
X147678571Y-141014881D01*
X147726190Y-140967262D01*
X147773809Y-140872024D01*
X147773809Y-140776786D01*
X147726190Y-140681548D01*
X147678571Y-140633929D01*
X147583333Y-140586310D01*
X147392857Y-140538691D01*
X147297619Y-140491072D01*
X147250000Y-140443453D01*
X147202380Y-140348215D01*
X147202380Y-140252977D01*
X147250000Y-140157739D01*
X147297619Y-140110120D01*
X147392857Y-140062500D01*
X147630952Y-140062500D01*
X147773809Y-140110120D01*
X148107142Y-140062500D02*
X148345238Y-141062500D01*
X148535714Y-140348215D01*
X148726190Y-141062500D01*
X148964285Y-140062500D01*
X149107142Y-141157739D02*
X149869047Y-141157739D01*
X150107142Y-141062500D02*
X150107142Y-140062500D01*
X150488095Y-140062500D01*
X150583333Y-140110120D01*
X150630952Y-140157739D01*
X150678571Y-140252977D01*
X150678571Y-140395834D01*
X150630952Y-140491072D01*
X150583333Y-140538691D01*
X150488095Y-140586310D01*
X150107142Y-140586310D01*
X151535714Y-140395834D02*
X151535714Y-141062500D01*
X151107142Y-140395834D02*
X151107142Y-140919643D01*
X151154761Y-141014881D01*
X151250000Y-141062500D01*
X151392857Y-141062500D01*
X151488095Y-141014881D01*
X151535714Y-140967262D01*
X151964285Y-141014881D02*
X152059523Y-141062500D01*
X152250000Y-141062500D01*
X152345238Y-141014881D01*
X152392857Y-140919643D01*
X152392857Y-140872024D01*
X152345238Y-140776786D01*
X152250000Y-140729167D01*
X152107142Y-140729167D01*
X152011904Y-140681548D01*
X151964285Y-140586310D01*
X151964285Y-140538691D01*
X152011904Y-140443453D01*
X152107142Y-140395834D01*
X152250000Y-140395834D01*
X152345238Y-140443453D01*
X152821428Y-141062500D02*
X152821428Y-140062500D01*
X153250000Y-141062500D02*
X153250000Y-140538691D01*
X153202380Y-140443453D01*
X153107142Y-140395834D01*
X152964285Y-140395834D01*
X152869047Y-140443453D01*
X152821428Y-140491072D01*
X148916666Y-144724761D02*
X149059523Y-144772380D01*
X149297619Y-144772380D01*
X149392857Y-144724761D01*
X149440476Y-144677142D01*
X149488095Y-144581904D01*
X149488095Y-144486666D01*
X149440476Y-144391428D01*
X149392857Y-144343809D01*
X149297619Y-144296190D01*
X149107142Y-144248571D01*
X149011904Y-144200952D01*
X148964285Y-144153333D01*
X148916666Y-144058095D01*
X148916666Y-143962857D01*
X148964285Y-143867619D01*
X149011904Y-143820000D01*
X149107142Y-143772380D01*
X149345238Y-143772380D01*
X149488095Y-143820000D01*
X149821428Y-143772380D02*
X150059523Y-144772380D01*
X150250000Y-144058095D01*
X150440476Y-144772380D01*
X150678571Y-143772380D01*
X151583333Y-144772380D02*
X151011904Y-144772380D01*
X151297619Y-144772380D02*
X151297619Y-143772380D01*
X151202380Y-143915238D01*
X151107142Y-144010476D01*
X151011904Y-144058095D01*
D14*
X144275721Y-145891573D02*
X144275721Y-145662983D01*
X144412875Y-145937291D02*
X143932835Y-145777278D01*
X144412875Y-145617264D01*
X144092849Y-145251520D02*
X144412875Y-145251520D01*
X144092849Y-145457251D02*
X144344298Y-145457251D01*
X144390016Y-145434392D01*
X144412875Y-145388674D01*
X144412875Y-145320097D01*
X144390016Y-145274379D01*
X144367157Y-145251520D01*
X144412875Y-144817198D02*
X143932835Y-144817198D01*
X144390016Y-144817198D02*
X144412875Y-144862916D01*
X144412875Y-144954352D01*
X144390016Y-145000070D01*
X144367157Y-145022929D01*
X144321439Y-145045788D01*
X144184285Y-145045788D01*
X144138567Y-145022929D01*
X144115708Y-145000070D01*
X144092849Y-144954352D01*
X144092849Y-144862916D01*
X144115708Y-144817198D01*
X144412875Y-144588607D02*
X144092849Y-144588607D01*
X143932835Y-144588607D02*
X143955695Y-144611466D01*
X143978554Y-144588607D01*
X143955695Y-144565748D01*
X143932835Y-144588607D01*
X143978554Y-144588607D01*
X144412875Y-144291440D02*
X144390016Y-144337158D01*
X144367157Y-144360017D01*
X144321439Y-144382876D01*
X144184285Y-144382876D01*
X144138567Y-144360017D01*
X144115708Y-144337158D01*
X144092849Y-144291440D01*
X144092849Y-144222863D01*
X144115708Y-144177144D01*
X144138567Y-144154285D01*
X144184285Y-144131426D01*
X144321439Y-144131426D01*
X144367157Y-144154285D01*
X144390016Y-144177144D01*
X144412875Y-144222863D01*
X144412875Y-144291440D01*
X143932835Y-143788541D02*
X144275721Y-143788541D01*
X144344298Y-143811400D01*
X144390016Y-143857118D01*
X144412875Y-143925695D01*
X144412875Y-143971413D01*
X144412875Y-143354219D02*
X144161426Y-143354219D01*
X144115708Y-143377078D01*
X144092849Y-143422796D01*
X144092849Y-143514232D01*
X144115708Y-143559950D01*
X144390016Y-143354219D02*
X144412875Y-143399937D01*
X144412875Y-143514232D01*
X144390016Y-143559950D01*
X144344298Y-143582809D01*
X144298580Y-143582809D01*
X144252862Y-143559950D01*
X144230003Y-143514232D01*
X144230003Y-143399937D01*
X144207144Y-143354219D01*
X144390016Y-142919897D02*
X144412875Y-142965615D01*
X144412875Y-143057051D01*
X144390016Y-143102769D01*
X144367157Y-143125628D01*
X144321439Y-143148487D01*
X144184285Y-143148487D01*
X144138567Y-143125628D01*
X144115708Y-143102769D01*
X144092849Y-143057051D01*
X144092849Y-142965615D01*
X144115708Y-142919897D01*
X144412875Y-142714165D02*
X143932835Y-142714165D01*
X144230003Y-142668447D02*
X144412875Y-142531293D01*
X144092849Y-142531293D02*
X144275721Y-142714165D01*
X144092849Y-142119830D02*
X144412875Y-142119830D01*
X143909976Y-142234125D02*
X144252862Y-142348421D01*
X144252862Y-142051253D01*
D10*
X171070952Y-69097619D02*
X171118571Y-69050000D01*
X171213809Y-69002380D01*
X171451904Y-69002380D01*
X171547142Y-69050000D01*
X171594761Y-69097619D01*
X171642380Y-69192857D01*
X171642380Y-69288095D01*
X171594761Y-69430952D01*
X171023333Y-70002380D01*
X171642380Y-70002380D01*
X172499523Y-69335714D02*
X172499523Y-70002380D01*
X172261428Y-68954761D02*
X172023333Y-69669047D01*
X172642380Y-69669047D01*
X173499523Y-70002380D02*
X173023333Y-70002380D01*
X173023333Y-69002380D01*
X174404285Y-69907142D02*
X174356666Y-69954761D01*
X174213809Y-70002380D01*
X174118571Y-70002380D01*
X173975714Y-69954761D01*
X173880476Y-69859523D01*
X173832857Y-69764285D01*
X173785238Y-69573809D01*
X173785238Y-69430952D01*
X173832857Y-69240476D01*
X173880476Y-69145238D01*
X173975714Y-69050000D01*
X174118571Y-69002380D01*
X174213809Y-69002380D01*
X174356666Y-69050000D01*
X174404285Y-69097619D01*
X174737619Y-69002380D02*
X175356666Y-69002380D01*
X175023333Y-69383333D01*
X175166190Y-69383333D01*
X175261428Y-69430952D01*
X175309047Y-69478571D01*
X175356666Y-69573809D01*
X175356666Y-69811904D01*
X175309047Y-69907142D01*
X175261428Y-69954761D01*
X175166190Y-70002380D01*
X174880476Y-70002380D01*
X174785238Y-69954761D01*
X174737619Y-69907142D01*
X175737619Y-69097619D02*
X175785238Y-69050000D01*
X175880476Y-69002380D01*
X176118571Y-69002380D01*
X176213809Y-69050000D01*
X176261428Y-69097619D01*
X176309047Y-69192857D01*
X176309047Y-69288095D01*
X176261428Y-69430952D01*
X175690000Y-70002380D01*
X176309047Y-70002380D01*
X172928095Y-75142380D02*
X172928095Y-75951904D01*
X172975714Y-76047142D01*
X173023333Y-76094761D01*
X173118571Y-76142380D01*
X173309047Y-76142380D01*
X173404285Y-76094761D01*
X173451904Y-76047142D01*
X173499523Y-75951904D01*
X173499523Y-75142380D01*
X173928095Y-75237619D02*
X173975714Y-75190000D01*
X174070952Y-75142380D01*
X174309047Y-75142380D01*
X174404285Y-75190000D01*
X174451904Y-75237619D01*
X174499523Y-75332857D01*
X174499523Y-75428095D01*
X174451904Y-75570952D01*
X173880476Y-76142380D01*
X174499523Y-76142380D01*
X151522380Y-83428095D02*
X150522380Y-83428095D01*
X151236666Y-83094761D01*
X150522380Y-82761428D01*
X151522380Y-82761428D01*
X151427142Y-81713809D02*
X151474761Y-81761428D01*
X151522380Y-81904285D01*
X151522380Y-81999523D01*
X151474761Y-82142380D01*
X151379523Y-82237619D01*
X151284285Y-82285238D01*
X151093809Y-82332857D01*
X150950952Y-82332857D01*
X150760476Y-82285238D01*
X150665238Y-82237619D01*
X150570000Y-82142380D01*
X150522380Y-81999523D01*
X150522380Y-81904285D01*
X150570000Y-81761428D01*
X150617619Y-81713809D01*
X151522380Y-81285238D02*
X150522380Y-81285238D01*
X150522380Y-80904285D01*
X150570000Y-80809047D01*
X150617619Y-80761428D01*
X150712857Y-80713809D01*
X150855714Y-80713809D01*
X150950952Y-80761428D01*
X150998571Y-80809047D01*
X151046190Y-80904285D01*
X151046190Y-81285238D01*
X150522380Y-79856666D02*
X150522380Y-80047142D01*
X150570000Y-80142380D01*
X150617619Y-80190000D01*
X150760476Y-80285238D01*
X150950952Y-80332857D01*
X151331904Y-80332857D01*
X151427142Y-80285238D01*
X151474761Y-80237619D01*
X151522380Y-80142380D01*
X151522380Y-79951904D01*
X151474761Y-79856666D01*
X151427142Y-79809047D01*
X151331904Y-79761428D01*
X151093809Y-79761428D01*
X150998571Y-79809047D01*
X150950952Y-79856666D01*
X150903333Y-79951904D01*
X150903333Y-80142380D01*
X150950952Y-80237619D01*
X150998571Y-80285238D01*
X151093809Y-80332857D01*
X150522380Y-79142380D02*
X150522380Y-79047142D01*
X150570000Y-78951904D01*
X150617619Y-78904285D01*
X150712857Y-78856666D01*
X150903333Y-78809047D01*
X151141428Y-78809047D01*
X151331904Y-78856666D01*
X151427142Y-78904285D01*
X151474761Y-78951904D01*
X151522380Y-79047142D01*
X151522380Y-79142380D01*
X151474761Y-79237619D01*
X151427142Y-79285238D01*
X151331904Y-79332857D01*
X151141428Y-79380476D01*
X150903333Y-79380476D01*
X150712857Y-79332857D01*
X150617619Y-79285238D01*
X150570000Y-79237619D01*
X150522380Y-79142380D01*
X150522380Y-78190000D02*
X150522380Y-78094761D01*
X150570000Y-77999523D01*
X150617619Y-77951904D01*
X150712857Y-77904285D01*
X150903333Y-77856666D01*
X151141428Y-77856666D01*
X151331904Y-77904285D01*
X151427142Y-77951904D01*
X151474761Y-77999523D01*
X151522380Y-78094761D01*
X151522380Y-78190000D01*
X151474761Y-78285238D01*
X151427142Y-78332857D01*
X151331904Y-78380476D01*
X151141428Y-78428095D01*
X150903333Y-78428095D01*
X150712857Y-78380476D01*
X150617619Y-78332857D01*
X150570000Y-78285238D01*
X150522380Y-78190000D01*
X150855714Y-76999523D02*
X151522380Y-76999523D01*
X150474761Y-77237619D02*
X151189047Y-77475714D01*
X151189047Y-76856666D01*
X140572380Y-80951904D02*
X141381904Y-80951904D01*
X141477142Y-80904285D01*
X141524761Y-80856666D01*
X141572380Y-80761428D01*
X141572380Y-80570952D01*
X141524761Y-80475714D01*
X141477142Y-80428095D01*
X141381904Y-80380476D01*
X140572380Y-80380476D01*
X141572380Y-79380476D02*
X141572380Y-79951904D01*
X141572380Y-79666190D02*
X140572380Y-79666190D01*
X140715238Y-79761428D01*
X140810476Y-79856666D01*
X140858095Y-79951904D01*
X130015714Y-128257619D02*
X130063333Y-128210000D01*
X130158571Y-128162380D01*
X130396666Y-128162380D01*
X130491904Y-128210000D01*
X130539523Y-128257619D01*
X130587142Y-128352857D01*
X130587142Y-128448095D01*
X130539523Y-128590952D01*
X129968095Y-129162380D01*
X130587142Y-129162380D01*
X131015714Y-129162380D02*
X131015714Y-128162380D01*
X131587142Y-129162380D01*
X131587142Y-128162380D01*
X131968095Y-128162380D02*
X132634761Y-128162380D01*
X132206190Y-129162380D01*
X133206190Y-128162380D02*
X133301428Y-128162380D01*
X133396666Y-128210000D01*
X133444285Y-128257619D01*
X133491904Y-128352857D01*
X133539523Y-128543333D01*
X133539523Y-128781428D01*
X133491904Y-128971904D01*
X133444285Y-129067142D01*
X133396666Y-129114761D01*
X133301428Y-129162380D01*
X133206190Y-129162380D01*
X133110952Y-129114761D01*
X133063333Y-129067142D01*
X133015714Y-128971904D01*
X132968095Y-128781428D01*
X132968095Y-128543333D01*
X133015714Y-128352857D01*
X133063333Y-128257619D01*
X133110952Y-128210000D01*
X133206190Y-128162380D01*
X134158571Y-128162380D02*
X134253809Y-128162380D01*
X134349047Y-128210000D01*
X134396666Y-128257619D01*
X134444285Y-128352857D01*
X134491904Y-128543333D01*
X134491904Y-128781428D01*
X134444285Y-128971904D01*
X134396666Y-129067142D01*
X134349047Y-129114761D01*
X134253809Y-129162380D01*
X134158571Y-129162380D01*
X134063333Y-129114761D01*
X134015714Y-129067142D01*
X133968095Y-128971904D01*
X133920476Y-128781428D01*
X133920476Y-128543333D01*
X133968095Y-128352857D01*
X134015714Y-128257619D01*
X134063333Y-128210000D01*
X134158571Y-128162380D01*
X135110952Y-128162380D02*
X135206190Y-128162380D01*
X135301428Y-128210000D01*
X135349047Y-128257619D01*
X135396666Y-128352857D01*
X135444285Y-128543333D01*
X135444285Y-128781428D01*
X135396666Y-128971904D01*
X135349047Y-129067142D01*
X135301428Y-129114761D01*
X135206190Y-129162380D01*
X135110952Y-129162380D01*
X135015714Y-129114761D01*
X134968095Y-129067142D01*
X134920476Y-128971904D01*
X134872857Y-128781428D01*
X134872857Y-128543333D01*
X134920476Y-128352857D01*
X134968095Y-128257619D01*
X135015714Y-128210000D01*
X135110952Y-128162380D01*
X132634761Y-135607619D02*
X132539523Y-135560000D01*
X132444285Y-135464761D01*
X132301428Y-135321904D01*
X132206190Y-135274285D01*
X132110952Y-135274285D01*
X132158571Y-135512380D02*
X132063333Y-135464761D01*
X131968095Y-135369523D01*
X131920476Y-135179047D01*
X131920476Y-134845714D01*
X131968095Y-134655238D01*
X132063333Y-134560000D01*
X132158571Y-134512380D01*
X132349047Y-134512380D01*
X132444285Y-134560000D01*
X132539523Y-134655238D01*
X132587142Y-134845714D01*
X132587142Y-135179047D01*
X132539523Y-135369523D01*
X132444285Y-135464761D01*
X132349047Y-135512380D01*
X132158571Y-135512380D01*
X132968095Y-134607619D02*
X133015714Y-134560000D01*
X133110952Y-134512380D01*
X133349047Y-134512380D01*
X133444285Y-134560000D01*
X133491904Y-134607619D01*
X133539523Y-134702857D01*
X133539523Y-134798095D01*
X133491904Y-134940952D01*
X132920476Y-135512380D01*
X133539523Y-135512380D01*
X138515714Y-128257619D02*
X138563333Y-128210000D01*
X138658571Y-128162380D01*
X138896666Y-128162380D01*
X138991904Y-128210000D01*
X139039523Y-128257619D01*
X139087142Y-128352857D01*
X139087142Y-128448095D01*
X139039523Y-128590952D01*
X138468095Y-129162380D01*
X139087142Y-129162380D01*
X139515714Y-129162380D02*
X139515714Y-128162380D01*
X140087142Y-129162380D01*
X140087142Y-128162380D01*
X140468095Y-128162380D02*
X141134761Y-128162380D01*
X140706190Y-129162380D01*
X141706190Y-128162380D02*
X141801428Y-128162380D01*
X141896666Y-128210000D01*
X141944285Y-128257619D01*
X141991904Y-128352857D01*
X142039523Y-128543333D01*
X142039523Y-128781428D01*
X141991904Y-128971904D01*
X141944285Y-129067142D01*
X141896666Y-129114761D01*
X141801428Y-129162380D01*
X141706190Y-129162380D01*
X141610952Y-129114761D01*
X141563333Y-129067142D01*
X141515714Y-128971904D01*
X141468095Y-128781428D01*
X141468095Y-128543333D01*
X141515714Y-128352857D01*
X141563333Y-128257619D01*
X141610952Y-128210000D01*
X141706190Y-128162380D01*
X142658571Y-128162380D02*
X142753809Y-128162380D01*
X142849047Y-128210000D01*
X142896666Y-128257619D01*
X142944285Y-128352857D01*
X142991904Y-128543333D01*
X142991904Y-128781428D01*
X142944285Y-128971904D01*
X142896666Y-129067142D01*
X142849047Y-129114761D01*
X142753809Y-129162380D01*
X142658571Y-129162380D01*
X142563333Y-129114761D01*
X142515714Y-129067142D01*
X142468095Y-128971904D01*
X142420476Y-128781428D01*
X142420476Y-128543333D01*
X142468095Y-128352857D01*
X142515714Y-128257619D01*
X142563333Y-128210000D01*
X142658571Y-128162380D01*
X143610952Y-128162380D02*
X143706190Y-128162380D01*
X143801428Y-128210000D01*
X143849047Y-128257619D01*
X143896666Y-128352857D01*
X143944285Y-128543333D01*
X143944285Y-128781428D01*
X143896666Y-128971904D01*
X143849047Y-129067142D01*
X143801428Y-129114761D01*
X143706190Y-129162380D01*
X143610952Y-129162380D01*
X143515714Y-129114761D01*
X143468095Y-129067142D01*
X143420476Y-128971904D01*
X143372857Y-128781428D01*
X143372857Y-128543333D01*
X143420476Y-128352857D01*
X143468095Y-128257619D01*
X143515714Y-128210000D01*
X143610952Y-128162380D01*
X141134761Y-135607619D02*
X141039523Y-135560000D01*
X140944285Y-135464761D01*
X140801428Y-135321904D01*
X140706190Y-135274285D01*
X140610952Y-135274285D01*
X140658571Y-135512380D02*
X140563333Y-135464761D01*
X140468095Y-135369523D01*
X140420476Y-135179047D01*
X140420476Y-134845714D01*
X140468095Y-134655238D01*
X140563333Y-134560000D01*
X140658571Y-134512380D01*
X140849047Y-134512380D01*
X140944285Y-134560000D01*
X141039523Y-134655238D01*
X141087142Y-134845714D01*
X141087142Y-135179047D01*
X141039523Y-135369523D01*
X140944285Y-135464761D01*
X140849047Y-135512380D01*
X140658571Y-135512380D01*
X142039523Y-135512380D02*
X141468095Y-135512380D01*
X141753809Y-135512380D02*
X141753809Y-134512380D01*
X141658571Y-134655238D01*
X141563333Y-134750476D01*
X141468095Y-134798095D01*
X135634761Y-44258571D02*
X135777619Y-44306190D01*
X135825238Y-44353809D01*
X135872857Y-44449047D01*
X135872857Y-44591904D01*
X135825238Y-44687142D01*
X135777619Y-44734761D01*
X135682380Y-44782380D01*
X135301428Y-44782380D01*
X135301428Y-43782380D01*
X135634761Y-43782380D01*
X135730000Y-43830000D01*
X135777619Y-43877619D01*
X135825238Y-43972857D01*
X135825238Y-44068095D01*
X135777619Y-44163333D01*
X135730000Y-44210952D01*
X135634761Y-44258571D01*
X135301428Y-44258571D01*
X136777619Y-44782380D02*
X136301428Y-44782380D01*
X136301428Y-43782380D01*
X137110952Y-43782380D02*
X137110952Y-44591904D01*
X137158571Y-44687142D01*
X137206190Y-44734761D01*
X137301428Y-44782380D01*
X137491904Y-44782380D01*
X137587142Y-44734761D01*
X137634761Y-44687142D01*
X137682380Y-44591904D01*
X137682380Y-43782380D01*
X139396666Y-44782380D02*
X138920476Y-44782380D01*
X138920476Y-43782380D01*
X139730000Y-44258571D02*
X140063333Y-44258571D01*
X140206190Y-44782380D02*
X139730000Y-44782380D01*
X139730000Y-43782380D01*
X140206190Y-43782380D01*
X140634761Y-44782380D02*
X140634761Y-43782380D01*
X140872857Y-43782380D01*
X141015714Y-43830000D01*
X141110952Y-43925238D01*
X141158571Y-44020476D01*
X141206190Y-44210952D01*
X141206190Y-44353809D01*
X141158571Y-44544285D01*
X141110952Y-44639523D01*
X141015714Y-44734761D01*
X140872857Y-44782380D01*
X140634761Y-44782380D01*
X139048571Y-112380476D02*
X139096190Y-112237619D01*
X139143809Y-112190000D01*
X139239047Y-112142380D01*
X139381904Y-112142380D01*
X139477142Y-112190000D01*
X139524761Y-112237619D01*
X139572380Y-112332857D01*
X139572380Y-112713809D01*
X138572380Y-112713809D01*
X138572380Y-112380476D01*
X138620000Y-112285238D01*
X138667619Y-112237619D01*
X138762857Y-112190000D01*
X138858095Y-112190000D01*
X138953333Y-112237619D01*
X139000952Y-112285238D01*
X139048571Y-112380476D01*
X139048571Y-112713809D01*
X139286666Y-111761428D02*
X139286666Y-111285238D01*
X139572380Y-111856666D02*
X138572380Y-111523333D01*
X139572380Y-111190000D01*
X138572380Y-110999523D02*
X138572380Y-110428095D01*
X139572380Y-110713809D02*
X138572380Y-110713809D01*
X139000952Y-109951904D02*
X138953333Y-110047142D01*
X138905714Y-110094761D01*
X138810476Y-110142380D01*
X138762857Y-110142380D01*
X138667619Y-110094761D01*
X138620000Y-110047142D01*
X138572380Y-109951904D01*
X138572380Y-109761428D01*
X138620000Y-109666190D01*
X138667619Y-109618571D01*
X138762857Y-109570952D01*
X138810476Y-109570952D01*
X138905714Y-109618571D01*
X138953333Y-109666190D01*
X139000952Y-109761428D01*
X139000952Y-109951904D01*
X139048571Y-110047142D01*
X139096190Y-110094761D01*
X139191428Y-110142380D01*
X139381904Y-110142380D01*
X139477142Y-110094761D01*
X139524761Y-110047142D01*
X139572380Y-109951904D01*
X139572380Y-109761428D01*
X139524761Y-109666190D01*
X139477142Y-109618571D01*
X139381904Y-109570952D01*
X139191428Y-109570952D01*
X139096190Y-109618571D01*
X139048571Y-109666190D01*
X139000952Y-109761428D01*
X138572380Y-108666190D02*
X138572380Y-109142380D01*
X139048571Y-109190000D01*
X139000952Y-109142380D01*
X138953333Y-109047142D01*
X138953333Y-108809047D01*
X139000952Y-108713809D01*
X139048571Y-108666190D01*
X139143809Y-108618571D01*
X139381904Y-108618571D01*
X139477142Y-108666190D01*
X139524761Y-108713809D01*
X139572380Y-108809047D01*
X139572380Y-109047142D01*
X139524761Y-109142380D01*
X139477142Y-109190000D01*
X135652380Y-114761904D02*
X134652380Y-114761904D01*
X135652380Y-114190476D02*
X135080952Y-114619047D01*
X134652380Y-114190476D02*
X135223809Y-114761904D01*
D15*
X137361904Y-110980476D02*
X136561904Y-110980476D01*
X136561904Y-110790000D01*
X136600000Y-110675714D01*
X136676190Y-110599523D01*
X136752380Y-110561428D01*
X136904761Y-110523333D01*
X137019047Y-110523333D01*
X137171428Y-110561428D01*
X137247619Y-110599523D01*
X137323809Y-110675714D01*
X137361904Y-110790000D01*
X137361904Y-110980476D01*
X136638095Y-110218571D02*
X136600000Y-110180476D01*
X136561904Y-110104285D01*
X136561904Y-109913809D01*
X136600000Y-109837619D01*
X136638095Y-109799523D01*
X136714285Y-109761428D01*
X136790476Y-109761428D01*
X136904761Y-109799523D01*
X137361904Y-110256666D01*
X137361904Y-109761428D01*
D10*
X138308571Y-112500476D02*
X138356190Y-112357619D01*
X138403809Y-112310000D01*
X138499047Y-112262380D01*
X138641904Y-112262380D01*
X138737142Y-112310000D01*
X138784761Y-112357619D01*
X138832380Y-112452857D01*
X138832380Y-112833809D01*
X137832380Y-112833809D01*
X137832380Y-112500476D01*
X137880000Y-112405238D01*
X137927619Y-112357619D01*
X138022857Y-112310000D01*
X138118095Y-112310000D01*
X138213333Y-112357619D01*
X138260952Y-112405238D01*
X138308571Y-112500476D01*
X138308571Y-112833809D01*
X138546666Y-111881428D02*
X138546666Y-111405238D01*
X138832380Y-111976666D02*
X137832380Y-111643333D01*
X138832380Y-111310000D01*
X137832380Y-111119523D02*
X137832380Y-110548095D01*
X138832380Y-110833809D02*
X137832380Y-110833809D01*
X138260952Y-110071904D02*
X138213333Y-110167142D01*
X138165714Y-110214761D01*
X138070476Y-110262380D01*
X138022857Y-110262380D01*
X137927619Y-110214761D01*
X137880000Y-110167142D01*
X137832380Y-110071904D01*
X137832380Y-109881428D01*
X137880000Y-109786190D01*
X137927619Y-109738571D01*
X138022857Y-109690952D01*
X138070476Y-109690952D01*
X138165714Y-109738571D01*
X138213333Y-109786190D01*
X138260952Y-109881428D01*
X138260952Y-110071904D01*
X138308571Y-110167142D01*
X138356190Y-110214761D01*
X138451428Y-110262380D01*
X138641904Y-110262380D01*
X138737142Y-110214761D01*
X138784761Y-110167142D01*
X138832380Y-110071904D01*
X138832380Y-109881428D01*
X138784761Y-109786190D01*
X138737142Y-109738571D01*
X138641904Y-109690952D01*
X138451428Y-109690952D01*
X138356190Y-109738571D01*
X138308571Y-109786190D01*
X138260952Y-109881428D01*
X137832380Y-108786190D02*
X137832380Y-109262380D01*
X138308571Y-109310000D01*
X138260952Y-109262380D01*
X138213333Y-109167142D01*
X138213333Y-108929047D01*
X138260952Y-108833809D01*
X138308571Y-108786190D01*
X138403809Y-108738571D01*
X138641904Y-108738571D01*
X138737142Y-108786190D01*
X138784761Y-108833809D01*
X138832380Y-108929047D01*
X138832380Y-109167142D01*
X138784761Y-109262380D01*
X138737142Y-109310000D01*
X142752380Y-107261904D02*
X141752380Y-107261904D01*
X142752380Y-106690476D02*
X142180952Y-107119047D01*
X141752380Y-106690476D02*
X142323809Y-107261904D01*
D15*
X140861904Y-111700476D02*
X140061904Y-111700476D01*
X140061904Y-111510000D01*
X140100000Y-111395714D01*
X140176190Y-111319523D01*
X140252380Y-111281428D01*
X140404761Y-111243333D01*
X140519047Y-111243333D01*
X140671428Y-111281428D01*
X140747619Y-111319523D01*
X140823809Y-111395714D01*
X140861904Y-111510000D01*
X140861904Y-111700476D01*
X140861904Y-110481428D02*
X140861904Y-110938571D01*
X140861904Y-110710000D02*
X140061904Y-110710000D01*
X140176190Y-110786190D01*
X140252380Y-110862380D01*
X140290476Y-110938571D01*
D10*
X138152380Y-89892857D02*
X138152380Y-89797619D01*
X138200000Y-89702380D01*
X138247619Y-89654761D01*
X138342857Y-89607142D01*
X138533333Y-89559523D01*
X138771428Y-89559523D01*
X138961904Y-89607142D01*
X139057142Y-89654761D01*
X139104761Y-89702380D01*
X139152380Y-89797619D01*
X139152380Y-89892857D01*
X139104761Y-89988095D01*
X139057142Y-90035714D01*
X138961904Y-90083333D01*
X138771428Y-90130952D01*
X138533333Y-90130952D01*
X138342857Y-90083333D01*
X138247619Y-90035714D01*
X138200000Y-89988095D01*
X138152380Y-89892857D01*
X139057142Y-89130952D02*
X139104761Y-89083333D01*
X139152380Y-89130952D01*
X139104761Y-89178571D01*
X139057142Y-89130952D01*
X139152380Y-89130952D01*
X139152380Y-88130952D02*
X139152380Y-88702380D01*
X139152380Y-88416666D02*
X138152380Y-88416666D01*
X138295238Y-88511904D01*
X138390476Y-88607142D01*
X138438095Y-88702380D01*
X138485714Y-87273809D02*
X139152380Y-87273809D01*
X138485714Y-87702380D02*
X139009523Y-87702380D01*
X139104761Y-87654761D01*
X139152380Y-87559523D01*
X139152380Y-87416666D01*
X139104761Y-87321428D01*
X139057142Y-87273809D01*
X138628571Y-86464285D02*
X138628571Y-86797619D01*
X139152380Y-86797619D02*
X138152380Y-86797619D01*
X138152380Y-86321428D01*
D16*
X141242857Y-88687142D02*
X141275238Y-88719523D01*
X141307619Y-88816666D01*
X141307619Y-88881428D01*
X141275238Y-88978571D01*
X141210476Y-89043333D01*
X141145714Y-89075714D01*
X141016190Y-89108095D01*
X140919047Y-89108095D01*
X140789523Y-89075714D01*
X140724761Y-89043333D01*
X140660000Y-88978571D01*
X140627619Y-88881428D01*
X140627619Y-88816666D01*
X140660000Y-88719523D01*
X140692380Y-88687142D01*
X141307619Y-88039523D02*
X141307619Y-88428095D01*
X141307619Y-88233809D02*
X140627619Y-88233809D01*
X140724761Y-88298571D01*
X140789523Y-88363333D01*
X140821904Y-88428095D01*
X141307619Y-87391904D02*
X141307619Y-87780476D01*
X141307619Y-87586190D02*
X140627619Y-87586190D01*
X140724761Y-87650952D01*
X140789523Y-87715714D01*
X140821904Y-87780476D01*
D10*
X168252380Y-79892857D02*
X168252380Y-79797619D01*
X168300000Y-79702380D01*
X168347619Y-79654761D01*
X168442857Y-79607142D01*
X168633333Y-79559523D01*
X168871428Y-79559523D01*
X169061904Y-79607142D01*
X169157142Y-79654761D01*
X169204761Y-79702380D01*
X169252380Y-79797619D01*
X169252380Y-79892857D01*
X169204761Y-79988095D01*
X169157142Y-80035714D01*
X169061904Y-80083333D01*
X168871428Y-80130952D01*
X168633333Y-80130952D01*
X168442857Y-80083333D01*
X168347619Y-80035714D01*
X168300000Y-79988095D01*
X168252380Y-79892857D01*
X169157142Y-79130952D02*
X169204761Y-79083333D01*
X169252380Y-79130952D01*
X169204761Y-79178571D01*
X169157142Y-79130952D01*
X169252380Y-79130952D01*
X169252380Y-78130952D02*
X169252380Y-78702380D01*
X169252380Y-78416666D02*
X168252380Y-78416666D01*
X168395238Y-78511904D01*
X168490476Y-78607142D01*
X168538095Y-78702380D01*
X168585714Y-77273809D02*
X169252380Y-77273809D01*
X168585714Y-77702380D02*
X169109523Y-77702380D01*
X169204761Y-77654761D01*
X169252380Y-77559523D01*
X169252380Y-77416666D01*
X169204761Y-77321428D01*
X169157142Y-77273809D01*
X168728571Y-76464285D02*
X168728571Y-76797619D01*
X169252380Y-76797619D02*
X168252380Y-76797619D01*
X168252380Y-76321428D01*
D16*
X166127619Y-79367142D02*
X166127619Y-79302380D01*
X166160000Y-79237619D01*
X166192380Y-79205238D01*
X166257142Y-79172857D01*
X166386666Y-79140476D01*
X166548571Y-79140476D01*
X166678095Y-79172857D01*
X166742857Y-79205238D01*
X166775238Y-79237619D01*
X166807619Y-79302380D01*
X166807619Y-79367142D01*
X166775238Y-79431904D01*
X166742857Y-79464285D01*
X166678095Y-79496666D01*
X166548571Y-79529047D01*
X166386666Y-79529047D01*
X166257142Y-79496666D01*
X166192380Y-79464285D01*
X166160000Y-79431904D01*
X166127619Y-79367142D01*
X166742857Y-78849047D02*
X166775238Y-78816666D01*
X166807619Y-78849047D01*
X166775238Y-78881428D01*
X166742857Y-78849047D01*
X166807619Y-78849047D01*
X166807619Y-78169047D02*
X166807619Y-78557619D01*
X166807619Y-78363333D02*
X166127619Y-78363333D01*
X166224761Y-78428095D01*
X166289523Y-78492857D01*
X166321904Y-78557619D01*
X166354285Y-77586190D02*
X166807619Y-77586190D01*
X166354285Y-77877619D02*
X166710476Y-77877619D01*
X166775238Y-77845238D01*
X166807619Y-77780476D01*
X166807619Y-77683333D01*
X166775238Y-77618571D01*
X166742857Y-77586190D01*
X166451428Y-77035714D02*
X166451428Y-77262380D01*
X166807619Y-77262380D02*
X166127619Y-77262380D01*
X166127619Y-76938571D01*
D10*
X177214285Y-149652380D02*
X177214285Y-148652380D01*
X177547619Y-149366666D01*
X177880952Y-148652380D01*
X177880952Y-149652380D01*
X178500000Y-149652380D02*
X178404761Y-149604761D01*
X178357142Y-149557142D01*
X178309523Y-149461904D01*
X178309523Y-149176190D01*
X178357142Y-149080952D01*
X178404761Y-149033333D01*
X178500000Y-148985714D01*
X178642857Y-148985714D01*
X178738095Y-149033333D01*
X178785714Y-149080952D01*
X178833333Y-149176190D01*
X178833333Y-149461904D01*
X178785714Y-149557142D01*
X178738095Y-149604761D01*
X178642857Y-149652380D01*
X178500000Y-149652380D01*
X179690476Y-148985714D02*
X179690476Y-149652380D01*
X179261904Y-148985714D02*
X179261904Y-149509523D01*
X179309523Y-149604761D01*
X179404761Y-149652380D01*
X179547619Y-149652380D01*
X179642857Y-149604761D01*
X179690476Y-149557142D01*
X180166666Y-148985714D02*
X180166666Y-149652380D01*
X180166666Y-149080952D02*
X180214285Y-149033333D01*
X180309523Y-148985714D01*
X180452380Y-148985714D01*
X180547619Y-149033333D01*
X180595238Y-149128571D01*
X180595238Y-149652380D01*
X180928571Y-148985714D02*
X181309523Y-148985714D01*
X181071428Y-148652380D02*
X181071428Y-149509523D01*
X181119047Y-149604761D01*
X181214285Y-149652380D01*
X181309523Y-149652380D01*
X181642857Y-149652380D02*
X181642857Y-148985714D01*
X181642857Y-148652380D02*
X181595238Y-148700000D01*
X181642857Y-148747619D01*
X181690476Y-148700000D01*
X181642857Y-148652380D01*
X181642857Y-148747619D01*
X182119047Y-148985714D02*
X182119047Y-149652380D01*
X182119047Y-149080952D02*
X182166666Y-149033333D01*
X182261904Y-148985714D01*
X182404761Y-148985714D01*
X182500000Y-149033333D01*
X182547619Y-149128571D01*
X182547619Y-149652380D01*
X183452380Y-148985714D02*
X183452380Y-149795238D01*
X183404761Y-149890476D01*
X183357142Y-149938095D01*
X183261904Y-149985714D01*
X183119047Y-149985714D01*
X183023809Y-149938095D01*
X183452380Y-149604761D02*
X183357142Y-149652380D01*
X183166666Y-149652380D01*
X183071428Y-149604761D01*
X183023809Y-149557142D01*
X182976190Y-149461904D01*
X182976190Y-149176190D01*
X183023809Y-149080952D01*
X183071428Y-149033333D01*
X183166666Y-148985714D01*
X183357142Y-148985714D01*
X183452380Y-149033333D01*
X183928571Y-149652380D02*
X183928571Y-148652380D01*
X183928571Y-149128571D02*
X184500000Y-149128571D01*
X184500000Y-149652380D02*
X184500000Y-148652380D01*
X185119047Y-149652380D02*
X185023809Y-149604761D01*
X184976190Y-149557142D01*
X184928571Y-149461904D01*
X184928571Y-149176190D01*
X184976190Y-149080952D01*
X185023809Y-149033333D01*
X185119047Y-148985714D01*
X185261904Y-148985714D01*
X185357142Y-149033333D01*
X185404761Y-149080952D01*
X185452380Y-149176190D01*
X185452380Y-149461904D01*
X185404761Y-149557142D01*
X185357142Y-149604761D01*
X185261904Y-149652380D01*
X185119047Y-149652380D01*
X186023809Y-149652380D02*
X185928571Y-149604761D01*
X185880952Y-149509523D01*
X185880952Y-148652380D01*
X186785714Y-149604761D02*
X186690476Y-149652380D01*
X186500000Y-149652380D01*
X186404761Y-149604761D01*
X186357142Y-149509523D01*
X186357142Y-149128571D01*
X186404761Y-149033333D01*
X186500000Y-148985714D01*
X186690476Y-148985714D01*
X186785714Y-149033333D01*
X186833333Y-149128571D01*
X186833333Y-149223809D01*
X186357142Y-149319047D01*
X181538095Y-145452380D02*
X181538095Y-144452380D01*
X181538095Y-144928571D02*
X182109523Y-144928571D01*
X182109523Y-145452380D02*
X182109523Y-144452380D01*
X183014285Y-144785714D02*
X183014285Y-145452380D01*
X182776190Y-144404761D02*
X182538095Y-145119047D01*
X183157142Y-145119047D01*
X177214285Y-58652380D02*
X177214285Y-57652380D01*
X177547619Y-58366666D01*
X177880952Y-57652380D01*
X177880952Y-58652380D01*
X178500000Y-58652380D02*
X178404761Y-58604761D01*
X178357142Y-58557142D01*
X178309523Y-58461904D01*
X178309523Y-58176190D01*
X178357142Y-58080952D01*
X178404761Y-58033333D01*
X178500000Y-57985714D01*
X178642857Y-57985714D01*
X178738095Y-58033333D01*
X178785714Y-58080952D01*
X178833333Y-58176190D01*
X178833333Y-58461904D01*
X178785714Y-58557142D01*
X178738095Y-58604761D01*
X178642857Y-58652380D01*
X178500000Y-58652380D01*
X179690476Y-57985714D02*
X179690476Y-58652380D01*
X179261904Y-57985714D02*
X179261904Y-58509523D01*
X179309523Y-58604761D01*
X179404761Y-58652380D01*
X179547619Y-58652380D01*
X179642857Y-58604761D01*
X179690476Y-58557142D01*
X180166666Y-57985714D02*
X180166666Y-58652380D01*
X180166666Y-58080952D02*
X180214285Y-58033333D01*
X180309523Y-57985714D01*
X180452380Y-57985714D01*
X180547619Y-58033333D01*
X180595238Y-58128571D01*
X180595238Y-58652380D01*
X180928571Y-57985714D02*
X181309523Y-57985714D01*
X181071428Y-57652380D02*
X181071428Y-58509523D01*
X181119047Y-58604761D01*
X181214285Y-58652380D01*
X181309523Y-58652380D01*
X181642857Y-58652380D02*
X181642857Y-57985714D01*
X181642857Y-57652380D02*
X181595238Y-57700000D01*
X181642857Y-57747619D01*
X181690476Y-57700000D01*
X181642857Y-57652380D01*
X181642857Y-57747619D01*
X182119047Y-57985714D02*
X182119047Y-58652380D01*
X182119047Y-58080952D02*
X182166666Y-58033333D01*
X182261904Y-57985714D01*
X182404761Y-57985714D01*
X182500000Y-58033333D01*
X182547619Y-58128571D01*
X182547619Y-58652380D01*
X183452380Y-57985714D02*
X183452380Y-58795238D01*
X183404761Y-58890476D01*
X183357142Y-58938095D01*
X183261904Y-58985714D01*
X183119047Y-58985714D01*
X183023809Y-58938095D01*
X183452380Y-58604761D02*
X183357142Y-58652380D01*
X183166666Y-58652380D01*
X183071428Y-58604761D01*
X183023809Y-58557142D01*
X182976190Y-58461904D01*
X182976190Y-58176190D01*
X183023809Y-58080952D01*
X183071428Y-58033333D01*
X183166666Y-57985714D01*
X183357142Y-57985714D01*
X183452380Y-58033333D01*
X183928571Y-58652380D02*
X183928571Y-57652380D01*
X183928571Y-58128571D02*
X184500000Y-58128571D01*
X184500000Y-58652380D02*
X184500000Y-57652380D01*
X185119047Y-58652380D02*
X185023809Y-58604761D01*
X184976190Y-58557142D01*
X184928571Y-58461904D01*
X184928571Y-58176190D01*
X184976190Y-58080952D01*
X185023809Y-58033333D01*
X185119047Y-57985714D01*
X185261904Y-57985714D01*
X185357142Y-58033333D01*
X185404761Y-58080952D01*
X185452380Y-58176190D01*
X185452380Y-58461904D01*
X185404761Y-58557142D01*
X185357142Y-58604761D01*
X185261904Y-58652380D01*
X185119047Y-58652380D01*
X186023809Y-58652380D02*
X185928571Y-58604761D01*
X185880952Y-58509523D01*
X185880952Y-57652380D01*
X186785714Y-58604761D02*
X186690476Y-58652380D01*
X186500000Y-58652380D01*
X186404761Y-58604761D01*
X186357142Y-58509523D01*
X186357142Y-58128571D01*
X186404761Y-58033333D01*
X186500000Y-57985714D01*
X186690476Y-57985714D01*
X186785714Y-58033333D01*
X186833333Y-58128571D01*
X186833333Y-58223809D01*
X186357142Y-58319047D01*
X181538095Y-54452380D02*
X181538095Y-53452380D01*
X181538095Y-53928571D02*
X182109523Y-53928571D01*
X182109523Y-54452380D02*
X182109523Y-53452380D01*
X182490476Y-53452380D02*
X183109523Y-53452380D01*
X182776190Y-53833333D01*
X182919047Y-53833333D01*
X183014285Y-53880952D01*
X183061904Y-53928571D01*
X183109523Y-54023809D01*
X183109523Y-54261904D01*
X183061904Y-54357142D01*
X183014285Y-54404761D01*
X182919047Y-54452380D01*
X182633333Y-54452380D01*
X182538095Y-54404761D01*
X182490476Y-54357142D01*
X119214285Y-149652380D02*
X119214285Y-148652380D01*
X119547619Y-149366666D01*
X119880952Y-148652380D01*
X119880952Y-149652380D01*
X120500000Y-149652380D02*
X120404761Y-149604761D01*
X120357142Y-149557142D01*
X120309523Y-149461904D01*
X120309523Y-149176190D01*
X120357142Y-149080952D01*
X120404761Y-149033333D01*
X120500000Y-148985714D01*
X120642857Y-148985714D01*
X120738095Y-149033333D01*
X120785714Y-149080952D01*
X120833333Y-149176190D01*
X120833333Y-149461904D01*
X120785714Y-149557142D01*
X120738095Y-149604761D01*
X120642857Y-149652380D01*
X120500000Y-149652380D01*
X121690476Y-148985714D02*
X121690476Y-149652380D01*
X121261904Y-148985714D02*
X121261904Y-149509523D01*
X121309523Y-149604761D01*
X121404761Y-149652380D01*
X121547619Y-149652380D01*
X121642857Y-149604761D01*
X121690476Y-149557142D01*
X122166666Y-148985714D02*
X122166666Y-149652380D01*
X122166666Y-149080952D02*
X122214285Y-149033333D01*
X122309523Y-148985714D01*
X122452380Y-148985714D01*
X122547619Y-149033333D01*
X122595238Y-149128571D01*
X122595238Y-149652380D01*
X122928571Y-148985714D02*
X123309523Y-148985714D01*
X123071428Y-148652380D02*
X123071428Y-149509523D01*
X123119047Y-149604761D01*
X123214285Y-149652380D01*
X123309523Y-149652380D01*
X123642857Y-149652380D02*
X123642857Y-148985714D01*
X123642857Y-148652380D02*
X123595238Y-148700000D01*
X123642857Y-148747619D01*
X123690476Y-148700000D01*
X123642857Y-148652380D01*
X123642857Y-148747619D01*
X124119047Y-148985714D02*
X124119047Y-149652380D01*
X124119047Y-149080952D02*
X124166666Y-149033333D01*
X124261904Y-148985714D01*
X124404761Y-148985714D01*
X124500000Y-149033333D01*
X124547619Y-149128571D01*
X124547619Y-149652380D01*
X125452380Y-148985714D02*
X125452380Y-149795238D01*
X125404761Y-149890476D01*
X125357142Y-149938095D01*
X125261904Y-149985714D01*
X125119047Y-149985714D01*
X125023809Y-149938095D01*
X125452380Y-149604761D02*
X125357142Y-149652380D01*
X125166666Y-149652380D01*
X125071428Y-149604761D01*
X125023809Y-149557142D01*
X124976190Y-149461904D01*
X124976190Y-149176190D01*
X125023809Y-149080952D01*
X125071428Y-149033333D01*
X125166666Y-148985714D01*
X125357142Y-148985714D01*
X125452380Y-149033333D01*
X125928571Y-149652380D02*
X125928571Y-148652380D01*
X125928571Y-149128571D02*
X126500000Y-149128571D01*
X126500000Y-149652380D02*
X126500000Y-148652380D01*
X127119047Y-149652380D02*
X127023809Y-149604761D01*
X126976190Y-149557142D01*
X126928571Y-149461904D01*
X126928571Y-149176190D01*
X126976190Y-149080952D01*
X127023809Y-149033333D01*
X127119047Y-148985714D01*
X127261904Y-148985714D01*
X127357142Y-149033333D01*
X127404761Y-149080952D01*
X127452380Y-149176190D01*
X127452380Y-149461904D01*
X127404761Y-149557142D01*
X127357142Y-149604761D01*
X127261904Y-149652380D01*
X127119047Y-149652380D01*
X128023809Y-149652380D02*
X127928571Y-149604761D01*
X127880952Y-149509523D01*
X127880952Y-148652380D01*
X128785714Y-149604761D02*
X128690476Y-149652380D01*
X128500000Y-149652380D01*
X128404761Y-149604761D01*
X128357142Y-149509523D01*
X128357142Y-149128571D01*
X128404761Y-149033333D01*
X128500000Y-148985714D01*
X128690476Y-148985714D01*
X128785714Y-149033333D01*
X128833333Y-149128571D01*
X128833333Y-149223809D01*
X128357142Y-149319047D01*
X123538095Y-145452380D02*
X123538095Y-144452380D01*
X123538095Y-144928571D02*
X124109523Y-144928571D01*
X124109523Y-145452380D02*
X124109523Y-144452380D01*
X124538095Y-144547619D02*
X124585714Y-144500000D01*
X124680952Y-144452380D01*
X124919047Y-144452380D01*
X125014285Y-144500000D01*
X125061904Y-144547619D01*
X125109523Y-144642857D01*
X125109523Y-144738095D01*
X125061904Y-144880952D01*
X124490476Y-145452380D01*
X125109523Y-145452380D01*
X119214285Y-58652380D02*
X119214285Y-57652380D01*
X119547619Y-58366666D01*
X119880952Y-57652380D01*
X119880952Y-58652380D01*
X120500000Y-58652380D02*
X120404761Y-58604761D01*
X120357142Y-58557142D01*
X120309523Y-58461904D01*
X120309523Y-58176190D01*
X120357142Y-58080952D01*
X120404761Y-58033333D01*
X120500000Y-57985714D01*
X120642857Y-57985714D01*
X120738095Y-58033333D01*
X120785714Y-58080952D01*
X120833333Y-58176190D01*
X120833333Y-58461904D01*
X120785714Y-58557142D01*
X120738095Y-58604761D01*
X120642857Y-58652380D01*
X120500000Y-58652380D01*
X121690476Y-57985714D02*
X121690476Y-58652380D01*
X121261904Y-57985714D02*
X121261904Y-58509523D01*
X121309523Y-58604761D01*
X121404761Y-58652380D01*
X121547619Y-58652380D01*
X121642857Y-58604761D01*
X121690476Y-58557142D01*
X122166666Y-57985714D02*
X122166666Y-58652380D01*
X122166666Y-58080952D02*
X122214285Y-58033333D01*
X122309523Y-57985714D01*
X122452380Y-57985714D01*
X122547619Y-58033333D01*
X122595238Y-58128571D01*
X122595238Y-58652380D01*
X122928571Y-57985714D02*
X123309523Y-57985714D01*
X123071428Y-57652380D02*
X123071428Y-58509523D01*
X123119047Y-58604761D01*
X123214285Y-58652380D01*
X123309523Y-58652380D01*
X123642857Y-58652380D02*
X123642857Y-57985714D01*
X123642857Y-57652380D02*
X123595238Y-57700000D01*
X123642857Y-57747619D01*
X123690476Y-57700000D01*
X123642857Y-57652380D01*
X123642857Y-57747619D01*
X124119047Y-57985714D02*
X124119047Y-58652380D01*
X124119047Y-58080952D02*
X124166666Y-58033333D01*
X124261904Y-57985714D01*
X124404761Y-57985714D01*
X124500000Y-58033333D01*
X124547619Y-58128571D01*
X124547619Y-58652380D01*
X125452380Y-57985714D02*
X125452380Y-58795238D01*
X125404761Y-58890476D01*
X125357142Y-58938095D01*
X125261904Y-58985714D01*
X125119047Y-58985714D01*
X125023809Y-58938095D01*
X125452380Y-58604761D02*
X125357142Y-58652380D01*
X125166666Y-58652380D01*
X125071428Y-58604761D01*
X125023809Y-58557142D01*
X124976190Y-58461904D01*
X124976190Y-58176190D01*
X125023809Y-58080952D01*
X125071428Y-58033333D01*
X125166666Y-57985714D01*
X125357142Y-57985714D01*
X125452380Y-58033333D01*
X125928571Y-58652380D02*
X125928571Y-57652380D01*
X125928571Y-58128571D02*
X126500000Y-58128571D01*
X126500000Y-58652380D02*
X126500000Y-57652380D01*
X127119047Y-58652380D02*
X127023809Y-58604761D01*
X126976190Y-58557142D01*
X126928571Y-58461904D01*
X126928571Y-58176190D01*
X126976190Y-58080952D01*
X127023809Y-58033333D01*
X127119047Y-57985714D01*
X127261904Y-57985714D01*
X127357142Y-58033333D01*
X127404761Y-58080952D01*
X127452380Y-58176190D01*
X127452380Y-58461904D01*
X127404761Y-58557142D01*
X127357142Y-58604761D01*
X127261904Y-58652380D01*
X127119047Y-58652380D01*
X128023809Y-58652380D02*
X127928571Y-58604761D01*
X127880952Y-58509523D01*
X127880952Y-57652380D01*
X128785714Y-58604761D02*
X128690476Y-58652380D01*
X128500000Y-58652380D01*
X128404761Y-58604761D01*
X128357142Y-58509523D01*
X128357142Y-58128571D01*
X128404761Y-58033333D01*
X128500000Y-57985714D01*
X128690476Y-57985714D01*
X128785714Y-58033333D01*
X128833333Y-58128571D01*
X128833333Y-58223809D01*
X128357142Y-58319047D01*
X123538095Y-54452380D02*
X123538095Y-53452380D01*
X123538095Y-53928571D02*
X124109523Y-53928571D01*
X124109523Y-54452380D02*
X124109523Y-53452380D01*
X125109523Y-54452380D02*
X124538095Y-54452380D01*
X124823809Y-54452380D02*
X124823809Y-53452380D01*
X124728571Y-53595238D01*
X124633333Y-53690476D01*
X124538095Y-53738095D01*
M02*
